<svg viewBox="0 0 30 49" xmlns="http://www.w3.org/2000/svg" fill-rule="evenodd" clip-rule="evenodd" stroke-linejoin="round" stroke-miterlimit="1.414"><path d="M14.314 2.795c-.072.087-.277.18-.36.065.063-.077.217-.066.36-.065m.164.295c-.022.034-.077.034-.066.098-.115.028-.272.185-.393.098a.507.507 0 0 1-.393.131c.172-.223.561-.224.852-.327M5.581 8.191c-.17.059-.196.261-.425.263.093-.12.271-.307.425-.263M4.307 9.793a.456.456 0 0 1-.263.165.445.445 0 0 1 .263-.165m.359.59c-.125.19-.315.317-.524.425-.227.31-.794.553-1.013.98.005.038.059.028.1.033-.032.057-.103.073-.198.065.041-.36.618-.814.949-.981.198-.204.38-.425.686-.522m-.491 1.143c-.109.067-.148.202-.325.197.121-.051.144-.204.325-.197m22.403 1.048c.056-.007.084.055.097 0 .08.183-.26.313-.196.491-.079-.014-.072.059-.164.032-.038-.299.268-.253.263-.523m.457.261c.094.028-.021.106 0 .163-.233.04-.312.234-.525.295.134-.195.345-.312.525-.458m-.556.491c.07.032-.03.164-.099.162.02-.067.069-.104.099-.162m.489.653c-.04.068-.05.166-.162.164-.068.066-.13.355-.36.359.091-.24.299-.524.522-.523m-24.263.164c.05 0 .071.243-.034.196.03-.116.004-.079.034-.196m.524 0c.043.133-.078.38-.262.393.138-.147.122-.218.262-.393m-.166.425c-.148.148-.23.449-.261.72-.012.104.103.278-.065.295-.051-.494.065-.645.195-1.015h.131zm24.167.262c.127.059-.032.055-.064.098-.015.021.015.08 0 .099-.047.051-.143.046-.197.098-.145.137-.118.364-.293.457-.097-.403.28-.61.554-.752m-.064 1.112c.004-.003-.003-.033 0-.033.157-.028-.155.21 0 .033m-.066.981c.002-.08.11-.01.131 0-.035.309-.52.288-.393.653-.531-.181.244-.52.262-.653m-.065 1.177c.036.012.082.058.031.065-.105.179-.255.311-.36.492-.004.104.032.249-.097.227-.152-.411.218-.555.426-.784m-.26.785c.17-.015-.078.088.031.097-.203.211-.465.47-.492.753-.102.001-.101-.099-.098-.163.006-.076.054-.032.067-.065.017-.049-.017-.115 0-.164.081-.228.385-.271.492-.458m-.492 1.046c.039-.006.058.007.064.033-.042.174-.158.278-.229.425.055.032.068.108.132.131-.111.258-.347.589-.493.884-.118.246-.175.553-.423.62-.026.276-.209.659-.36.916-.094-.011-.017-.253 0-.294a.339.339 0 0 1 .132-.164c-.002-.241.059-.418.228-.49.021-.212.273-.465.393-.688-.045-.119.057-.26.163-.325a.57.57 0 0 1 .195-.393c-.027-.049-.104-.048-.162-.066.058-.257.236-.395.36-.589m-1.637 2.682c-.05.048-.028.168-.032.261-.058-.051-.126-.092-.098-.228.058.005.069-.04.13-.033m.131.849h.1c.067.144.017.338-.131.361-.009.121-.072.191-.23.164.046-.234.31-.29.261-.525m-.227.721c.093.006.078.156-.034.131-.005-.06.04-.069.034-.131m-9.32 1.276c-.194.168-.31.579-.621.522.171-.208.358-.404.621-.522m-1.309.229c-.171.097-.274.416-.522.325.072-.122.244-.145.293-.293.1.004.146-.115.229-.032m2.649.065c.028.014.058.028.066.065-.04.211-.117.384-.262.49-.079-.109.062-.236-.066-.294.043-.133.196-.154.262-.261m.066.326c.146.095-.157.375-.132.589-.172-.168.058-.452.132-.589m.161.262c.098.059-.091.323-.161.426.004.063.071.432-.132.392-.032-.307.112-.566.293-.818m0 .654c.149-.007.006.024 0 .066-.014.13.074.445-.064.522.009-.287-.126-.385.064-.588m-2.319.131c-.015.04-.044.068-.099.066.014-.041.041-.069.099-.066m.163 0c.111.06.157-.004.293 0a.318.318 0 0 1-.325.098c.015-.025.034-.053.032-.098m.36.131c.1-.025.038.112.161.065-.056.09-.142.191-.261.132-.015-.117.117-.082.1-.197m.229.032a.143.143 0 0 0 .097.033c-.068.1-.009.381-.165.426.049-.189.015-.266.068-.459m.228.229c.005-.039.061-.028.097-.033-.099.096.031.263-.161.295.085-.082-.072-.215.095-.229.008-.029-.012-.031-.031-.033m-7.685.327h.098c0 .207-.072.343-.098.524.102-.017.105-.135.262-.098-.029.201-.134.323-.13.555.009.031.087.031.096 0 .09.081-.087.173-.13.229-.096-.002-.123-.074-.162-.131.017-.101.025-.212.064-.293-.236-.207-.017-.528 0-.786m6.279.131c-.121.115-.165-.089 0 0m8.504.131c-.091.079-.042.149-.198.196.044.141-.046.405-.26.393.03-.206.135-.344.196-.524.134.028.153-.063.262-.065m-9.452.065c-.086.151-.046.229-.131.36-.026-.016-.055-.034-.099-.032.032-.154.054-.316.23-.328m2.846.197c.152.121-.019.399 0 .523-.215-.103.018-.39 0-.523m-2.094.196c.101.04-.065.215-.131.293-.086.104-.19.249-.326.23.127-.201.322-.331.457-.523m2.354.033c.08.082-.044.238-.098.294.03.071-.003.309-.163.294.007-.275.16-.406.261-.588m.196 0h.098c-.078.324-.238.568-.327.882-.131-.02.052-.239 0-.392.131-.108.185-.294.229-.49m-2.125.065c-.028.068-.098.099-.197.098.058-.041.086-.11.197-.098m.459.099c.111-.011-.181.293-.262.326-.099.04-.225.018-.329.033.089-.226.486-.148.591-.359m-.591.032c-.155.057-.202.375-.391.294.103-.126.174-.283.391-.294m2.323.228c.039-.004.057.008.065.033-.076.239-.106.493-.162.687-.055.178-.112.378-.263.491.147-.344.192-.918.36-1.211m.261.361c-.01.262-.271.557-.327.883 0 .169.086.325-.13.326.02-.351.03-.704.294-.883-.019-.106.022-.152.032-.229.081.007.079-.074.131-.097m-2.485.294c-.102.291-.298.623-.327.883-.078-.274.102-.572.196-.786-.007-.086.046-.107.131-.097m-5.755.359c-.173.277-.196 1.046-.362 1.505-.158-.238.033-.637.066-.818.041-.216.062-.367.196-.589.028-.045-.013-.152.1-.098m4.644.066c-.114.251-.18.672-.197.916.122.055.051-.02.164-.033-.045.199-.234.477-.099.654-.193.079-.131-.398-.032-.491-.005-.06-.111-.02-.131-.065.096-.213-.034-.893.295-.981m3.596 0c.024.284-.226.579-.261.916-.023.124.133.234.032.326-.124-.028-.108-.195-.163-.294.131-.314.185-.709.392-.948m-1.669.13c.18.166-.096.407 0 .589-.189-.138.071-.358 0-.589m-1.045.36c.139.056-.031.178-.065.295-.03.102-.004.325-.098.326-.024.179.041.265.033.426-.121 0-.061-.176-.067-.228-.007-.072-.037-.214.034-.394.005-.01.064-.025.065-.032.033-.126.026-.236.098-.393m1.013.261c-.056.098.003.308-.131.328.079-.136-.067-.302.131-.328m1.636.36c.125.039-.092.372-.066.426.052.154.074.193.034.327-.3-.181-.096-.553.032-.753m-8.143.066c-.233.306.156.684-.162.883.022-.131-.042-.306-.033-.425.002-.072.053-.062.063-.098.038-.111-.092-.34.132-.36m5.233.654c.052-.006.065.214-.033.164-.01-.077.006-.126.033-.164m-4.841 2.06c-.165-.053-.372-.294-.13-.391-.012.16.128.229.293.294-.008.076-.142.031-.163.097m.098-.032h.326c-.003.127-.17.089-.26.131.041-.106-.106-.026-.066-.131m.654.131c.147.009-.234.266-.327.294-.13.039-.317-.022-.327-.131.222-.014.472-.035.654-.163m1.341.097c.132.091-.164.306-.326.23-.006-.072.115-.016.164-.033-.002-.032-.041-.025-.067-.033.005-.126.226-.036.229-.164m-.456.099c-.111.163-.322.225-.525.294-.008-.035-.065-.022-.065-.065.1-.108.29-.152.425-.131.014-.146.069-.048.165-.098m2.19 1.439c.039.013.068.041.064.098-.039-.015-.066-.042-.064-.098m-2.256.981c.111.082-.113.103-.132.163-.112-.082.14-.075.132-.163m4.906.228a6.37 6.37 0 0 1-1.277 1.014c-.071.048-.065.176-.163.196-.084-.003-.128-.047-.132-.13.146-.056.351-.145.459-.229.108-.085.14-.171.261-.23.054-.025.069-.141.099-.163.115-.086.288-.101.391-.196.09-.083.158-.378.362-.262m-2.488.949c.073-.321.357-.429.59-.588.096.114-.115.154-.197.227-.085.081-.128.206-.261.23-.047.008.031.162-.132.131m5.594-.523c.021-.044.069-.061.131-.065-.031.056-.074.125-.131.065m-.689.26c.05.051-.091.19-.195.198-.059.082-.048.235-.228.196.069-.204.279-.266.423-.394m-1.339.524c-.186-.058.261-.158.196 0-.485.048-.802.269-1.179.425-.168-.268.389-.206.623-.326-.144-.08.277-.139.36-.099m-4.382 1.276c-.041.09-.176.085-.295.098.064-.068.2-.063.295-.098m.947 0c.083.014.026.149-.064.098.021-.034.074-.034.064-.098m-1.078.294c.198-.028.139-.185.391-.196-.124.058-.23.281-.391.196m7.424 1.145c.039.043.013.051 0 .098-.036-.007-.024-.065-.067-.066.002-.032.04-.024.067-.032m-1.603.065c.02.009.127.082.132 0 .087.071-.073.166-.198.131.018-.048.048-.082.066-.131m1.373.098c-.005.071-.082.071-.163.065.028-.048.106-.047.163-.065m-4.806 1.504c-.074.1-.21-.037 0 0" fill="#58595b"/><path d="M27.558 18.918c-.147.64-.343 1.276-.523 1.896-.125.428-.254.776-.392 1.178a8.764 8.764 0 0 1-.753 1.602c-.213.357-.417.711-.521 1.112-.858.889-1.303 2.053-1.932 3.107-.192.323-.361.68-.557 1.046-.008.019.017.086 0 .098-.337.298-.469.952-.621 1.439-.171.56-.277 1.054-.391 1.799-.051.315-.167.494-.231.752-.063.268-.03.55-.097.818-.033.135-.116.248-.162.393-.179.564-.325 1.061-.622 1.535-.541-.004-1.06.057-1.57.066-.754.013-1.445-.127-2.224-.098.093-1.512.132-3.045.165-4.382.012-.581-.045-1.165 0-1.863.018-.28.051-.536.032-.916-.014-.253.001-.531 0-.818-.005-.826.185-1.696-.164-2.191-.453-.148-.941-.019-1.375-.13-.14-.038-.258-.158-.39-.197-.173-.051-.329.024-.459-.099-.187.032-.34.098-.523.132-.226.017-.566.002-.884.064-.253.051-.436.277-.619.23-.003-.023-.003-.046-.003-.069a.716.716 0 0 1-.183.087.447.447 0 0 1-.011.113c-.062.231-.3.305-.36.588-.071.333.027.735.097 1.079.031.145.044.273.065.426.037.249.131.512.132.751.004.473-.157.97-.132 1.539.088 1.913.186 3.788.198 5.461-.888-.032-1.961-.01-2.846-.132a2.626 2.626 0 0 1-.915-.294c-.461-.271-.925-.982-1.047-1.635-.042-.225-.009-.404-.031-.687-.034-.386-.091-.84-.132-1.308-.03-.367-.041-.737-.132-1.078-.082-.319-.218-.613-.293-.916-.051-.21-.051-.419-.099-.622-.05-.21-.133-.418-.196-.622-.06-.201-.086-.412-.162-.555-.064-.118-.161-.212-.229-.328-.188-.312-.359-.736-.524-1.112-.004-.01.048-.052.033-.064-.056-.047-.049-.024-.066-.066-.161-.436-.383-.883-.587-1.308-.24-.488-.444-.998-.719-1.472-.496-.844-.98-1.8-1.409-2.845a13.283 13.283 0 0 1-.489-1.504 6.437 6.437 0 0 1-.165-.818c-.04-.302-.133-.579-.196-.883-.208-1.006-.315-2.128-.196-3.269.08-.748.252-1.531.557-2.257.105-.25.217-.586.358-.883.177-.37.313-.668.492-1.015.364-.709.735-1.48 1.21-2.125.2-.271.426-.5.62-.785.038-.038.084-.012.033 0 .209.073.239-.152.328-.262.278-.344.619-.668.981-.98.467-.402.987-.707 1.536-1.047.527-.325 1.107-.652 1.701-.883.62-.241 1.269-.406 1.897-.686.405-.026.802-.138 1.208-.23.844-.186 1.702-.276 2.259-.817.191.044.292.229.457.328.262.153.514.162.621.326.514.038 1.005.243 1.506.36.091.022.177.012.259.033.085.021.026.063.034.066.019.005.056-.047.097-.033.229.073.454.173.688.262.432.161.855.355 1.275.554.212.101.428.188.619.295.228.126.425.273.656.393.646.334 1.294.73 1.833 1.209.366.327.676.691 1.012 1.047.171.18.342.325.492.523.143.192.32.361.458.557.107.154.178.332.294.49.132.18.271.423.358.555.061.094.135.211.197.328.083.156.157.354.326.458-.013.123.088.288.165.457.08.174.152.339.262.426.018.546.419.99.36 1.406.783 2.051.802 4.514.261 6.9m-9.582 17.626c.268-.256.483-.563.948-.621-.301.283-.476.561-.948.621m-.13.032c-.078.027-.195-.018-.296 0 .001-.056-.023-.083-.065-.098a.608.608 0 0 0 .195-.228.336.336 0 0 0-.26.326c-.774.025-1.42-.025-2.157-.032.125-.369.786-.56 1.209-.328.221-.033.49-.064.556 0 .022-.033.121-.23.163-.162.033-.112.139-.179.359-.164-.108.232-.461.366-.423.556.043-.173.269-.166.293-.359.157.048.135-.083.26-.066-.148-.107.216-.148.396-.131-.093.148-.27.214-.362.36.309-.105.329-.389.85-.327-.163.042-.586.609-.718.653m-2.977.328c-.47.403-1.091.751-1.505 1.112.008.057.058.074.132.065-.06.123-.124.09-.229.065-.24-.056-.578.059-.753.131-.061-.145-.35-.054-.522-.033.012-.055-.026-.06-.066-.065a2.807 2.807 0 0 1 1.014-.687c-.017.027-.035.054-.034.098.142.004.121-.053.263-.098-.102-.047.113-.195.231-.229.036-.005.025-.06.029-.098.172.027.184-.143.329-.129-.005-.04-.061-.029-.098-.034.128-.093.392-.455.654-.294-.011.044-.082.027-.131.033-.116.152-.368.276-.523.424-.047.046-.164.12-.099.197.136-.195.522-.324.687-.589.155.026.154-.108.294-.097.073.105-.127.162-.196.228-.292.351-.769.515-1.047.883-.155.008-.184.143-.294.196.009.035.064.022.064.065.32-.082.423-.528.721-.524.03-.116.367-.34.491-.359.159-.2.378-.341.588-.489.161.05.209.049.394.032-.141.057-.19.204-.394.196m-2.124 1.897c-.264-.014-.375.126-.525.229h-.393c.189-.185.344-.336.624-.361.019.068.097-.048.031.066.142-.017.201.009.263-.032.048.014-.014.041 0 .098m-.067.457c-.006.027-.032.034-.032.066.207-.085.509.07.684-.032-.009-.012-.009-.019.003 0h-.003c.014.031.07.103.133-.034.048.014-.003.029 0 .066h.066c-.147.157-.376.235-.524.392.075.089.2.127.359.131a1.239 1.239 0 0 1-.424.033c-.037-.005-.079-.064-.066-.065-.085.003-.383.196-.457.032.074.106-.747.194-.654.065-.219.093-.301.142-.589.132.093-.197.405-.198.491-.328.012-.022-.053-.032-.065-.032-.369.143-.581.507-1.146.36a2.579 2.579 0 0 1 1.079-.72c.011-.003-.004-.026-.016-.032H11.5c.006-.006.01-.003.017 0 .143.004.432-.067.703.032.032-.134.341.037.458-.066m1.112.196c-.002-.031-.039-.025-.065-.032.06-.049.156-.063.262-.066 0-.031-.04-.025-.066-.032-.006-.071.116-.015.164-.032-.172.122-.314.235-.528.325l.004.001h-.01a1.439 1.439 0 0 1-.187.066c.031-.055.099-.071.187-.066l.006-.001c-.094-.032-.094-.107.004-.032.095-.024.086-.155.229-.131m.752-.162c-.153.183-.385.289-.621.392.096-.212.231-.344.621-.392m0 .293c-.066-.069.148-.134.229-.163-.053.077-.168.092-.229.163m.523-.293c-.002.106-.149.069-.229.097-.063.064.106-.136.229-.097m2.029-.066c.235-.007.506-.121.686 0 .078-.031.157-.06.231-.098.204.024.135-.003.291 0-.105.142-.209.185-.226.457-.214.174-.381.175-.72.131.14-.152.324-.263.424-.458-.254.166-.34.301-.557.491-.396.072-.726-.168-.915.066-.764-.108-1.166.057-1.798 0 .199-.216.522-.306.818-.426-.005-.083-.11-.065-.196-.065.578-.11 1.335-.081 1.962-.098m1.373-.818c-.289.169-.434.755-.917.524.287-.221.493-.724.917-.524m-.621-.164c-.08-.028-.227.009-.23-.098.26.01.186-.039.395-.098-.141.069.032.09.094.033.053.064-.21.091-.259.163m.522-.261c.252-.182.413-.376.719-.556.089-.267.307-.32.491-.425.067.065.078.183.13.261-.223.299-.522.439-.816.72-.138-.168-.378.033-.555.033-.011-.058.03-.067.031-.033m1.407-.294c.007.291-.383.3-.751.294.189-.096.349-.463.654-.426.005-.027-.015-.03-.035-.033.064-.06.132.125.132.165m-.23 1.308c.056.178-.194.267-.325.359-.13.241-.38.385-.721.328.165-.054.177-.259.393-.262-.135-.143.424-.28.394-.425.051-.092.145.045.259 0m.163.261c.055.272-.239.417-.522.393.011-.109.182-.341.392-.359-.003-.121.085.008.13-.034m-.097 1.472a.307.307 0 0 1-.228.099c.074.184.094-.021.26 0-.009.095.075.1.065.195-.178.105-.288.278-.588.262.125-.116-.253-.047-.13-.164-.169.085-.393.11-.653.099.378-.269.572-.379 1.012-.524-.664-.097-.781.635-1.538.556.271-.168.564-.31.853-.457.028 0 .024.04.031.065a.563.563 0 0 1 .295-.164c-.236-.014-.452.124-.751.229-.272.095-.396.337-.722.393-.123.022-.283.025-.423.032-.574.03-1.256-.031-1.766.032.028-.094.13-.091.227-.162.127-.095.224-.155.426-.262.142-.076.308-.13.425-.196.05.041.618-.17.556 0 .062-.036.155-.042.229-.066-.102.113-.249.14-.394.229-.216.136-.506.242-.685.36.113.046.355-.06.392-.197.235.058.39-.215.623-.293.101-.035.218-.013.324-.033.117-.022.233-.099.395-.033.062-.005.109-.022.13-.065.082.065-.108.129-.13.196.091.016.203-.148.393-.196.14-.037.396-.011.62-.034.375-.036.59-.21.752.099m-.13 1.472a3.98 3.98 0 0 0-1.179.587c.199.015.22-.15.427-.13.062-.186.62-.309.816-.36.015.098-.202.133-.325.197-.163.082-.275.187-.46.262-.044.032.015.054-.065.098-.104.037-.079-.052-.131-.067-.075.01.004.123.033.132-.22.056-.662.051-.883 0 .206-.133.379-.296.623-.393-.098-.063-.265.062-.393.164-.021.015-.053.091-.067.097-.082.048-.407.068-.226.132-.646.103-.977.045-1.702.13.023-.118-.056-.118-.033 0-.088-.229.394-.325.425-.359.135-.148.395-.146.557-.131-.045-.191-.373-.041-.557.032-.197.08-.568.239-.425.263-.249.143-.583.201-.95.229.199-.206.553-.256.721-.492.032.002.026.041.033.066.487-.36 1.127-.343 1.7-.36.085.008-.045.057 0 .133.175 0 .267-.083.36-.165.127 0 .352.163.459-.032.243.013.361-.048.521.032-.103.017-.212.162-.423.165.031.053.137.034.195.064 0-.031-.042-.025-.065-.034.022-.115.193.022.293-.065.044-.022-.016-.086.033-.162.199-.009.275-.14.393-.229.124.039.166.16.295.196m-.491.752c-.066-.001-.043-.09-.131-.065.038-.269.519-.267.557-.427.013-.048.04.014.097 0-.154.186-.372.306-.523.492m.457.883c-.171.419-.654.608-.948.882-.522.49-.954 1.261-1.863 1.178-.007-.062.07-.039.097-.065.154-.152.3-.326.49-.491.078-.066.156-.126.228-.195.074-.067.066-.104.165-.165.15-.092.322-.237.36-.359.202-.205.593-.349.655-.589.095.047.028.073.064.195.056-.14.086-.306.262-.326.01-.065-.006-.102-.065-.098.063-.089.119-.186.228-.229.102.092.181.212.327.262m-2.943 2.06c-.128-.024-.224.026-.457.033.047-.095.025-.037-.066-.033.204-.477.97-.993 1.536-1.405-.146-.053.083-.108.294-.264.17-.123.423-.284.753-.195-.007.036-.065.022-.065.065-.006.028.013.032.033.033-.209.226-.529.344-.752.557-.007.036.006.057.031.065-.085.076-.221.103-.261.228-.045-.015.002-.029 0-.066-.299.232-.639.569-.98.852-.019.028-.134.119-.066.13m-1.274.033c-.065 0-.042.089-.133.065.465-.486.981-.917 1.506-1.34.216-.224.48-.505.848-.524.11-.007.21.095.329.032.033.11-.102.052-.164.065-.101.157-.411.307-.654.491.006.04.061.028.098.034-.186.074-.406.117-.424.359-.134-.014-.207.034-.197.163-.445.089-.571.855-1.209.655m-.72.065c.039.021-.005-.231-.032-.033-.026-.143.188-.229.325-.361.104-.097.158-.215.329-.26.063-.221.301-.265.391-.458.081.005.101-.051.164-.065a.302.302 0 0 0 .131-.196c.201-.051.399-.331.588-.394.245-.08.428.043.654-.032-.309.193-.563.438-.884.622-.345.453-1.034.725-1.242 1.21-.164-.034-.329.016-.424-.033m-.425.523c.032-.099.196-.349.457-.327-.095.166-.318.206-.457.327m-.229-.621c-.287.179-.59.093-.95.098-.016-.07.118-.025.131-.033.043-.024-.014-.047.032-.098.127-.13.405-.267.623-.458.357-.312.771-.662 1.079-1.014.267-.113.496-.226.784-.098-.244.274-.503.25-.784.589 0 .032.04.026.065.032-.423.046-.478.458-.849.557.019-.029.038-.059 0-.066-.033.244-.442.274-.327.556.261-.231.607-.488.915-.785.103-.098.149-.125.294-.229.118-.085.228-.215.361-.326.216-.183.553-.519.946-.361-.14-.089.051-.065.132-.033-.38.197-.588.518-.914.687-.015.11-.318.147-.329.36-.09-.002-.065.056-.131 0 .017.027.035.054.032.099a1.316 1.316 0 0 0-.652.556c-.166-.043-.371.151-.458-.033m-1.471 0c.007-.041.065-.033.066 0 .183-.362.532-.556.848-.785.136-.236.512-.386.786-.588.078-.058.107-.164.163-.198-.022.013.19-.057.23-.065.151-.024.268.019.423 0-.447.314-.727.742-1.209.949.136.082-.02.056-.131.131-.04.028-.052.127-.098.163-.014.011-.111-.003-.164.033-.112.075-.314.325-.491.23-.144.03-.261.224-.423.13m-.327 0c.108-.129-.133.039-.034-.098-.113.04-.216.088-.393.065.044-.102.068-.017.164-.065-.06-.063-.058-.026-.032-.131.075-.003.073-.045.064-.033.064-.102.334-.23.393-.294.016-.017-.023-.041-.032-.033.094-.073.268-.116.36-.228-.042-.145-.145.059-.097.032-.129.076-.166.085-.329.131v.131c-.116.068-.219.067-.327.163-.039.036-.028.1-.066.131-.003.004-.075-.11-.098.033-.087 0-.042-.138-.131 0-.1-.033.039-.089.067-.1.173-.228.376-.428.653-.554-.127-.087.016-.03.065-.099-.06-.111-.114.056-.195.033.032.195-.563.299-.621.588h-.098c.174.139-.174.038-.164.23-.245-.072-.376-.256-.523-.425.026-.006.03.012.032.032.016-.041.035-.066.065-.163.056-.005.181-.024.197-.033-.008.005.062-.151.099-.163.013-.005.047.048.065.033.032-.031.04-.126.098-.165.174.026.094.011.161-.065.025-.024.078-.009.099-.032.017-.016.049-.151.1-.196a2 2 0 0 1 .195-.13c.04-.018.035-.006.032.001v-.001c.127-.15.33-.155.523-.132-.504.367-.91.612-1.273 1.014.006.026.03.032.03.065.297-.145.392-.221.688-.524.23-.233.553-.495.851-.589.034-.01.017-.028 0-.032.373-.033.377-.07.817 0-.091.139-.317.14-.394.295.093-.045.453-.14.331-.197.182-.042.435-.187.814-.131-.276.317-.819.552-1.209.885-.088.073-.121.135-.229.195-.106.059-.136.188-.228.26-.049.04-.166.056-.23.1-.098.068-.137.187-.26.196m-1.538-.622c-.22-.118-.352-.323-.556-.457-.006-.044.19-.043.065-.099.18-.016.244-.276.491-.262.01-.018-.055-.042-.066-.031.213-.187.573-.182.818-.132-.411.133-.637.455-1.08.556-.015.161.131.175.164.197.037-.006.019-.033 0-.032.14-.112.318-.193.492-.327.197-.155.348-.363.586-.394.136-.018.272.077.427.066-.467.286-.827.676-1.341.915m-.851-.719c.113-.136.298-.405.559-.262.013-.083.029-.018.161-.066.047-.095.024.077-.066.033.04.078.142-.05.197-.065.069.041-.2.191-.229.13-.043.111-.385.412-.622.23m-.327-.328c.121-.227.475-.162.656-.097-.131.06-.473.321-.656.097m-.131-.13c-.048-.122-.116-.298-.066-.425.165-.044.443.038.524-.032.053.064-.12.183-.228.196-.03.133-.084.243-.23.261m-.457-1.078c.129-.287.568-.456.883-.361-.324.081-.512.432-.883.361m.457-.588c-.068.071-.19.113-.294.064a.228.228 0 0 0-.065.097c.018.075.052-.038.098.034-.106.09-.187.206-.361.229.031-.341.305-.46.622-.424m-.097-.916c.24-.165.443-.365.753-.459-.376-.05-.716.562-1.113.294.101-.171.346-.198.522-.294-.152-.07-.416.186-.587.099-.038-.192.118-.188.163-.295.113.023.173.028.262.131.412-.066.889-.07 1.374-.066-.316.274-.752.427-1.112.654.005.061.11.02.129.066.323-.256.674-.416 1.015-.622.031-.017.023-.023 0-.032.138-.115.441-.081.587-.099a.082.082 0 0 1-.04.054c.166-.043.339-.114.533-.054.037-.006.018-.032 0-.032.098-.023.1.048.293 0-.296.281-.76.395-.982.752-.271.119-.545.083-.814.065.368-.251.724-.515 1.143-.719-.195-.063-.238.221-.459.13-.007.019.051.041.067.033-.152.093-.661.253-.751.394-.016.02.05.032.062.032-.195.129-.454.198-.817.163-.047-.094-.107-.174-.228-.195m-.231-1.767a.806.806 0 0 1 .428-.327v-.13c-.196.098-.411.178-.589.293-.099-.046.041-.128 0-.229.132-.064.316-.095.359-.163.285.185.822.052 1.147.131.21-.063-.209.176-.33.195-.036.008-.019.034 0 .034a2.698 2.698 0 0 0-.587.359c-.065 0-.043-.089-.132-.065.082-.089.247-.156.262-.163.024-.014.053-.054.064 0-.029-.12.249-.12.328-.23-.009-.035-.066-.021-.066-.065-.407.141-.43.291-.884.36m.393-1.538c.094.018.148.072.165.165.467-.003.872.198 1.275.097-.397.192-.616.563-1.243.524.115-.234.32-.376.587-.459-.208-.105-.239.127-.489.131-.05-.199-.26-.242-.295-.458m.1-1.635c.256-.224.495-.354.852-.228-.36.241-.742.46-1.083.719.004-.243.05-.332.231-.491m-.034 0h-.131c-.01-.261.145-.357.426-.326.016.223-.338.077-.295.326m4.547-.783c-.107.144-.292.21-.46.294-.138-.034.173-.033.034-.066.063-.048.155-.063.131-.196-.065-.068-.172-.04-.23 0-.138.1-.324.286-.424.391-.255.018-.248.082-.326.165a3.06 3.06 0 0 1-.622-.033c.172-.287.555-.195.753-.555-.332.203-.405.303-.786.423.171.114-.415.15-.588.066.162-.136.385-.371.621-.326.101-.019.066-.176.228-.131-.058-.115-.247.013-.228.033-.29.013-.599.446-.818.358 0 .032.039.026.066.034-.135.068-.374-.041-.588 0 .205-.229.529-.342.782-.523-.46.029-.727.595-1.405.425.093-.056.075-.041.098-.131.036.008.021.066.065.066.006-.053.085-.048.067-.033.383-.296.613-.442 1.175-.427.804.024 1.731.079 2.455.166m2.942-1.669c-.044-.036-.023-.326.067-.327-.028.104-.022.241-.067.327m.36 1.766c-.085.133-.242.194-.491.164.147-.16.263-.221.491-.164m-1.438 0c.285-.097.546-.018.947-.032-.022.075-.108.087-.13.163a1.529 1.529 0 0 0-.95.131c.02-.094.221-.171.133-.262m-2.324 1.112c-.065-.114.016.002.034-.066.04.054-.117.188-.228.197.015-.093.123-.094.194-.131m-2.451 2.061c.023.004.034-.106.003-.087.17-.213.676-.446 1.043-.307-.146.172-.67.49-1.046.394m.393-.459c-.241.11-.437.262-.655.393-.286-.003-.388.035-.619.033.003-.039.057-.028.095-.033.214-.257.624-.616 1.179-.393m-.164-.294c-.061.099-.156-.038-.262 0 .082-.038.126-.115.262-.099-.004.04-.061.028-.1.033.016.041.044.067.1.066m1.538-1.929c.031-.115.145.028.129-.099.028-.006.031.013.032.033.011.045.083.027.131.033.079.061-.214.022-.292.033m-2.586 1.667c.421-.207.943-.581 1.341-.915-.211.093-.425.185-.555.359-.215-.024-.313.177-.457.262-.089.051-.22.053-.296.098-.133.081-.17.209-.325.229-.005.038.006.058.031.065-.097.119-.29-.089-.359-.065.01-.163.2-.247.359-.36.128-.092.266-.237.425-.261-.086-.079.073-.048.097-.065.031-.019.028-.099.068-.132.048-.045.201-.061.293-.13.097-.074.062-.085.197-.131.212-.073.47-.324.622-.458.238-.051.397-.003.655 0-.169.181-.379.318-.655.458.023.09-.067.066-.067.131.226-.077.198-.254.491-.295.195-.316.845-.319 1.275-.262.027.111-.173.126-.262.197-.063.051-.092.013-.195.065a4.61 4.61 0 0 0-.752.491c-.114.039-.265.04-.263.195-.075-.04-.325.109-.456.197-.247.164-.51.335-.719.49-.172-.007-.327 0-.46.033-.044-.068.018-.096-.033-.196m-.161 1.963c-.067-.067.149-.005.161-.066.005-.016-.049-.045-.062-.033.257-.205.591-.324.814-.588-.332.124-.847.351-1.11.654h-.296c.258-.256.619-.471.949-.556.04-.049.095-.08.1-.164.23-.017.553.027.88 0-.608.191-.76.637-1.436.753m0 .654c-.075.017.038.05-.034.098h-.163c.176-.207.402-.362.719-.426-.142.142-.32.249-.522.328m.587-.066c-.079.062-.262.254-.458.164.326-.111.392-.482.851-.458-.045.142-.268.198-.393.294m.589.131c.123-.16.292-.275.491-.36.004-.071-.117-.015-.165-.033.015.027.027.037.034.043.026-.003.017.007 0 0a.219.219 0 0 0-.065.023c-.202.095-.481.34-.817.327.366-.348.752-.544 1.372-.393-.24.175-.432.398-.85.393m.719-.065c-.128-.067.094-.019.099-.034.007-.021-.084-.05-.099-.032.033-.044.067-.066.066-.066.023-.051.14-.144.229-.098.027-.18.122-.075.294-.098-.155.15-.313.297-.589.328m.883-.098c.036.098-.21.058-.359.064.019-.03.092-.049.034-.064.005-.037.031-.019.031 0a.272.272 0 0 1 .196-.1c.008.069.123.033.13.1.307-.029.109.091-.032 0m1.964 1.144c-.4.158-.628.485-1.08.588.29-.283.542-.643 1.08-.588m-1.146.393c-.025.02-.04.081-.065.098.01-.008-.134.008-.129.131-.106.024-.251-.041-.067-.034.101-.151.347-.346.523-.523.115.151-.128.214-.262.328m-.49 0c.012-.064.092.052.065-.098.198.024.071-.121.231-.065-.051-.059.044-.087.161-.131a1.997 1.997 0 0 1-.492.359c-.116.073.124-.073.035-.065m1.144.981c.167-.259.587-.264.784-.492.178-.007.255-.114.426-.131-.323-.023-.582.087-.883.23-.403.19-.587.543-1.175.393a4.02 4.02 0 0 1 .814-.458c-.137-.127-.378.122-.325.098.008.09-.197-.058-.099.033-.087.001-.268.099-.39.163-.061.132-.36.264-.655.262-.025-.1.032-.119.031-.197.313-.079.438-.348.785-.393-.457-.031-.755.379-1.211.458-.09.033.047.09-.032.132-.157-.038-.22-.012-.425-.033-.047-.068.145-.02.165-.032.049-.031.026-.115.064-.164.169-.209.647-.203.752-.458.175.061.23.05.425.097.314-.258.783-.006 1.243-.161.071-.007.103.025.099.096.22-.171.832-.053.979-.195.039.005.02.032 0 .032.065-.021.322.069.427 0h.163c-.004.038-.058.028-.098.032-.106.002-.125.095-.262.065 0 .069-.527.169-.522.327-.112-.006-.017.072-.196.067-.105.168-.539.281-.884.229m.294.458c-.101.052-.168.183-.294.196-.111-.036.09-.011.033-.098.26-.035.312-.277.62-.263-.083.119-.236.1-.359.165m-.13-.132c-.324.198-.519.47-.949.622.269-.255.525-.522.949-.622m-1.113.426c.128-.007.215-.21.426-.229-.156.084-.275.207-.426.294.021-.03.04-.058 0-.065m-1.766.065c.124-.183.35-.159.459-.294a.214.214 0 0 0 .162.033c-.152.204-.422.46-.72.326-.111.029.143-.052.197-.065-.013-.049-.041.013-.098 0m-.391-.13c.189.035.176-.13.358-.099 0-.032-.04-.025-.066-.032.042-.121.197.078.231-.033.023.155-.316.23-.425.359-.106-.06-.018-.11-.098-.195m-.622 0c.054.055.169.029.196-.033.088-.061-.041.099-.064.13.126-.078.214-.197.391-.228-.121.111-.458.271-.458.294-.026.095-.105-.02-.165 0 .07-.087.088-.07.1-.163m-.1-.099c-.182.168-.395.282-.685.196.181-.202.379-.242.685-.196m1.147-1.504c-.098.12-.191.245-.425.228.004-.038.059-.027.098-.032.03-.035.121-.01.098-.098 0-.091-.088.077-.066-.065.051.003.125-.015.129.033.037-.045.174-.117 0-.098.176-.003.222-.124.426-.164-.079.072-.172.133-.26.196m.947.164c.006-.039.06-.028.1-.034.004-.027-.015-.03-.032-.032.005-.037.032-.018.032 0 .08.005.101-.05.131-.098.047.12-.091.103.097.13-.047.076-.226.013-.328.034m-1.307.85c-.019-.031-.09-.05-.033-.065-.011-.101.038-.017.066-.033.209-.124.499-.384.784-.492.014-.054-.121.004-.131.034-.058-.165.274-.037.362-.131.122.027.215.088.391.065-.374.247-.597.266-.851.459-.146.11-.388.273-.752.227.006-.071.081-.069.164-.064m.227-.622c.06-.009.329.1.231 0 .02-.092.053.029.075.057.01-.008.016-.017.023-.025-.006.034-.013.035-.023.025-.099.107-.363.264-.566.336-.212.196-.424.357-.785.326.004-.058-.039-.068-.033-.13.306-.121.391-.318.687-.458.083-.039.218-.119.263-.131.048-.013-.008.066 0 .066.071.005.065-.055.128-.066m1.048-.523c.037-.128.303-.162.424-.228-.005.116-.358.259-.358.392-.105.005-.196.022-.198.131-.13-.024-.186.031-.292.032-.082-.051.092-.018.13-.066.072-.092.078-.293.294-.261m-.36-.131c.039.006.018.034 0 .034.045.034.093-.076.163-.066.146.048-.14.146.033.131-.157.06-.348.086-.392.261-.136-.027-.155.064-.261.066-.045-.113.254-.049.13-.131.141.011.263-.141.327-.295m-.948.099c.038.005.019.033 0 .032.022.099.069-.032.132 0-.098-.14.081.055.065-.097h.129c-.142.064-.236.177-.393.228-.005-.028.015-.031.035-.032.068-.009-.047-.088.032-.131m-1.963.391c.25-.145.27-.219.458-.26-.014-.091.167-.154.329-.164-.247.158-.452.355-.787.424m.59-.098c.03-.024.035-.074.066-.097.174-.145.431-.115.424-.261.374-.028.473.034.816-.034-.21.227-.548.321-.751.555h-.229c.183-.147.316-.33.557-.489-.444.115-.625.47-1.079.489.027-.08.128-.11.196-.163m-.296 1.079c-.094.035-.18.081-.294.099.057-.087-.078-.209-.066-.359.281-.18.612-.477 1.014-.426-.137.244-.527.235-.686.458.248.161.561-.223.755-.361.016-.011.082.018.095 0 .12-.134.424-.168.687-.13-.156.115-.574.22-.556.361-.234.057-.52.32-.949.293-.04.008-.032.065 0 .065m3.401.622c-.289.088-.538.056-.914.033-.087-.037.129-.043.162-.066 0-.031-.039-.024-.064-.032.18-.134.33-.283.686-.327-.084.167-.378.124-.325.425a.593.593 0 0 1 .261-.164c-.05.038-.081.096-.164.098.149.073.237-.198.326-.294.1.115.387-.289.622-.196 0 .179-.616.284-.654.49-.006.031.046.026.064.033m5.593-.327c.165-.022.243-.127.425-.13-.062.105-.268.352-.425.229v-.001c-.01-.008-.024-.019-.032-.032.027-.006.03.011.032.032v.001c.032-.011.032-.089 0-.099m-3.498-.295c.681-.193 1.487.003 2.093-.131.029.026.073.036.129.033.082-.004.058.04 0 .033a2.168 2.168 0 0 0-.457.328c-.09-.08.104-.155.098-.263-.232-.068-.221.245-.36.165v.098c-.153-.013-.093.191-.262.163-.012.078.15-.019.099.098a5.285 5.285 0 0 0 1.047-.622c.045.012.003.059-.032.065.035.094.055-.05.095-.065.048-.015-.004.065 0 .065.019.002.144-.086.263-.098.131-.011.132.042.198-.032-.021.192-.407.289-.589.426-.02.098-.12.072-.263.131-.05.116.11.019.099.097.046-.148.546-.365.785-.491.103-.054.128-.143.195-.163.175-.052.272.003.425 0 .072.053-.211.025-.196.13.091.111.245-.165.361-.032-.009-.079.261-.159.358-.13.046.132-.07.103-.063.195-.423.035-.756.525-1.244.491-.119-.051.076-.049.031-.13.035 0 .028.04.035.065.055-.041.037-.112.098-.163.127-.113.459-.105.424-.263-.214.071-.31.258-.588.263-.129.203-.62.375-.916.196-.439.274-1.375.095-1.863.229.041-.07.09-.128.131-.197-.203-.004-.376.115-.46.131.006-.158.338-.272.525-.359-.371-.168-.626.397-1.014.326.253-.182.482-.388.818-.49-.007-.056.056-.084 0-.099m2.516-1.241c.477-.264.611-.444 1.178-.621-.452.133-.677.639-1.178.621m1.507-.557c-.399.036-.424.549-1.013.524.149-.093.12-.166.291-.229.163-.185.414-.231.557-.359.062.013.196-.046.165.064m.096.262c-.174.202-.369.208-.686.229.235-.156.377-.394.653-.425-.025.1.056.096.033.196m-1.274-.164c.172-.022.286-.107.456-.13-.169.092-.355.167-.456.327a.925.925 0 0 0-.523.294c-.048-.061-.217-.004-.263-.065.009-.043.065-.033.067 0 .042-.101.202-.215.293-.163-.107-.106.253-.146.196-.197.035-.037.291-.042.23-.066m-1.734-.032c.007.071-.026.104-.098.098.221.138.574-.157.884-.098-.016.128-.366.2-.492.327.162.028.271-.133.425-.197.098-.041.229-.034.328-.065.182-.056.346-.124.621-.098-.362.072-.656.496-1.08.556-.558.08-.99.052-1.635.066-.013-.091.123-.031.132-.098-.182-.009-.272.16-.588.13.168-.179.421-.276.553-.491-.355.036-.585.484-1.045.523.464-.403.799-.656 1.537-.686.039.011.016.027 0 .033.107-.037.227-.032.458 0m-1.798-1.407c-.172.112-.305.262-.589.264.178-.108.394-.37.589-.264m-.262.36c.174-.213.489-.44.817-.392-.276.127-.442.364-.817.392m1.11-.262c-.114.098-.307.168-.493.221 0 .003.003.004.003.009-.011.004-.027.003-.046.003l-.116.029c-.005-.052.061-.034.116-.029l.043-.012c-.008-.02-.039-.017-.06-.025.156-.148.412-.196.621-.294.088.038-.108.134-.068.098m1.213.393c-.031.048-.107.047-.165.066-.034-.111.1-.052.165-.066m1.175-.197c-.221-.002-.266.023-.456 0 0-.03.041-.024.065-.03.005-.146.297-.236.358-.427.167.036.356.011.559-.065-.195.155-.415.285-.526.522m1.636-.588c-.026.165-.053.333 0 .49-.319.009-.622.034-.916.068.104-.128.309-.151.327-.362-.26.241-.464.5-.883.362.085-.023.016-.154.097-.068.141-.183.382-.527.884-.457.159.012-.07.098-.064.163.209-.025.305-.318.555-.196m-.522-.882c.139-.023.264.035.26-.066.027.017.053.034.1.033-.301.245-.401.69-.948.686.114-.291.358-.38.588-.653m.522-.558c-.014.048-.028-.002-.066 0 .015.042.043.069.1.066.019.118-.04.159-.067.23-.166.006-.409.078-.522.032.143-.085.377-.253.393-.36.006-.047.096-.011.096-.065.068.009-.046.089.066.097m-.849.198c.201-.201.464-.341.687-.524.084.157-.147.288-.2.49-.214-.014-.355.318-.685.295-.034-.035.187-.229.229-.196.006-.038-.008-.059-.031-.065m-1.439 1.634c.082.071.042-.054.097-.098.008-.006.062.031.099 0a.824.824 0 0 1 .229-.13c.058.19-.313.232-.361.424a.228.228 0 0 1-.165-.03c.016-.051.043.011.101 0 .044-.044.006-.07 0-.166m-.949 0c.201-.223.574-.215.882-.163-.078.141-.26.175-.425.229-.038.13.22.013.098.13.126.013.254-.077.132.034-.629-.046-1.172.076-1.702.032.304-.172.628-.48 1.047-.425-.031.058-.061.114-.163.098.029.111.073.004.131.065m-1.832.492c.577-.082 1.363-.061 2.059-.066-.176.138-.553.252-.653.359-.123.082-.324.09-.361.261-.199.006-.349.095-.684.066.175-.204.483-.277.654-.49.118.022.124-.071.229-.066-.593-.036-.663.624-1.505.556.126-.07.209-.184.358-.228-.156-.009-.208.009-.325.162-.168-.053-.329.113-.59.066-.001-.083.025-.04.065-.033.065-.177.402-.271.623-.392-.096-.082-.236.068-.295.132-.301.047-.505.19-.719.325-.178-.003-.349 0-.459.067-.082-.014.033-.094.1-.067-.007-.037-.062-.026-.1-.032.48-.274 1.055-.803 1.603-.62m-.948.064c.015-.06.293-.135.26-.032-.112-.017-.208.036-.292.098-.242.171-.459.271-.72.424.014.03.029.059.065.066-.062.08-.119-.063-.065.099a3.509 3.509 0 0 0-.59 0c.029-.049.082-.071.165-.067-.021-.032-.077-.033-.066-.098.293-.153.521-.37.85-.49-.008-.045-.082-.026-.13-.032-.009.11-.187.054-.195.163-.572.095-.677.656-1.408.589-.073.077.023-.09.131-.033-.152-.053.097-.166.26-.294.249-.192.511-.4.525-.425.236-.044.267-.022.523-.065-.007.026-.032.033-.031.065.261-.014.463-.112.718-.032.005.001-.005.058 0 .064m-.229-3.596c-.178.071-.27.232-.458.293-.216.295-.636.389-.851.687-.104-.018-.152.023-.23.033.027-.194.233.045.264-.196-.045.137-.075-.002-.132 0-.123.004-.277.076-.456.032.135-.062.144-.145.261-.163-.022-.153.322-.185.327-.327.194-.023.296-.139.393-.261.138.001.279-.11.393-.197.099-.078.318-.181.423-.294.206.037.224.008.361-.066a3.67 3.67 0 0 1-.329.262c-.022.1.057.096.034.197m.654-.656c.038-.087.172 0 .228 0-.051.125-.201.148-.261.263-.071-.076.139-.213.033-.263m.654-.163c.006-.043.135-.061 0-.064.24-.155.467-.32.653-.524-.441-.057-.568.477-.98.556.118-.207.367-.287.459-.523.005-.071-.116-.015-.166-.033-.246.21-.386.53-.85.524.202-.303.661-.265.623-.589.594-.092 1.004.071 1.7.033-.212.169-.321.441-.59.556-.024.029-.034.073-.032.13-.091-.039-.225-.036-.359-.033.163-.196.385-.333.589-.49-.403-.236-.482.549-1.047.457m-1.634-8.535c-.018-.07-.088-.122-.1-.195-.015-.098.043-.197.034-.294-.039-.412-.356-1.06-.131-1.441.029-.049.223-.24.359-.325.06-.038.153-.028.229-.066.087-.044.12-.116.164-.131.232-.075.571-.001.883-.032.258-.027.49-.189.654-.198.301-.015.522.169.783.262-.085.208-.321.269-.392.49.282-.001.378-.533.786-.424a1.571 1.571 0 0 1-.263.294c.213.161.256-.337.556-.294.142.067-.196.184-.26.262.184.196.352-.134.459-.229.177-.006.351-.004.489.032.215.297.122.611.098 1.014-.037.636-.003 1.348.033 2.028.015.29-.055.578-.066.85-.03.841.035 1.673 0 2.518 0 .11-.152.067-.196.131-.062.362-.278.572-.392.883.224.014.122-.136.163-.262.083-.09.193-.205.229-.262.013-.018.004-.064-.033-.032.069-.066.124-.08.229-.098-.018.16-.163.364-.261.589-.083.189-.262.449-.098.589.066-.128.154-.524.261-.589.037-.007.017-.033 0-.033.12-.035.084.399.033.588-.006.026-.068.021-.067.065.006.133-.184.426-.129.655.025.03.06.05.098.065-.082.089-.073.192-.13.36.182-.01.109-.276.161-.327.095.44-.081.811-.031 1.275-1.189.01-2.72-.079-4.021-.165-.054-1.432-.075-3.355-.163-5.133-.019-.33-.054-.646-.034-.947.031-.515.207-.914.066-1.473m-3.5 7.489c.462.069 1.033.117 1.602.195-.047.075-.212.028-.196.166-.192.055-.477.205-.589.261-.025.013-.029.03-.033.065-.115.026-.126-.048-.229-.032.173-.177.435-.263.654-.394-.404-.098-.584.31-.981.328-.038-.02.149-.091.229-.098-.01-.023-.022-.037-.032-.042-.025.004-.018-.011 0 0a.197.197 0 0 0 .066-.023c.038-.02.064-.092.097-.099.047-.009.064-.005.065 0 .069-.092.169-.041.197-.098-.217-.172-.651.284-.85.098-.095-.053.114-.253 0-.327m.097 2.649c-.028-.025-.072-.035-.13-.033-.015-.061-.069-.081-.066-.163.151-.273.601-.426.72-.622.213-.103.389-.243.556-.392-.455.244-.85.545-1.276.818-.003-.371.088-.423.327-.622.278-.23.737-.525 1.047-.686.139.036.312.038.489.033-.107.136-.158.159-.324.262.15.034.37-.18.456-.23.211-.024.333.039.523.032.087.037-.133.039-.064.163-.132.025-.328.172-.295.164-.465.177-.768.518-1.21.719-.153.176-.403.253-.523.459-.116-.007-.195.022-.23.098m10.531-1.865c.176.074-.046.269-.164.262.023-.117.201-.082.164-.262m8.308-20.47c-.004-.828-.038-1.677-.198-2.42-.05-.231-.16-.464-.196-.687-.042-.248-.037-.471-.098-.654-.015-.046-.08-.091-.101-.131-.08-.172-.067-.378-.128-.555-.017-.052-.076-.082-.098-.131-.08-.187-.061-.474-.131-.59-.122-.201-.236-.448-.325-.621-.134-.252-.293-.426-.395-.654-.068-.154-.106-.212-.164-.327-.294-.584-.709-1.054-1.046-1.602h-.131c-.09-.262-.35-.425-.489-.719-.044-.034-.122-.033-.165-.065.01-.118-.098-.121-.098-.23-.276-.165-.435-.468-.688-.687-.198-.175-.466-.294-.684-.456-.041-.031-.051-.102-.098-.132-.121-.081-.273-.152-.393-.231-.115-.071-.249-.192-.391-.162.029-.116-.137-.123-.2-.163-.197-.128-.375-.214-.585-.328-.094-.049-.168-.143-.265-.195-.373-.207-.828-.375-1.208-.556-.135-.065-.278-.165-.392-.196-.609-.166-1.081-.392-1.669-.524-.433-.097-.763-.103-1.111-.229-.032-.101-.118-.124-.164-.13.022-.002.038-.005.033-.033-.602-.031-.79-.474-1.177-.72-.122.227-.301.398-.492.557-.354.183-.709.213-1.143.293-1.209.224-2.377.551-3.304.949-.636.187-1.253.515-1.831.851-.204.1-.512.235-.588.359-.165-.011-.354.236-.589.262-.152.283-.547.325-.653.654-.455.156-.61.611-.982.851.035-.048.034-.081-.033-.098-.167.267-.478.392-.588.718-.113-.025-.042.133-.164.098-.203.384-.5.671-.72 1.015-.073.116-.193.264-.228.358-.025.067.031.072 0 .132-.144.26-.407.481-.392.818-.19.085-.235.311-.296.522-.179.087-.182.311-.261.491-.104.241-.297.469-.294.784-.118-.021-.04.157-.131.164.006.313-.143.468-.229.687.024.007.064.001.066.033-.168.039-.115.279-.164.425-.06.182-.205.442-.131.687-.025.05-.104.049-.099.131-.083.693-.195 1.25-.161 1.929.02.448.07.95.161 1.406.033.158.116.287.132.458.028.261.067.371.098.556.02.114-.027.247 0 .36.009.038.085.092.098.13.033.102.01.216.033.328.04.191.156.375.196.555.071.317.088.65.196.949.12.327.349.596.392.949.146.209.26.453.361.686.109.254.225.472.359.72a42.32 42.32 0 0 1 1.504 2.976c.233.52.47 1.122.686 1.569.034.07.027.18.066.261.119.251.391.414.359.719.261.393.302.875.393 1.341.056.284.214.517.295.785.113.379.134.897.161 1.374.032.487.101.997.135 1.472.009.17-.024.324 0 .49.046.338.25.797.392 1.014.158.248.448.636.62.752.122.082.275.074.392.196-.013-.013.011.102.066.098-.144.04-.06.251-.066.295-.002.013-.07.068-.065.098.021.107.178.193.197.327.01.074-.08.301-.099.524-.027.341-.022.537-.196.653.152.143-.025.401-.032.589.188.302.441.538.62.85-.114.236-.552.308-.817.49-.178.338.058.577.229.753h.295c.132.145.01.363.032.588-.297.084-.587.177-.654.49.156.126.021.24.034.327.229.173.63.176.718.491-.135.497-.938.327-.786 1.113.175.11.363.304.59.26-.027.106.052.102.066.164-.295.494.017.888.36 1.178.094.08.237.116.326.196.218.198.331.444.493.588.235-.022-.046.1.226.066.162.23.386.4.653.523-.014.102.115.086.035.163.171.068.368.111.358.36.277.072.353.345.558.491 1.464-.007 3.012.018 4.219-.033-.007-.083.072-.079.098-.13.244-.031.365-.302.62-.458.008-.096.116-.245.228-.327.081-.059.207-.05.327-.131.183-.123.385-.39.621-.622.298-.289.717-.556.982-.816.12-.118.414-.353.458-.426.215-.376-.126-.361-.228-.557-.085-.159-.03-.208-.034-.391.084-.131.246-.207.329-.329.037-.055.12-.219.13-.293.046-.403-.352-.48-.459-.818.039-.005.093.006.098-.032-.116-.004.004-.06-.098-.098.19-.231.571-.274.587-.589.019-.333-.313-.521-.553-.72.001-.108.054-.163.033-.294.307-.177.597-.452.52-.915-.138-.145-.339-.226-.455-.394.053-.076.117-.143.162-.228-.131-.071-.226.147-.227 0-.012-.119.19-.136.292-.229.112-.101.168-.267.263-.36 0-.196.01-.403-.035-.556.047-.085.139-.123.164-.227-.102-.102-.114.076-.227.064-.047-.139-.064-.308-.195-.359h-.1c-.136.21-.377.261-.554.457-.157.17-.261.407-.427.556-.017.016-.083-.016-.098 0-.091.097-.21.299-.394.164.148-.228.298-.34.459-.491-.122-.032-.26.107-.359.196-.114.101-.224.24-.328.327-.258.064-.297.144-.554.196-.094 0 .078-.089-.066-.065-.443.075-1.041.19-1.276.49.422-.015.721-.324 1.079-.294-.166.01-.22.128-.327.196.291.09.563-.283.817-.229-.146.05-.187.205-.26.327-.138.014-.386.298-.163.361.108-.304.261-.319.39-.492.042.05.282-.003.427-.032-.193.224-.469.36-.621.622-1.711.062-3.189.182-4.775 0 .017-.083.254-.015.13-.131.118-.035.53-.184.359-.23.184-.002.262.096.426.066-.016-.091.176-.1.262-.066-.178.009-.208.163-.426.132-.024.133.107.111.164.163.226-.112.405-.271.72-.295.004-.038-.006-.092.031-.098.386-.033.755.064 1.016-.131-.052-.005-.12.012-.133-.032.059-.061.164-.078.231-.131-.252-.026-.421.242-.588.099.125-.158.48-.086.588-.262-.088.002-.252.095-.296.032.061-.234.339-.251.426-.457.062-.006.217-.085.131-.132-.401.212-.65.597-1.014.753-.16-.089-.536.074-.719.033.012-.051.102-.028.065-.132-.104-.035-.196-.02-.301-.057.031.003-.032-.06-.069-.064l-.022.024c0-.02.01-.025.022-.024.152-.147.298-.303.436-.467.049-.038.081-.038.13 0 .051-.135.218-.187.327-.261.281-.194.521-.441.851-.557.004-.039-.005-.092.033-.097.757.027 1.22-.006 1.929.065-.243.113-.466.389-.753.622.219-.001.303-.217.425-.328.128-.116.286-.187.394-.326.173.021.434-.043.554.032-.096.042-.001.145-.197.131.011.148-.059.088-.098.229-.431.112-.57.517-.882.752.1.062.164-.083.229-.131.161-.116.365-.229.459-.392.081.005.101-.051.162-.065.13-.176.217-.396.461-.459.042-.081-.13-.101-.035-.13.183.04.389-.067.491 0-.195.039-.303.285-.425.294.067.113-.213.159-.196.327-.205.098-.642.349-.426.556.117-.143.217-.388.426-.523-.009.054.036.08.031 0 .085.076.058-.106.134-.197.152.038.067-.18.16-.032.088-.218.338-.448.589-.392-.266.333-.645.575-.883.849.126-.028.2-.113.262-.163.04-.032-.006-.038.032-.065.336-.238.482-.504 1.049-.686-.19.212-.38.426-.623.587.4-.068.469-.467.819-.587.46.059.767-.399.49-.688-.122-.025-.157.04-.263.033.031.248-.196.638-.588.457.007-.166.228-.122.231-.294-.187.068-.278.225-.427.327-.229-.025-.344.087-.557 0 .295-.163.529-.388.785-.588.219.023.344-.02.491.033-.18-.001-.226.215-.326.196.204.064.28-.179.49-.229.215-.052.48.069.751-.033-.163.338.161.275.295.392.061-.148-.117-.057-.13-.13h-.065v-.065h.065v.065c.159-.065-.032-.076-.033-.164.315-.123.409-.487.623-1.013.063-.162.179-.301.227-.458.213-.694.273-1.528.558-2.127-.012-.076-.053-.123-.036-.228.065-.103.041-.209.066-.392.102-.72.347-1.445.59-2.093.127-.334.3-.524.423-.785.065-.13.074-.269.132-.392.17-.353.506-.675.589-1.079.264-.308.407-.69.588-1.046.271-.532.663-1.004.984-1.473.232-.345.365-.744.554-1.079.101-.18.306-.464.36-.621.034-.107.184-.393.227-.556.009-.033.061-.02.068-.033.056-.156.065-.33.128-.491.139-.342.299-.655.394-.981.047-.164.044-.35.098-.522.048-.156.149-.285.196-.426.118-.366.217-.757.295-1.079.043-.191.028-.385.065-.588.073-.391.214-.711.229-1.112.005-.182.021-.195.033-.326.04-.51.034-.861.034-1.342" fill="#58595b" fill-rule="nonzero"/><path d="M13.429 40.403h.1c-.012.042-.058.052-.067.099-.037-.005-.027-.059-.033-.099m5.102-1.308c-.021.044-.069.061-.13.065.008-.057.055-.075.13-.065m-4.184.589c.082-.062-.087.083-.133.098-.147-.003.086-.082.133-.098m-.525.849c-.031.067-.124.071-.228.066.002-.032.041-.025.066-.032.005-.028-.013-.031-.034-.034.005-.062.111.04.196 0m-.261-.163c.008-.057.056-.074.131-.065-.022.044-.067.06-.131.065m1.111 3.663c-.004.072-.137.013-.195.032.004-.071.138-.014.195-.032m-2.68-2.027c.094.017-.049.05-.033.097-.108-.031.036-.064.033-.097m.459-.164c.099.033-.071.053-.066.098-.124-.055.071-.055.066-.098m-1.473.392c.094-.047-.111.083-.131.131-.084-.045.075-.117.131-.131m-.131.163c-.01.045-.083.028-.131.034.01-.044.083-.028.131-.034m-.426.23c-.028.048-.104.047-.162.065-.075-.025.1-.069.162-.065m.687 1.242c.036.009.023.066.066.066-.013.073-.173.025-.197 0 .095-.018.066-.035.131-.066m-1.21-3.367c-.09.04-.005-.085.131-.099.035-.004-.082.076-.131.099m6.933-8.177h.067v.065h-.067zm-7.489 7.947c.01-.044.083-.027.131-.033.012.076-.094.037-.097.098-.038-.005-.019-.032 0-.032.005-.028-.012-.032-.034-.033m-.032.491c-.062.064-.115.056-.196.033.043-.047.145-.088.196-.033m2.092 5.069c-.119-.052.132.007.067-.098h.131c-.062.036-.116.081-.198.098m2.879.916c.009-.069.144-.009.131-.099.097.047-.038.132-.131.099m.555-.525c-.03.003-.025.04-.032.066-.039-.005-.027-.06-.033-.098h.13c0 .032-.038.025-.065.032" fill="#58595b" fill-rule="nonzero"/><path d="M14.967 38.115c-.169.077.113.083 0 0m-.588.227c-.211-.037-.071.101 0 0m-.621 1.473c-.145-.111-.177.121 0 0m-.59.555c-.283.117.19-.078 0 0m-1.601 1.668c.198-.038.081-.158 0 0m2.943 4.416c.16-.16-.067-.108 0 0m.72.228c-.255.043.137-.024 0 0m-.655-43.33c.095-.049.121.036.165-.065-.106-.044-.239.135-.165.065m1.929-.687c-.172.187-.464.255-.654.426.021-.03.04-.059 0-.066-.053-.006-.158.099-.097.097 0 .077-.09-.011-.066-.064-.476.155-.795.549-1.308.751.006-.037-.005-.058-.032-.065.283-.186.61-.326.883-.524a.255.255 0 0 0-.098-.065c-.114.014-.192.178-.296.099-.092.095-.326.294-.588.327.006-.028.033-.033.033-.066-.095.015-.149.069-.164.164-.031-.056-.102-.072-.163-.098.169-.158.41-.244.621-.361-.014-.028-.03-.058-.065-.065.159-.114.217-.327.522-.295.011.076-.092.038-.097.1-.019.073.127-.04.032.032.051.071.275.038.296-.032.094.054-.086.108-.101.162.389-.023.99-.313 1.342-.457m-.588.589c-.06-.025.018-.035.065-.034-.006-.038-.058-.028-.097-.032.065-.137.379-.175.491-.164-.065.058-.172.07-.263.098.003.087-.037.065-.196.132m-2.517 0c.115-.179.449-.137.653-.23-.18.098-.444.271-.653.23m2.321.13c-.075.164-.189.053 0 0M5.876 7.439c-.118.197-.296.202-.521.326.034.027.286-.441.521-.326M4.765 8.943c.014-.09-.18.027-.162-.065-.059-.088.141-.063.03-.099.206-.047.335-.335.523-.294-.112.126-.671.37-.295.393.228-.221.477-.482.819-.49-.173.199-.464.278-.687.425-.122.119-.39.341-.653.425.145-.094.269-.211.425-.295m.751-.032c-.205.24-.555.338-.751.588-.013-.202.305-.254.391-.36.016-.018-.021-.04-.032-.031.086-.07.237-.177.392-.197m-1.143.36c-.114.054-.077.187-.165.196.021-.099.052-.189.165-.196m.328.196c-.089.152-.273.209-.428.295.087-.154.288-.194.428-.295m.325.065c.028.087-.061.041-.098.066-.375.254-.722.545-1.111.784-.1.055-.063.243-.197.262.032-.098.116-.145.099-.294.429-.226.801-.584 1.307-.818m-.066.393c-.006.047-.098.012-.098.065-.081-.014.031-.093.098-.065m-.917.065c-.05.025-.047.104-.129.098.028-.047.05-.103.129-.098m.722 0c.093.127-.08.093-.132.13-.394.293-.893.624-1.243.983-.011.065.008.101.069.097-.051.117-.162-.014-.23 0 .199-.171.299-.442.588-.523.276-.269.615-.474.948-.687m-.23.818c.034.193-.205.26-.327.36-.187.149-.413.325-.588.49a8.1 8.1 0 0 0-.557.622c-.012.078.149-.019.1.098-.092.026-.085-.047-.166-.033.064-.205.275-.343.295-.491.115-.03.257-.115.295-.229.04-.112.214-.043.197-.228.122.013.276-.115.229-.164.208-.107.323-.311.522-.425" fill="#58595b"/><path d="M3.784 11.723c.073.005-.044.083 0 .164-.014.008-.055-.01-.065 0-.22.231-.532.554-.687.915-.133-.087.115-.389.197-.359a.147.147 0 0 1-.036-.098c.267-.14.401-.409.591-.622m0 .459c.085.046-.069.123-.131.13.011.122-.125.193-.194.131.088-.015.194-.129.325-.261" fill="#58595b"/><path d="M3.259 12.672c.019.002.206-.123.164-.164.11-.109.06.182-.065.131-.12.149-.043.3-.262.327.078-.055.198-.239.163-.294m23.024-.327c.034.026-.016.244-.132.229.072.047-.04.079.033.098.01.076-.093.035-.099.098-.191-.165.169-.273.198-.425M3.459 12.9c.006.059-.032.068-.036.033-.03.01-.109.122-.034.132-.087.033-.22.239-.293.39-.126-.066.118-.202.033-.228.158.011.113-.255.33-.327m-.296.098c-.09.229-.258.376-.395.555-.073-.144.154-.216.263-.358.053-.071 0-.201.132-.197m.325.393c-.018.029-.038.058 0 .064-.02.045-.069.061-.13.067 0 .031.04.025.065.031-.181.323-.345.401-.425.754-.215.172-.103.542-.358.622.104-.156.1-.477.327-.655-.085-.071.005-.091.031-.131.074-.103.149-.34.195-.425.024-.037.037-.005.035 0 .106-.13.099-.301.26-.327m23.449.033c-.073.17-.312.359-.427.458-.081.072-.075.085-.163.097a.385.385 0 0 1 .296-.227c-.009-.099.172-.257.294-.328m-23.874.064c-.108.188-.17.417-.261.623-.113-.077.078-.238.098-.523.149.06.046-.131.163-.1m24.037.296c.071.041-.109.107-.065.229-.158-.064.04-.154.065-.229m.098.523c-.036.061-.038.157-.163.13.091.181-.229.198-.229.393-.029.005-.031-.012-.032-.033h-.068c-.004-.059.042-.069.035-.131.206-.064.238-.305.457-.359m-.131 1.635c.09.07-.088.057 0 .163a.775.775 0 0 0-.361.327c.017.041.043.068.1.066-.024.111-.109.031-.131-.034.067-.183.165-.334.36-.391-.067-.067.013-.064.032-.131m-.032.981h-.197c-.162-.267.197-.378.328-.589.195.18-.261.287-.165.458-.118.036-.01.02.034.131m-.294.883c.115.019.174-.216.359-.23.092.193-.256.283-.295.426-.015.058.121.068.033.131-.113.026-.139-.035-.195-.065-.03-.13.19-.179.098-.262M24.221 25c-.126.44-.638.803-.719 1.308-.084-.088.101-.252 0-.295.114-.235.32-.378.36-.686.168-.061.257-.2.359-.327m-7.094.229c.073.073-.143.17-.229.098.001-.064.088-.041.064-.13.042.006.161.095.165.032m-2.813.23c.059.007.089-.073.228-.066-.207.175-.396.539-.686.523.088-.194.452-.29.458-.457m-.1.457c-.022-.13.078-.064.133-.098.183-.114.282-.34.522-.392.127.006-.111.155-.163.196-.126.128-.26.373-.492.294m.1 1.242c.089 0-.079.091.065.066-.001.032-.041.025-.065.033-.016.193-.25.416-.327.653-.011-.24.205-.535.327-.752m-6.737.622c-.046.113.027.39-.098.458.07-.185-.025-.357.098-.458m5.135 2.093c-.194-.04.127-.389-.066-.523.061-.19.111-.393.227-.524 0-.031-.039-.025-.065-.032.012-.153.166-.163.229-.262.13.109-.107.357-.164.49.042.094.097-.142.164-.032-.217.233-.226.507-.325.883m-4.417-1.177c.094.201-.345.749-.131 1.177-.123.034-.09-.081-.194-.066-.051-.434.121-.727.325-1.111m4.906.49c-.048.067-.032.19-.064.26-.003.01-.063-.006-.068 0-.026.061-.038.137-.064.198-.022.05-.076.108-.099.163-.071.17-.07.408-.228.524.019.068.094.106.034.163-.072-.004-.071-.082-.066-.163.181-.385.228-.905.555-1.145m-4.74.294c.031.042.07.458-.166.426.055-.174.085-.241.166-.426m2.484.099c.011-.052.057.028.065-.033.057.024.006.059 0 .098.073-.026.083-.115.132-.164a.148.148 0 0 0 .098.033c-.077.098-.165.185-.23.294-.032-.001-.024-.039-.033-.065-.091.064-.301.368-.129.131.025-.035.008-.118.097-.131-.043-.081.073-.159 0-.163m4.217 1.831c.049.179-.172.563-.228.752.231-.007.329-.215.329-.359.116.266-.151.495-.231.751-.063.2-.046.47-.131.687-.002.006-.062-.006-.065 0-.038.165.016.358 0 .524-.096-.017-.09-.136-.096-.197-.037-.368.223-.9.325-1.276-.071.049-.064.176-.164.197-.257-.104-.02-.444.033-.589-.027-.432.011-.712.228-1.013.128.103-.067.249-.097.359-.041.149.017.279-.033.393.096-.027.083-.158.13-.229m-1.34.262c.083.007-.044.055 0 .131-.081-.006-.008-.112 0-.131m-5.264 1.013c.055-.109.111.102.099.033.006.041-.129.153-.131.164-.01.028.025.075.032.065-.067.13-.188.258-.032.359-.34-.001.123-.565.032-.621m.752 1.995c.144-.227.451-.288.72-.392-.132.12-.341.161-.425.327-.106.015-.179.062-.295.065m7.39.065c-.039.102.018.141-.064.23-.008.126-.049-.266.064-.23m-1.079 2.486c-.119.211-.548.298-.687.588-.262.066-.354.299-.555.426-.054-.306.44-.345.522-.623.103-.027.23-.032.231-.162.259.021.28-.198.489-.229m-.032.948c-.012.076-.142.032-.163.098-.087-.118.078-.056.163-.098m-1.505.884c-.069.088-.258.02-.195-.132.385-.109.557-.231.98-.295-.281.135-.525.304-.85.394.003.032.038.025.065.033m-1.633.326c.145-.025.219.051.031.033-.007.028.014.03.032.032-.021.044-.068.06-.129.065.011-.05.101-.027.066-.13m-.459.36c-.006.116-.147.093-.229.131.036-.083.165-.073.229-.131m.914-.229c.15.052-.043.122-.161.098-.006-.093.212.039.161-.098m4.417 1.537c-.188-.053.342-.198.489-.228-.286.13-.459.357-.817.326.08-.061.255-.027.328-.098m-3.304-.131c.139-.024-.252.043 0 0m.491 0c.109.049-.056.093-.067.131-.088-.03.077-.073.067-.131m2.78 1.57c.023.089-.155-.024-.131.065-.08-.026.102-.134.131-.065m.361.196c-.069.054-.159.083-.199.164-.061-.055.091-.169.199-.164m-.101 2.78c-.007-.057.056-.084 0-.098.05-.038.08-.094.164-.099.373-.416.8-.786 1.276-1.014-.094.158-.405.271-.426.394-.244.079-.498.487-.85.653 0 .109-.055.163-.164.164m-5.036-.719c-.057-.01-.067.03-.032.032-.035.075-.147.169-.227.098.116-.063.121-.037.162-.164.046-.003.092-.004.097.034m.555-.098c.04.014-.323.167-.357.326-.086-.088-.1.04-.198.033-.042-.077.265-.083.231-.261.135.072.158-.11.324-.098m-9.94-29.499c-.078.339-.334.665-.229 1.08.072-.027.054-.144.097-.196.116.318.043.688.066 1.047.134.024.114-.106.264-.066-.136.511.209.975.132 1.44-.069-.513-.299-.825-.297-1.276h-.165c-.147-.39.04-.584-.229-.818.089-.257.004-.577.098-.752.005-.007.054.042.066.033.063-.239-.036-.439.197-.492m9.647 11.054c.058.061.142-.168.261-.065-.082.19-.21.335-.325.491.073.073.105-.175.261-.132.056.098-.073.241-.1.36.112.026.044-.132.164-.097.128.254-.176.339-.195.555.064.094.051-.165.195-.098.055.122-.134.249-.164.393.027.112.169-.021.231.098-.096.231-.086.316-.131.49h-.197c.027-.137.108-.218.164-.328-.005-.072-.138-.013-.195-.032-.074-.21.102-.532-.197-.556-.023-.164.058-.225.098-.327-.005-.06-.11-.02-.132-.065.079-.121.073-.342.164-.359-.005-.062-.11-.022-.13-.066.051-.265.225-.406.325-.622.1-.074.201.048.231-.064.1.032-.037.087-.035.13.246-.007.267-.234.46-.294-.102.171-.261.457-.523.359-.131.025-.158.149-.23.229m8.504 5.788c.058-.003.069.041.131.034a1.488 1.488 0 0 1-.197.359c.075.114.169-.124.261 0-.105.255-.301.417-.492.589.015.111-.008.187-.13.164-.059-.188.12-.341.262-.491-.033-.055-.139-.035-.196-.066.033-.282.28-.354.361-.589m-.132 1.015c.01-.077.146-.02.163 0-.012.172-.146.222-.26.294.028.09.12-.064.13.065a.472.472 0 0 1-.262.195c.057.088.066.035.164.099-.214.107-.496.307-.753.262.032-.102.141-.103.067-.228.187-.03.284-.152.424-.229-.129-.246.403-.268.327-.458" fill="#58595b"/><path d="M18.448 15.984c-.031.093-.063.185-.084.282-.094.132-.148.26-.185.386-.039.133-.051.127-.09.235.001-.003.03.019.024.041-.004.011-.059.017-.062.024-.006.019.027.026.024.04-.002.006-.039.015-.04.024-.028.134-.029.343-.158.488-.003.272-.173.514-.208.702 0-.012-.018-.023-.021.001-.001.242-.159.512-.241.807-.013.044.004.109-.011.168-.015.057-.065.103-.074.15-.019.09.009.181-.005.271-.013.092-.068.164-.088.256-.063.29-.033.533-.163.74.072.175-.032.323-.056.441-.018.082-.02.171-.027.252-.025.308-.028.591-.094.84-.009.092.04-.02.044.039-.096.172-.065.251-.015.438-.102.141-.069.292-.074.485-.008.267-.029.493-.039.711-.017.314.023.546.046.748.044.419-.02.843.111 1.14.073-.145.015-.338.012-.481-.001-.039.033-.085.034-.127 0-.082-.033-.176-.038-.269-.015-.332-.002-.677.004-.959.002-.126-.03-.257-.023-.374.008-.135.049-.26.059-.399.02-.272.008-.922.056-1.13.09-.401.112-.757.136-1.176.128-.125.062-.364.074-.484.021-.202.099-.416.151-.614.073-.277.198-.599.158-.802.114-.16.054-.255.164-.406-.054-.048-.015-.077.014-.105.01-.01-.011-.051-.004-.063.048-.085.069-.186.107-.298.024-.071.063-.139.091-.214.153-.406.312-.876.44-1.32.096-.094.136-.238.185-.375a2.103 2.103 0 0 1-.134-.113m-5.881 7.968c-.011-.221-.032-.449-.04-.721-.005-.195.028-.348-.075-.491.05-.19.081-.27-.014-.444.003-.059.053.053.043-.04-.066-.252-.069-.539-.094-.851-.007-.082-.01-.173-.027-.256-.025-.119-.129-.269-.057-.447-.13-.21-.101-.456-.163-.75-.021-.094-.076-.167-.089-.259-.014-.092.014-.184-.005-.275-.009-.048-.059-.094-.074-.153-.016-.06.001-.125-.011-.17-.083-.298-.241-.573-.242-.819-.003-.024-.021-.013-.021-.001-.035-.189-.206-.435-.209-.711-.129-.147-.13-.359-.158-.495-.001-.009-.038-.019-.04-.024-.003-.015.03-.022.024-.041-.003-.008-.058-.014-.062-.025-.006-.022.022-.044.024-.041-.04-.109-.052-.103-.09-.238a1.3 1.3 0 0 0-.186-.392c-.009-.044-.026-.085-.037-.127-.046.023-.092.046-.139.067a.676.676 0 0 0 .143.269c.129.45.288.927.442 1.339.028.075.067.145.091.217.038.114.059.215.107.302.007.013-.014.054-.004.064.029.028.069.057.014.106.11.154.051.25.164.412-.04.206.086.532.159.813.053.201.13.418.151.623.013.121-.053.364.075.491.024.424.047.785.137 1.192.048.211.037.869.057 1.145.01.142.051.268.059.405.007.119-.025.251-.022.379.006.286.02.636.004.973-.004.094-.037.189-.037.272.001.042.035.089.034.129-.004.145-.061.34.012.487.131-.301.067-.731.111-1.155.022-.205.062-.441.045-.759" fill="#58595b"/><path d="M16.601 15.665c.019-.265-.032-.355-.123-.597.065-.069.174-.101.18-.22-.014-.088-.115-.081-.119-.18.209-.133.122-.408.221-.619.196 0 .151.14.192.322-.046.092-.131.151-.112.299.027.075.153.04.16.136.008.132-.057.201-.18.22 0 .079-.01.149-.031.211.019.068.073.097.097.16.059.26-.16.283-.142.509.064.104.108.146.103.265-.007.153-.259.359-.008.563.267.001.748.015 1.056.019.145.001.34-.062.329.105-.483.112-.825.079-1.44.047-.031.177.041.322.048.434.018.279-.109.587-.096.882.001.04.043.08.05.122.026.148.013.351.01.5-.002.117.003.246-.086.36-.101-.037-.139-.143-.207-.217.039-.372-.027-.591.01-.897.006-.052.053-.097.056-.15.003-.086-.06-.159-.04-.268a.482.482 0 0 1 .098-.173c.022-.056-.072-.085.017-.085-.071-.154-.155-.335-.178-.426-.17.042-.371.055-.475-.034-.217.106-.566.107-.734-.017-.249.086-.525.178-.732.003a.968.968 0 0 1-.467.091c-.083-.005-.161-.064-.241-.068-.225-.011-.451.071-.643.06-.004.169-.065.369.049.435.021.091-.065.089-.077.15.018.393-.113.701-.106 1.071.001.051.035.097.03.144-.007.063-.058.124-.074.192-.019.072.037.17-.052.212-.225-.05-.064-.32-.073-.496-.008-.128-.076-.221-.045-.373.017-.084.093-.127.094-.214.003-.172-.154-.292-.136-.472.062-.048.077-.147.122-.111.035-.111-.067-.129-.1-.223-.002-.072.003-.15-.053-.164-.386.079-.946.099-1.476.153l-.007-.104c.052-.09.175-.063.275-.079.364-.056.894-.064 1.259-.202.055-.008.064-.094.079-.109.057-.062.04-.146.049-.254.003-.035.036-.084.036-.106.001-.045-.033-.082-.029-.124.01-.093.059-.167.05-.232-.009-.078-.081-.136-.056-.226.047-.015.008-.089.033-.148.014-.032.07-.054.081-.088.01-.027-.052.016-.044-.018.003-.013.061-.035.062-.046a1.77 1.77 0 0 0 .006-.25c-.037-.15-.182-.229-.175-.406.001-.054.035-.059.057-.109.015-.032.001-.055.017-.084.028-.051.091-.086.119-.153.004-.007-.033-.031-.024-.04.057-.052.024-.16.05-.254.045-.165.14-.271.19-.408.132-.033.178.026.241.069.044.347-.167.474-.304.665.006.195-.034.351-.009.564.135.121.244.477-.032.523-.058.343-.031.761-.037 1.149.091-.007.361.022.537-.033a10.39 10.39 0 0 1-.015-.249c.137-.21.469-.125.457.096-.008.085-.084.112-.118.175.133.06.176.003.345-.001.024-.123-.034-.399.145-.426.173-.025.291.237.133.389.102.141.381.076.492-.03-.087-.221.028-.462.32-.396.091.145.02.33-.059.442.092.026.224.1.412.037.028-.171-.019-.505.204-.534.096-.013.15.055.223.132-.007.152-.024.295-.106.383.208.133.495-.156.341-.418.087-.051.055-.164.117-.195-.02-.022-.071.006-.002-.041-.012-.111-.157-.263-.072-.454.032-.071.042-.141.083-.068m-3.26-1.53c-.082.121.04.057 0 0" fill="#ed1c24"/><path d="M13.885 16.686c.013-.037.02-.065-.005-.083-.016.038-.067.069.005.083m2.129-.047c.005-.029-.017-.08-.023-.04-.005.029.018.08.023.04" fill="#ed1c24"/></svg>