<?xml version="1.0" standalone="no"?><!DOCTYPE svg PUBLIC "-//W3C//DTD SVG 1.1//EN" "http://www.w3.org/Graphics/SVG/1.1/DTD/svg11.dtd"><svg width="100%" height="100%" viewBox="0 0 30 49" version="1.1" xmlns="http://www.w3.org/2000/svg" xmlns:xlink="http://www.w3.org/1999/xlink" xml:space="preserve" style="fill-rule:evenodd;clip-rule:evenodd;stroke-linejoin:round;stroke-miterlimit:1.41421;"><g><path d="M14.314,2.795c-0.072,0.087 -0.277,0.18 -0.36,0.065c0.063,-0.077 0.217,-0.066 0.36,-0.065" style="fill:#58595b;"/><path d="M14.478,3.09c-0.022,0.034 -0.077,0.034 -0.066,0.098c-0.115,0.028 -0.272,0.185 -0.393,0.098c-0.091,0.084 -0.209,0.139 -0.393,0.131c0.172,-0.223 0.561,-0.224 0.852,-0.327" style="fill:#58595b;"/><path d="M5.581,8.191c-0.17,0.059 -0.196,0.261 -0.425,0.263c0.093,-0.12 0.271,-0.307 0.425,-0.263" style="fill:#58595b;"/><path d="M4.307,9.793c-0.065,0.079 -0.146,0.139 -0.263,0.165c0.063,-0.08 0.146,-0.139 0.263,-0.165" style="fill:#58595b;"/><path d="M4.666,10.383c-0.125,0.19 -0.315,0.317 -0.524,0.425c-0.227,0.31 -0.794,0.553 -1.013,0.98c0.005,0.038 0.059,0.028 0.1,0.033c-0.032,0.057 -0.103,0.073 -0.198,0.065c0.041,-0.36 0.618,-0.814 0.949,-0.981c0.198,-0.204 0.38,-0.425 0.686,-0.522" style="fill:#58595b;"/><path d="M4.175,11.526c-0.109,0.067 -0.148,0.202 -0.325,0.197c0.121,-0.051 0.144,-0.204 0.325,-0.197" style="fill:#58595b;"/><path d="M26.578,12.574c0.056,-0.007 0.084,0.055 0.097,0c0.08,0.183 -0.26,0.313 -0.196,0.491c-0.079,-0.014 -0.072,0.059 -0.164,0.032c-0.038,-0.299 0.268,-0.253 0.263,-0.523" style="fill:#58595b;"/><path d="M27.035,12.835c0.094,0.028 -0.021,0.106 0,0.163c-0.233,0.04 -0.312,0.234 -0.525,0.295c0.134,-0.195 0.345,-0.312 0.525,-0.458" style="fill:#58595b;"/><path d="M26.479,13.326c0.07,0.032 -0.03,0.164 -0.099,0.162c0.02,-0.067 0.069,-0.104 0.099,-0.162" style="fill:#58595b;"/><path d="M26.968,13.979c-0.04,0.068 -0.05,0.166 -0.162,0.164c-0.068,0.066 -0.13,0.355 -0.36,0.359c0.091,-0.24 0.299,-0.524 0.522,-0.523" style="fill:#58595b;"/><path d="M2.705,14.143c0.05,0 0.071,0.243 -0.034,0.196c0.03,-0.116 0.004,-0.079 0.034,-0.196" style="fill:#58595b;"/><path d="M3.229,14.143c0.043,0.133 -0.078,0.38 -0.262,0.393c0.138,-0.147 0.122,-0.218 0.262,-0.393" style="fill:#58595b;"/><path d="M3.063,14.568c-0.148,0.148 -0.23,0.449 -0.261,0.72c-0.012,0.104 0.103,0.278 -0.065,0.295c-0.051,-0.494 0.065,-0.645 0.195,-1.015l0.131,0Z" style="fill:#58595b;"/><path d="M27.23,14.83c0.127,0.059 -0.032,0.055 -0.064,0.098c-0.015,0.021 0.015,0.08 0,0.099c-0.047,0.051 -0.143,0.046 -0.197,0.098c-0.145,0.137 -0.118,0.364 -0.293,0.457c-0.097,-0.403 0.28,-0.61 0.554,-0.752" style="fill:#58595b;"/><path d="M27.166,15.942c0.004,-0.003 -0.003,-0.033 0,-0.033c0.157,-0.028 -0.155,0.21 0,0.033" style="fill:#58595b;"/><path d="M27.1,16.923c0.002,-0.08 0.11,-0.01 0.131,0c-0.035,0.309 -0.52,0.288 -0.393,0.653c-0.531,-0.181 0.244,-0.52 0.262,-0.653" style="fill:#58595b;"/><path d="M27.035,18.1c0.036,0.012 0.082,0.058 0.031,0.065c-0.105,0.179 -0.255,0.311 -0.36,0.492c-0.004,0.104 0.032,0.249 -0.097,0.227c-0.152,-0.411 0.218,-0.555 0.426,-0.784" style="fill:#58595b;"/><path d="M26.775,18.885c0.17,-0.015 -0.078,0.088 0.031,0.097c-0.203,0.211 -0.465,0.47 -0.492,0.753c-0.102,0.001 -0.101,-0.099 -0.098,-0.163c0.006,-0.076 0.054,-0.032 0.067,-0.065c0.017,-0.049 -0.017,-0.115 0,-0.164c0.081,-0.228 0.385,-0.271 0.492,-0.458" style="fill:#58595b;"/><path d="M26.283,19.931c0.039,-0.006 0.058,0.007 0.064,0.033c-0.042,0.174 -0.158,0.278 -0.229,0.425c0.055,0.032 0.068,0.108 0.132,0.131c-0.111,0.258 -0.347,0.589 -0.493,0.884c-0.118,0.246 -0.175,0.553 -0.423,0.62c-0.026,0.276 -0.209,0.659 -0.36,0.916c-0.094,-0.011 -0.017,-0.253 0,-0.294c0.039,-0.09 0.086,-0.135 0.132,-0.164c-0.002,-0.241 0.059,-0.418 0.228,-0.49c0.021,-0.212 0.273,-0.465 0.393,-0.688c-0.045,-0.119 0.057,-0.26 0.163,-0.325c0.013,-0.184 0.096,-0.298 0.195,-0.393c-0.027,-0.049 -0.104,-0.048 -0.162,-0.066c0.058,-0.257 0.236,-0.395 0.36,-0.589" style="fill:#58595b;"/><path d="M24.646,22.613c-0.05,0.048 -0.028,0.168 -0.032,0.261c-0.058,-0.051 -0.126,-0.092 -0.098,-0.228c0.058,0.005 0.069,-0.04 0.13,-0.033" style="fill:#58595b;"/><path d="M24.777,23.462l0.1,0c0.067,0.144 0.017,0.338 -0.131,0.361c-0.009,0.121 -0.072,0.191 -0.23,0.164c0.046,-0.234 0.31,-0.29 0.261,-0.525" style="fill:#58595b;"/><path d="M24.55,24.183c0.093,0.006 0.078,0.156 -0.034,0.131c-0.005,-0.06 0.04,-0.069 0.034,-0.131" style="fill:#58595b;"/><path d="M15.23,25.459c-0.194,0.168 -0.31,0.579 -0.621,0.522c0.171,-0.208 0.358,-0.404 0.621,-0.522" style="fill:#58595b;"/><path d="M13.921,25.688c-0.171,0.097 -0.274,0.416 -0.522,0.325c0.072,-0.122 0.244,-0.145 0.293,-0.293c0.1,0.004 0.146,-0.115 0.229,-0.032" style="fill:#58595b;"/><path d="M16.57,25.753c0.028,0.014 0.058,0.028 0.066,0.065c-0.04,0.211 -0.117,0.384 -0.262,0.49c-0.079,-0.109 0.062,-0.236 -0.066,-0.294c0.043,-0.133 0.196,-0.154 0.262,-0.261" style="fill:#58595b;"/><path d="M16.636,26.079c0.146,0.095 -0.157,0.375 -0.132,0.589c-0.172,-0.168 0.058,-0.452 0.132,-0.589" style="fill:#58595b;"/><path d="M16.797,26.341c0.098,0.059 -0.091,0.323 -0.161,0.426c0.004,0.063 0.071,0.432 -0.132,0.392c-0.032,-0.307 0.112,-0.566 0.293,-0.818" style="fill:#58595b;"/><path d="M16.797,26.995c0.149,-0.007 0.006,0.024 0,0.066c-0.014,0.13 0.074,0.445 -0.064,0.522c0.009,-0.287 -0.126,-0.385 0.064,-0.588" style="fill:#58595b;"/><path d="M14.478,27.126c-0.015,0.04 -0.044,0.068 -0.099,0.066c0.014,-0.041 0.041,-0.069 0.099,-0.066" style="fill:#58595b;"/><path d="M14.641,27.126c0.111,0.06 0.157,-0.004 0.293,0c-0.065,0.09 -0.228,0.135 -0.325,0.098c0.015,-0.025 0.034,-0.053 0.032,-0.098" style="fill:#58595b;"/><path d="M15.001,27.257c0.1,-0.025 0.038,0.112 0.161,0.065c-0.056,0.09 -0.142,0.191 -0.261,0.132c-0.015,-0.117 0.117,-0.082 0.1,-0.197" style="fill:#58595b;"/><path d="M15.23,27.289c0.026,0.018 0.052,0.035 0.097,0.033c-0.068,0.1 -0.009,0.381 -0.165,0.426c0.049,-0.189 0.015,-0.266 0.068,-0.459" style="fill:#58595b;"/><path d="M15.458,27.518c0.005,-0.039 0.061,-0.028 0.097,-0.033c-0.099,0.096 0.031,0.263 -0.161,0.295c0.085,-0.082 -0.072,-0.215 0.095,-0.229c0.008,-0.029 -0.012,-0.031 -0.031,-0.033" style="fill:#58595b;"/><path d="M7.773,27.845l0.098,0c0,0.207 -0.072,0.343 -0.098,0.524c0.102,-0.017 0.105,-0.135 0.262,-0.098c-0.029,0.201 -0.134,0.323 -0.13,0.555c0.009,0.031 0.087,0.031 0.096,0c0.09,0.081 -0.087,0.173 -0.13,0.229c-0.096,-0.002 -0.123,-0.074 -0.162,-0.131c0.017,-0.101 0.025,-0.212 0.064,-0.293c-0.236,-0.207 -0.017,-0.528 0,-0.786" style="fill:#58595b;"/><path d="M14.052,27.976c-0.121,0.115 -0.165,-0.089 0,0" style="fill:#58595b;"/><path d="M22.556,28.107c-0.091,0.079 -0.042,0.149 -0.198,0.196c0.044,0.141 -0.046,0.405 -0.26,0.393c0.03,-0.206 0.135,-0.344 0.196,-0.524c0.134,0.028 0.153,-0.063 0.262,-0.065" style="fill:#58595b;"/><path d="M13.104,28.172c-0.086,0.151 -0.046,0.229 -0.131,0.36c-0.026,-0.016 -0.055,-0.034 -0.099,-0.032c0.032,-0.154 0.054,-0.316 0.23,-0.328" style="fill:#58595b;"/><path d="M15.95,28.369c0.152,0.121 -0.019,0.399 0,0.523c-0.215,-0.103 0.018,-0.39 0,-0.523" style="fill:#58595b;"/><path d="M13.856,28.565c0.101,0.04 -0.065,0.215 -0.131,0.293c-0.086,0.104 -0.19,0.249 -0.326,0.23c0.127,-0.201 0.322,-0.331 0.457,-0.523" style="fill:#58595b;"/><path d="M16.21,28.598c0.08,0.082 -0.044,0.238 -0.098,0.294c0.03,0.071 -0.003,0.309 -0.163,0.294c0.007,-0.275 0.16,-0.406 0.261,-0.588" style="fill:#58595b;"/><path d="M16.406,28.598l0.098,0c-0.078,0.324 -0.238,0.568 -0.327,0.882c-0.131,-0.02 0.052,-0.239 0,-0.392c0.131,-0.108 0.185,-0.294 0.229,-0.49" style="fill:#58595b;"/><path d="M14.281,28.663c-0.028,0.068 -0.098,0.099 -0.197,0.098c0.058,-0.041 0.086,-0.11 0.197,-0.098" style="fill:#58595b;"/><path d="M14.74,28.762c0.111,-0.011 -0.181,0.293 -0.262,0.326c-0.099,0.04 -0.225,0.018 -0.329,0.033c0.089,-0.226 0.486,-0.148 0.591,-0.359" style="fill:#58595b;"/><path d="M14.149,28.794c-0.155,0.057 -0.202,0.375 -0.391,0.294c0.103,-0.126 0.174,-0.283 0.391,-0.294" style="fill:#58595b;"/><path d="M16.472,29.022c0.039,-0.004 0.057,0.008 0.065,0.033c-0.076,0.239 -0.106,0.493 -0.162,0.687c-0.055,0.178 -0.112,0.378 -0.263,0.491c0.147,-0.344 0.192,-0.918 0.36,-1.211" style="fill:#58595b;"/><path d="M16.733,29.383c-0.01,0.262 -0.271,0.557 -0.327,0.883c0,0.169 0.086,0.325 -0.13,0.326c0.02,-0.351 0.03,-0.704 0.294,-0.883c-0.019,-0.106 0.022,-0.152 0.032,-0.229c0.081,0.007 0.079,-0.074 0.131,-0.097" style="fill:#58595b;"/><path d="M14.248,29.677c-0.102,0.291 -0.298,0.623 -0.327,0.883c-0.078,-0.274 0.102,-0.572 0.196,-0.786c-0.007,-0.086 0.046,-0.107 0.131,-0.097" style="fill:#58595b;"/><path d="M8.493,30.036c-0.173,0.277 -0.196,1.046 -0.362,1.505c-0.158,-0.238 0.033,-0.637 0.066,-0.818c0.041,-0.216 0.062,-0.367 0.196,-0.589c0.028,-0.045 -0.013,-0.152 0.1,-0.098" style="fill:#58595b;"/><path d="M13.137,30.102c-0.114,0.251 -0.18,0.672 -0.197,0.916c0.122,0.055 0.051,-0.02 0.164,-0.033c-0.045,0.199 -0.234,0.477 -0.099,0.654c-0.193,0.079 -0.131,-0.398 -0.032,-0.491c-0.005,-0.06 -0.111,-0.02 -0.131,-0.065c0.096,-0.213 -0.034,-0.893 0.295,-0.981" style="fill:#58595b;"/><path d="M16.733,30.102c0.024,0.284 -0.226,0.579 -0.261,0.916c-0.023,0.124 0.133,0.234 0.032,0.326c-0.124,-0.028 -0.108,-0.195 -0.163,-0.294c0.131,-0.314 0.185,-0.709 0.392,-0.948" style="fill:#58595b;"/><path d="M15.064,30.232c0.18,0.166 -0.096,0.407 0,0.589c-0.189,-0.138 0.071,-0.358 0,-0.589" style="fill:#58595b;"/><path d="M14.019,30.592c0.139,0.056 -0.031,0.178 -0.065,0.295c-0.03,0.102 -0.004,0.325 -0.098,0.326c-0.024,0.179 0.041,0.265 0.033,0.426c-0.121,0 -0.061,-0.176 -0.067,-0.228c-0.007,-0.072 -0.037,-0.214 0.034,-0.394c0.005,-0.01 0.064,-0.025 0.065,-0.032c0.033,-0.126 0.026,-0.236 0.098,-0.393" style="fill:#58595b;"/><path d="M15.032,30.853c-0.056,0.098 0.003,0.308 -0.131,0.328c0.079,-0.136 -0.067,-0.302 0.131,-0.328" style="fill:#58595b;"/><path d="M16.668,31.213c0.125,0.039 -0.092,0.372 -0.066,0.426c0.052,0.154 0.074,0.193 0.034,0.327c-0.3,-0.181 -0.096,-0.553 0.032,-0.753" style="fill:#58595b;"/><path d="M8.525,31.279c-0.233,0.306 0.156,0.684 -0.162,0.883c0.022,-0.131 -0.042,-0.306 -0.033,-0.425c0.002,-0.072 0.053,-0.062 0.063,-0.098c0.038,-0.111 -0.092,-0.34 0.132,-0.36" style="fill:#58595b;"/><path d="M13.758,31.933c0.052,-0.006 0.065,0.214 -0.033,0.164c-0.01,-0.077 0.006,-0.126 0.033,-0.164" style="fill:#58595b;"/><path d="M8.917,33.993c-0.165,-0.053 -0.372,-0.294 -0.13,-0.391c-0.012,0.16 0.128,0.229 0.293,0.294c-0.008,0.076 -0.142,0.031 -0.163,0.097" style="fill:#58595b;"/><path d="M9.015,33.961l0.326,0c-0.003,0.127 -0.17,0.089 -0.26,0.131c0.041,-0.106 -0.106,-0.026 -0.066,-0.131" style="fill:#58595b;"/><path d="M9.669,34.092c0.147,0.009 -0.234,0.266 -0.327,0.294c-0.13,0.039 -0.317,-0.022 -0.327,-0.131c0.222,-0.014 0.472,-0.035 0.654,-0.163" style="fill:#58595b;"/><path d="M11.01,34.189c0.132,0.091 -0.164,0.306 -0.326,0.23c-0.006,-0.072 0.115,-0.016 0.164,-0.033c-0.002,-0.032 -0.041,-0.025 -0.067,-0.033c0.005,-0.126 0.226,-0.036 0.229,-0.164" style="fill:#58595b;"/><path d="M10.554,34.288c-0.111,0.163 -0.322,0.225 -0.525,0.294c-0.008,-0.035 -0.065,-0.022 -0.065,-0.065c0.1,-0.108 0.29,-0.152 0.425,-0.131c0.014,-0.146 0.069,-0.048 0.165,-0.098" style="fill:#58595b;"/><path d="M12.744,35.727c0.039,0.013 0.068,0.041 0.064,0.098c-0.039,-0.015 -0.066,-0.042 -0.064,-0.098" style="fill:#58595b;"/><path d="M10.488,36.708c0.111,0.082 -0.113,0.103 -0.132,0.163c-0.112,-0.082 0.14,-0.075 0.132,-0.163" style="fill:#58595b;"/><path d="M15.394,36.936c-0.382,0.382 -0.795,0.731 -1.277,1.014c-0.071,0.048 -0.065,0.176 -0.163,0.196c-0.084,-0.003 -0.128,-0.047 -0.132,-0.13c0.146,-0.056 0.351,-0.145 0.459,-0.229c0.108,-0.085 0.14,-0.171 0.261,-0.23c0.054,-0.025 0.069,-0.141 0.099,-0.163c0.115,-0.086 0.288,-0.101 0.391,-0.196c0.09,-0.083 0.158,-0.378 0.362,-0.262" style="fill:#58595b;"/><path d="M12.906,37.885c0.073,-0.321 0.357,-0.429 0.59,-0.588c0.096,0.114 -0.115,0.154 -0.197,0.227c-0.085,0.081 -0.128,0.206 -0.261,0.23c-0.047,0.008 0.031,0.162 -0.132,0.131" style="fill:#58595b;"/><path d="M18.5,37.362c0.021,-0.044 0.069,-0.061 0.131,-0.065c-0.031,0.056 -0.074,0.125 -0.131,0.065" style="fill:#58595b;"/><path d="M17.811,37.622c0.05,0.051 -0.091,0.19 -0.195,0.198c-0.059,0.082 -0.048,0.235 -0.228,0.196c0.069,-0.204 0.279,-0.266 0.423,-0.394" style="fill:#58595b;"/><path d="M16.472,38.146c-0.186,-0.058 0.261,-0.158 0.196,0c-0.485,0.048 -0.802,0.269 -1.179,0.425c-0.168,-0.268 0.389,-0.206 0.623,-0.326c-0.144,-0.08 0.277,-0.139 0.36,-0.099" style="fill:#58595b;"/><path d="M12.09,39.422c-0.041,0.09 -0.176,0.085 -0.295,0.098c0.064,-0.068 0.2,-0.063 0.295,-0.098" style="fill:#58595b;"/><path d="M13.037,39.422c0.083,0.014 0.026,0.149 -0.064,0.098c0.021,-0.034 0.074,-0.034 0.064,-0.098" style="fill:#58595b;"/><path d="M11.959,39.716c0.198,-0.028 0.139,-0.185 0.391,-0.196c-0.124,0.058 -0.23,0.281 -0.391,0.196" style="fill:#58595b;"/><path d="M19.383,40.861c0.039,0.043 0.013,0.051 0,0.098c-0.036,-0.007 -0.024,-0.065 -0.067,-0.066c0.002,-0.032 0.04,-0.024 0.067,-0.032" style="fill:#58595b;"/><path d="M17.78,40.926c0.02,0.009 0.127,0.082 0.132,0c0.087,0.071 -0.073,0.166 -0.198,0.131c0.018,-0.048 0.048,-0.082 0.066,-0.131" style="fill:#58595b;"/><path d="M19.153,41.024c-0.005,0.071 -0.082,0.071 -0.163,0.065c0.028,-0.048 0.106,-0.047 0.163,-0.065" style="fill:#58595b;"/><path d="M14.347,42.528c-0.074,0.1 -0.21,-0.037 0,0" style="fill:#58595b;"/><path d="M27.558,18.918c-0.147,0.64 -0.343,1.276 -0.523,1.896c-0.125,0.428 -0.254,0.776 -0.392,1.178c-0.19,0.545 -0.439,1.074 -0.753,1.602c-0.213,0.357 -0.417,0.711 -0.521,1.112c-0.858,0.889 -1.303,2.053 -1.932,3.107c-0.192,0.323 -0.361,0.68 -0.557,1.046c-0.008,0.019 0.017,0.086 0,0.098c-0.337,0.298 -0.469,0.952 -0.621,1.439c-0.171,0.56 -0.277,1.054 -0.391,1.799c-0.051,0.315 -0.167,0.494 -0.231,0.752c-0.063,0.268 -0.03,0.55 -0.097,0.818c-0.033,0.135 -0.116,0.248 -0.162,0.393c-0.179,0.564 -0.325,1.061 -0.622,1.535c-0.541,-0.004 -1.06,0.057 -1.57,0.066c-0.754,0.013 -1.445,-0.127 -2.224,-0.098c0.093,-1.512 0.132,-3.045 0.165,-4.382c0.012,-0.581 -0.045,-1.165 0,-1.863c0.018,-0.28 0.051,-0.536 0.032,-0.916c-0.014,-0.253 0.001,-0.531 0,-0.818c-0.005,-0.826 0.185,-1.696 -0.164,-2.191c-0.453,-0.148 -0.941,-0.019 -1.375,-0.13c-0.14,-0.038 -0.258,-0.158 -0.39,-0.197c-0.173,-0.051 -0.329,0.024 -0.459,-0.099c-0.187,0.032 -0.34,0.098 -0.523,0.132c-0.226,0.017 -0.566,0.002 -0.884,0.064c-0.253,0.051 -0.436,0.277 -0.619,0.23c-0.003,-0.023 -0.003,-0.046 -0.003,-0.069c-0.056,0.038 -0.118,0.066 -0.183,0.087c0,0.041 -0.002,0.079 -0.011,0.113c-0.062,0.231 -0.3,0.305 -0.36,0.588c-0.071,0.333 0.027,0.735 0.097,1.079c0.031,0.145 0.044,0.273 0.065,0.426c0.037,0.249 0.131,0.512 0.132,0.751c0.004,0.473 -0.157,0.97 -0.132,1.539c0.088,1.913 0.186,3.788 0.198,5.461c-0.888,-0.032 -1.961,-0.01 -2.846,-0.132c-0.323,-0.044 -0.67,-0.151 -0.915,-0.294c-0.461,-0.271 -0.925,-0.982 -1.047,-1.635c-0.042,-0.225 -0.009,-0.404 -0.031,-0.687c-0.034,-0.386 -0.091,-0.84 -0.132,-1.308c-0.03,-0.367 -0.041,-0.737 -0.132,-1.078c-0.082,-0.319 -0.218,-0.613 -0.293,-0.916c-0.051,-0.21 -0.051,-0.419 -0.099,-0.622c-0.05,-0.21 -0.133,-0.418 -0.196,-0.622c-0.06,-0.201 -0.086,-0.412 -0.162,-0.555c-0.064,-0.118 -0.161,-0.212 -0.229,-0.328c-0.188,-0.312 -0.359,-0.736 -0.524,-1.112c-0.004,-0.01 0.048,-0.052 0.033,-0.064c-0.056,-0.047 -0.049,-0.024 -0.066,-0.066c-0.161,-0.436 -0.383,-0.883 -0.587,-1.308c-0.24,-0.488 -0.444,-0.998 -0.719,-1.472c-0.496,-0.844 -0.98,-1.8 -1.409,-2.845c-0.197,-0.484 -0.347,-0.986 -0.489,-1.504c-0.074,-0.267 -0.125,-0.537 -0.165,-0.818c-0.04,-0.302 -0.133,-0.579 -0.196,-0.883c-0.208,-1.006 -0.315,-2.128 -0.196,-3.269c0.08,-0.748 0.252,-1.531 0.557,-2.257c0.105,-0.25 0.217,-0.586 0.358,-0.883c0.177,-0.37 0.313,-0.668 0.492,-1.015c0.364,-0.709 0.735,-1.48 1.21,-2.125c0.2,-0.271 0.426,-0.5 0.62,-0.785c0.038,-0.038 0.084,-0.012 0.033,0c0.209,0.073 0.239,-0.152 0.328,-0.262c0.278,-0.344 0.619,-0.668 0.981,-0.98c0.467,-0.402 0.987,-0.707 1.536,-1.047c0.527,-0.325 1.107,-0.652 1.701,-0.883c0.62,-0.241 1.269,-0.406 1.897,-0.686c0.405,-0.026 0.802,-0.138 1.208,-0.23c0.844,-0.186 1.702,-0.276 2.259,-0.817c0.191,0.044 0.292,0.229 0.457,0.328c0.262,0.153 0.514,0.162 0.621,0.326c0.514,0.038 1.005,0.243 1.506,0.36c0.091,0.022 0.177,0.012 0.259,0.033c0.085,0.021 0.026,0.063 0.034,0.066c0.019,0.005 0.056,-0.047 0.097,-0.033c0.229,0.073 0.454,0.173 0.688,0.262c0.432,0.161 0.855,0.355 1.275,0.554c0.212,0.101 0.428,0.188 0.619,0.295c0.228,0.126 0.425,0.273 0.656,0.393c0.646,0.334 1.294,0.73 1.833,1.209c0.366,0.327 0.676,0.691 1.012,1.047c0.171,0.18 0.342,0.325 0.492,0.523c0.143,0.192 0.32,0.361 0.458,0.557c0.107,0.154 0.178,0.332 0.294,0.49c0.132,0.18 0.271,0.423 0.358,0.555c0.061,0.094 0.135,0.211 0.197,0.328c0.083,0.156 0.157,0.354 0.326,0.458c-0.013,0.123 0.088,0.288 0.165,0.457c0.08,0.174 0.152,0.339 0.262,0.426c0.018,0.546 0.419,0.99 0.36,1.406c0.783,2.051 0.802,4.514 0.261,6.9M17.976,36.544c0.268,-0.256 0.483,-0.563 0.948,-0.621c-0.301,0.283 -0.476,0.561 -0.948,0.621M17.846,36.576c-0.078,0.027 -0.195,-0.018 -0.296,0c0.001,-0.056 -0.023,-0.083 -0.065,-0.098c0.086,-0.056 0.145,-0.137 0.195,-0.228c-0.175,0.037 -0.262,0.203 -0.26,0.326c-0.774,0.025 -1.42,-0.025 -2.157,-0.032c0.125,-0.369 0.786,-0.56 1.209,-0.328c0.221,-0.033 0.49,-0.064 0.556,0c0.022,-0.033 0.121,-0.23 0.163,-0.162c0.033,-0.112 0.139,-0.179 0.359,-0.164c-0.108,0.232 -0.461,0.366 -0.423,0.556c0.043,-0.173 0.269,-0.166 0.293,-0.359c0.157,0.048 0.135,-0.083 0.26,-0.066c-0.148,-0.107 0.216,-0.148 0.396,-0.131c-0.093,0.148 -0.27,0.214 -0.362,0.36c0.309,-0.105 0.329,-0.389 0.85,-0.327c-0.163,0.042 -0.586,0.609 -0.718,0.653M14.869,36.904c-0.47,0.403 -1.091,0.751 -1.505,1.112c0.008,0.057 0.058,0.074 0.132,0.065c-0.06,0.123 -0.124,0.09 -0.229,0.065c-0.24,-0.056 -0.578,0.059 -0.753,0.131c-0.061,-0.145 -0.35,-0.054 -0.522,-0.033c0.012,-0.055 -0.026,-0.06 -0.066,-0.065c0.241,-0.258 0.626,-0.547 1.014,-0.687c-0.017,0.027 -0.035,0.054 -0.034,0.098c0.142,0.004 0.121,-0.053 0.263,-0.098c-0.102,-0.047 0.113,-0.195 0.231,-0.229c0.036,-0.005 0.025,-0.06 0.029,-0.098c0.172,0.027 0.184,-0.143 0.329,-0.129c-0.005,-0.04 -0.061,-0.029 -0.098,-0.034c0.128,-0.093 0.392,-0.455 0.654,-0.294c-0.011,0.044 -0.082,0.027 -0.131,0.033c-0.116,0.152 -0.368,0.276 -0.523,0.424c-0.047,0.046 -0.164,0.12 -0.099,0.197c0.136,-0.195 0.522,-0.324 0.687,-0.589c0.155,0.026 0.154,-0.108 0.294,-0.097c0.073,0.105 -0.127,0.162 -0.196,0.228c-0.292,0.351 -0.769,0.515 -1.047,0.883c-0.155,0.008 -0.184,0.143 -0.294,0.196c0.009,0.035 0.064,0.022 0.064,0.065c0.32,-0.082 0.423,-0.528 0.721,-0.524c0.03,-0.116 0.367,-0.34 0.491,-0.359c0.159,-0.2 0.378,-0.341 0.588,-0.489c0.161,0.05 0.209,0.049 0.394,0.032c-0.141,0.057 -0.19,0.204 -0.394,0.196M12.745,38.801c-0.264,-0.014 -0.375,0.126 -0.525,0.229l-0.393,0c0.189,-0.185 0.344,-0.336 0.624,-0.361c0.019,0.068 0.097,-0.048 0.031,0.066c0.142,-0.017 0.201,0.009 0.263,-0.032c0.048,0.014 -0.014,0.041 0,0.098M12.678,39.258c-0.006,0.027 -0.032,0.034 -0.032,0.066c0.207,-0.085 0.509,0.07 0.684,-0.032c-0.009,-0.012 -0.009,-0.019 0.003,0c-0.002,0 -0.003,0 -0.003,0c0.014,0.031 0.07,0.103 0.133,-0.034c0.048,0.014 -0.003,0.029 0,0.066l0.066,0c-0.147,0.157 -0.376,0.235 -0.524,0.392c0.075,0.089 0.2,0.127 0.359,0.131c-0.128,0.028 -0.281,0.053 -0.424,0.033c-0.037,-0.005 -0.079,-0.064 -0.066,-0.065c-0.085,0.003 -0.383,0.196 -0.457,0.032c0.074,0.106 -0.747,0.194 -0.654,0.065c-0.219,0.093 -0.301,0.142 -0.589,0.132c0.093,-0.197 0.405,-0.198 0.491,-0.328c0.012,-0.022 -0.053,-0.032 -0.065,-0.032c-0.369,0.143 -0.581,0.507 -1.146,0.36c0.276,-0.315 0.676,-0.586 1.079,-0.72c0.011,-0.003 -0.004,-0.026 -0.016,-0.032l-0.017,0c0.006,-0.006 0.01,-0.003 0.017,0c0.143,0.004 0.432,-0.067 0.703,0.032c0.032,-0.134 0.341,0.037 0.458,-0.066M13.79,39.454c-0.002,-0.031 -0.039,-0.025 -0.065,-0.032c0.06,-0.049 0.156,-0.063 0.262,-0.066c0,-0.031 -0.04,-0.025 -0.066,-0.032c-0.006,-0.071 0.116,-0.015 0.164,-0.032c-0.172,0.122 -0.314,0.235 -0.528,0.325c0.002,0 0.003,0.001 0.004,0.001l-0.01,0c-0.055,0.024 -0.116,0.046 -0.187,0.066c0.031,-0.055 0.099,-0.071 0.187,-0.066c0.003,0 0.005,-0.001 0.006,-0.001c-0.094,-0.032 -0.094,-0.107 0.004,-0.032c0.095,-0.024 0.086,-0.155 0.229,-0.131M14.542,39.292c-0.153,0.183 -0.385,0.289 -0.621,0.392c0.096,-0.212 0.231,-0.344 0.621,-0.392M14.542,39.585c-0.066,-0.069 0.148,-0.134 0.229,-0.163c-0.053,0.077 -0.168,0.092 -0.229,0.163M15.065,39.292c-0.002,0.106 -0.149,0.069 -0.229,0.097c-0.063,0.064 0.106,-0.136 0.229,-0.097M17.094,39.226c0.235,-0.007 0.506,-0.121 0.686,0c0.078,-0.031 0.157,-0.06 0.231,-0.098c0.204,0.024 0.135,-0.003 0.291,0c-0.105,0.142 -0.209,0.185 -0.226,0.457c-0.214,0.174 -0.381,0.175 -0.72,0.131c0.14,-0.152 0.324,-0.263 0.424,-0.458c-0.254,0.166 -0.34,0.301 -0.557,0.491c-0.396,0.072 -0.726,-0.168 -0.915,0.066c-0.764,-0.108 -1.166,0.057 -1.798,0c0.199,-0.216 0.522,-0.306 0.818,-0.426c-0.005,-0.083 -0.11,-0.065 -0.196,-0.065c0.578,-0.11 1.335,-0.081 1.962,-0.098M18.467,38.408c-0.289,0.169 -0.434,0.755 -0.917,0.524c0.287,-0.221 0.493,-0.724 0.917,-0.524M17.846,38.244c-0.08,-0.028 -0.227,0.009 -0.23,-0.098c0.26,0.01 0.186,-0.039 0.395,-0.098c-0.141,0.069 0.032,0.09 0.094,0.033c0.053,0.064 -0.21,0.091 -0.259,0.163M18.368,37.983c0.252,-0.182 0.413,-0.376 0.719,-0.556c0.089,-0.267 0.307,-0.32 0.491,-0.425c0.067,0.065 0.078,0.183 0.13,0.261c-0.223,0.299 -0.522,0.439 -0.816,0.72c-0.138,-0.168 -0.378,0.033 -0.555,0.033c-0.011,-0.058 0.03,-0.067 0.031,-0.033M19.775,37.689c0.007,0.291 -0.383,0.3 -0.751,0.294c0.189,-0.096 0.349,-0.463 0.654,-0.426c0.005,-0.027 -0.015,-0.03 -0.035,-0.033c0.064,-0.06 0.132,0.125 0.132,0.165M19.545,38.997c0.056,0.178 -0.194,0.267 -0.325,0.359c-0.13,0.241 -0.38,0.385 -0.721,0.328c0.165,-0.054 0.177,-0.259 0.393,-0.262c-0.135,-0.143 0.424,-0.28 0.394,-0.425c0.051,-0.092 0.145,0.045 0.259,0M19.708,39.258c0.055,0.272 -0.239,0.417 -0.522,0.393c0.011,-0.109 0.182,-0.341 0.392,-0.359c-0.003,-0.121 0.085,0.008 0.13,-0.034M19.611,40.73c-0.055,0.053 -0.12,0.099 -0.228,0.099c0.074,0.184 0.094,-0.021 0.26,0c-0.009,0.095 0.075,0.1 0.065,0.195c-0.178,0.105 -0.288,0.278 -0.588,0.262c0.125,-0.116 -0.253,-0.047 -0.13,-0.164c-0.169,0.085 -0.393,0.11 -0.653,0.099c0.378,-0.269 0.572,-0.379 1.012,-0.524c-0.664,-0.097 -0.781,0.635 -1.538,0.556c0.271,-0.168 0.564,-0.31 0.853,-0.457c0.028,0 0.024,0.04 0.031,0.065c0.073,-0.081 0.172,-0.134 0.295,-0.164c-0.236,-0.014 -0.452,0.124 -0.751,0.229c-0.272,0.095 -0.396,0.337 -0.722,0.393c-0.123,0.022 -0.283,0.025 -0.423,0.032c-0.574,0.03 -1.256,-0.031 -1.766,0.032c0.028,-0.094 0.13,-0.091 0.227,-0.162c0.127,-0.095 0.224,-0.155 0.426,-0.262c0.142,-0.076 0.308,-0.13 0.425,-0.196c0.05,0.041 0.618,-0.17 0.556,0c0.062,-0.036 0.155,-0.042 0.229,-0.066c-0.102,0.113 -0.249,0.14 -0.394,0.229c-0.216,0.136 -0.506,0.242 -0.685,0.36c0.113,0.046 0.355,-0.06 0.392,-0.197c0.235,0.058 0.39,-0.215 0.623,-0.293c0.101,-0.035 0.218,-0.013 0.324,-0.033c0.117,-0.022 0.233,-0.099 0.395,-0.033c0.062,-0.005 0.109,-0.022 0.13,-0.065c0.082,0.065 -0.108,0.129 -0.13,0.196c0.091,0.016 0.203,-0.148 0.393,-0.196c0.14,-0.037 0.396,-0.011 0.62,-0.034c0.375,-0.036 0.59,-0.21 0.752,0.099M19.481,42.202c-0.451,0.137 -0.837,0.341 -1.179,0.587c0.199,0.015 0.22,-0.15 0.427,-0.13c0.062,-0.186 0.62,-0.309 0.816,-0.36c0.015,0.098 -0.202,0.133 -0.325,0.197c-0.163,0.082 -0.275,0.187 -0.46,0.262c-0.044,0.032 0.015,0.054 -0.065,0.098c-0.104,0.037 -0.079,-0.052 -0.131,-0.067c-0.075,0.01 0.004,0.123 0.033,0.132c-0.22,0.056 -0.662,0.051 -0.883,0c0.206,-0.133 0.379,-0.296 0.623,-0.393c-0.098,-0.063 -0.265,0.062 -0.393,0.164c-0.021,0.015 -0.053,0.091 -0.067,0.097c-0.082,0.048 -0.407,0.068 -0.226,0.132c-0.646,0.103 -0.977,0.045 -1.702,0.13c0.023,-0.118 -0.056,-0.118 -0.033,0c-0.088,-0.229 0.394,-0.325 0.425,-0.359c0.135,-0.148 0.395,-0.146 0.557,-0.131c-0.045,-0.191 -0.373,-0.041 -0.557,0.032c-0.197,0.08 -0.568,0.239 -0.425,0.263c-0.249,0.143 -0.583,0.201 -0.95,0.229c0.199,-0.206 0.553,-0.256 0.721,-0.492c0.032,0.002 0.026,0.041 0.033,0.066c0.487,-0.36 1.127,-0.343 1.7,-0.36c0.085,0.008 -0.045,0.057 0,0.133c0.175,0 0.267,-0.083 0.36,-0.165c0.127,0 0.352,0.163 0.459,-0.032c0.243,0.013 0.361,-0.048 0.521,0.032c-0.103,0.017 -0.212,0.162 -0.423,0.165c0.031,0.053 0.137,0.034 0.195,0.064c0,-0.031 -0.042,-0.025 -0.065,-0.034c0.022,-0.115 0.193,0.022 0.293,-0.065c0.044,-0.022 -0.016,-0.086 0.033,-0.162c0.199,-0.009 0.275,-0.14 0.393,-0.229c0.124,0.039 0.166,0.16 0.295,0.196M18.99,42.954c-0.066,-0.001 -0.043,-0.09 -0.131,-0.065c0.038,-0.269 0.519,-0.267 0.557,-0.427c0.013,-0.048 0.04,0.014 0.097,0c-0.154,0.186 -0.372,0.306 -0.523,0.492M19.447,43.837c-0.171,0.419 -0.654,0.608 -0.948,0.882c-0.522,0.49 -0.954,1.261 -1.863,1.178c-0.007,-0.062 0.07,-0.039 0.097,-0.065c0.154,-0.152 0.3,-0.326 0.49,-0.491c0.078,-0.066 0.156,-0.126 0.228,-0.195c0.074,-0.067 0.066,-0.104 0.165,-0.165c0.15,-0.092 0.322,-0.237 0.36,-0.359c0.202,-0.205 0.593,-0.349 0.655,-0.589c0.095,0.047 0.028,0.073 0.064,0.195c0.056,-0.14 0.086,-0.306 0.262,-0.326c0.01,-0.065 -0.006,-0.102 -0.065,-0.098c0.063,-0.089 0.119,-0.186 0.228,-0.229c0.102,0.092 0.181,0.212 0.327,0.262M16.504,45.897c-0.128,-0.024 -0.224,0.026 -0.457,0.033c0.047,-0.095 0.025,-0.037 -0.066,-0.033c0.204,-0.477 0.97,-0.993 1.536,-1.405c-0.146,-0.053 0.083,-0.108 0.294,-0.264c0.17,-0.123 0.423,-0.284 0.753,-0.195c-0.007,0.036 -0.065,0.022 -0.065,0.065c-0.006,0.028 0.013,0.032 0.033,0.033c-0.209,0.226 -0.529,0.344 -0.752,0.557c-0.007,0.036 0.006,0.057 0.031,0.065c-0.085,0.076 -0.221,0.103 -0.261,0.228c-0.045,-0.015 0.002,-0.029 0,-0.066c-0.299,0.232 -0.639,0.569 -0.98,0.852c-0.019,0.028 -0.134,0.119 -0.066,0.13M15.23,45.93c-0.065,0 -0.042,0.089 -0.133,0.065c0.465,-0.486 0.981,-0.917 1.506,-1.34c0.216,-0.224 0.48,-0.505 0.848,-0.524c0.11,-0.007 0.21,0.095 0.329,0.032c0.033,0.11 -0.102,0.052 -0.164,0.065c-0.101,0.157 -0.411,0.307 -0.654,0.491c0.006,0.04 0.061,0.028 0.098,0.034c-0.186,0.074 -0.406,0.117 -0.424,0.359c-0.134,-0.014 -0.207,0.034 -0.197,0.163c-0.445,0.089 -0.571,0.855 -1.209,0.655M14.51,45.995c0.039,0.021 -0.005,-0.231 -0.032,-0.033c-0.026,-0.143 0.188,-0.229 0.325,-0.361c0.104,-0.097 0.158,-0.215 0.329,-0.26c0.063,-0.221 0.301,-0.265 0.391,-0.458c0.081,0.005 0.101,-0.051 0.164,-0.065c0.066,-0.043 0.111,-0.107 0.131,-0.196c0.201,-0.051 0.399,-0.331 0.588,-0.394c0.245,-0.08 0.428,0.043 0.654,-0.032c-0.309,0.193 -0.563,0.438 -0.884,0.622c-0.345,0.453 -1.034,0.725 -1.242,1.21c-0.164,-0.034 -0.329,0.016 -0.424,-0.033M14.085,46.518c0.032,-0.099 0.196,-0.349 0.457,-0.327c-0.095,0.166 -0.318,0.206 -0.457,0.327M13.856,45.897c-0.287,0.179 -0.59,0.093 -0.95,0.098c-0.016,-0.07 0.118,-0.025 0.131,-0.033c0.043,-0.024 -0.014,-0.047 0.032,-0.098c0.127,-0.13 0.405,-0.267 0.623,-0.458c0.357,-0.312 0.771,-0.662 1.079,-1.014c0.267,-0.113 0.496,-0.226 0.784,-0.098c-0.244,0.274 -0.503,0.25 -0.784,0.589c0,0.032 0.04,0.026 0.065,0.032c-0.423,0.046 -0.478,0.458 -0.849,0.557c0.019,-0.029 0.038,-0.059 0,-0.066c-0.033,0.244 -0.442,0.274 -0.327,0.556c0.261,-0.231 0.607,-0.488 0.915,-0.785c0.103,-0.098 0.149,-0.125 0.294,-0.229c0.118,-0.085 0.228,-0.215 0.361,-0.326c0.216,-0.183 0.553,-0.519 0.946,-0.361c-0.14,-0.089 0.051,-0.065 0.132,-0.033c-0.38,0.197 -0.588,0.518 -0.914,0.687c-0.015,0.11 -0.318,0.147 -0.329,0.36c-0.09,-0.002 -0.065,0.056 -0.131,0c0.017,0.027 0.035,0.054 0.032,0.099c-0.288,0.113 -0.498,0.306 -0.652,0.556c-0.166,-0.043 -0.371,0.151 -0.458,-0.033M12.385,45.897c0.007,-0.041 0.065,-0.033 0.066,0c0.183,-0.362 0.532,-0.556 0.848,-0.785c0.136,-0.236 0.512,-0.386 0.786,-0.588c0.078,-0.058 0.107,-0.164 0.163,-0.198c-0.022,0.013 0.19,-0.057 0.23,-0.065c0.151,-0.024 0.268,0.019 0.423,0c-0.447,0.314 -0.727,0.742 -1.209,0.949c0.136,0.082 -0.02,0.056 -0.131,0.131c-0.04,0.028 -0.052,0.127 -0.098,0.163c-0.014,0.011 -0.111,-0.003 -0.164,0.033c-0.112,0.075 -0.314,0.325 -0.491,0.23c-0.144,0.03 -0.261,0.224 -0.423,0.13M12.058,45.897c0.108,-0.129 -0.133,0.039 -0.034,-0.098c-0.113,0.04 -0.216,0.088 -0.393,0.065c0.044,-0.102 0.068,-0.017 0.164,-0.065c-0.06,-0.063 -0.058,-0.026 -0.032,-0.131c0.075,-0.003 0.073,-0.045 0.064,-0.033c0.064,-0.102 0.334,-0.23 0.393,-0.294c0.016,-0.017 -0.023,-0.041 -0.032,-0.033c0.094,-0.073 0.268,-0.116 0.36,-0.228c-0.042,-0.145 -0.145,0.059 -0.097,0.032c-0.129,0.076 -0.166,0.085 -0.329,0.131l0,0.131c-0.116,0.068 -0.219,0.067 -0.327,0.163c-0.039,0.036 -0.028,0.1 -0.066,0.131c-0.003,0.004 -0.075,-0.11 -0.098,0.033c-0.087,0 -0.042,-0.138 -0.131,0c-0.1,-0.033 0.039,-0.089 0.067,-0.1c0.173,-0.228 0.376,-0.428 0.653,-0.554c-0.127,-0.087 0.016,-0.03 0.065,-0.099c-0.06,-0.111 -0.114,0.056 -0.195,0.033c0.032,0.195 -0.563,0.299 -0.621,0.588l-0.098,0c0.174,0.139 -0.174,0.038 -0.164,0.23c-0.245,-0.072 -0.376,-0.256 -0.523,-0.425c0.026,-0.006 0.03,0.012 0.032,0.032c0.016,-0.041 0.035,-0.066 0.065,-0.163c0.056,-0.005 0.181,-0.024 0.197,-0.033c-0.008,0.005 0.062,-0.151 0.099,-0.163c0.013,-0.005 0.047,0.048 0.065,0.033c0.032,-0.031 0.04,-0.126 0.098,-0.165c0.174,0.026 0.094,0.011 0.161,-0.065c0.025,-0.024 0.078,-0.009 0.099,-0.032c0.017,-0.016 0.049,-0.151 0.1,-0.196c0.015,-0.014 0.168,-0.119 0.195,-0.13c0.04,-0.018 0.035,-0.006 0.032,0.001l0,-0.001c0.127,-0.15 0.33,-0.155 0.523,-0.132c-0.504,0.367 -0.91,0.612 -1.273,1.014c0.006,0.026 0.03,0.032 0.03,0.065c0.297,-0.145 0.392,-0.221 0.688,-0.524c0.23,-0.233 0.553,-0.495 0.851,-0.589c0.034,-0.01 0.017,-0.028 0,-0.032c0.373,-0.033 0.377,-0.07 0.817,0c-0.091,0.139 -0.317,0.14 -0.394,0.295c0.093,-0.045 0.453,-0.14 0.331,-0.197c0.182,-0.042 0.435,-0.187 0.814,-0.131c-0.276,0.317 -0.819,0.552 -1.209,0.885c-0.088,0.073 -0.121,0.135 -0.229,0.195c-0.106,0.059 -0.136,0.188 -0.228,0.26c-0.049,0.04 -0.166,0.056 -0.23,0.1c-0.098,0.068 -0.137,0.187 -0.26,0.196M10.52,45.275c-0.22,-0.118 -0.352,-0.323 -0.556,-0.457c-0.006,-0.044 0.19,-0.043 0.065,-0.099c0.18,-0.016 0.244,-0.276 0.491,-0.262c0.01,-0.018 -0.055,-0.042 -0.066,-0.031c0.213,-0.187 0.573,-0.182 0.818,-0.132c-0.411,0.133 -0.637,0.455 -1.08,0.556c-0.015,0.161 0.131,0.175 0.164,0.197c0.037,-0.006 0.019,-0.033 0,-0.032c0.14,-0.112 0.318,-0.193 0.492,-0.327c0.197,-0.155 0.348,-0.363 0.586,-0.394c0.136,-0.018 0.272,0.077 0.427,0.066c-0.467,0.286 -0.827,0.676 -1.341,0.915M9.669,44.556c0.113,-0.136 0.298,-0.405 0.559,-0.262c0.013,-0.083 0.029,-0.018 0.161,-0.066c0.047,-0.095 0.024,0.077 -0.066,0.033c0.04,0.078 0.142,-0.05 0.197,-0.065c0.069,0.041 -0.2,0.191 -0.229,0.13c-0.043,0.111 -0.385,0.412 -0.622,0.23M9.342,44.228c0.121,-0.227 0.475,-0.162 0.656,-0.097c-0.131,0.06 -0.473,0.321 -0.656,0.097M9.211,44.098c-0.048,-0.122 -0.116,-0.298 -0.066,-0.425c0.165,-0.044 0.443,0.038 0.524,-0.032c0.053,0.064 -0.12,0.183 -0.228,0.196c-0.03,0.133 -0.084,0.243 -0.23,0.261M8.754,43.02c0.129,-0.287 0.568,-0.456 0.883,-0.361c-0.324,0.081 -0.512,0.432 -0.883,0.361M9.211,42.432c-0.068,0.071 -0.19,0.113 -0.294,0.064c-0.031,0.024 -0.049,0.059 -0.065,0.097c0.018,0.075 0.052,-0.038 0.098,0.034c-0.106,0.09 -0.187,0.206 -0.361,0.229c0.031,-0.341 0.305,-0.46 0.622,-0.424M9.114,41.516c0.24,-0.165 0.443,-0.365 0.753,-0.459c-0.376,-0.05 -0.716,0.562 -1.113,0.294c0.101,-0.171 0.346,-0.198 0.522,-0.294c-0.152,-0.07 -0.416,0.186 -0.587,0.099c-0.038,-0.192 0.118,-0.188 0.163,-0.295c0.113,0.023 0.173,0.028 0.262,0.131c0.412,-0.066 0.889,-0.07 1.374,-0.066c-0.316,0.274 -0.752,0.427 -1.112,0.654c0.005,0.061 0.11,0.02 0.129,0.066c0.323,-0.256 0.674,-0.416 1.015,-0.622c0.031,-0.017 0.023,-0.023 0,-0.032c0.138,-0.115 0.441,-0.081 0.587,-0.099c-0.005,0.024 -0.02,0.042 -0.04,0.054c0.166,-0.043 0.339,-0.114 0.533,-0.054c0.037,-0.006 0.018,-0.032 0,-0.032c0.098,-0.023 0.1,0.048 0.293,0c-0.296,0.281 -0.76,0.395 -0.982,0.752c-0.271,0.119 -0.545,0.083 -0.814,0.065c0.368,-0.251 0.724,-0.515 1.143,-0.719c-0.195,-0.063 -0.238,0.221 -0.459,0.13c-0.007,0.019 0.051,0.041 0.067,0.033c-0.152,0.093 -0.661,0.253 -0.751,0.394c-0.016,0.02 0.05,0.032 0.062,0.032c-0.195,0.129 -0.454,0.198 -0.817,0.163c-0.047,-0.094 -0.107,-0.174 -0.228,-0.195M8.883,39.749c0.072,-0.11 0.219,-0.266 0.428,-0.327l0,-0.13c-0.196,0.098 -0.411,0.178 -0.589,0.293c-0.099,-0.046 0.041,-0.128 0,-0.229c0.132,-0.064 0.316,-0.095 0.359,-0.163c0.285,0.185 0.822,0.052 1.147,0.131c0.21,-0.063 -0.209,0.176 -0.33,0.195c-0.036,0.008 -0.019,0.034 0,0.034c-0.142,0.058 -0.423,0.219 -0.587,0.359c-0.065,0 -0.043,-0.089 -0.132,-0.065c0.082,-0.089 0.247,-0.156 0.262,-0.163c0.024,-0.014 0.053,-0.054 0.064,0c-0.029,-0.12 0.249,-0.12 0.328,-0.23c-0.009,-0.035 -0.066,-0.021 -0.066,-0.065c-0.407,0.141 -0.43,0.291 -0.884,0.36M9.276,38.211c0.094,0.018 0.148,0.072 0.165,0.165c0.467,-0.003 0.872,0.198 1.275,0.097c-0.397,0.192 -0.616,0.563 -1.243,0.524c0.115,-0.234 0.32,-0.376 0.587,-0.459c-0.208,-0.105 -0.239,0.127 -0.489,0.131c-0.05,-0.199 -0.26,-0.242 -0.295,-0.458M9.376,36.576c0.256,-0.224 0.495,-0.354 0.852,-0.228c-0.36,0.241 -0.742,0.46 -1.083,0.719c0.004,-0.243 0.05,-0.332 0.231,-0.491M9.342,36.576l-0.131,0c-0.01,-0.261 0.145,-0.357 0.426,-0.326c0.016,0.223 -0.338,0.077 -0.295,0.326M13.889,35.793c-0.107,0.144 -0.292,0.21 -0.46,0.294c-0.138,-0.034 0.173,-0.033 0.034,-0.066c0.063,-0.048 0.155,-0.063 0.131,-0.196c-0.065,-0.068 -0.172,-0.04 -0.23,0c-0.138,0.1 -0.324,0.286 -0.424,0.391c-0.255,0.018 -0.248,0.082 -0.326,0.165c-0.227,0.006 -0.439,0.001 -0.622,-0.033c0.172,-0.287 0.555,-0.195 0.753,-0.555c-0.332,0.203 -0.405,0.303 -0.786,0.423c0.171,0.114 -0.415,0.15 -0.588,0.066c0.162,-0.136 0.385,-0.371 0.621,-0.326c0.101,-0.019 0.066,-0.176 0.228,-0.131c-0.058,-0.115 -0.247,0.013 -0.228,0.033c-0.29,0.013 -0.599,0.446 -0.818,0.358c0,0.032 0.039,0.026 0.066,0.034c-0.135,0.068 -0.374,-0.041 -0.588,0c0.205,-0.229 0.529,-0.342 0.782,-0.523c-0.46,0.029 -0.727,0.595 -1.405,0.425c0.093,-0.056 0.075,-0.041 0.098,-0.131c0.036,0.008 0.021,0.066 0.065,0.066c0.006,-0.053 0.085,-0.048 0.067,-0.033c0.383,-0.296 0.613,-0.442 1.175,-0.427c0.804,0.024 1.731,0.079 2.455,0.166M16.831,34.124c-0.044,-0.036 -0.023,-0.326 0.067,-0.327c-0.028,0.104 -0.022,0.241 -0.067,0.327M17.191,35.89c-0.085,0.133 -0.242,0.194 -0.491,0.164c0.147,-0.16 0.263,-0.221 0.491,-0.164M15.753,35.89c0.285,-0.097 0.546,-0.018 0.947,-0.032c-0.022,0.075 -0.108,0.087 -0.13,0.163c-0.39,-0.066 -0.674,0.006 -0.95,0.131c0.02,-0.094 0.221,-0.171 0.133,-0.262M13.429,37.002c-0.065,-0.114 0.016,0.002 0.034,-0.066c0.04,0.054 -0.117,0.188 -0.228,0.197c0.015,-0.093 0.123,-0.094 0.194,-0.131M10.978,39.063c0.023,0.004 0.034,-0.106 0.003,-0.087c-0.014,0.018 -0.025,0.036 -0.036,0.054c0.016,-0.033 0.028,-0.048 0.036,-0.054c0.17,-0.213 0.676,-0.446 1.043,-0.307c-0.146,0.172 -0.67,0.49 -1.046,0.394M11.371,38.604c-0.241,0.11 -0.437,0.262 -0.655,0.393c-0.286,-0.003 -0.388,0.035 -0.619,0.033c0.003,-0.039 0.057,-0.028 0.095,-0.033c0.214,-0.257 0.624,-0.616 1.179,-0.393M11.207,38.31c-0.061,0.099 -0.156,-0.038 -0.262,0c0.082,-0.038 0.126,-0.115 0.262,-0.099c-0.004,0.04 -0.061,0.028 -0.1,0.033c0.016,0.041 0.044,0.067 0.1,0.066M12.745,36.381c0.031,-0.115 0.145,0.028 0.129,-0.099c0.028,-0.006 0.031,0.013 0.032,0.033c0.011,0.045 0.083,0.027 0.131,0.033c0.079,0.061 -0.214,0.022 -0.292,0.033M10.159,38.048c0.421,-0.207 0.943,-0.581 1.341,-0.915c-0.211,0.093 -0.425,0.185 -0.555,0.359c-0.215,-0.024 -0.313,0.177 -0.457,0.262c-0.089,0.051 -0.22,0.053 -0.296,0.098c-0.133,0.081 -0.17,0.209 -0.325,0.229c-0.005,0.038 0.006,0.058 0.031,0.065c-0.097,0.119 -0.29,-0.089 -0.359,-0.065c0.01,-0.163 0.2,-0.247 0.359,-0.36c0.128,-0.092 0.266,-0.237 0.425,-0.261c-0.086,-0.079 0.073,-0.048 0.097,-0.065c0.031,-0.019 0.028,-0.099 0.068,-0.132c0.048,-0.045 0.201,-0.061 0.293,-0.13c0.097,-0.074 0.062,-0.085 0.197,-0.131c0.212,-0.073 0.47,-0.324 0.622,-0.458c0.238,-0.051 0.397,-0.003 0.655,0c-0.169,0.181 -0.379,0.318 -0.655,0.458c0.023,0.09 -0.067,0.066 -0.067,0.131c0.226,-0.077 0.198,-0.254 0.491,-0.295c0.195,-0.316 0.845,-0.319 1.275,-0.262c0.027,0.111 -0.173,0.126 -0.262,0.197c-0.063,0.051 -0.092,0.013 -0.195,0.065c-0.27,0.139 -0.552,0.328 -0.752,0.491c-0.114,0.039 -0.265,0.04 -0.263,0.195c-0.075,-0.04 -0.325,0.109 -0.456,0.197c-0.247,0.164 -0.51,0.335 -0.719,0.49c-0.172,-0.007 -0.327,0 -0.46,0.033c-0.044,-0.068 0.018,-0.096 -0.033,-0.196M9.998,40.011c-0.067,-0.067 0.149,-0.005 0.161,-0.066c0.005,-0.016 -0.049,-0.045 -0.062,-0.033c0.257,-0.205 0.591,-0.324 0.814,-0.588c-0.332,0.124 -0.847,0.351 -1.11,0.654l-0.296,0c0.258,-0.256 0.619,-0.471 0.949,-0.556c0.04,-0.049 0.095,-0.08 0.1,-0.164c0.23,-0.017 0.553,0.027 0.88,0c-0.608,0.191 -0.76,0.637 -1.436,0.753M9.998,40.665c-0.075,0.017 0.038,0.05 -0.034,0.098l-0.163,0c0.176,-0.207 0.402,-0.362 0.719,-0.426c-0.142,0.142 -0.32,0.249 -0.522,0.328M10.585,40.599c-0.079,0.062 -0.262,0.254 -0.458,0.164c0.326,-0.111 0.392,-0.482 0.851,-0.458c-0.045,0.142 -0.268,0.198 -0.393,0.294M11.174,40.73c0.123,-0.16 0.292,-0.275 0.491,-0.36c0.004,-0.071 -0.117,-0.015 -0.165,-0.033c0.015,0.027 0.027,0.037 0.034,0.043c0.026,-0.003 0.017,0.007 0,0c-0.012,0.002 -0.034,0.007 -0.065,0.023c-0.202,0.095 -0.481,0.34 -0.817,0.327c0.366,-0.348 0.752,-0.544 1.372,-0.393c-0.24,0.175 -0.432,0.398 -0.85,0.393M11.893,40.665c-0.128,-0.067 0.094,-0.019 0.099,-0.034c0.007,-0.021 -0.084,-0.05 -0.099,-0.032c0.033,-0.044 0.067,-0.066 0.066,-0.066c0.023,-0.051 0.14,-0.144 0.229,-0.098c0.027,-0.18 0.122,-0.075 0.294,-0.098c-0.155,0.15 -0.313,0.297 -0.589,0.328M12.776,40.567c0.036,0.098 -0.21,0.058 -0.359,0.064c0.019,-0.03 0.092,-0.049 0.034,-0.064c0.005,-0.037 0.031,-0.019 0.031,0c0.043,-0.057 0.109,-0.09 0.196,-0.1c0.008,0.069 0.123,0.033 0.13,0.1c0.307,-0.029 0.109,0.091 -0.032,0M14.74,41.711c-0.4,0.158 -0.628,0.485 -1.08,0.588c0.29,-0.283 0.542,-0.643 1.08,-0.588M13.594,42.104c-0.025,0.02 -0.04,0.081 -0.065,0.098c0.01,-0.008 -0.134,0.008 -0.129,0.131c-0.106,0.024 -0.251,-0.041 -0.067,-0.034c0.101,-0.151 0.347,-0.346 0.523,-0.523c0.115,0.151 -0.128,0.214 -0.262,0.328M13.104,42.104c0.012,-0.064 0.092,0.052 0.065,-0.098c0.198,0.024 0.071,-0.121 0.231,-0.065c-0.051,-0.059 0.044,-0.087 0.161,-0.131c-0.139,0.146 -0.309,0.258 -0.492,0.359c-0.116,0.073 0.124,-0.073 0.035,-0.065M14.248,43.085c0.167,-0.259 0.587,-0.264 0.784,-0.492c0.178,-0.007 0.255,-0.114 0.426,-0.131c-0.323,-0.023 -0.582,0.087 -0.883,0.23c-0.403,0.19 -0.587,0.543 -1.175,0.393c0.182,-0.128 0.47,-0.321 0.814,-0.458c-0.137,-0.127 -0.378,0.122 -0.325,0.098c0.008,0.09 -0.197,-0.058 -0.099,0.033c-0.087,0.001 -0.268,0.099 -0.39,0.163c-0.061,0.132 -0.36,0.264 -0.655,0.262c-0.025,-0.1 0.032,-0.119 0.031,-0.197c0.313,-0.079 0.438,-0.348 0.785,-0.393c-0.457,-0.031 -0.755,0.379 -1.211,0.458c-0.09,0.033 0.047,0.09 -0.032,0.132c-0.157,-0.038 -0.22,-0.012 -0.425,-0.033c-0.047,-0.068 0.145,-0.02 0.165,-0.032c0.049,-0.031 0.026,-0.115 0.064,-0.164c0.169,-0.209 0.647,-0.203 0.752,-0.458c0.175,0.061 0.23,0.05 0.425,0.097c0.314,-0.258 0.783,-0.006 1.243,-0.161c0.071,-0.007 0.103,0.025 0.099,0.096c0.22,-0.171 0.832,-0.053 0.979,-0.195c0.039,0.005 0.02,0.032 0,0.032c0.065,-0.021 0.322,0.069 0.427,0l0.163,0c-0.004,0.038 -0.058,0.028 -0.098,0.032c-0.106,0.002 -0.125,0.095 -0.262,0.065c0,0.069 -0.527,0.169 -0.522,0.327c-0.112,-0.006 -0.017,0.072 -0.196,0.067c-0.105,0.168 -0.539,0.281 -0.884,0.229M14.542,43.543c-0.101,0.052 -0.168,0.183 -0.294,0.196c-0.111,-0.036 0.09,-0.011 0.033,-0.098c0.26,-0.035 0.312,-0.277 0.62,-0.263c-0.083,0.119 -0.236,0.1 -0.359,0.165M14.412,43.411c-0.324,0.198 -0.519,0.47 -0.949,0.622c0.269,-0.255 0.525,-0.522 0.949,-0.622M13.299,43.837c0.128,-0.007 0.215,-0.21 0.426,-0.229c-0.156,0.084 -0.275,0.207 -0.426,0.294c0.021,-0.03 0.04,-0.058 0,-0.065M11.533,43.902c0.124,-0.183 0.35,-0.159 0.459,-0.294c0.037,0.027 0.088,0.043 0.162,0.033c-0.152,0.204 -0.422,0.46 -0.72,0.326c-0.111,0.029 0.143,-0.052 0.197,-0.065c-0.013,-0.049 -0.041,0.013 -0.098,0M11.142,43.772c0.189,0.035 0.176,-0.13 0.358,-0.099c0,-0.032 -0.04,-0.025 -0.066,-0.032c0.042,-0.121 0.197,0.078 0.231,-0.033c0.023,0.155 -0.316,0.23 -0.425,0.359c-0.106,-0.06 -0.018,-0.11 -0.098,-0.195M10.52,43.772c0.054,0.055 0.169,0.029 0.196,-0.033c0.088,-0.061 -0.041,0.099 -0.064,0.13c0.126,-0.078 0.214,-0.197 0.391,-0.228c-0.121,0.111 -0.458,0.271 -0.458,0.294c-0.026,0.095 -0.105,-0.02 -0.165,0c0.07,-0.087 0.088,-0.07 0.1,-0.163M10.42,43.673c-0.182,0.168 -0.395,0.282 -0.685,0.196c0.181,-0.202 0.379,-0.242 0.685,-0.196M11.567,42.169c-0.098,0.12 -0.191,0.245 -0.425,0.228c0.004,-0.038 0.059,-0.027 0.098,-0.032c0.03,-0.035 0.121,-0.01 0.098,-0.098c0,-0.091 -0.088,0.077 -0.066,-0.065c0.051,0.003 0.125,-0.015 0.129,0.033c0.037,-0.045 0.174,-0.117 0,-0.098c0.176,-0.003 0.222,-0.124 0.426,-0.164c-0.079,0.072 -0.172,0.133 -0.26,0.196M12.514,42.333c0.006,-0.039 0.06,-0.028 0.1,-0.034c0.004,-0.027 -0.015,-0.03 -0.032,-0.032c0.005,-0.037 0.032,-0.018 0.032,0c0.08,0.005 0.101,-0.05 0.131,-0.098c0.047,0.12 -0.091,0.103 0.097,0.13c-0.047,0.076 -0.226,0.013 -0.328,0.034M11.207,43.183c-0.019,-0.031 -0.09,-0.05 -0.033,-0.065c-0.011,-0.101 0.038,-0.017 0.066,-0.033c0.209,-0.124 0.499,-0.384 0.784,-0.492c0.014,-0.054 -0.121,0.004 -0.131,0.034c-0.058,-0.165 0.274,-0.037 0.362,-0.131c0.122,0.027 0.215,0.088 0.391,0.065c-0.374,0.247 -0.597,0.266 -0.851,0.459c-0.146,0.11 -0.388,0.273 -0.752,0.227c0.006,-0.071 0.081,-0.069 0.164,-0.064M11.434,42.561c0.06,-0.009 0.329,0.1 0.231,0c0.02,-0.092 0.053,0.029 0.075,0.057c0.01,-0.008 0.016,-0.017 0.023,-0.025c-0.006,0.034 -0.013,0.035 -0.023,0.025c-0.099,0.107 -0.363,0.264 -0.566,0.336c-0.212,0.196 -0.424,0.357 -0.785,0.326c0.004,-0.058 -0.039,-0.068 -0.033,-0.13c0.306,-0.121 0.391,-0.318 0.687,-0.458c0.083,-0.039 0.218,-0.119 0.263,-0.131c0.048,-0.013 -0.008,0.066 0,0.066c0.071,0.005 0.065,-0.055 0.128,-0.066M12.482,42.038c0.037,-0.128 0.303,-0.162 0.424,-0.228c-0.005,0.116 -0.358,0.259 -0.358,0.392c-0.105,0.005 -0.196,0.022 -0.198,0.131c-0.13,-0.024 -0.186,0.031 -0.292,0.032c-0.082,-0.051 0.092,-0.018 0.13,-0.066c0.072,-0.092 0.078,-0.293 0.294,-0.261M12.122,41.907c0.039,0.006 0.018,0.034 0,0.034c0.045,0.034 0.093,-0.076 0.163,-0.066c0.146,0.048 -0.14,0.146 0.033,0.131c-0.157,0.06 -0.348,0.086 -0.392,0.261c-0.136,-0.027 -0.155,0.064 -0.261,0.066c-0.045,-0.113 0.254,-0.049 0.13,-0.131c0.141,0.011 0.263,-0.141 0.327,-0.295M11.174,42.006c0.038,0.005 0.019,0.033 0,0.032c0.022,0.099 0.069,-0.032 0.132,0c-0.098,-0.14 0.081,0.055 0.065,-0.097l0.129,0c-0.142,0.064 -0.236,0.177 -0.393,0.228c-0.005,-0.028 0.015,-0.031 0.035,-0.032c0.068,-0.009 -0.047,-0.088 0.032,-0.131M9.211,42.397c0.25,-0.145 0.27,-0.219 0.458,-0.26c-0.014,-0.091 0.167,-0.154 0.329,-0.164c-0.247,0.158 -0.452,0.355 -0.787,0.424M9.801,42.299c0.03,-0.024 0.035,-0.074 0.066,-0.097c0.174,-0.145 0.431,-0.115 0.424,-0.261c0.374,-0.028 0.473,0.034 0.816,-0.034c-0.21,0.227 -0.548,0.321 -0.751,0.555l-0.229,0c0.183,-0.147 0.316,-0.33 0.557,-0.489c-0.444,0.115 -0.625,0.47 -1.079,0.489c0.027,-0.08 0.128,-0.11 0.196,-0.163M9.505,43.378c-0.094,0.035 -0.18,0.081 -0.294,0.099c0.057,-0.087 -0.078,-0.209 -0.066,-0.359c0.281,-0.18 0.612,-0.477 1.014,-0.426c-0.137,0.244 -0.527,0.235 -0.686,0.458c0.248,0.161 0.561,-0.223 0.755,-0.361c0.016,-0.011 0.082,0.018 0.095,0c0.12,-0.134 0.424,-0.168 0.687,-0.13c-0.156,0.115 -0.574,0.22 -0.556,0.361c-0.234,0.057 -0.52,0.32 -0.949,0.293c-0.04,0.008 -0.032,0.065 0,0.065M12.906,44c-0.289,0.088 -0.538,0.056 -0.914,0.033c-0.087,-0.037 0.129,-0.043 0.162,-0.066c0,-0.031 -0.039,-0.024 -0.064,-0.032c0.18,-0.134 0.33,-0.283 0.686,-0.327c-0.084,0.167 -0.378,0.124 -0.325,0.425c0.069,-0.071 0.152,-0.132 0.261,-0.164c-0.05,0.038 -0.081,0.096 -0.164,0.098c0.149,0.073 0.237,-0.198 0.326,-0.294c0.1,0.115 0.387,-0.289 0.622,-0.196c0,0.179 -0.616,0.284 -0.654,0.49c-0.006,0.031 0.046,0.026 0.064,0.033M18.499,43.673c0.165,-0.022 0.243,-0.127 0.425,-0.13c-0.062,0.105 -0.268,0.352 -0.425,0.229l0,-0.001c-0.01,-0.008 -0.024,-0.019 -0.032,-0.032c0.027,-0.006 0.03,0.011 0.032,0.032l0,0.001c0.032,-0.011 0.032,-0.089 0,-0.099M15.001,43.378c0.681,-0.193 1.487,0.003 2.093,-0.131c0.029,0.026 0.073,0.036 0.129,0.033c0.082,-0.004 0.058,0.04 0,0.033c-0.164,0.097 -0.328,0.196 -0.457,0.328c-0.09,-0.08 0.104,-0.155 0.098,-0.263c-0.232,-0.068 -0.221,0.245 -0.36,0.165l0,0.098c-0.153,-0.013 -0.093,0.191 -0.262,0.163c-0.012,0.078 0.15,-0.019 0.099,0.098c0.347,-0.164 0.654,-0.322 1.047,-0.622c0.045,0.012 0.003,0.059 -0.032,0.065c0.035,0.094 0.055,-0.05 0.095,-0.065c0.048,-0.015 -0.004,0.065 0,0.065c0.019,0.002 0.144,-0.086 0.263,-0.098c0.131,-0.011 0.132,0.042 0.198,-0.032c-0.021,0.192 -0.407,0.289 -0.589,0.426c-0.02,0.098 -0.12,0.072 -0.263,0.131c-0.05,0.116 0.11,0.019 0.099,0.097c0.046,-0.148 0.546,-0.365 0.785,-0.491c0.103,-0.054 0.128,-0.143 0.195,-0.163c0.175,-0.052 0.272,0.003 0.425,0c0.072,0.053 -0.211,0.025 -0.196,0.13c0.091,0.111 0.245,-0.165 0.361,-0.032c-0.009,-0.079 0.261,-0.159 0.358,-0.13c0.046,0.132 -0.07,0.103 -0.063,0.195c-0.423,0.035 -0.756,0.525 -1.244,0.491c-0.119,-0.051 0.076,-0.049 0.031,-0.13c0.035,0 0.028,0.04 0.035,0.065c0.055,-0.041 0.037,-0.112 0.098,-0.163c0.127,-0.113 0.459,-0.105 0.424,-0.263c-0.214,0.071 -0.31,0.258 -0.588,0.263c-0.129,0.203 -0.62,0.375 -0.916,0.196c-0.439,0.274 -1.375,0.095 -1.863,0.229c0.041,-0.07 0.09,-0.128 0.131,-0.197c-0.203,-0.004 -0.376,0.115 -0.46,0.131c0.006,-0.158 0.338,-0.272 0.525,-0.359c-0.371,-0.168 -0.626,0.397 -1.014,0.326c0.253,-0.182 0.482,-0.388 0.818,-0.49c-0.007,-0.056 0.056,-0.084 0,-0.099M17.517,42.137c0.477,-0.264 0.611,-0.444 1.178,-0.621c-0.452,0.133 -0.677,0.639 -1.178,0.621M19.024,41.58c-0.399,0.036 -0.424,0.549 -1.013,0.524c0.149,-0.093 0.12,-0.166 0.291,-0.229c0.163,-0.185 0.414,-0.231 0.557,-0.359c0.062,0.013 0.196,-0.046 0.165,0.064M19.12,41.842c-0.174,0.202 -0.369,0.208 -0.686,0.229c0.235,-0.156 0.377,-0.394 0.653,-0.425c-0.025,0.1 0.056,0.096 0.033,0.196M17.846,41.678c0.172,-0.022 0.286,-0.107 0.456,-0.13c-0.169,0.092 -0.355,0.167 -0.456,0.327c-0.23,0.043 -0.392,0.154 -0.523,0.294c-0.048,-0.061 -0.217,-0.004 -0.263,-0.065c0.009,-0.043 0.065,-0.033 0.067,0c0.042,-0.101 0.202,-0.215 0.293,-0.163c-0.107,-0.106 0.253,-0.146 0.196,-0.197c0.035,-0.037 0.291,-0.042 0.23,-0.066M16.112,41.646c0.007,0.071 -0.026,0.104 -0.098,0.098c0.221,0.138 0.574,-0.157 0.884,-0.098c-0.016,0.128 -0.366,0.2 -0.492,0.327c0.162,0.028 0.271,-0.133 0.425,-0.197c0.098,-0.041 0.229,-0.034 0.328,-0.065c0.182,-0.056 0.346,-0.124 0.621,-0.098c-0.362,0.072 -0.656,0.496 -1.08,0.556c-0.558,0.08 -0.99,0.052 -1.635,0.066c-0.013,-0.091 0.123,-0.031 0.132,-0.098c-0.182,-0.009 -0.272,0.16 -0.588,0.13c0.168,-0.179 0.421,-0.276 0.553,-0.491c-0.355,0.036 -0.585,0.484 -1.045,0.523c0.464,-0.403 0.799,-0.656 1.537,-0.686c0.039,0.011 0.016,0.027 0,0.033c0.107,-0.037 0.227,-0.032 0.458,0M14.314,40.239c-0.172,0.112 -0.305,0.262 -0.589,0.264c0.178,-0.108 0.394,-0.37 0.589,-0.264M14.052,40.599c0.174,-0.213 0.489,-0.44 0.817,-0.392c-0.276,0.127 -0.442,0.364 -0.817,0.392M15.162,40.337c-0.114,0.098 -0.307,0.168 -0.493,0.221c0,0.003 0.003,0.004 0.003,0.009c-0.011,0.004 -0.027,0.003 -0.046,0.003c-0.039,0.01 -0.079,0.02 -0.116,0.029c-0.005,-0.052 0.061,-0.034 0.116,-0.029c0.015,-0.004 0.029,-0.009 0.043,-0.012c-0.008,-0.02 -0.039,-0.017 -0.06,-0.025c0.156,-0.148 0.412,-0.196 0.621,-0.294c0.088,0.038 -0.108,0.134 -0.068,0.098M16.375,40.73c-0.031,0.048 -0.107,0.047 -0.165,0.066c-0.034,-0.111 0.1,-0.052 0.165,-0.066M17.55,40.533c-0.221,-0.002 -0.266,0.023 -0.456,0c0,-0.03 0.041,-0.024 0.065,-0.03c0.005,-0.146 0.297,-0.236 0.358,-0.427c0.167,0.036 0.356,0.011 0.559,-0.065c-0.195,0.155 -0.415,0.285 -0.526,0.522M19.186,39.945c-0.026,0.165 -0.053,0.333 0,0.49c-0.319,0.009 -0.622,0.034 -0.916,0.068c0.104,-0.128 0.309,-0.151 0.327,-0.362c-0.26,0.241 -0.464,0.5 -0.883,0.362c0.085,-0.023 0.016,-0.154 0.097,-0.068c0.141,-0.183 0.382,-0.527 0.884,-0.457c0.159,0.012 -0.07,0.098 -0.064,0.163c0.209,-0.025 0.305,-0.318 0.555,-0.196M18.664,39.063c0.139,-0.023 0.264,0.035 0.26,-0.066c0.027,0.017 0.053,0.034 0.1,0.033c-0.301,0.245 -0.401,0.69 -0.948,0.686c0.114,-0.291 0.358,-0.38 0.588,-0.653M19.186,38.505c-0.014,0.048 -0.028,-0.002 -0.066,0c0.015,0.042 0.043,0.069 0.1,0.066c0.019,0.118 -0.04,0.159 -0.067,0.23c-0.166,0.006 -0.409,0.078 -0.522,0.032c0.143,-0.085 0.377,-0.253 0.393,-0.36c0.006,-0.047 0.096,-0.011 0.096,-0.065c0.068,0.009 -0.046,0.089 0.066,0.097M18.337,38.703c0.201,-0.201 0.464,-0.341 0.687,-0.524c0.084,0.157 -0.147,0.288 -0.2,0.49c-0.214,-0.014 -0.355,0.318 -0.685,0.295c-0.034,-0.035 0.187,-0.229 0.229,-0.196c0.006,-0.038 -0.008,-0.059 -0.031,-0.065M16.898,40.337c0.082,0.071 0.042,-0.054 0.097,-0.098c0.008,-0.006 0.062,0.031 0.099,0c0.045,-0.041 0.113,-0.08 0.229,-0.13c0.058,0.19 -0.313,0.232 -0.361,0.424c-0.076,0.011 -0.125,-0.005 -0.165,-0.03c0.016,-0.051 0.043,0.011 0.101,0c0.044,-0.044 0.006,-0.07 0,-0.166M15.949,40.337c0.201,-0.223 0.574,-0.215 0.882,-0.163c-0.078,0.141 -0.26,0.175 -0.425,0.229c-0.038,0.13 0.22,0.013 0.098,0.13c0.126,0.013 0.254,-0.077 0.132,0.034c-0.629,-0.046 -1.172,0.076 -1.702,0.032c0.304,-0.172 0.628,-0.48 1.047,-0.425c-0.031,0.058 -0.061,0.114 -0.163,0.098c0.029,0.111 0.073,0.004 0.131,0.065M14.117,40.829c0.577,-0.082 1.363,-0.061 2.059,-0.066c-0.176,0.138 -0.553,0.252 -0.653,0.359c-0.123,0.082 -0.324,0.09 -0.361,0.261c-0.199,0.006 -0.349,0.095 -0.684,0.066c0.175,-0.204 0.483,-0.277 0.654,-0.49c0.118,0.022 0.124,-0.071 0.229,-0.066c-0.593,-0.036 -0.663,0.624 -1.505,0.556c0.126,-0.07 0.209,-0.184 0.358,-0.228c-0.156,-0.009 -0.208,0.009 -0.325,0.162c-0.168,-0.053 -0.329,0.113 -0.59,0.066c-0.001,-0.083 0.025,-0.04 0.065,-0.033c0.065,-0.177 0.402,-0.271 0.623,-0.392c-0.096,-0.082 -0.236,0.068 -0.295,0.132c-0.301,0.047 -0.505,0.19 -0.719,0.325c-0.178,-0.003 -0.349,0 -0.459,0.067c-0.082,-0.014 0.033,-0.094 0.1,-0.067c-0.007,-0.037 -0.062,-0.026 -0.1,-0.032c0.48,-0.274 1.055,-0.803 1.603,-0.62M13.169,40.893c0.015,-0.06 0.293,-0.135 0.26,-0.032c-0.112,-0.017 -0.208,0.036 -0.292,0.098c-0.242,0.171 -0.459,0.271 -0.72,0.424c0.014,0.03 0.029,0.059 0.065,0.066c-0.062,0.08 -0.119,-0.063 -0.065,0.099c-0.187,-0.019 -0.452,-0.014 -0.59,0c0.029,-0.049 0.082,-0.071 0.165,-0.067c-0.021,-0.032 -0.077,-0.033 -0.066,-0.098c0.293,-0.153 0.521,-0.37 0.85,-0.49c-0.008,-0.045 -0.082,-0.026 -0.13,-0.032c-0.009,0.11 -0.187,0.054 -0.195,0.163c-0.572,0.095 -0.677,0.656 -1.408,0.589c-0.073,0.077 0.023,-0.09 0.131,-0.033c-0.152,-0.053 0.097,-0.166 0.26,-0.294c0.249,-0.192 0.511,-0.4 0.525,-0.425c0.236,-0.044 0.267,-0.022 0.523,-0.065c-0.007,0.026 -0.032,0.033 -0.031,0.065c0.261,-0.014 0.463,-0.112 0.718,-0.032c0.005,0.001 -0.005,0.058 0,0.064M12.94,37.297c-0.178,0.071 -0.27,0.232 -0.458,0.293c-0.216,0.295 -0.636,0.389 -0.851,0.687c-0.104,-0.018 -0.152,0.023 -0.23,0.033c0.027,-0.194 0.233,0.045 0.264,-0.196c-0.045,0.137 -0.075,-0.002 -0.132,0c-0.123,0.004 -0.277,0.076 -0.456,0.032c0.135,-0.062 0.144,-0.145 0.261,-0.163c-0.022,-0.153 0.322,-0.185 0.327,-0.327c0.194,-0.023 0.296,-0.139 0.393,-0.261c0.138,0.001 0.279,-0.11 0.393,-0.197c0.099,-0.078 0.318,-0.181 0.423,-0.294c0.206,0.037 0.224,0.008 0.361,-0.066c-0.105,0.092 -0.212,0.181 -0.329,0.262c-0.022,0.1 0.057,0.096 0.034,0.197M13.594,36.641c0.038,-0.087 0.172,0 0.228,0c-0.051,0.125 -0.201,0.148 -0.261,0.263c-0.071,-0.076 0.139,-0.213 0.033,-0.263M14.248,36.478c0.006,-0.043 0.135,-0.061 0,-0.064c0.24,-0.155 0.467,-0.32 0.653,-0.524c-0.441,-0.057 -0.568,0.477 -0.98,0.556c0.118,-0.207 0.367,-0.287 0.459,-0.523c0.005,-0.071 -0.116,-0.015 -0.166,-0.033c-0.246,0.21 -0.386,0.53 -0.85,0.524c0.202,-0.303 0.661,-0.265 0.623,-0.589c0.594,-0.092 1.004,0.071 1.7,0.033c-0.212,0.169 -0.321,0.441 -0.59,0.556c-0.024,0.029 -0.034,0.073 -0.032,0.13c-0.091,-0.039 -0.225,-0.036 -0.359,-0.033c0.163,-0.196 0.385,-0.333 0.589,-0.49c-0.403,-0.236 -0.482,0.549 -1.047,0.457M12.614,27.943c-0.018,-0.07 -0.088,-0.122 -0.1,-0.195c-0.015,-0.098 0.043,-0.197 0.034,-0.294c-0.039,-0.412 -0.356,-1.06 -0.131,-1.441c0.029,-0.049 0.223,-0.24 0.359,-0.325c0.06,-0.038 0.153,-0.028 0.229,-0.066c0.087,-0.044 0.12,-0.116 0.164,-0.131c0.232,-0.075 0.571,-0.001 0.883,-0.032c0.258,-0.027 0.49,-0.189 0.654,-0.198c0.301,-0.015 0.522,0.169 0.783,0.262c-0.085,0.208 -0.321,0.269 -0.392,0.49c0.282,-0.001 0.378,-0.533 0.786,-0.424c-0.079,0.107 -0.161,0.211 -0.263,0.294c0.213,0.161 0.256,-0.337 0.556,-0.294c0.142,0.067 -0.196,0.184 -0.26,0.262c0.184,0.196 0.352,-0.134 0.459,-0.229c0.177,-0.006 0.351,-0.004 0.489,0.032c0.215,0.297 0.122,0.611 0.098,1.014c-0.037,0.636 -0.003,1.348 0.033,2.028c0.015,0.29 -0.055,0.578 -0.066,0.85c-0.03,0.841 0.035,1.673 0,2.518c0,0.11 -0.152,0.067 -0.196,0.131c-0.062,0.362 -0.278,0.572 -0.392,0.883c0.224,0.014 0.122,-0.136 0.163,-0.262c0.083,-0.09 0.193,-0.205 0.229,-0.262c0.013,-0.018 0.004,-0.064 -0.033,-0.032c0.069,-0.066 0.124,-0.08 0.229,-0.098c-0.018,0.16 -0.163,0.364 -0.261,0.589c-0.083,0.189 -0.262,0.449 -0.098,0.589c0.066,-0.128 0.154,-0.524 0.261,-0.589c0.037,-0.007 0.017,-0.033 0,-0.033c0.12,-0.035 0.084,0.399 0.033,0.588c-0.006,0.026 -0.068,0.021 -0.067,0.065c0.006,0.133 -0.184,0.426 -0.129,0.655c0.025,0.03 0.06,0.05 0.098,0.065c-0.082,0.089 -0.073,0.192 -0.13,0.36c0.182,-0.01 0.109,-0.276 0.161,-0.327c0.095,0.44 -0.081,0.811 -0.031,1.275c-1.189,0.01 -2.72,-0.079 -4.021,-0.165c-0.054,-1.432 -0.075,-3.355 -0.163,-5.133c-0.019,-0.33 -0.054,-0.646 -0.034,-0.947c0.031,-0.515 0.207,-0.914 0.066,-1.473M9.114,35.432c0.462,0.069 1.033,0.117 1.602,0.195c-0.047,0.075 -0.212,0.028 -0.196,0.166c-0.192,0.055 -0.477,0.205 -0.589,0.261c-0.025,0.013 -0.029,0.03 -0.033,0.065c-0.115,0.026 -0.126,-0.048 -0.229,-0.032c0.173,-0.177 0.435,-0.263 0.654,-0.394c-0.404,-0.098 -0.584,0.31 -0.981,0.328c-0.038,-0.02 0.149,-0.091 0.229,-0.098c-0.01,-0.023 -0.022,-0.037 -0.032,-0.042c-0.025,0.004 -0.018,-0.011 0,0c0.016,-0.001 0.034,-0.008 0.066,-0.023c0.038,-0.02 0.064,-0.092 0.097,-0.099c0.047,-0.009 0.064,-0.005 0.065,0c0.069,-0.092 0.169,-0.041 0.197,-0.098c-0.217,-0.172 -0.651,0.284 -0.85,0.098c-0.095,-0.053 0.114,-0.253 0,-0.327M9.211,38.081c-0.028,-0.025 -0.072,-0.035 -0.13,-0.033c-0.015,-0.061 -0.069,-0.081 -0.066,-0.163c0.151,-0.273 0.601,-0.426 0.72,-0.622c0.213,-0.103 0.389,-0.243 0.556,-0.392c-0.455,0.244 -0.85,0.545 -1.276,0.818c-0.003,-0.371 0.088,-0.423 0.327,-0.622c0.278,-0.23 0.737,-0.525 1.047,-0.686c0.139,0.036 0.312,0.038 0.489,0.033c-0.107,0.136 -0.158,0.159 -0.324,0.262c0.15,0.034 0.37,-0.18 0.456,-0.23c0.211,-0.024 0.333,0.039 0.523,0.032c0.087,0.037 -0.133,0.039 -0.064,0.163c-0.132,0.025 -0.328,0.172 -0.295,0.164c-0.465,0.177 -0.768,0.518 -1.21,0.719c-0.153,0.176 -0.403,0.253 -0.523,0.459c-0.116,-0.007 -0.195,0.022 -0.23,0.098M19.742,36.216c0.176,0.074 -0.046,0.269 -0.164,0.262c0.023,-0.117 0.201,-0.082 0.164,-0.262M28.05,15.746c-0.004,-0.828 -0.038,-1.677 -0.198,-2.42c-0.05,-0.231 -0.16,-0.464 -0.196,-0.687c-0.042,-0.248 -0.037,-0.471 -0.098,-0.654c-0.015,-0.046 -0.08,-0.091 -0.101,-0.131c-0.08,-0.172 -0.067,-0.378 -0.128,-0.555c-0.017,-0.052 -0.076,-0.082 -0.098,-0.131c-0.08,-0.187 -0.061,-0.474 -0.131,-0.59c-0.122,-0.201 -0.236,-0.448 -0.325,-0.621c-0.134,-0.252 -0.293,-0.426 -0.395,-0.654c-0.068,-0.154 -0.106,-0.212 -0.164,-0.327c-0.294,-0.584 -0.709,-1.054 -1.046,-1.602l-0.131,0c-0.09,-0.262 -0.35,-0.425 -0.489,-0.719c-0.044,-0.034 -0.122,-0.033 -0.165,-0.065c0.01,-0.118 -0.098,-0.121 -0.098,-0.23c-0.276,-0.165 -0.435,-0.468 -0.688,-0.687c-0.198,-0.175 -0.466,-0.294 -0.684,-0.456c-0.041,-0.031 -0.051,-0.102 -0.098,-0.132c-0.121,-0.081 -0.273,-0.152 -0.393,-0.231c-0.115,-0.071 -0.249,-0.192 -0.391,-0.162c0.029,-0.116 -0.137,-0.123 -0.2,-0.163c-0.197,-0.128 -0.375,-0.214 -0.585,-0.328c-0.094,-0.049 -0.168,-0.143 -0.265,-0.195c-0.373,-0.207 -0.828,-0.375 -1.208,-0.556c-0.135,-0.065 -0.278,-0.165 -0.392,-0.196c-0.609,-0.166 -1.081,-0.392 -1.669,-0.524c-0.433,-0.097 -0.763,-0.103 -1.111,-0.229c-0.032,-0.101 -0.118,-0.124 -0.164,-0.13c0.022,-0.002 0.038,-0.005 0.033,-0.033c-0.602,-0.031 -0.79,-0.474 -1.177,-0.72c-0.122,0.227 -0.301,0.398 -0.492,0.557c-0.354,0.183 -0.709,0.213 -1.143,0.293c-1.209,0.224 -2.377,0.551 -3.304,0.949c-0.636,0.187 -1.253,0.515 -1.831,0.851c-0.204,0.1 -0.512,0.235 -0.588,0.359c-0.165,-0.011 -0.354,0.236 -0.589,0.262c-0.152,0.283 -0.547,0.325 -0.653,0.654c-0.455,0.156 -0.61,0.611 -0.982,0.851c0.035,-0.048 0.034,-0.081 -0.033,-0.098c-0.167,0.267 -0.478,0.392 -0.588,0.718c-0.113,-0.025 -0.042,0.133 -0.164,0.098c-0.203,0.384 -0.5,0.671 -0.72,1.015c-0.073,0.116 -0.193,0.264 -0.228,0.358c-0.025,0.067 0.031,0.072 0,0.132c-0.144,0.26 -0.407,0.481 -0.392,0.818c-0.19,0.085 -0.235,0.311 -0.296,0.522c-0.179,0.087 -0.182,0.311 -0.261,0.491c-0.104,0.241 -0.297,0.469 -0.294,0.784c-0.118,-0.021 -0.04,0.157 -0.131,0.164c0.006,0.313 -0.143,0.468 -0.229,0.687c0.024,0.007 0.064,0.001 0.066,0.033c-0.168,0.039 -0.115,0.279 -0.164,0.425c-0.06,0.182 -0.205,0.442 -0.131,0.687c-0.025,0.05 -0.104,0.049 -0.099,0.131c-0.083,0.693 -0.195,1.25 -0.161,1.929c0.02,0.448 0.07,0.95 0.161,1.406c0.033,0.158 0.116,0.287 0.132,0.458c0.028,0.261 0.067,0.371 0.098,0.556c0.02,0.114 -0.027,0.247 0,0.36c0.009,0.038 0.085,0.092 0.098,0.13c0.033,0.102 0.01,0.216 0.033,0.328c0.04,0.191 0.156,0.375 0.196,0.555c0.071,0.317 0.088,0.65 0.196,0.949c0.12,0.327 0.349,0.596 0.392,0.949c0.146,0.209 0.26,0.453 0.361,0.686c0.109,0.254 0.225,0.472 0.359,0.72c0.528,0.966 1.059,1.98 1.504,2.976c0.233,0.52 0.47,1.122 0.686,1.569c0.034,0.07 0.027,0.18 0.066,0.261c0.119,0.251 0.391,0.414 0.359,0.719c0.261,0.393 0.302,0.875 0.393,1.341c0.056,0.284 0.214,0.517 0.295,0.785c0.113,0.379 0.134,0.897 0.161,1.374c0.032,0.487 0.101,0.997 0.135,1.472c0.009,0.17 -0.024,0.324 0,0.49c0.046,0.338 0.25,0.797 0.392,1.014c0.158,0.248 0.448,0.636 0.62,0.752c0.122,0.082 0.275,0.074 0.392,0.196c-0.013,-0.013 0.011,0.102 0.066,0.098c-0.144,0.04 -0.06,0.251 -0.066,0.295c-0.002,0.013 -0.07,0.068 -0.065,0.098c0.021,0.107 0.178,0.193 0.197,0.327c0.01,0.074 -0.08,0.301 -0.099,0.524c-0.027,0.341 -0.022,0.537 -0.196,0.653c0.152,0.143 -0.025,0.401 -0.032,0.589c0.188,0.302 0.441,0.538 0.62,0.85c-0.114,0.236 -0.552,0.308 -0.817,0.49c-0.178,0.338 0.058,0.577 0.229,0.753l0.295,0c0.132,0.145 0.01,0.363 0.032,0.588c-0.297,0.084 -0.587,0.177 -0.654,0.49c0.156,0.126 0.021,0.24 0.034,0.327c0.229,0.173 0.63,0.176 0.718,0.491c-0.135,0.497 -0.938,0.327 -0.786,1.113c0.175,0.11 0.363,0.304 0.59,0.26c-0.027,0.106 0.052,0.102 0.066,0.164c-0.295,0.494 0.017,0.888 0.36,1.178c0.094,0.08 0.237,0.116 0.326,0.196c0.218,0.198 0.331,0.444 0.493,0.588c0.235,-0.022 -0.046,0.1 0.226,0.066c0.162,0.23 0.386,0.4 0.653,0.523c-0.014,0.102 0.115,0.086 0.035,0.163c0.171,0.068 0.368,0.111 0.358,0.36c0.277,0.072 0.353,0.345 0.558,0.491c1.464,-0.007 3.012,0.018 4.219,-0.033c-0.007,-0.083 0.072,-0.079 0.098,-0.13c0.244,-0.031 0.365,-0.302 0.62,-0.458c0.008,-0.096 0.116,-0.245 0.228,-0.327c0.081,-0.059 0.207,-0.05 0.327,-0.131c0.183,-0.123 0.385,-0.39 0.621,-0.622c0.298,-0.289 0.717,-0.556 0.982,-0.816c0.12,-0.118 0.414,-0.353 0.458,-0.426c0.215,-0.376 -0.126,-0.361 -0.228,-0.557c-0.085,-0.159 -0.03,-0.208 -0.034,-0.391c0.084,-0.131 0.246,-0.207 0.329,-0.329c0.037,-0.055 0.12,-0.219 0.13,-0.293c0.046,-0.403 -0.352,-0.48 -0.459,-0.818c0.039,-0.005 0.093,0.006 0.098,-0.032c-0.116,-0.004 0.004,-0.06 -0.098,-0.098c0.19,-0.231 0.571,-0.274 0.587,-0.589c0.019,-0.333 -0.313,-0.521 -0.553,-0.72c0.001,-0.108 0.054,-0.163 0.033,-0.294c0.307,-0.177 0.597,-0.452 0.52,-0.915c-0.138,-0.145 -0.339,-0.226 -0.455,-0.394c0.053,-0.076 0.117,-0.143 0.162,-0.228c-0.131,-0.071 -0.226,0.147 -0.227,0c-0.012,-0.119 0.19,-0.136 0.292,-0.229c0.112,-0.101 0.168,-0.267 0.263,-0.36c0,-0.196 0.01,-0.403 -0.035,-0.556c0.047,-0.085 0.139,-0.123 0.164,-0.227c-0.102,-0.102 -0.114,0.076 -0.227,0.064c-0.047,-0.139 -0.064,-0.308 -0.195,-0.359l-0.1,0c-0.136,0.21 -0.377,0.261 -0.554,0.457c-0.157,0.17 -0.261,0.407 -0.427,0.556c-0.017,0.016 -0.083,-0.016 -0.098,0c-0.091,0.097 -0.21,0.299 -0.394,0.164c0.148,-0.228 0.298,-0.34 0.459,-0.491c-0.122,-0.032 -0.26,0.107 -0.359,0.196c-0.114,0.101 -0.224,0.24 -0.328,0.327c-0.258,0.064 -0.297,0.144 -0.554,0.196c-0.094,0 0.078,-0.089 -0.066,-0.065c-0.443,0.075 -1.041,0.19 -1.276,0.49c0.422,-0.015 0.721,-0.324 1.079,-0.294c-0.166,0.01 -0.22,0.128 -0.327,0.196c0.291,0.09 0.563,-0.283 0.817,-0.229c-0.146,0.05 -0.187,0.205 -0.26,0.327c-0.138,0.014 -0.386,0.298 -0.163,0.361c0.108,-0.304 0.261,-0.319 0.39,-0.492c0.042,0.05 0.282,-0.003 0.427,-0.032c-0.193,0.224 -0.469,0.36 -0.621,0.622c-1.711,0.062 -3.189,0.182 -4.775,0c0.017,-0.083 0.254,-0.015 0.13,-0.131c0.118,-0.035 0.53,-0.184 0.359,-0.23c0.184,-0.002 0.262,0.096 0.426,0.066c-0.016,-0.091 0.176,-0.1 0.262,-0.066c-0.178,0.009 -0.208,0.163 -0.426,0.132c-0.024,0.133 0.107,0.111 0.164,0.163c0.226,-0.112 0.405,-0.271 0.72,-0.295c0.004,-0.038 -0.006,-0.092 0.031,-0.098c0.386,-0.033 0.755,0.064 1.016,-0.131c-0.052,-0.005 -0.12,0.012 -0.133,-0.032c0.059,-0.061 0.164,-0.078 0.231,-0.131c-0.252,-0.026 -0.421,0.242 -0.588,0.099c0.125,-0.158 0.48,-0.086 0.588,-0.262c-0.088,0.002 -0.252,0.095 -0.296,0.032c0.061,-0.234 0.339,-0.251 0.426,-0.457c0.062,-0.006 0.217,-0.085 0.131,-0.132c-0.401,0.212 -0.65,0.597 -1.014,0.753c-0.16,-0.089 -0.536,0.074 -0.719,0.033c0.012,-0.051 0.102,-0.028 0.065,-0.132c-0.104,-0.035 -0.196,-0.02 -0.301,-0.057c0.031,0.003 -0.032,-0.06 -0.069,-0.064c-0.006,0.008 -0.016,0.016 -0.022,0.024c0,-0.02 0.01,-0.025 0.022,-0.024c0.152,-0.147 0.298,-0.303 0.436,-0.467c0.049,-0.038 0.081,-0.038 0.13,0c0.051,-0.135 0.218,-0.187 0.327,-0.261c0.281,-0.194 0.521,-0.441 0.851,-0.557c0.004,-0.039 -0.005,-0.092 0.033,-0.097c0.757,0.027 1.22,-0.006 1.929,0.065c-0.243,0.113 -0.466,0.389 -0.753,0.622c0.219,-0.001 0.303,-0.217 0.425,-0.328c0.128,-0.116 0.286,-0.187 0.394,-0.326c0.173,0.021 0.434,-0.043 0.554,0.032c-0.096,0.042 -0.001,0.145 -0.197,0.131c0.011,0.148 -0.059,0.088 -0.098,0.229c-0.431,0.112 -0.57,0.517 -0.882,0.752c0.1,0.062 0.164,-0.083 0.229,-0.131c0.161,-0.116 0.365,-0.229 0.459,-0.392c0.081,0.005 0.101,-0.051 0.162,-0.065c0.13,-0.176 0.217,-0.396 0.461,-0.459c0.042,-0.081 -0.13,-0.101 -0.035,-0.13c0.183,0.04 0.389,-0.067 0.491,0c-0.195,0.039 -0.303,0.285 -0.425,0.294c0.067,0.113 -0.213,0.159 -0.196,0.327c-0.205,0.098 -0.642,0.349 -0.426,0.556c0.117,-0.143 0.217,-0.388 0.426,-0.523c-0.009,0.054 0.036,0.08 0.031,0c0.085,0.076 0.058,-0.106 0.134,-0.197c0.152,0.038 0.067,-0.18 0.16,-0.032c0.088,-0.218 0.338,-0.448 0.589,-0.392c-0.266,0.333 -0.645,0.575 -0.883,0.849c0.126,-0.028 0.2,-0.113 0.262,-0.163c0.04,-0.032 -0.006,-0.038 0.032,-0.065c0.336,-0.238 0.482,-0.504 1.049,-0.686c-0.19,0.212 -0.38,0.426 -0.623,0.587c0.4,-0.068 0.469,-0.467 0.819,-0.587c0.46,0.059 0.767,-0.399 0.49,-0.688c-0.122,-0.025 -0.157,0.04 -0.263,0.033c0.031,0.248 -0.196,0.638 -0.588,0.457c0.007,-0.166 0.228,-0.122 0.231,-0.294c-0.187,0.068 -0.278,0.225 -0.427,0.327c-0.229,-0.025 -0.344,0.087 -0.557,0c0.295,-0.163 0.529,-0.388 0.785,-0.588c0.219,0.023 0.344,-0.02 0.491,0.033c-0.18,-0.001 -0.226,0.215 -0.326,0.196c0.204,0.064 0.28,-0.179 0.49,-0.229c0.215,-0.052 0.48,0.069 0.751,-0.033c-0.163,0.338 0.161,0.275 0.295,0.392c0.061,-0.148 -0.117,-0.057 -0.13,-0.13l-0.065,0l0,-0.065l0.065,0l0,0.065c0.159,-0.065 -0.032,-0.076 -0.033,-0.164c0.315,-0.123 0.409,-0.487 0.623,-1.013c0.063,-0.162 0.179,-0.301 0.227,-0.458c0.213,-0.694 0.273,-1.528 0.558,-2.127c-0.012,-0.076 -0.053,-0.123 -0.036,-0.228c0.065,-0.103 0.041,-0.209 0.066,-0.392c0.102,-0.72 0.347,-1.445 0.59,-2.093c0.127,-0.334 0.3,-0.524 0.423,-0.785c0.065,-0.13 0.074,-0.269 0.132,-0.392c0.17,-0.353 0.506,-0.675 0.589,-1.079c0.264,-0.308 0.407,-0.69 0.588,-1.046c0.271,-0.532 0.663,-1.004 0.984,-1.473c0.232,-0.345 0.365,-0.744 0.554,-1.079c0.101,-0.18 0.306,-0.464 0.36,-0.621c0.034,-0.107 0.184,-0.393 0.227,-0.556c0.009,-0.033 0.061,-0.02 0.068,-0.033c0.056,-0.156 0.065,-0.33 0.128,-0.491c0.139,-0.342 0.299,-0.655 0.394,-0.981c0.047,-0.164 0.044,-0.35 0.098,-0.522c0.048,-0.156 0.149,-0.285 0.196,-0.426c0.118,-0.366 0.217,-0.757 0.295,-1.079c0.043,-0.191 0.028,-0.385 0.065,-0.588c0.073,-0.391 0.214,-0.711 0.229,-1.112c0.005,-0.182 0.021,-0.195 0.033,-0.326c0.04,-0.51 0.034,-0.861 0.034,-1.342" style="fill:#58595b;fill-rule:nonzero;"/><path d="M13.429,40.403l0.1,0c-0.012,0.042 -0.058,0.052 -0.067,0.099c-0.037,-0.005 -0.027,-0.059 -0.033,-0.099" style="fill:#58595b;fill-rule:nonzero;"/><path d="M18.531,39.095c-0.021,0.044 -0.069,0.061 -0.13,0.065c0.008,-0.057 0.055,-0.075 0.13,-0.065" style="fill:#58595b;fill-rule:nonzero;"/><path d="M14.347,39.684c0.082,-0.062 -0.087,0.083 -0.133,0.098c-0.147,-0.003 0.086,-0.082 0.133,-0.098" style="fill:#58595b;fill-rule:nonzero;"/><path d="M13.822,40.533c-0.031,0.067 -0.124,0.071 -0.228,0.066c0.002,-0.032 0.041,-0.025 0.066,-0.032c0.005,-0.028 -0.013,-0.031 -0.034,-0.034c0.005,-0.062 0.111,0.04 0.196,0" style="fill:#58595b;fill-rule:nonzero;"/><path d="M13.561,40.37c0.008,-0.057 0.056,-0.074 0.131,-0.065c-0.022,0.044 -0.067,0.06 -0.131,0.065" style="fill:#58595b;fill-rule:nonzero;"/><path d="M14.672,44.033c-0.004,0.072 -0.137,0.013 -0.195,0.032c0.004,-0.071 0.138,-0.014 0.195,-0.032" style="fill:#58595b;fill-rule:nonzero;"/><path d="M11.992,42.006c0.094,0.017 -0.049,0.05 -0.033,0.097c-0.108,-0.031 0.036,-0.064 0.033,-0.097" style="fill:#58595b;fill-rule:nonzero;"/><path d="M12.451,41.842c0.099,0.033 -0.071,0.053 -0.066,0.098c-0.124,-0.055 0.071,-0.055 0.066,-0.098" style="fill:#58595b;fill-rule:nonzero;"/><path d="M10.978,42.234c0.094,-0.047 -0.111,0.083 -0.131,0.131c-0.084,-0.045 0.075,-0.117 0.131,-0.131" style="fill:#58595b;fill-rule:nonzero;"/><path d="M10.847,42.397c-0.01,0.045 -0.083,0.028 -0.131,0.034c0.01,-0.044 0.083,-0.028 0.131,-0.034" style="fill:#58595b;fill-rule:nonzero;"/><path d="M10.421,42.627c-0.028,0.048 -0.104,0.047 -0.162,0.065c-0.075,-0.025 0.1,-0.069 0.162,-0.065" style="fill:#58595b;fill-rule:nonzero;"/><path d="M11.108,43.869c0.036,0.009 0.023,0.066 0.066,0.066c-0.013,0.073 -0.173,0.025 -0.197,0c0.095,-0.018 0.066,-0.035 0.131,-0.066" style="fill:#58595b;fill-rule:nonzero;"/><path d="M9.898,40.502c-0.09,0.04 -0.005,-0.085 0.131,-0.099c0.035,-0.004 -0.082,0.076 -0.131,0.099" style="fill:#58595b;fill-rule:nonzero;"/><rect x="16.831" y="32.325" width="0.067" height="0.065" style="fill:#58595b;fill-rule:nonzero;"/><path d="M9.342,40.272c0.01,-0.044 0.083,-0.027 0.131,-0.033c0.012,0.076 -0.094,0.037 -0.097,0.098c-0.038,-0.005 -0.019,-0.032 0,-0.032c0.005,-0.028 -0.012,-0.032 -0.034,-0.033" style="fill:#58595b;fill-rule:nonzero;"/><path d="M9.31,40.763c-0.062,0.064 -0.115,0.056 -0.196,0.033c0.043,-0.047 0.145,-0.088 0.196,-0.033" style="fill:#58595b;fill-rule:nonzero;"/><path d="M11.402,45.832c-0.119,-0.052 0.132,0.007 0.067,-0.098l0.131,0c-0.062,0.036 -0.116,0.081 -0.198,0.098" style="fill:#58595b;fill-rule:nonzero;"/><path d="M14.281,46.748c0.009,-0.069 0.144,-0.009 0.131,-0.099c0.097,0.047 -0.038,0.132 -0.131,0.099" style="fill:#58595b;fill-rule:nonzero;"/><path d="M14.836,46.223c-0.03,0.003 -0.025,0.04 -0.032,0.066c-0.039,-0.005 -0.027,-0.06 -0.033,-0.098l0.13,0c0,0.032 -0.038,0.025 -0.065,0.032" style="fill:#58595b;fill-rule:nonzero;"/><path d="M14.967,38.115c-0.169,0.077 0.113,0.083 0,0" style="fill:#58595b;"/><path d="M14.379,38.342c-0.211,-0.037 -0.071,0.101 0,0" style="fill:#58595b;"/><path d="M13.758,39.815c-0.145,-0.111 -0.177,0.121 0,0" style="fill:#58595b;"/><path d="M13.168,40.37c-0.283,0.117 0.19,-0.078 0,0" style="fill:#58595b;"/><path d="M11.567,42.038c0.198,-0.038 0.081,-0.158 0,0" style="fill:#58595b;"/><path d="M14.51,46.454c0.16,-0.16 -0.067,-0.108 0,0" style="fill:#58595b;"/><path d="M15.23,46.682c-0.255,0.043 0.137,-0.024 0,0" style="fill:#58595b;"/><path d="M14.575,3.352c0.095,-0.049 0.121,0.036 0.165,-0.065c-0.106,-0.044 -0.239,0.135 -0.165,0.065M16.504,2.665c-0.172,0.187 -0.464,0.255 -0.654,0.426c0.021,-0.03 0.04,-0.059 0,-0.066c-0.053,-0.006 -0.158,0.099 -0.097,0.097c0,0.077 -0.09,-0.011 -0.066,-0.064c-0.476,0.155 -0.795,0.549 -1.308,0.751c0.006,-0.037 -0.005,-0.058 -0.032,-0.065c0.283,-0.186 0.61,-0.326 0.883,-0.524c-0.024,-0.03 -0.062,-0.049 -0.098,-0.065c-0.114,0.014 -0.192,0.178 -0.296,0.099c-0.092,0.095 -0.326,0.294 -0.588,0.327c0.006,-0.028 0.033,-0.033 0.033,-0.066c-0.095,0.015 -0.149,0.069 -0.164,0.164c-0.031,-0.056 -0.102,-0.072 -0.163,-0.098c0.169,-0.158 0.41,-0.244 0.621,-0.361c-0.014,-0.028 -0.03,-0.058 -0.065,-0.065c0.159,-0.114 0.217,-0.327 0.522,-0.295c0.011,0.076 -0.092,0.038 -0.097,0.1c-0.019,0.073 0.127,-0.04 0.032,0.032c0.051,0.071 0.275,0.038 0.296,-0.032c0.094,0.054 -0.086,0.108 -0.101,0.162c0.389,-0.023 0.99,-0.313 1.342,-0.457" style="fill:#58595b;"/><path d="M15.916,3.254c-0.06,-0.025 0.018,-0.035 0.065,-0.034c-0.006,-0.038 -0.058,-0.028 -0.097,-0.032c0.065,-0.137 0.379,-0.175 0.491,-0.164c-0.065,0.058 -0.172,0.07 -0.263,0.098c0.003,0.087 -0.037,0.065 -0.196,0.132" style="fill:#58595b;"/><path d="M13.399,3.254c0.115,-0.179 0.449,-0.137 0.653,-0.23c-0.18,0.098 -0.444,0.271 -0.653,0.23" style="fill:#58595b;"/><path d="M15.72,3.384c-0.075,0.164 -0.189,0.053 0,0" style="fill:#58595b;"/><path d="M5.876,7.439c-0.118,0.197 -0.296,0.202 -0.521,0.326c0.034,0.027 0.286,-0.441 0.521,-0.326" style="fill:#58595b;"/><path d="M4.765,8.943c0.014,-0.09 -0.18,0.027 -0.162,-0.065c-0.059,-0.088 0.141,-0.063 0.03,-0.099c0.206,-0.047 0.335,-0.335 0.523,-0.294c-0.112,0.126 -0.671,0.37 -0.295,0.393c0.228,-0.221 0.477,-0.482 0.819,-0.49c-0.173,0.199 -0.464,0.278 -0.687,0.425c-0.122,0.119 -0.39,0.341 -0.653,0.425c0.145,-0.094 0.269,-0.211 0.425,-0.295" style="fill:#58595b;"/><path d="M5.516,8.911c-0.205,0.24 -0.555,0.338 -0.751,0.588c-0.013,-0.202 0.305,-0.254 0.391,-0.36c0.016,-0.018 -0.021,-0.04 -0.032,-0.031c0.086,-0.07 0.237,-0.177 0.392,-0.197" style="fill:#58595b;"/><path d="M4.373,9.271c-0.114,0.054 -0.077,0.187 -0.165,0.196c0.021,-0.099 0.052,-0.189 0.165,-0.196" style="fill:#58595b;"/><path d="M4.701,9.467c-0.089,0.152 -0.273,0.209 -0.428,0.295c0.087,-0.154 0.288,-0.194 0.428,-0.295" style="fill:#58595b;"/><path d="M5.026,9.532c0.028,0.087 -0.061,0.041 -0.098,0.066c-0.375,0.254 -0.722,0.545 -1.111,0.784c-0.1,0.055 -0.063,0.243 -0.197,0.262c0.032,-0.098 0.116,-0.145 0.099,-0.294c0.429,-0.226 0.801,-0.584 1.307,-0.818" style="fill:#58595b;"/><path d="M4.96,9.925c-0.006,0.047 -0.098,0.012 -0.098,0.065c-0.081,-0.014 0.031,-0.093 0.098,-0.065" style="fill:#58595b;"/><path d="M4.043,9.99c-0.05,0.025 -0.047,0.104 -0.129,0.098c0.028,-0.047 0.05,-0.103 0.129,-0.098" style="fill:#58595b;"/><path d="M4.765,9.99c0.093,0.127 -0.08,0.093 -0.132,0.13c-0.394,0.293 -0.893,0.624 -1.243,0.983c-0.011,0.065 0.008,0.101 0.069,0.097c-0.051,0.117 -0.162,-0.014 -0.23,0c0.199,-0.171 0.299,-0.442 0.588,-0.523c0.276,-0.269 0.615,-0.474 0.948,-0.687" style="fill:#58595b;"/><path d="M4.535,10.808c0.034,0.193 -0.205,0.26 -0.327,0.36c-0.187,0.149 -0.413,0.325 -0.588,0.49c-0.18,0.172 -0.377,0.407 -0.557,0.622c-0.012,0.078 0.149,-0.019 0.1,0.098c-0.092,0.026 -0.085,-0.047 -0.166,-0.033c0.064,-0.205 0.275,-0.343 0.295,-0.491c0.115,-0.03 0.257,-0.115 0.295,-0.229c0.04,-0.112 0.214,-0.043 0.197,-0.228c0.122,0.013 0.276,-0.115 0.229,-0.164c0.208,-0.107 0.323,-0.311 0.522,-0.425" style="fill:#58595b;"/><path d="M3.784,11.723c0.073,0.005 -0.044,0.083 0,0.164c-0.014,0.008 -0.055,-0.01 -0.065,0c-0.22,0.231 -0.532,0.554 -0.687,0.915c-0.133,-0.087 0.115,-0.389 0.197,-0.359c-0.02,-0.026 -0.036,-0.053 -0.036,-0.098c0.267,-0.14 0.401,-0.409 0.591,-0.622" style="fill:#58595b;"/><path d="M3.784,12.182c0.085,0.046 -0.069,0.123 -0.131,0.13c0.011,0.122 -0.125,0.193 -0.194,0.131c0.088,-0.015 0.194,-0.129 0.325,-0.261" style="fill:#58595b;"/><path d="M3.259,12.672c0.019,0.002 0.206,-0.123 0.164,-0.164c0.11,-0.109 0.06,0.182 -0.065,0.131c-0.12,0.149 -0.043,0.3 -0.262,0.327c0.078,-0.055 0.198,-0.239 0.163,-0.294" style="fill:#58595b;"/><path d="M26.283,12.345c0.034,0.026 -0.016,0.244 -0.132,0.229c0.072,0.047 -0.04,0.079 0.033,0.098c0.01,0.076 -0.093,0.035 -0.099,0.098c-0.191,-0.165 0.169,-0.273 0.198,-0.425" style="fill:#58595b;"/><path d="M3.459,12.9c0.006,0.059 -0.032,0.068 -0.036,0.033c-0.03,0.01 -0.109,0.122 -0.034,0.132c-0.087,0.033 -0.22,0.239 -0.293,0.39c-0.126,-0.066 0.118,-0.202 0.033,-0.228c0.158,0.011 0.113,-0.255 0.33,-0.327" style="fill:#58595b;"/><path d="M3.163,12.998c-0.09,0.229 -0.258,0.376 -0.395,0.555c-0.073,-0.144 0.154,-0.216 0.263,-0.358c0.053,-0.071 0,-0.201 0.132,-0.197" style="fill:#58595b;"/><path d="M3.488,13.391c-0.018,0.029 -0.038,0.058 0,0.064c-0.02,0.045 -0.069,0.061 -0.13,0.067c0,0.031 0.04,0.025 0.065,0.031c-0.181,0.323 -0.345,0.401 -0.425,0.754c-0.215,0.172 -0.103,0.542 -0.358,0.622c0.104,-0.156 0.1,-0.477 0.327,-0.655c-0.085,-0.071 0.005,-0.091 0.031,-0.131c0.074,-0.103 0.149,-0.34 0.195,-0.425c0.024,-0.037 0.037,-0.005 0.035,0c0.106,-0.13 0.099,-0.301 0.26,-0.327" style="fill:#58595b;"/><path d="M26.937,13.424c-0.073,0.17 -0.312,0.359 -0.427,0.458c-0.081,0.072 -0.075,0.085 -0.163,0.097c0.058,-0.116 0.146,-0.202 0.296,-0.227c-0.009,-0.099 0.172,-0.257 0.294,-0.328" style="fill:#58595b;"/><path d="M3.063,13.488c-0.108,0.188 -0.17,0.417 -0.261,0.623c-0.113,-0.077 0.078,-0.238 0.098,-0.523c0.149,0.06 0.046,-0.131 0.163,-0.1" style="fill:#58595b;"/><path d="M27.1,13.784c0.071,0.041 -0.109,0.107 -0.065,0.229c-0.158,-0.064 0.04,-0.154 0.065,-0.229" style="fill:#58595b;"/><path d="M27.198,14.307c-0.036,0.061 -0.038,0.157 -0.163,0.13c0.091,0.181 -0.229,0.198 -0.229,0.393c-0.029,0.005 -0.031,-0.012 -0.032,-0.033l-0.068,0c-0.004,-0.059 0.042,-0.069 0.035,-0.131c0.206,-0.064 0.238,-0.305 0.457,-0.359" style="fill:#58595b;"/><path d="M27.067,15.942c0.09,0.07 -0.088,0.057 0,0.163c-0.176,0.079 -0.306,0.218 -0.361,0.327c0.017,0.041 0.043,0.068 0.1,0.066c-0.024,0.111 -0.109,0.031 -0.131,-0.034c0.067,-0.183 0.165,-0.334 0.36,-0.391c-0.067,-0.067 0.013,-0.064 0.032,-0.131" style="fill:#58595b;"/><path d="M27.035,16.923l-0.197,0c-0.162,-0.267 0.197,-0.378 0.328,-0.589c0.195,0.18 -0.261,0.287 -0.165,0.458c-0.118,0.036 -0.01,0.02 0.034,0.131" style="fill:#58595b;"/><path d="M26.741,17.806c0.115,0.019 0.174,-0.216 0.359,-0.23c0.092,0.193 -0.256,0.283 -0.295,0.426c-0.015,0.058 0.121,0.068 0.033,0.131c-0.113,0.026 -0.139,-0.035 -0.195,-0.065c-0.03,-0.13 0.19,-0.179 0.098,-0.262" style="fill:#58595b;"/><path d="M24.221,25c-0.126,0.44 -0.638,0.803 -0.719,1.308c-0.084,-0.088 0.101,-0.252 0,-0.295c0.114,-0.235 0.32,-0.378 0.36,-0.686c0.168,-0.061 0.257,-0.2 0.359,-0.327" style="fill:#58595b;"/><path d="M17.127,25.229c0.073,0.073 -0.143,0.17 -0.229,0.098c0.001,-0.064 0.088,-0.041 0.064,-0.13c0.042,0.006 0.161,0.095 0.165,0.032" style="fill:#58595b;"/><path d="M14.314,25.459c0.059,0.007 0.089,-0.073 0.228,-0.066c-0.207,0.175 -0.396,0.539 -0.686,0.523c0.088,-0.194 0.452,-0.29 0.458,-0.457" style="fill:#58595b;"/><path d="M14.214,25.916c-0.022,-0.13 0.078,-0.064 0.133,-0.098c0.183,-0.114 0.282,-0.34 0.522,-0.392c0.127,0.006 -0.111,0.155 -0.163,0.196c-0.126,0.128 -0.26,0.373 -0.492,0.294" style="fill:#58595b;"/><path d="M14.314,27.158c0.089,0 -0.079,0.091 0.065,0.066c-0.001,0.032 -0.041,0.025 -0.065,0.033c-0.016,0.193 -0.25,0.416 -0.327,0.653c-0.011,-0.24 0.205,-0.535 0.327,-0.752" style="fill:#58595b;"/><path d="M7.577,27.78c-0.046,0.113 0.027,0.39 -0.098,0.458c0.07,-0.185 -0.025,-0.357 0.098,-0.458" style="fill:#58595b;"/><path d="M12.712,29.873c-0.194,-0.04 0.127,-0.389 -0.066,-0.523c0.061,-0.19 0.111,-0.393 0.227,-0.524c0,-0.031 -0.039,-0.025 -0.065,-0.032c0.012,-0.153 0.166,-0.163 0.229,-0.262c0.13,0.109 -0.107,0.357 -0.164,0.49c0.042,0.094 0.097,-0.142 0.164,-0.032c-0.217,0.233 -0.226,0.507 -0.325,0.883" style="fill:#58595b;"/><path d="M8.295,28.696c0.094,0.201 -0.345,0.749 -0.131,1.177c-0.123,0.034 -0.09,-0.081 -0.194,-0.066c-0.051,-0.434 0.121,-0.727 0.325,-1.111" style="fill:#58595b;"/><path d="M13.201,29.186c-0.048,0.067 -0.032,0.19 -0.064,0.26c-0.003,0.01 -0.063,-0.006 -0.068,0c-0.026,0.061 -0.038,0.137 -0.064,0.198c-0.022,0.05 -0.076,0.108 -0.099,0.163c-0.071,0.17 -0.07,0.408 -0.228,0.524c0.019,0.068 0.094,0.106 0.034,0.163c-0.072,-0.004 -0.071,-0.082 -0.066,-0.163c0.181,-0.385 0.228,-0.905 0.555,-1.145" style="fill:#58595b;"/><path d="M8.461,29.48c0.031,0.042 0.07,0.458 -0.166,0.426c0.055,-0.174 0.085,-0.241 0.166,-0.426" style="fill:#58595b;"/><path d="M10.945,29.579c0.011,-0.052 0.057,0.028 0.065,-0.033c0.057,0.024 0.006,0.059 0,0.098c0.073,-0.026 0.083,-0.115 0.132,-0.164c0.026,0.018 0.054,0.035 0.098,0.033c-0.077,0.098 -0.165,0.185 -0.23,0.294c-0.032,-0.001 -0.024,-0.039 -0.033,-0.065c-0.091,0.064 -0.301,0.368 -0.129,0.131c0.025,-0.035 0.008,-0.118 0.097,-0.131c-0.043,-0.081 0.073,-0.159 0,-0.163" style="fill:#58595b;"/><path d="M15.162,31.41c0.049,0.179 -0.172,0.563 -0.228,0.752c0.231,-0.007 0.329,-0.215 0.329,-0.359c0.116,0.266 -0.151,0.495 -0.231,0.751c-0.063,0.2 -0.046,0.47 -0.131,0.687c-0.002,0.006 -0.062,-0.006 -0.065,0c-0.038,0.165 0.016,0.358 0,0.524c-0.096,-0.017 -0.09,-0.136 -0.096,-0.197c-0.037,-0.368 0.223,-0.9 0.325,-1.276c-0.071,0.049 -0.064,0.176 -0.164,0.197c-0.257,-0.104 -0.02,-0.444 0.033,-0.589c-0.027,-0.432 0.011,-0.712 0.228,-1.013c0.128,0.103 -0.067,0.249 -0.097,0.359c-0.041,0.149 0.017,0.279 -0.033,0.393c0.096,-0.027 0.083,-0.158 0.13,-0.229" style="fill:#58595b;"/><path d="M13.822,31.672c0.083,0.007 -0.044,0.055 0,0.131c-0.081,-0.006 -0.008,-0.112 0,-0.131" style="fill:#58595b;"/><path d="M8.558,32.685c0.055,-0.109 0.111,0.102 0.099,0.033c0.006,0.041 -0.129,0.153 -0.131,0.164c-0.01,0.028 0.025,0.075 0.032,0.065c-0.067,0.13 -0.188,0.258 -0.032,0.359c-0.34,-0.001 0.123,-0.565 0.032,-0.621" style="fill:#58595b;"/><path d="M9.31,34.68c0.144,-0.227 0.451,-0.288 0.72,-0.392c-0.132,0.12 -0.341,0.161 -0.425,0.327c-0.106,0.015 -0.179,0.062 -0.295,0.065" style="fill:#58595b;"/><path d="M16.7,34.745c-0.039,0.102 0.018,0.141 -0.064,0.23c-0.008,0.126 -0.049,-0.266 0.064,-0.23" style="fill:#58595b;"/><path d="M15.621,37.231c-0.119,0.211 -0.548,0.298 -0.687,0.588c-0.262,0.066 -0.354,0.299 -0.555,0.426c-0.054,-0.306 0.44,-0.345 0.522,-0.623c0.103,-0.027 0.23,-0.032 0.231,-0.162c0.259,0.021 0.28,-0.198 0.489,-0.229" style="fill:#58595b;"/><path d="M15.589,38.179c-0.012,0.076 -0.142,0.032 -0.163,0.098c-0.087,-0.118 0.078,-0.056 0.163,-0.098" style="fill:#58595b;"/><path d="M14.084,39.063c-0.069,0.088 -0.258,0.02 -0.195,-0.132c0.385,-0.109 0.557,-0.231 0.98,-0.295c-0.281,0.135 -0.525,0.304 -0.85,0.394c0.003,0.032 0.038,0.025 0.065,0.033" style="fill:#58595b;"/><path d="M12.451,39.389c0.145,-0.025 0.219,0.051 0.031,0.033c-0.007,0.028 0.014,0.03 0.032,0.032c-0.021,0.044 -0.068,0.06 -0.129,0.065c0.011,-0.05 0.101,-0.027 0.066,-0.13" style="fill:#58595b;"/><path d="M11.992,39.749c-0.006,0.116 -0.147,0.093 -0.229,0.131c0.036,-0.083 0.165,-0.073 0.229,-0.131" style="fill:#58595b;"/><path d="M12.906,39.52c0.15,0.052 -0.043,0.122 -0.161,0.098c-0.006,-0.093 0.212,0.039 0.161,-0.098" style="fill:#58595b;"/><path d="M17.323,41.057c-0.188,-0.053 0.342,-0.198 0.489,-0.228c-0.286,0.13 -0.459,0.357 -0.817,0.326c0.08,-0.061 0.255,-0.027 0.328,-0.098" style="fill:#58595b;"/><path d="M14.019,40.926c0.139,-0.024 -0.252,0.043 0,0" style="fill:#58595b;"/><path d="M14.51,40.926c0.109,0.049 -0.056,0.093 -0.067,0.131c-0.088,-0.03 0.077,-0.073 0.067,-0.131" style="fill:#58595b;"/><path d="M17.29,42.496c0.023,0.089 -0.155,-0.024 -0.131,0.065c-0.08,-0.026 0.102,-0.134 0.131,-0.065" style="fill:#58595b;"/><path d="M17.651,42.692c-0.069,0.054 -0.159,0.083 -0.199,0.164c-0.061,-0.055 0.091,-0.169 0.199,-0.164" style="fill:#58595b;"/><path d="M17.55,45.472c-0.007,-0.057 0.056,-0.084 0,-0.098c0.05,-0.038 0.08,-0.094 0.164,-0.099c0.373,-0.416 0.8,-0.786 1.276,-1.014c-0.094,0.158 -0.405,0.271 -0.426,0.394c-0.244,0.079 -0.498,0.487 -0.85,0.653c0,0.109 -0.055,0.163 -0.164,0.164" style="fill:#58595b;"/><path d="M12.514,44.753c-0.057,-0.01 -0.067,0.03 -0.032,0.032c-0.035,0.075 -0.147,0.169 -0.227,0.098c0.116,-0.063 0.121,-0.037 0.162,-0.164c0.046,-0.003 0.092,-0.004 0.097,0.034" style="fill:#58595b;"/><path d="M13.069,44.655c0.04,0.014 -0.323,0.167 -0.357,0.326c-0.086,-0.088 -0.1,0.04 -0.198,0.033c-0.042,-0.077 0.265,-0.083 0.231,-0.261c0.135,0.072 0.158,-0.11 0.324,-0.098" style="fill:#58595b;"/><path d="M3.129,15.156c-0.078,0.339 -0.334,0.665 -0.229,1.08c0.072,-0.027 0.054,-0.144 0.097,-0.196c0.116,0.318 0.043,0.688 0.066,1.047c0.134,0.024 0.114,-0.106 0.264,-0.066c-0.136,0.511 0.209,0.975 0.132,1.44c-0.069,-0.513 -0.299,-0.825 -0.297,-1.276l-0.165,0c-0.147,-0.39 0.04,-0.584 -0.229,-0.818c0.089,-0.257 0.004,-0.577 0.098,-0.752c0.005,-0.007 0.054,0.042 0.066,0.033c0.063,-0.239 -0.036,-0.439 0.197,-0.492" style="fill:#58595b;"/><path d="M12.776,26.21c0.058,0.061 0.142,-0.168 0.261,-0.065c-0.082,0.19 -0.21,0.335 -0.325,0.491c0.073,0.073 0.105,-0.175 0.261,-0.132c0.056,0.098 -0.073,0.241 -0.1,0.36c0.112,0.026 0.044,-0.132 0.164,-0.097c0.128,0.254 -0.176,0.339 -0.195,0.555c0.064,0.094 0.051,-0.165 0.195,-0.098c0.055,0.122 -0.134,0.249 -0.164,0.393c0.027,0.112 0.169,-0.021 0.231,0.098c-0.096,0.231 -0.086,0.316 -0.131,0.49l-0.197,0c0.027,-0.137 0.108,-0.218 0.164,-0.328c-0.005,-0.072 -0.138,-0.013 -0.195,-0.032c-0.074,-0.21 0.102,-0.532 -0.197,-0.556c-0.023,-0.164 0.058,-0.225 0.098,-0.327c-0.005,-0.06 -0.11,-0.02 -0.132,-0.065c0.079,-0.121 0.073,-0.342 0.164,-0.359c-0.005,-0.062 -0.11,-0.022 -0.13,-0.066c0.051,-0.265 0.225,-0.406 0.325,-0.622c0.1,-0.074 0.201,0.048 0.231,-0.064c0.1,0.032 -0.037,0.087 -0.035,0.13c0.246,-0.007 0.267,-0.234 0.46,-0.294c-0.102,0.171 -0.261,0.457 -0.523,0.359c-0.131,0.025 -0.158,0.149 -0.23,0.229" style="fill:#58595b;"/><path d="M21.28,31.998c0.058,-0.003 0.069,0.041 0.131,0.034c-0.052,0.123 -0.095,0.223 -0.197,0.359c0.075,0.114 0.169,-0.124 0.261,0c-0.105,0.255 -0.301,0.417 -0.492,0.589c0.015,0.111 -0.008,0.187 -0.13,0.164c-0.059,-0.188 0.12,-0.341 0.262,-0.491c-0.033,-0.055 -0.139,-0.035 -0.196,-0.066c0.033,-0.282 0.28,-0.354 0.361,-0.589" style="fill:#58595b;"/><path d="M21.148,33.013c0.01,-0.077 0.146,-0.02 0.163,0c-0.012,0.172 -0.146,0.222 -0.26,0.294c0.028,0.09 0.12,-0.064 0.13,0.065c-0.056,0.095 -0.151,0.156 -0.262,0.195c0.057,0.088 0.066,0.035 0.164,0.099c-0.214,0.107 -0.496,0.307 -0.753,0.262c0.032,-0.102 0.141,-0.103 0.067,-0.228c0.187,-0.03 0.284,-0.152 0.424,-0.229c-0.129,-0.246 0.403,-0.268 0.327,-0.458" style="fill:#58595b;"/><path d="M18.448,15.984c-0.031,0.093 -0.063,0.185 -0.084,0.282c-0.094,0.132 -0.148,0.26 -0.185,0.386c-0.039,0.133 -0.051,0.127 -0.09,0.235c0.001,-0.003 0.03,0.019 0.024,0.041c-0.004,0.011 -0.059,0.017 -0.062,0.024c-0.006,0.019 0.027,0.026 0.024,0.04c-0.002,0.006 -0.039,0.015 -0.04,0.024c-0.028,0.134 -0.029,0.343 -0.158,0.488c-0.003,0.272 -0.173,0.514 -0.208,0.702c0,-0.012 -0.018,-0.023 -0.021,0.001c-0.001,0.242 -0.159,0.512 -0.241,0.807c-0.013,0.044 0.004,0.109 -0.011,0.168c-0.015,0.057 -0.065,0.103 -0.074,0.15c-0.019,0.09 0.009,0.181 -0.005,0.271c-0.013,0.092 -0.068,0.164 -0.088,0.256c-0.063,0.29 -0.033,0.533 -0.163,0.74c0.072,0.175 -0.032,0.323 -0.056,0.441c-0.018,0.082 -0.02,0.171 -0.027,0.252c-0.025,0.308 -0.028,0.591 -0.094,0.84c-0.009,0.092 0.04,-0.02 0.044,0.039c-0.096,0.172 -0.065,0.251 -0.015,0.438c-0.102,0.141 -0.069,0.292 -0.074,0.485c-0.008,0.267 -0.029,0.493 -0.039,0.711c-0.017,0.314 0.023,0.546 0.046,0.748c0.044,0.419 -0.02,0.843 0.111,1.14c0.073,-0.145 0.015,-0.338 0.012,-0.481c-0.001,-0.039 0.033,-0.085 0.034,-0.127c0,-0.082 -0.033,-0.176 -0.038,-0.269c-0.015,-0.332 -0.002,-0.677 0.004,-0.959c0.002,-0.126 -0.03,-0.257 -0.023,-0.374c0.008,-0.135 0.049,-0.26 0.059,-0.399c0.02,-0.272 0.008,-0.922 0.056,-1.13c0.09,-0.401 0.112,-0.757 0.136,-1.176c0.128,-0.125 0.062,-0.364 0.074,-0.484c0.021,-0.202 0.099,-0.416 0.151,-0.614c0.073,-0.277 0.198,-0.599 0.158,-0.802c0.114,-0.16 0.054,-0.255 0.164,-0.406c-0.054,-0.048 -0.015,-0.077 0.014,-0.105c0.01,-0.01 -0.011,-0.051 -0.004,-0.063c0.048,-0.085 0.069,-0.186 0.107,-0.298c0.024,-0.071 0.063,-0.139 0.091,-0.214c0.153,-0.406 0.312,-0.876 0.44,-1.32c0.096,-0.094 0.136,-0.238 0.185,-0.375c-0.047,-0.036 -0.091,-0.074 -0.134,-0.113" style="fill:#58595b;"/><path d="M12.567,23.952c-0.011,-0.221 -0.032,-0.449 -0.04,-0.721c-0.005,-0.195 0.028,-0.348 -0.075,-0.491c0.05,-0.19 0.081,-0.27 -0.014,-0.444c0.003,-0.059 0.053,0.053 0.043,-0.04c-0.066,-0.252 -0.069,-0.539 -0.094,-0.851c-0.007,-0.082 -0.01,-0.173 -0.027,-0.256c-0.025,-0.119 -0.129,-0.269 -0.057,-0.447c-0.13,-0.21 -0.101,-0.456 -0.163,-0.75c-0.021,-0.094 -0.076,-0.167 -0.089,-0.259c-0.014,-0.092 0.014,-0.184 -0.005,-0.275c-0.009,-0.048 -0.059,-0.094 -0.074,-0.153c-0.016,-0.06 0.001,-0.125 -0.011,-0.17c-0.083,-0.298 -0.241,-0.573 -0.242,-0.819c-0.003,-0.024 -0.021,-0.013 -0.021,-0.001c-0.035,-0.189 -0.206,-0.435 -0.209,-0.711c-0.129,-0.147 -0.13,-0.359 -0.158,-0.495c-0.001,-0.009 -0.038,-0.019 -0.04,-0.024c-0.003,-0.015 0.03,-0.022 0.024,-0.041c-0.003,-0.008 -0.058,-0.014 -0.062,-0.025c-0.006,-0.022 0.022,-0.044 0.024,-0.041c-0.04,-0.109 -0.052,-0.103 -0.09,-0.238c-0.037,-0.127 -0.092,-0.258 -0.186,-0.392c-0.009,-0.044 -0.026,-0.085 -0.037,-0.127c-0.046,0.023 -0.092,0.046 -0.139,0.067c0.034,0.101 0.073,0.199 0.143,0.269c0.129,0.45 0.288,0.927 0.442,1.339c0.028,0.075 0.067,0.145 0.091,0.217c0.038,0.114 0.059,0.215 0.107,0.302c0.007,0.013 -0.014,0.054 -0.004,0.064c0.029,0.028 0.069,0.057 0.014,0.106c0.11,0.154 0.051,0.25 0.164,0.412c-0.04,0.206 0.086,0.532 0.159,0.813c0.053,0.201 0.13,0.418 0.151,0.623c0.013,0.121 -0.053,0.364 0.075,0.491c0.024,0.424 0.047,0.785 0.137,1.192c0.048,0.211 0.037,0.869 0.057,1.145c0.01,0.142 0.051,0.268 0.059,0.405c0.007,0.119 -0.025,0.251 -0.022,0.379c0.006,0.286 0.02,0.636 0.004,0.973c-0.004,0.094 -0.037,0.189 -0.037,0.272c0.001,0.042 0.035,0.089 0.034,0.129c-0.004,0.145 -0.061,0.34 0.012,0.487c0.131,-0.301 0.067,-0.731 0.111,-1.155c0.022,-0.205 0.062,-0.441 0.045,-0.759" style="fill:#58595b;"/><path d="M16.601,15.665c0.019,-0.265 -0.032,-0.355 -0.123,-0.597c0.065,-0.069 0.174,-0.101 0.18,-0.22c-0.014,-0.088 -0.115,-0.081 -0.119,-0.18c0.209,-0.133 0.122,-0.408 0.221,-0.619c0.196,0 0.151,0.14 0.192,0.322c-0.046,0.092 -0.131,0.151 -0.112,0.299c0.027,0.075 0.153,0.04 0.16,0.136c0.008,0.132 -0.057,0.201 -0.18,0.22c0,0.079 -0.01,0.149 -0.031,0.211c0.019,0.068 0.073,0.097 0.097,0.16c0.059,0.26 -0.16,0.283 -0.142,0.509c0.064,0.104 0.108,0.146 0.103,0.265c-0.007,0.153 -0.259,0.359 -0.008,0.563c0.267,0.001 0.748,0.015 1.056,0.019c0.145,0.001 0.34,-0.062 0.329,0.105c-0.483,0.112 -0.825,0.079 -1.44,0.047c-0.031,0.177 0.041,0.322 0.048,0.434c0.018,0.279 -0.109,0.587 -0.096,0.882c0.001,0.04 0.043,0.08 0.05,0.122c0.026,0.148 0.013,0.351 0.01,0.5c-0.002,0.117 0.003,0.246 -0.086,0.36c-0.101,-0.037 -0.139,-0.143 -0.207,-0.217c0.039,-0.372 -0.027,-0.591 0.01,-0.897c0.006,-0.052 0.053,-0.097 0.056,-0.15c0.003,-0.086 -0.06,-0.159 -0.04,-0.268c0.02,-0.069 0.057,-0.123 0.098,-0.173c0.022,-0.056 -0.072,-0.085 0.017,-0.085c-0.071,-0.154 -0.155,-0.335 -0.178,-0.426c-0.17,0.042 -0.371,0.055 -0.475,-0.034c-0.217,0.106 -0.566,0.107 -0.734,-0.017c-0.249,0.086 -0.525,0.178 -0.732,0.003c-0.154,0.063 -0.289,0.104 -0.467,0.091c-0.083,-0.005 -0.161,-0.064 -0.241,-0.068c-0.225,-0.011 -0.451,0.071 -0.643,0.06c-0.004,0.169 -0.065,0.369 0.049,0.435c0.021,0.091 -0.065,0.089 -0.077,0.15c0.018,0.393 -0.113,0.701 -0.106,1.071c0.001,0.051 0.035,0.097 0.03,0.144c-0.007,0.063 -0.058,0.124 -0.074,0.192c-0.019,0.072 0.037,0.17 -0.052,0.212c-0.225,-0.05 -0.064,-0.32 -0.073,-0.496c-0.008,-0.128 -0.076,-0.221 -0.045,-0.373c0.017,-0.084 0.093,-0.127 0.094,-0.214c0.003,-0.172 -0.154,-0.292 -0.136,-0.472c0.062,-0.048 0.077,-0.147 0.122,-0.111c0.035,-0.111 -0.067,-0.129 -0.1,-0.223c-0.002,-0.072 0.003,-0.15 -0.053,-0.164c-0.386,0.079 -0.946,0.099 -1.476,0.153c-0.002,-0.034 -0.004,-0.069 -0.007,-0.104c0.052,-0.09 0.175,-0.063 0.275,-0.079c0.364,-0.056 0.894,-0.064 1.259,-0.202c0.055,-0.008 0.064,-0.094 0.079,-0.109c0.057,-0.062 0.04,-0.146 0.049,-0.254c0.003,-0.035 0.036,-0.084 0.036,-0.106c0.001,-0.045 -0.033,-0.082 -0.029,-0.124c0.01,-0.093 0.059,-0.167 0.05,-0.232c-0.009,-0.078 -0.081,-0.136 -0.056,-0.226c0.047,-0.015 0.008,-0.089 0.033,-0.148c0.014,-0.032 0.07,-0.054 0.081,-0.088c0.01,-0.027 -0.052,0.016 -0.044,-0.018c0.003,-0.013 0.061,-0.035 0.062,-0.046c0.005,-0.036 0.013,-0.223 0.006,-0.25c-0.037,-0.15 -0.182,-0.229 -0.175,-0.406c0.001,-0.054 0.035,-0.059 0.057,-0.109c0.015,-0.032 0.001,-0.055 0.017,-0.084c0.028,-0.051 0.091,-0.086 0.119,-0.153c0.004,-0.007 -0.033,-0.031 -0.024,-0.04c0.057,-0.052 0.024,-0.16 0.05,-0.254c0.045,-0.165 0.14,-0.271 0.19,-0.408c0.132,-0.033 0.178,0.026 0.241,0.069c0.044,0.347 -0.167,0.474 -0.304,0.665c0.006,0.195 -0.034,0.351 -0.009,0.564c0.135,0.121 0.244,0.477 -0.032,0.523c-0.058,0.343 -0.031,0.761 -0.037,1.149c0.091,-0.007 0.361,0.022 0.537,-0.033c-0.006,-0.083 -0.011,-0.166 -0.015,-0.249c0.137,-0.21 0.469,-0.125 0.457,0.096c-0.008,0.085 -0.084,0.112 -0.118,0.175c0.133,0.06 0.176,0.003 0.345,-0.001c0.024,-0.123 -0.034,-0.399 0.145,-0.426c0.173,-0.025 0.291,0.237 0.133,0.389c0.102,0.141 0.381,0.076 0.492,-0.03c-0.087,-0.221 0.028,-0.462 0.32,-0.396c0.091,0.145 0.02,0.33 -0.059,0.442c0.092,0.026 0.224,0.1 0.412,0.037c0.028,-0.171 -0.019,-0.505 0.204,-0.534c0.096,-0.013 0.15,0.055 0.223,0.132c-0.007,0.152 -0.024,0.295 -0.106,0.383c0.208,0.133 0.495,-0.156 0.341,-0.418c0.087,-0.051 0.055,-0.164 0.117,-0.195c-0.02,-0.022 -0.071,0.006 -0.002,-0.041c-0.012,-0.111 -0.157,-0.263 -0.072,-0.454c0.032,-0.071 0.042,-0.141 0.083,-0.068" style="fill:#ed1c24;"/><path d="M13.341,14.135c-0.082,0.121 0.04,0.057 0,0" style="fill:#ed1c24;"/><path d="M13.885,16.686c0.013,-0.037 0.02,-0.065 -0.005,-0.083c-0.016,0.038 -0.067,0.069 0.005,0.083" style="fill:#ed1c24;"/><path d="M16.014,16.639c0.005,-0.029 -0.017,-0.08 -0.023,-0.04c-0.005,0.029 0.018,0.08 0.023,0.04" style="fill:#ed1c24;"/></g></svg>