<svg viewBox="0 0 225 338" xmlns="http://www.w3.org/2000/svg" fill-rule="evenodd" clip-rule="evenodd" stroke-linejoin="round" stroke-miterlimit="1.414"><path d="M110.019 21.916c-.496.598-1.903 1.238-2.474.447.437-.53 1.49-.454 2.474-.447m1.125 2.029c-.151.227-.523.227-.451.668-.791.192-1.868 1.273-2.7.677-.623.578-1.439.953-2.698.898 1.177-1.531 3.854-1.541 5.849-2.243M50.02 58.988c-1.169.402-1.348 1.792-2.917 1.806.64-.826 1.861-2.109 2.917-1.806m-8.756 11.008c-.44.544-.997.953-1.806 1.129a3.084 3.084 0 0 1 1.806-1.129m2.474 4.049c-.861 1.307-2.165 2.178-3.606 2.921-1.559 2.13-5.45 3.802-6.957 6.737.031.261.406.192.685.223-.221.396-.706.506-1.356.451.282-2.474 4.242-5.598 6.52-6.74 1.356-1.407 2.611-2.925 4.714-3.592m-3.374 7.859c-.753.454-1.018 1.383-2.236 1.352.829-.354.987-1.404 2.236-1.352m153.915 7.195c.382-.048.575.379.668 0 .55 1.259-1.786 2.151-1.349 3.375-.54-.096-.496.406-1.129.217-.258-2.05 1.845-1.737 1.81-3.592m3.138 1.794c.651.193-.141.726 0 1.122-1.6.275-2.143 1.607-3.605 2.023.918-1.338 2.37-2.14 3.605-3.145m-3.82 3.376c.485.216-.203 1.128-.678 1.114.138-.461.475-.719.678-1.114m3.363 4.488c-.278.461-.347 1.139-1.118 1.125-.461.451-.888 2.436-2.47 2.467.626-1.648 2.054-3.599 3.588-3.592M30.261 99.883c.344 0 .485 1.665-.231 1.345.203-.795.028-.543.231-1.345m3.598 0c.3.908-.533 2.608-1.796 2.697.95-1.008.836-1.496 1.796-2.697m-1.139 2.918c-1.018 1.015-1.583 3.083-1.792 4.947-.083.713.708 1.907-.448 2.024-.351-3.393.448-4.429 1.342-6.971h.898zm166.041 1.798c.868.406-.223.378-.443.677-.1.141.106.547 0 .675-.324.354-.984.32-1.356.674-.991.943-.805 2.501-2.013 3.145-.66-2.773 1.927-4.191 3.812-5.171m-.443 7.642c.028-.021-.017-.227 0-.227 1.077-.193-1.067 1.445 0 .227m-.45 6.738c.01-.55.753-.069.894 0-.234 2.123-3.571 1.978-2.694 4.49-3.65-1.249 1.676-3.575 1.8-4.49m-.451 8.086c.251.086.568.399.217.451-.723 1.224-1.751 2.133-2.477 3.375-.024.715.223 1.717-.668 1.565-1.042-2.824 1.5-3.819 2.928-5.391m-1.787 5.393c1.173-.104-.533.609.213.671-1.39 1.448-3.189 3.227-3.375 5.174-.705.004-.698-.681-.674-1.121.037-.523.368-.224.461-.451.113-.334-.121-.785 0-1.125.557-1.566 2.642-1.858 3.375-3.148m-3.377 7.191c.265-.041.399.049.441.224-.293 1.194-1.088 1.91-1.576 2.921.382.217.468.743.905.902-.761 1.768-2.385 4.042-3.382 6.069-.816 1.689-1.208 3.802-2.908 4.263-.178 1.895-1.438 4.524-2.473 6.289-.644-.072-.117-1.738 0-2.016.268-.62.591-.929.908-1.125-.017-1.662.402-2.877 1.565-3.372.145-1.455 1.872-3.189 2.698-4.724-.31-.819.395-1.786 1.121-2.236.086-1.26.658-2.044 1.339-2.698-.183-.337-.716-.327-1.115-.45.399-1.769 1.627-2.715 2.477-4.047m-11.246 18.425c-.347.327-.196 1.152-.223 1.792-.396-.347-.864-.629-.671-1.565.399.031.475-.275.894-.227m.898 5.834h.684c.461.988.117 2.323-.894 2.477-.066.833-.496 1.315-1.583 1.126.317-1.604 2.13-1.993 1.793-3.603m-1.556 4.949c.633.042.533 1.077-.234.905-.034-.413.275-.474.234-.905m-64.034 8.768c-1.335 1.156-2.133 3.981-4.269 3.589 1.176-1.432 2.46-2.78 4.269-3.589m-8.994 1.574c-1.174.664-1.886 2.856-3.585 2.237.492-.84 1.675-1.002 2.009-2.017.691.031 1.005-.791 1.576-.22m18.201.445c.192.097.399.193.45.451-.275 1.445-.805 2.639-1.796 3.365-.543-.75.424-1.621-.457-2.023.296-.908 1.349-1.053 1.803-1.793m.45 2.245c1.008.65-1.077 2.57-.905 4.043-1.18-1.156.395-3.104.905-4.043m1.109 1.796c.674.406-.627 2.219-1.108 2.928.031.43.488 2.965-.905 2.69-.22-2.109.771-3.884 2.013-5.618m0 4.492c1.025-.048.041.169 0 .454-.1.895.509 3.062-.441 3.589.059-1.972-.863-2.643.441-4.043m-15.937.906c-.1.271-.299.461-.674.447.096-.279.275-.468.674-.447m1.126 0c.76.406 1.077-.031 2.013 0-.451.615-1.569.925-2.237.67.107-.175.234-.368.224-.67m2.47.893c.684-.165.261.774 1.107.451-.388.616-.973 1.311-1.792.905-.103-.802.802-.561.685-1.356m1.575.225c.179.121.358.238.668.224-.472.685-.066 2.622-1.136 2.925.338-1.294.104-1.827.468-3.149m1.563 1.573c.034-.269.423-.193.667-.227-.678.66.217 1.803-1.108 2.026.589-.561-.488-1.476.657-1.572.052-.2-.082-.217-.216-.227m-52.798 2.244h.674c0 1.424-.492 2.357-.674 3.599.702-.117.719-.926 1.799-.674-.196 1.386-.922 2.219-.891 3.815.059.213.599.213.657 0 .62.558-.598 1.191-.891 1.576-.657-.017-.843-.513-1.111-.902.117-.694.168-1.458.437-2.016-1.621-1.417-.117-3.623 0-5.398m43.138.901c-.829.788-1.129-.609 0 0m58.426.9c-.623.544-.289 1.022-1.359 1.349.302.967-.313 2.78-1.786 2.697.21-1.417.926-2.36 1.345-3.599.926.193 1.053-.433 1.8-.447m-64.938.447c-.591 1.039-.316 1.572-.901 2.474-.176-.114-.375-.234-.681-.22.223-1.06.375-2.171 1.582-2.254m19.552 1.351c1.049.832-.128 2.745 0 3.595-1.473-.705.124-2.677 0-3.595m-14.384 1.349c.691.271-.444 1.476-.902 2.016-.588.709-1.304 1.71-2.236 1.576.867-1.377 2.209-2.271 3.138-3.592m16.175.225c.55.568-.307 1.638-.675 2.023.207.485-.024 2.119-1.118 2.016.048-1.885 1.094-2.79 1.793-4.039m1.343 0h.675c-.533 2.229-1.638 3.902-2.25 6.062-.895-.137.358-1.641 0-2.694.901-.743 1.276-2.019 1.575-3.368m-14.598.447c-.196.471-.675.684-1.352.677.399-.282.591-.76 1.352-.677m3.151.678c.764-.072-1.242 2.013-1.799 2.24-.678.279-1.548.127-2.257.231.612-1.555 3.337-1.019 4.056-2.471m-4.055.222c-1.07.396-1.39 2.581-2.691 2.02.706-.864 1.198-1.944 2.691-2.02m15.956 1.569c.265-.031.389.055.448.227-.523 1.638-.726 3.382-1.115 4.717-.379 1.225-.767 2.601-1.806 3.372 1.011-2.36 1.321-6.303 2.473-8.316m1.795 2.478c-.069 1.803-1.865 3.829-2.247 6.066 0 1.163.588 2.236-.891 2.24.134-2.412.206-4.834 2.019-6.063-.134-.732.152-1.046.221-1.575.553.044.54-.506.898-.668m-17.076 2.019c-.698 1.999-2.043 4.28-2.243 6.07-.537-1.886.702-3.933 1.345-5.399-.051-.591.313-.739.898-.671m-39.539 2.467c-1.184 1.906-1.342 7.187-2.488 10.338-1.08-1.634.231-4.376.454-5.618.282-1.483.43-2.518 1.349-4.043.193-.313-.09-1.046.685-.677m31.905.457c-.777 1.724-1.231 4.614-1.352 6.289.84.379.351-.134 1.129-.223-.31 1.369-1.61 3.278-.678 4.493-1.332.544-.905-2.739-.224-3.375-.031-.41-.76-.134-.901-.444.664-1.469-.231-6.135 2.026-6.74m24.71 0c.165 1.947-1.556 3.974-1.793 6.289-.162.853.915 1.607.22 2.243-.857-.192-.743-1.341-1.121-2.019.901-2.161 1.273-4.872 2.694-6.513m-11.465.893c1.232 1.136-.66 2.794 0 4.043-1.304-.946.485-2.457 0-4.043m-7.183 2.47c.956.385-.214 1.221-.448 2.026-.206.702-.024 2.233-.671 2.244-.168 1.225.283 1.82.224 2.924-.826 0-.416-1.211-.461-1.569-.048-.488-.251-1.465.237-2.701.031-.072.441-.175.448-.22.223-.867.175-1.624.671-2.704m6.958 1.798c-.385.667.024 2.116-.898 2.25.54-.933-.457-2.075.898-2.25m11.239 2.472c.864.269-.629 2.553-.447 2.925.354 1.056.502 1.328.23 2.247-2.06-1.246-.66-3.802.217-5.172m-55.939.453c-1.604 2.102 1.07 4.696-1.119 6.062.152-.898-.289-2.102-.227-2.918.018-.492.365-.426.434-.671.261-.767-.63-2.336.912-2.473m35.947 4.493c.362-.041.448 1.469-.223 1.122-.073-.523.038-.86.223-1.122m-33.259 14.151c-1.132-.362-2.553-2.017-.895-2.687-.082 1.101.884 1.575 2.02 2.019-.055.523-.977.217-1.125.668m.675-.222h2.243c-.021.874-1.173.616-1.793.901.286-.729-.726-.175-.45-.901m4.496.902c1.004.066-1.607 1.827-2.251 2.02-.894.272-2.177-.152-2.246-.898 1.527-.097 3.241-.244 4.497-1.122m9.212.67c.902.623-1.132 2.099-2.243 1.58-.041-.496.791-.11 1.125-.231-.014-.217-.275-.172-.457-.227.034-.867 1.551-.248 1.575-1.122m-3.138.676c-.76 1.121-2.209 1.545-3.602 2.023-.059-.241-.451-.155-.451-.447.688-.74 1.992-1.043 2.921-.902.097-1.005.475-.33 1.132-.674m15.053 9.885c.261.092.461.285.437.677-.269-.103-.454-.292-.437-.677m-15.503 6.74c.761.564-.777.708-.908 1.121-.767-.564.963-.512.908-1.121m33.704 1.57c-2.625 2.625-5.46 5.023-8.77 6.964-.492.33-.451 1.211-1.122 1.345-.575-.02-.881-.32-.908-.891 1.008-.382 2.412-.998 3.155-1.569.743-.585.96-1.176 1.796-1.582.371-.176.471-.967.681-1.119.784-.595 1.978-.698 2.68-1.352.623-.567 1.091-2.591 2.488-1.796m-17.089 6.519c.502-2.202 2.453-2.945 4.053-4.043.661.785-.795 1.06-1.352 1.566-.585.553-.884 1.414-1.8 1.579-.319.051.214 1.115-.901.898m38.427-3.596c.145-.302.479-.419.905-.447-.213.385-.509.864-.905.447m-4.727 1.792c.341.347-.626 1.304-1.345 1.355-.403.568-.33 1.617-1.562 1.349.471-1.4 1.913-1.827 2.907-2.704m-9.203 3.595c-1.276-.396 1.793-1.084 1.346 0-3.331.333-5.509 1.847-8.096 2.924-1.16-1.844 2.666-1.417 4.277-2.243-.991-.547 1.902-.953 2.473-.681m-30.105 8.769c-.282.616-1.211.585-2.026.671.44-.465 1.376-.434 2.026-.671m6.508 0c.565.093.176 1.025-.443.671.144-.231.512-.231.443-.671m-7.408 2.023c1.359-.196.956-1.277 2.687-1.353-.853.403-1.579 1.931-2.687 1.353m51.004 7.86c.268.296.089.355 0 .675-.248-.049-.162-.448-.458-.451.014-.22.275-.169.458-.224m-11.014.45c.141.062.874.561.908 0 .599.485-.499 1.143-1.359.902.124-.334.327-.568.451-.902m9.438.676c-.038.488-.568.485-1.125.447.192-.33.733-.323 1.125-.447m-33.025 10.33c-.503.688-1.438-.251 0 0" fill="#58595b"/><path d="M201.013 132.686c-1.008 4.397-2.361 8.77-3.596 13.026-.856 2.942-1.744 5.33-2.694 8.092-1.3 3.744-3.01 7.38-5.171 11.01-1.462 2.453-2.862 4.886-3.582 7.642-5.89 6.107-8.952 14.099-13.27 21.342-1.321 2.222-2.48 4.675-3.826 7.187-.058.131.114.592 0 .674-2.319 2.051-3.227 6.537-4.269 9.888-1.174 3.844-1.9 7.239-2.688 12.356-.351 2.167-1.145 3.399-1.586 5.171-.433 1.837-.203 3.774-.664 5.615-.23.929-.798 1.706-1.114 2.701-1.232 3.874-2.233 7.29-4.274 10.548-3.719-.027-7.28.393-10.789.455-5.178.086-9.926-.871-15.276-.671.636-10.394.908-20.926 1.135-30.109.083-3.991-.31-8.003 0-12.802.12-1.92.351-3.682.217-6.293-.097-1.738.01-3.644 0-5.622-.031-5.67 1.273-11.646-1.125-15.049-3.111-1.018-6.469-.131-9.445-.895-.967-.258-1.775-1.083-2.68-1.355-1.19-.348-2.26.168-3.158-.674-1.28.213-2.333.667-3.592.904-1.552.114-3.885.011-6.073.441-1.737.351-2.993 1.902-4.256 1.579-.017-.162-.017-.32-.017-.475a4.787 4.787 0 0 1-1.259.595c0 .286-.014.547-.076.781-.423 1.587-2.058 2.092-2.474 4.04-.488 2.288.189 5.05.671 7.414.21.994.303 1.875.447 2.921.255 1.717.898 3.523.902 5.161.031 3.255-1.074 6.664-.902 10.573.599 13.143 1.273 26.024 1.356 37.519-6.097-.22-13.473-.068-19.549-.905-2.22-.299-4.604-1.039-6.29-2.023-3.169-1.857-6.351-6.74-7.191-11.226-.292-1.552-.062-2.78-.213-4.721-.237-2.652-.63-5.773-.905-8.986-.21-2.522-.282-5.065-.908-7.411-.568-2.189-1.5-4.208-2.016-6.293-.348-1.438-.348-2.877-.681-4.273-.345-1.439-.912-2.87-1.346-4.274-.409-1.379-.592-2.828-1.115-3.812-.433-.808-1.104-1.459-1.568-2.25-1.294-2.143-2.471-5.058-3.599-7.641-.031-.073.327-.358.223-.444-.382-.32-.337-.165-.454-.451-1.104-2.993-2.628-6.069-4.032-8.987-1.652-3.354-3.052-6.857-4.941-10.112a154.95 154.95 0 0 1-9.682-19.545c-1.348-3.324-2.38-6.775-3.358-10.336-.509-1.83-.86-3.688-1.131-5.622-.279-2.074-.912-3.977-1.346-6.066-1.428-6.908-2.167-14.615-1.345-22.46.544-5.136 1.731-10.514 3.822-15.503.72-1.72 1.494-4.025 2.46-6.069 1.218-2.539 2.154-4.59 3.379-6.971 2.505-4.871 5.051-10.17 8.313-14.598 1.379-1.865 2.927-3.441 4.262-5.395.258-.265.578-.082.224 0 1.438.499 1.648-1.046 2.254-1.799 1.913-2.367 4.256-4.593 6.743-6.737 3.21-2.763 6.782-4.854 10.549-7.191 3.623-2.233 7.607-4.479 11.688-6.065 4.259-1.659 8.718-2.794 13.032-4.717 2.787-.179 5.516-.947 8.303-1.576 5.797-1.28 11.691-1.899 15.517-5.612 1.317.3 2.009 1.573 3.144 2.247 1.796 1.056 3.527 1.118 4.263 2.243 3.534.258 6.909 1.669 10.346 2.474.63.148 1.221.079 1.782.224.582.148.182.437.231.454.134.038.385-.32.671-.227 1.568.502 3.12 1.194 4.723 1.799 2.97 1.108 5.874 2.439 8.76 3.812 1.456.692 2.945 1.287 4.256 2.027 1.566.863 2.918 1.871 4.507 2.697 4.435 2.292 8.887 5.017 12.589 8.309 2.519 2.247 4.645 4.745 6.957 7.191 1.177 1.235 2.347 2.233 3.379 3.595.984 1.315 2.202 2.478 3.145 3.823.739 1.06 1.228 2.281 2.019 3.368.908 1.239 1.868 2.904 2.46 3.816.423.647.929 1.448 1.356 2.253.571 1.067 1.08 2.429 2.24 3.142-.09.849.602 1.978 1.135 3.144.55 1.194 1.042 2.326 1.796 2.925.124 3.753 2.88 6.805 2.477 9.657 5.381 14.096 5.508 31.014 1.793 47.408m-65.832 121.098c1.837-1.758 3.32-3.864 6.513-4.266-2.071 1.944-3.272 3.853-6.513 4.266m-.895.224c-.533.185-1.342-.124-2.033 0 .01-.386-.158-.575-.447-.675.591-.389.997-.946 1.341-1.569-1.2.255-1.803 1.394-1.785 2.244-5.323.172-9.761-.176-14.822-.224.86-2.536 5.401-3.847 8.305-2.25 1.518-.227 3.369-.441 3.823 0 .148-.227.832-1.583 1.118-1.118.23-.764.956-1.225 2.467-1.122-.743 1.59-3.169 2.515-2.904 3.816.292-1.187 1.848-1.139 2.013-2.464 1.073.327.925-.571 1.785-.454-1.018-.736 1.483-1.015 2.718-.898-.64 1.015-1.854 1.469-2.484 2.47 2.12-.722 2.261-2.67 5.839-2.246-1.118.289-4.029 4.183-4.934 4.49m-20.454 2.25c-3.231 2.766-7.494 5.161-10.339 7.638.059.395.396.512.908.45-.413.843-.849.62-1.575.444-1.645-.382-3.971.406-5.175.902-.416-.998-2.402-.368-3.585-.224.082-.382-.179-.416-.454-.451 1.655-1.772 4.3-3.757 6.97-4.717-.12.183-.244.368-.234.671.974.031.833-.364 1.803-.671-.702-.323.781-1.345 1.586-1.572.251-.038.172-.413.2-.674 1.183.185 1.266-.988 2.26-.891-.034-.272-.413-.2-.671-.234.878-.637 2.691-3.124 4.494-2.02-.076.303-.561.189-.902.23-.794 1.046-2.528 1.896-3.592 2.915-.323.313-1.125.822-.681 1.348.939-1.335 3.589-2.226 4.721-4.046 1.066.183 1.056-.743 2.023-.667.499.722-.878 1.118-1.346 1.569-2.009 2.415-5.288 3.54-7.194 6.069-1.066.055-1.266.98-2.019 1.345.058.241.437.148.437.447 2.195-.564 2.903-3.629 4.954-3.598.206-.799 2.518-2.337 3.372-2.467 1.094-1.377 2.601-2.343 4.039-3.365 1.108.347 1.435.337 2.708.22-.967.396-1.308 1.404-2.708 1.349m-14.595 13.036c-1.81-.1-2.57.864-3.602 1.569H92.93c1.301-1.266 2.368-2.309 4.287-2.477.135.468.668-.331.214.454.98-.117 1.383.062 1.806-.22.334.093-.089.282 0 .674m-.458 3.138c-.041.186-.216.23-.216.451 1.421-.585 3.495.481 4.696-.217-.058-.083-.058-.131.024-.004-.014 0-.024 0-.024.004.1.21.478.709.912-.234.334.096-.017.196 0 .451h.454c-1.008 1.08-2.584 1.613-3.595 2.697.512.609 1.372.874 2.463.898-.877.189-1.934.365-2.911.227-.254-.034-.543-.44-.457-.447-.585.02-2.629 1.345-3.138.22.506.729-5.133 1.335-4.49.447-1.51.64-2.071.974-4.05.905.637-1.352 2.78-1.356 3.372-2.25.086-.155-.365-.224-.447-.224-2.532.988-3.988 3.482-7.869 2.474 1.893-2.161 4.645-4.025 7.408-4.947.076-.021-.024-.176-.11-.221h-.114c.042-.038.066-.02.114 0 .987.031 2.972-.461 4.834.221.217-.916 2.343.254 3.144-.451m7.642 1.349c-.014-.214-.272-.173-.447-.224.413-.334 1.07-.434 1.799-.451 0-.217-.275-.175-.451-.223-.041-.486.792-.104 1.122-.221-1.18.843-2.154 1.617-3.626 2.233.017 0 .02.007.027.007h-.069a9.771 9.771 0 0 1-1.283.454c.21-.378.678-.488 1.283-.454.024 0 .035-.007.042-.007-.647-.216-.647-.729.027-.216.657-.166.592-1.064 1.576-.898m5.168-1.119c-1.053 1.263-2.65 1.989-4.267 2.694.661-1.455 1.587-2.36 4.267-2.694m0 2.017c-.454-.475 1.015-.923 1.569-1.122-.362.533-1.153.636-1.569 1.122m3.588-2.017c-.01.73-1.018.479-1.569.671-.433.437.726-.936 1.569-.671m13.945-.45c1.614-.052 3.475-.833 4.71 0 .54-.21 1.077-.41 1.586-.675 1.4.169.933-.017 2.003 0-.72.974-1.439 1.273-1.556 3.142-1.465 1.197-2.618 1.2-4.947.901.967-1.046 2.226-1.81 2.914-3.148-1.744 1.139-2.336 2.068-3.822 3.375-2.722.495-4.989-1.159-6.293.451-5.247-.74-8.01.392-12.348 0 1.362-1.487 3.581-2.102 5.615-2.925-.031-.574-.751-.45-1.342-.45 3.97-.757 9.169-.554 13.48-.671m9.434-5.622c-1.989 1.163-2.986 5.188-6.303 3.599 1.971-1.518 3.389-4.969 6.303-3.599m-4.27-1.122c-.547-.196-1.558.059-1.582-.678 1.792.073 1.279-.265 2.714-.671-.963.472.224.616.647.227.368.437-1.442.623-1.779 1.122m3.589-1.796c1.727-1.252 2.838-2.584 4.94-3.819.606-1.837 2.109-2.198 3.372-2.924.461.447.533 1.262.891 1.799-1.534 2.054-3.585 3.014-5.608 4.944-.946-1.152-2.591.224-3.809.224-.075-.399.207-.461.214-.224m9.664-2.019c.052 1.998-2.628 2.06-5.157 2.019 1.294-.657 2.394-3.182 4.49-2.924.034-.186-.103-.207-.241-.227.44-.417.908.853.908 1.132m-1.579 8.986c.385 1.225-1.335 1.831-2.233 2.467-.894 1.655-2.611 2.643-4.951 2.25 1.129-.368 1.215-1.775 2.694-1.799-.922-.984 2.918-1.923 2.708-2.918.351-.633 1.001.31 1.782 0m1.118 1.793c.379 1.871-1.641 2.866-3.588 2.697.079-.746 1.256-2.343 2.697-2.467-.024-.829.582.059.891-.23m-.664 10.115c-.382.361-.826.674-1.569.674.51 1.267.651-.137 1.786 0-.059.658.516.692.447 1.346-1.221.719-1.975 1.909-4.036 1.799.857-.802-1.744-.323-.898-1.125-1.156.578-2.697.754-4.483.674 2.595-1.847 3.93-2.604 6.95-3.598-4.558-.664-5.367 4.366-10.562 3.822 1.858-1.153 3.87-2.13 5.856-3.141.192 0 .168.272.216.444.503-.551 1.177-.919 2.023-1.125-1.62-.093-3.106.849-5.16 1.575-1.865.654-2.718 2.312-4.955 2.698-.85.151-1.944.172-2.907.22-3.943.21-8.629-.213-12.138.224.192-.651.894-.627 1.562-1.119.873-.646 1.537-1.059 2.927-1.799.978-.52 2.113-.895 2.918-1.342.348.282 4.249-1.173 3.823 0 .426-.251 1.066-.292 1.572-.457-.702.777-1.713.963-2.704 1.575-1.487.933-3.482 1.659-4.707 2.474.777.317 2.436-.416 2.694-1.352 1.614.392 2.677-1.483 4.28-2.016.695-.241 1.493-.09 2.226-.224.798-.155 1.596-.681 2.711-.227.423-.034.747-.151.895-.451.561.448-.74.891-.895 1.346.623.11 1.397-1.015 2.698-1.346.966-.254 2.721-.075 4.262-.23 2.574-.251 4.057-1.442 5.168.681m-.894 10.109c-3.1.942-5.75 2.346-8.099 4.035 1.365.1 1.507-1.032 2.934-.891.424-1.28 4.256-2.123 5.605-2.474.1.675-1.39.912-2.233 1.349-1.118.564-1.892 1.29-3.162 1.8-.303.223.107.371-.444.674-.715.258-.547-.358-.901-.458-.516.069.024.847.227.905-1.51.386-4.548.355-6.066 0 1.411-.912 2.605-2.033 4.28-2.701-.674-.43-1.82.427-2.704 1.129-.141.106-.361.626-.458.667-.56.327-2.797.465-1.555.905-4.435.712-6.712.31-11.687.898.151-.812-.386-.812-.227 0-.606-1.576 2.704-2.236 2.917-2.47.929-1.019 2.711-1.001 3.826-.898-.306-1.311-2.56-.282-3.826.22-1.355.547-3.901 1.638-2.917 1.803-1.717.987-4.012 1.386-6.527 1.576 1.366-1.414 3.798-1.758 4.951-3.379.217.01.175.279.227.454 3.344-2.474 7.741-2.36 11.681-2.474.581.055-.31.389 0 .909 1.197 0 1.834-.568 2.47-1.132.874 0 2.419 1.121 3.152-.22 1.672.092 2.484-.327 3.581.22-.709.117-1.459 1.115-2.904 1.132.214.368.943.234 1.335.44 0-.213-.282-.172-.44-.23.148-.788 1.321.148 2.009-.444.303-.155-.11-.595.231-1.118 1.362-.059 1.885-.96 2.694-1.573.853.269 1.145 1.098 2.03 1.346m-3.376 5.171c-.45-.007-.295-.62-.898-.451.259-1.848 3.565-1.83 3.83-2.931.086-.327.275.096.66 0-1.052 1.279-2.552 2.098-3.592 3.382m3.142 6.062c-1.174 2.883-4.49 4.177-6.51 6.062-3.588 3.365-6.554 8.664-12.806 8.096-.048-.43.482-.268.671-.451 1.056-1.046 2.058-2.236 3.369-3.372.533-.45 1.066-.867 1.565-1.341.506-.458.454-.713 1.129-1.129 1.035-.636 2.212-1.634 2.477-2.47 1.386-1.407 4.073-2.395 4.5-4.05.65.327.189.506.44 1.346.386-.964.592-2.106 1.8-2.24.069-.451-.045-.706-.451-.675.437-.612.822-1.28 1.572-1.572.699.633 1.242 1.452 2.244 1.796m-20.217 14.158c-.881-.165-1.541.175-3.145.224.324-.654.172-.252-.451-.224 1.401-3.282 6.665-6.826 10.556-9.658-1.004-.361.568-.743 2.02-1.809 1.166-.847 2.9-1.951 5.171-1.346-.048.248-.444.155-.444.451-.041.193.09.217.22.227-1.434 1.552-3.629 2.36-5.164 3.823-.045.247.041.395.217.447-.585.526-1.521.709-1.796 1.572-.31-.103.017-.199 0-.454-2.058 1.59-4.387 3.905-6.73 5.849-.134.196-.922.819-.454.898m-8.753.224c-.451 0-.289.612-.915.447 3.193-3.338 6.74-6.303 10.342-9.207 1.49-1.538 3.3-3.472 5.832-3.599.753-.048 1.438.65 2.257.22.231.757-.702.355-1.128.448-.692 1.073-2.818 2.109-4.49 3.371.037.272.419.189.67.231-1.276.509-2.786.808-2.914 2.47-.918-.096-1.417.231-1.348 1.122-3.059.605-3.926 5.873-8.306 4.497m-4.947.447c.268.144-.038-1.59-.224-.227-.176-.984 1.294-1.576 2.236-2.477.716-.671 1.084-1.48 2.261-1.79.43-1.52 2.067-1.82 2.687-3.144.557.031.691-.355 1.125-.447.451-.3.76-.74.901-1.349 1.377-.351 2.739-2.271 4.036-2.704 1.683-.551 2.942.295 4.493-.224-2.119 1.324-3.867 3.014-6.069 4.277-2.374 3.11-7.108 4.978-8.532 8.312-1.129-.237-2.261.11-2.914-.227m-2.925 3.592c.22-.681 1.349-2.395 3.145-2.247-.654 1.139-2.188 1.414-3.145 2.247m-1.569-4.263c-1.971 1.225-4.056.633-6.527.671-.11-.482.809-.172.902-.227.292-.162-.1-.324.217-.675.873-.894 2.783-1.833 4.28-3.144 2.449-2.144 5.298-4.552 7.411-6.967 1.833-.778 3.409-1.556 5.388-.675-1.676 1.882-3.458 1.717-5.388 4.05 0 .217.275.175.45.22-2.907.313-3.289 3.141-5.835 3.822.131-.199.262-.402 0-.45-.227 1.672-3.034 1.878-2.247 3.819 1.796-1.586 4.174-3.355 6.286-5.392.709-.674 1.026-.863 2.02-1.572.815-.585 1.569-1.483 2.484-2.243 1.483-1.256 3.798-3.565 6.499-2.477-.966-.613.351-.451.902-.227-2.605 1.348-4.036 3.554-6.279 4.72-.1.753-2.182 1.008-2.261 2.474-.612-.017-.444.378-.894 0 .117.182.241.368.22.678-1.982.774-3.427 2.102-4.483 3.819-1.142-.296-2.55 1.039-3.145-.224m-10.108 0c.051-.282.444-.231.45 0 1.26-2.488 3.658-3.826 5.832-5.395.929-1.624 3.513-2.656 5.395-4.043.537-.399.74-1.125 1.122-1.355-.148.089 1.304-.396 1.579-.447 1.042-.169 1.841.127 2.911 0-3.073 2.157-5 5.092-8.309 6.516.935.568-.135.389-.902.901-.275.193-.354.871-.674 1.119-.093.075-.761-.018-1.122.227-.774.516-2.16 2.233-3.375 1.579-.987.206-1.796 1.541-2.907.898m-2.244 0c.737-.891-.918.265-.233-.678-.778.275-1.487.606-2.705.447.303-.701.468-.113 1.129-.447-.413-.433-.396-.179-.217-.901.509-.017.495-.303.433-.224.444-.702 2.295-1.579 2.705-2.02.106-.117-.162-.278-.224-.227.647-.502 1.841-.798 2.474-1.565-.286-.998-.994.402-.668.22-.884.523-1.135.585-2.26.898v.902c-.791.464-1.504.457-2.243 1.118-.269.251-.189.684-.451.898-.024.027-.52-.754-.678.23-.598 0-.285-.946-.898 0-.684-.23.265-.612.458-.684 1.194-1.573 2.587-2.946 4.49-3.813-.871-.595.106-.206.447-.674-.416-.764-.784.382-1.342.227.22 1.335-3.87 2.054-4.27 4.039h-.667c1.19.95-1.197.258-1.128 1.576-1.686-.495-2.588-1.758-3.596-2.917.182-.045.207.082.224.22.106-.286.241-.454.444-1.122.381-.034 1.242-.165 1.352-.227-.052.034.426-1.036.681-1.122.093-.031.327.334.444.231.223-.217.278-.867.674-1.132 1.197.179.647.072 1.111-.447.169-.165.534-.066.678-.22.114-.114.337-1.04.685-1.349.107-.097 1.159-.819 1.342-.895.275-.124.241-.038.216.007v-.007c.878-1.028 2.268-1.059 3.599-.905-3.468 2.522-6.251 4.205-8.749 6.968.045.178.21.22.21.443 2.037-.991 2.69-1.517 4.724-3.595 1.582-1.603 3.802-3.403 5.849-4.046.234-.072.117-.193 0-.224 2.563-.223 2.587-.481 5.608 0-.619.953-2.178.964-2.704 2.03.639-.313 3.113-.963 2.27-1.355 1.253-.293 2.994-1.287 5.598-.898-1.896 2.174-5.632 3.788-8.305 6.076-.606.505-.833.929-1.576 1.341-.726.406-.936 1.294-1.569 1.79-.334.271-1.135.381-1.579.684-.671.468-.94 1.287-1.783 1.349m-10.569-4.273c-1.514-.812-2.415-2.223-3.822-3.141-.038-.303 1.307-.3.45-.682 1.232-.11 1.676-1.895 3.372-1.799.065-.124-.378-.289-.451-.213 1.459-1.287 3.936-1.249 5.619-.909-2.828.912-4.377 3.128-7.422 3.823-.103 1.104.898 1.2 1.126 1.348.258-.037.13-.223 0-.22.963-.764 2.184-1.321 3.378-2.246 1.359-1.064 2.395-2.491 4.033-2.705.932-.12 1.868.53 2.927.454-3.203 1.968-5.68 4.645-9.21 6.29m-5.845-4.944c.777-.933 2.047-2.78 3.836-1.8.089-.571.203-.124 1.108-.45.323-.658.168.526-.451.227.272.536.974-.348 1.352-.451.475.282-1.373 1.311-1.576.898-.296.757-2.646 2.828-4.269 1.576m-2.251-2.25c.833-1.563 3.269-1.119 4.508-.668-.902.413-3.248 2.205-4.508.668m-.894-.895c-.33-.836-.798-2.051-.458-2.918 1.136-.302 3.045.255 3.603-.223.361.44-.826 1.259-1.566 1.345-.21.915-.578 1.672-1.579 1.796m-3.145-7.408c.888-1.971 3.905-3.131 6.069-2.477-2.229.554-3.516 2.966-6.069 2.477m3.145-4.042c-.472.492-1.308.777-2.027.44-.206.169-.33.41-.44.671.124.516.351-.265.667.231-.726.619-1.283 1.414-2.477 1.572.21-2.343 2.092-3.155 4.277-2.914m-.671-6.293c1.648-1.132 3.045-2.508 5.171-3.152-2.577-.34-4.916 3.864-7.645 2.02.695-1.173 2.381-1.362 3.589-2.02-1.046-.481-2.856 1.277-4.033.678-.265-1.314.812-1.287 1.122-2.026.774.161 1.183.192 1.796.901 2.831-.454 6.11-.482 9.441-.451-2.171 1.879-5.164 2.935-7.642 4.494.035.416.761.134.891.45 2.216-1.754 4.625-2.859 6.971-4.269.213-.121.155-.159 0-.224.95-.788 3.028-.557 4.036-.678a.58.58 0 0 1-.275.368c1.135-.292 2.329-.784 3.657-.368.258-.044.124-.223 0-.223.674-.159.691.333 2.016 0-2.033 1.933-5.223 2.714-6.747 5.171-1.861.815-3.747.571-5.594.447 2.529-1.724 4.975-3.544 7.851-4.944-1.335-.434-1.634 1.521-3.151.898-.045.131.351.282.457.227-1.042.633-4.538 1.738-5.157 2.701-.107.141.344.224.426.22-1.341.891-3.117 1.366-5.615 1.125-.323-.65-.736-1.197-1.565-1.345m-1.586-12.135c.492-.76 1.503-1.83 2.938-2.25v-.895c-1.345.678-2.825 1.229-4.043 2.017-.684-.32.279-.881 0-1.573.909-.444 2.171-.657 2.464-1.121 1.961 1.273 5.649.354 7.879.898 1.445-.434-1.435 1.211-2.268 1.345-.247.051-.13.227 0 .227-.973.402-2.9 1.507-4.032 2.47-.444 0-.292-.609-.901-.447.557-.612 1.692-1.07 1.799-1.122.165-.096.361-.368.44 0-.203-.822 1.71-.822 2.254-1.575-.065-.245-.454-.148-.454-.448-2.801.97-2.959 1.999-6.076 2.474m2.701-10.566c.643.12 1.018.489 1.135 1.129 3.207-.018 5.987 1.362 8.76.667-2.729 1.318-4.236 3.871-8.543 3.602.791-1.606 2.202-2.584 4.032-3.151-1.428-.726-1.638.87-3.358.898-.344-1.366-1.786-1.662-2.026-3.145m.684-11.233c1.758-1.545 3.4-2.433 5.853-1.569-2.471 1.658-5.092 3.158-7.439 4.94.028-1.672.344-2.281 1.586-3.371m-.234 0h-.894c-.072-1.796.994-2.454 2.924-2.244.107 1.531-2.322.527-2.03 2.244m31.241-5.385c-.737.991-2.006 1.445-3.162 2.023-.943-.234 1.194-.23.234-.454.433-.33 1.066-.434.905-1.345-.451-.472-1.187-.276-1.583 0-.95.684-2.226 1.964-2.911 2.687-1.751.12-1.706.561-2.239 1.132-1.559.038-3.018.007-4.277-.227 1.183-1.975 3.812-1.339 5.171-3.816-2.278 1.397-2.776 2.082-5.395 2.911 1.173.777-2.855 1.025-4.039.454 1.108-.939 2.642-2.553 4.263-2.243.698-.131.457-1.208 1.569-.898-.399-.792-1.696.089-1.569.223-1.989.09-4.115 3.069-5.619 2.464 0 .22.269.175.451.23-.922.472-2.567-.282-4.039 0 1.411-1.575 3.633-2.35 5.378-3.595-3.162.199-5 4.091-9.655 2.924.637-.388.516-.282.675-.901.244.052.141.451.443.454.042-.368.582-.33.458-.23 2.632-2.034 4.215-3.032 8.079-2.928 5.522.165 11.89.536 16.862 1.135m20.213-11.464c-.299-.248-.155-2.24.461-2.247-.192.716-.148 1.659-.461 2.247m2.474 12.135c-.585.912-1.665 1.328-3.372 1.122 1.008-1.095 1.803-1.518 3.372-1.122m-9.881 0c1.961-.671 3.75-.127 6.509-.224-.151.52-.74.599-.891 1.122-2.68-.454-4.634.038-6.527.901.131-.646 1.518-1.176.909-1.799m-15.968 7.635c-.444-.781.113.017.234-.451.275.371-.802 1.294-1.566 1.355.107-.639.85-.646 1.332-.904M87.099 271.09c.161.031.234-.729.02-.599a4.35 4.35 0 0 0-.247.372c.11-.224.192-.33.247-.372 1.17-1.462 4.645-3.058 7.171-2.105-1.009 1.18-4.604 3.365-7.191 2.704m2.704-3.155c-1.655.76-3.004 1.803-4.5 2.704-1.968-.02-2.667.238-4.256.224.02-.265.392-.193.653-.224 1.47-1.765 4.287-4.232 8.103-2.704m-1.128-2.016c-.424.681-1.071-.262-1.803 0 .567-.265.87-.788 1.803-.678-.031.268-.424.189-.685.227.11.275.299.454.685.451m10.562-13.253c.217-.792 1.001.192.888-.678.196-.041.213.089.223.224.076.309.568.185.902.227.54.419-1.476.151-2.013.227m-17.764 11.453c2.89-1.424 6.479-3.994 9.214-6.286-1.452.64-2.921 1.267-3.815 2.467-1.476-.168-2.151 1.211-3.138 1.8-.609.347-1.514.361-2.034.674-.915.551-1.169 1.431-2.236 1.572-.034.262.045.396.213.444-.664.816-1.992-.612-2.463-.444.069-1.121 1.373-1.696 2.463-2.477.885-.633 1.831-1.624 2.925-1.789-.592-.543.499-.334.667-.451.21-.127.193-.677.465-.901.327-.313 1.383-.42 2.013-.895.667-.509.423-.584 1.352-.904 1.459-.499 3.234-2.223 4.273-3.145 1.634-.351 2.728-.021 4.5 0-1.156 1.242-2.601 2.185-4.5 3.145.158.619-.461.454-.461.904 1.558-.533 1.362-1.747 3.379-2.026 1.334-2.171 5.8-2.195 8.759-1.799.186.756-1.19.86-1.799 1.348-.434.355-.637.09-1.345.451a31.28 31.28 0 0 0-5.165 3.372c-.781.268-1.82.275-1.81 1.342-.509-.279-2.229.743-3.127 1.348-1.696 1.129-3.509 2.302-4.944 3.372-1.177-.052-2.243 0-3.159.227-.302-.471.121-.664-.227-1.349m-1.107 13.484c-.458-.458 1.025-.034 1.107-.451.035-.11-.333-.309-.426-.227 1.765-1.41 4.063-2.226 5.594-4.042-2.281.853-5.818 2.415-7.628 4.496h-2.03c1.772-1.758 4.25-3.237 6.52-3.822.272-.334.647-.547.682-1.125 1.586-.117 3.805.186 6.052 0-4.181 1.311-5.227 4.376-9.871 5.171m0 4.493c-.513.121.264.348-.234.678h-1.119c1.211-1.424 2.763-2.487 4.941-2.931-.977.977-2.202 1.713-3.588 2.253m4.035-.454c-.543.427-1.803 1.748-3.144 1.132 2.239-.764 2.687-3.313 5.842-3.148-.31.974-1.838 1.356-2.698 2.016m4.046.905c.843-1.104 2.006-1.892 3.372-2.474.031-.488-.801-.103-1.132-.23.1.189.183.258.234.296.176-.018.117.051 0 0a1.63 1.63 0 0 0-.451.158c-1.386.654-3.299 2.34-5.611 2.25 2.515-2.391 5.168-3.74 9.431-2.704-1.652 1.204-2.97 2.735-5.843 2.704m4.941-.451c-.877-.461.643-.127.678-.23.048-.145-.575-.348-.678-.224.227-.299.461-.454.454-.45.155-.348.964-.988 1.569-.671.186-1.239.84-.516 2.02-.678-1.063 1.035-2.147 2.04-4.043 2.253m6.066-.671c.244.671-1.442.4-2.467.441.131-.207.63-.337.23-.441.035-.258.214-.13.214 0 .296-.392.753-.615 1.348-.684.059.471.843.22.895.684 2.109-.203.75.623-.22 0m13.49 7.862c-2.745 1.081-4.311 3.331-7.418 4.039 1.996-1.944 3.723-4.417 7.418-4.039m-7.868 2.694c-.176.141-.276.561-.451.675.072-.052-.922.055-.888.901-.726.165-1.72-.279-.454-.231.688-1.042 2.381-2.38 3.592-3.592.791 1.033-.884 1.466-1.799 2.247m-3.369 0c.083-.437.633.361.444-.671 1.366.165.489-.832 1.586-.447-.344-.406.307-.595 1.108-.901-.953 1.004-2.119 1.775-3.378 2.466-.795.506.849-.498.24-.447m7.859 6.744c1.145-1.779 4.032-1.814 5.384-3.379 1.228-.052 1.758-.788 2.928-.901-2.219-.159-3.994.598-6.066 1.579-2.769 1.307-4.032 3.729-8.075 2.701 1.253-.881 3.234-2.206 5.598-3.148-.943-.874-2.597.839-2.236.674.058.616-1.349-.399-.678.224-.599.01-1.841.684-2.684 1.121-.413.912-2.47 1.817-4.5 1.8-.169-.689.224-.816.217-1.349 2.15-.547 3.01-2.395 5.391-2.701-3.138-.217-5.188 2.605-8.316 3.148-.619.224.324.613-.223.902-1.081-.258-1.507-.083-2.918-.227-.327-.465.994-.138 1.135-.217.334-.214.176-.792.434-1.125 1.163-1.438 4.449-1.397 5.168-3.152 1.204.423 1.582.344 2.924.671 2.154-1.775 5.378-.041 8.54-1.111.488-.048.708.175.681.66 1.51-1.173 5.715-.364 6.726-1.338.265.038.131.22 0 .22.441-.144 2.213.475 2.928 0h1.125c-.031.265-.399.193-.674.224-.733.014-.86.647-1.803.444 0 .471-3.619 1.163-3.588 2.246-.768-.041-.114.492-1.342.458-.723 1.159-3.706 1.93-6.076 1.576m2.023 3.144c-.695.362-1.16 1.26-2.023 1.349-.761-.244.622-.079.227-.674 1.785-.241 2.143-1.903 4.263-1.803-.572.815-1.624.685-2.467 1.128m-.895-.905c-2.226 1.363-3.564 3.228-6.523 4.27 1.851-1.751 3.609-3.585 6.523-4.27m-7.645 2.925c.878-.045 1.476-1.442 2.925-1.569-1.07.578-1.889 1.421-2.925 2.02.145-.207.275-.403 0-.451m-12.138.451c.853-1.26 2.408-1.094 3.155-2.02.254.186.609.293 1.115.224-1.046 1.4-2.901 3.158-4.944 2.243-.768.196.977-.361 1.348-.447-.089-.341-.282.089-.674 0m-2.687-.898c1.304.244 1.211-.888 2.463-.675 0-.223-.275-.172-.45-.223.282-.833 1.348.536 1.582-.224.162 1.063-2.167 1.579-2.921 2.467-.722-.413-.124-.757-.674-1.345m-4.27 0c.372.382 1.163.203 1.349-.224.602-.416-.286.681-.444.895.87-.537 1.472-1.356 2.687-1.569-.833.764-3.145 1.861-3.145 2.019-.182.654-.719-.134-1.132 0 .482-.595.599-.478.685-1.121m-.685-.675c-1.252 1.153-2.714 1.937-4.706 1.346 1.242-1.39 2.601-1.666 4.706-1.346m7.876-10.339c-.675.826-1.308 1.686-2.921 1.573.027-.262.409-.189.674-.224.21-.237.836-.069.674-.674 0-.626-.605.533-.45-.447.347.02.86-.104.887.227.252-.31 1.194-.802 0-.671 1.205-.024 1.521-.854 2.921-1.129-.54.496-1.176.915-1.785 1.345m6.506 1.129c.045-.268.416-.193.692-.231.027-.189-.107-.209-.224-.223.034-.255.224-.121.224 0 .55.038.691-.344.894-.675.327.826-.619.713.668.898-.324.52-1.552.09-2.254.231m-8.976 5.839c-.131-.21-.62-.344-.228-.444-.079-.695.258-.117.451-.227 1.438-.854 3.43-2.639 5.392-3.379.092-.372-.837.024-.902.231-.399-1.132 1.879-.252 2.484-.902.84.189 1.48.609 2.691.451-2.57 1.693-4.105 1.823-5.849 3.151-1.001.757-2.663 1.876-5.168 1.562.045-.492.561-.474 1.129-.443m1.562-4.27c.406-.062 2.26.685 1.582 0 .138-.633.368.196.52.389.065-.055.106-.117.158-.169-.041.231-.089.237-.158.169-.685.739-2.498 1.816-3.892 2.312-1.458 1.342-2.91 2.453-5.394 2.24.031-.403-.269-.468-.227-.898 2.102-.83 2.69-2.182 4.72-3.145.571-.269 1.497-.819 1.806-.898.334-.09-.055.451 0 .451.489.034.451-.375.885-.451m7.194-3.592c.254-.884 2.081-1.115 2.917-1.572-.034.798-2.463 1.782-2.463 2.694-.719.034-1.342.154-1.356.901-.894-.162-1.28.213-2.006.22-.564-.351.627-.12.888-.451.499-.636.54-2.016 2.02-1.792m-2.474-.905c.268.045.127.234 0 .234.31.234.643-.52 1.125-.451 1.001.327-.967 1.005.224.898-1.081.417-2.392.595-2.694 1.793-.933-.186-1.063.44-1.793.454-.309-.778 1.745-.334.895-.901.97.075 1.809-.964 2.243-2.027m-6.51.681c.258.038.128.227 0 .224.152.678.472-.22.905 0-.674-.963.558.375.451-.671h.884c-.977.44-1.62 1.218-2.697 1.565-.038-.189.1-.209.234-.216.468-.066-.317-.606.223-.902m-13.483 2.691c1.713-1.001 1.854-1.507 3.145-1.789-.097-.623 1.145-1.057 2.257-1.129-1.697 1.084-3.107 2.44-5.402 2.918m4.049-.675c.21-.165.241-.509.451-.67 1.201-.995 2.962-.785 2.914-1.793 2.57-.189 3.252.234 5.612-.234-1.445 1.559-3.771 2.209-5.164 3.816h-1.569c1.255-1.012 2.167-2.271 3.822-3.362-3.052.791-4.294 3.231-7.411 3.362.186-.547.877-.754 1.345-1.119m-2.03 7.415c-.65.234-1.238.55-2.019.678.389-.599-.54-1.439-.458-2.467 1.93-1.235 4.208-3.276 6.967-2.928-.942 1.675-3.619 1.617-4.713 3.145 1.703 1.111 3.853-1.528 5.185-2.478.113-.079.567.121.657 0 .822-.922 2.914-1.156 4.72-.891-1.073.785-3.946 1.511-3.819 2.477-1.613.393-3.578 2.202-6.52 2.013-.275.059-.223.451 0 .451m23.365 4.27c-1.985.602-3.698.385-6.282.223-.595-.251.884-.289 1.115-.447 0-.217-.272-.169-.441-.224 1.235-.918 2.268-1.94 4.714-2.243-.578 1.142-2.594.85-2.237 2.914.479-.481 1.046-.905 1.796-1.121-.344.261-.554.66-1.128.674 1.025.499 1.627-1.362 2.24-2.02.691.788 2.659-1.988 4.276-1.348 0 1.231-4.232 1.947-4.496 3.368-.042.213.316.179.443.224m38.428-2.244c1.129-.154 1.665-.877 2.918-.898-.43.726-1.844 2.423-2.918 1.573v-.007a.942.942 0 0 1-.22-.217c.186-.045.206.076.22.217v.007c.213-.076.213-.609 0-.675m-24.036-2.026c4.679-1.332 10.215.017 14.382-.902.196.179.502.248.888.228.557-.031.392.275 0 .223-1.129.664-2.254 1.345-3.145 2.254-.619-.551.716-1.067.678-1.803-1.597-.472-1.525 1.679-2.474 1.128v.675c-1.053-.086-.644 1.314-1.803 1.121-.083.537 1.029-.13.681.675 2.381-1.132 4.494-2.216 7.194-4.273.31.082.018.405-.223.447.244.64.382-.348.657-.447.33-.107-.028.447 0 .447.127.01.987-.592 1.806-.675.898-.079.905.289 1.356-.22-.141 1.315-2.79 1.985-4.043 2.925-.141.674-.826.492-1.81.898-.344.798.761.134.682.671.32-1.019 3.753-2.512 5.391-3.372.712-.375.884-.984 1.342-1.122 1.201-.358 1.868.021 2.921 0 .495.361-1.452.172-1.345.895.626.76 1.682-1.136 2.48-.224-.065-.54 1.789-1.091 2.46-.894.313.908-.481.712-.433 1.345-2.911.234-5.199 3.606-8.55 3.372-.819-.355.526-.341.217-.895.237 0 .192.275.237.447.379-.285.255-.767.671-1.121.877-.778 3.155-.723 2.918-1.803-1.473.485-2.133 1.768-4.043 1.803-.888 1.397-4.256 2.577-6.289 1.345-3.021 1.885-9.452.657-12.803 1.572.282-.474.616-.874.902-1.348-1.394-.031-2.588.791-3.162.898.041-1.088 2.319-1.872 3.609-2.467-2.553-1.156-4.304 2.725-6.971 2.243 1.741-1.252 3.314-2.67 5.622-3.368-.048-.386.382-.578 0-.678m17.289-8.529c3.276-1.814 4.194-3.049 8.092-4.27-3.106.919-4.655 4.394-8.092 4.27m10.353-3.826c-2.742.244-2.914 3.771-6.964 3.595 1.025-.633.826-1.135 2.003-1.569 1.118-1.273 2.841-1.589 3.825-2.47.427.093 1.349-.313 1.136.444m.66 1.796c-1.2 1.39-2.535 1.434-4.717 1.576 1.614-1.071 2.595-2.705 4.49-2.922-.172.692.382.661.227 1.346m-8.756-1.122c1.18-.155 1.965-.736 3.135-.898-1.16.637-2.44 1.153-3.135 2.25-1.582.296-2.69 1.057-3.592 2.016-.334-.419-1.493-.024-1.81-.447.066-.289.448-.223.465 0 .286-.691 1.387-1.472 2.013-1.118-.737-.729 1.734-1.005 1.342-1.352.24-.255 2.002-.286 1.582-.451m-11.911-.224c.048.489-.182.716-.674.675 1.52.949 3.946-1.081 6.072-.675-.106.881-2.515 1.377-3.382 2.247 1.115.196 1.861-.915 2.921-1.349.674-.282 1.572-.237 2.254-.447 1.252-.389 2.377-.853 4.266-.674-2.488.495-4.507 3.406-7.418 3.815-3.833.554-6.802.362-11.237.455-.089-.623.85-.214.912-.671-1.256-.062-1.868 1.097-4.043.891 1.153-1.229 2.894-1.893 3.802-3.369-2.443.245-4.018 3.321-7.18 3.592 3.186-2.773 5.491-4.507 10.559-4.713.265.072.11.186 0 .223.733-.251 1.562-.22 3.148 0m-12.355-9.664c-1.18.771-2.095 1.799-4.046 1.81 1.225-.737 2.707-2.536 4.046-1.81m-1.803 2.47c1.201-1.459 3.361-3.017 5.615-2.69-1.896.874-3.038 2.501-5.615 2.69m7.631-1.799c-.788.674-2.109 1.156-3.385 1.517 0 .021.017.031.017.065-.076.028-.186.021-.317.018-.268.072-.543.141-.794.199-.038-.354.416-.234.794-.199.107-.028.2-.059.3-.083-.059-.138-.272-.117-.417-.168 1.074-1.019 2.828-1.349 4.27-2.02.602.261-.743.919-.468.671m8.33 2.704c-.21.33-.73.324-1.129.451-.237-.761.685-.358 1.129-.451m8.075-1.355c-1.517-.018-1.827.158-3.131 0 0-.207.279-.169.444-.21.034-.998 2.043-1.617 2.463-2.932 1.142.251 2.443.079 3.836-.447-1.341 1.067-2.852 1.958-3.612 3.589m11.237-4.04c-.176 1.132-.362 2.285 0 3.369a74.86 74.86 0 0 0-6.29.461c.713-.874 2.12-1.033 2.247-2.481-1.786 1.651-3.186 3.434-6.066 2.481.585-.155.107-1.053.668-.461.967-1.26 2.621-3.623 6.072-3.142 1.088.079-.481.671-.44 1.122 1.435-.175 2.092-2.185 3.809-1.349m-3.585-6.062c.96-.158 1.813.241 1.789-.451.182.117.364.234.688.224-2.068 1.686-2.759 4.741-6.517 4.717.788-1.999 2.464-2.611 4.04-4.49m3.585-3.829c-.097.33-.19-.014-.448 0 .104.285.293.468.685.45.127.812-.275 1.094-.457 1.583-1.146.041-2.815.533-3.589.217.984-.585 2.587-1.738 2.701-2.474.038-.32.657-.076.66-.447.465.065-.316.612.448.671m-5.829 1.359c1.377-1.38 3.19-2.343 4.721-3.603.574 1.077-1.015 1.979-1.373 3.369-1.473-.097-2.439 2.181-4.71 2.026-.234-.241 1.287-1.572 1.576-1.349.038-.258-.055-.402-.214-.443m-9.888 11.223c.561.488.286-.372.668-.671.051-.041.426.21.681 0 .31-.282.777-.547 1.572-.891.399 1.304-2.154 1.593-2.48 2.911-.52.072-.857-.038-1.132-.21.106-.348.292.075.691 0 .303-.296.045-.479 0-1.139m-6.516 0c1.376-1.528 3.939-1.476 6.055-1.118-.533.966-1.782 1.204-2.921 1.572-.258.891 1.514.093.678.895.86.089 1.744-.527.901.233-4.321-.319-8.051.52-11.687.217 2.085-1.18 4.311-3.292 7.19-2.917-.209.399-.416.784-1.118.674.2.76.503.024.902.444m-12.589 3.378c3.963-.557 9.361-.416 14.147-.447-1.214.943-3.802 1.727-4.486 2.467-.85.561-2.23.616-2.481 1.793-1.366.037-2.398.65-4.703.454 1.208-1.404 3.32-1.91 4.497-3.372.812.151.853-.489 1.572-.451-4.077-.247-4.559 4.287-10.339 3.823.864-.482 1.431-1.266 2.46-1.573-1.077-.058-1.431.066-2.236 1.119-1.153-.365-2.261.77-4.05.454-.007-.571.169-.279.444-.227.444-1.218 2.759-1.865 4.28-2.694-.66-.568-1.624.468-2.026.901-2.068.324-3.472 1.311-4.941 2.237-1.225-.021-2.395 0-3.155.457-.564-.093.227-.643.692-.457-.049-.255-.431-.179-.692-.217 3.299-1.886 7.249-5.522 11.017-4.267m-6.517.444c.107-.416 2.013-.929 1.786-.223-.767-.117-1.428.247-2.006.674-1.658 1.18-3.152 1.861-4.944 2.918.096.203.199.402.444.454-.423.547-.816-.437-.444.674-1.283-.131-3.107-.093-4.057 0 .203-.334.568-.485 1.136-.457-.145-.217-.527-.224-.454-.671 2.012-1.057 3.581-2.546 5.842-3.369-.059-.309-.561-.182-.891-.223-.066.76-1.287.371-1.346 1.125-3.929.653-4.648 4.507-9.671 4.046-.499.526.158-.619.901-.227-1.042-.368.664-1.143 1.79-2.02 1.709-1.321 3.509-2.749 3.605-2.924 1.617-.303 1.834-.152 3.589-.444-.045.179-.22.223-.214.444 1.796-.097 3.183-.768 4.934-.221.038.007-.034.4 0 .444m-1.569-24.71c-1.228.489-1.854 1.6-3.151 2.016-1.48 2.027-4.37 2.674-5.846 4.721-.715-.128-1.042.155-1.576.227.186-1.332 1.6.306 1.81-1.345-.309.935-.516-.018-.908 0-.843.027-1.903.519-3.131.216.925-.426.987-.997 1.792-1.118-.147-1.053 2.216-1.269 2.247-2.247 1.335-.161 2.034-.956 2.704-1.796.943.011 1.917-.753 2.694-1.352.685-.536 2.189-1.242 2.908-2.019 1.414.254 1.541.058 2.48-.451a25.984 25.984 0 0 1-2.257 1.799c-.151.689.389.658.234 1.349m4.494-4.5c.261-.602 1.176 0 1.562 0-.348.857-1.376 1.015-1.793 1.803-.485-.523.96-1.463.231-1.803m4.49-1.122c.044-.299.925-.42 0-.44 1.651-1.067 3.206-2.199 4.49-3.599-3.035-.396-3.902 3.272-6.734 3.816.809-1.421 2.519-1.968 3.149-3.592.037-.489-.795-.104-1.136-.224-1.689 1.438-2.653 3.637-5.842 3.599 1.387-2.082 4.542-1.82 4.28-4.046 4.081-.633 6.898.488 11.681.223-1.459 1.16-2.209 3.035-4.053 3.823-.169.196-.234.502-.224.891-.619-.265-1.541-.248-2.463-.227 1.118-1.345 2.642-2.285 4.046-3.365-2.77-1.621-3.31 3.774-7.194 3.141m-11.223-58.641c-.124-.482-.606-.839-.692-1.342-.1-.667.296-1.348.234-2.019-.268-2.829-2.443-7.281-.898-9.895.199-.338 1.531-1.655 2.467-2.237.409-.261 1.053-.193 1.576-.451.595-.306.818-.801 1.121-.901 1.593-.516 3.926-.01 6.066-.22 1.779-.189 3.372-1.297 4.497-1.359 2.068-.103 3.585 1.156 5.381 1.799-.588 1.428-2.209 1.844-2.694 3.369 1.937-.007 2.594-3.665 5.402-2.915-.547.733-1.108 1.445-1.807 2.02 1.463 1.104 1.758-2.316 3.819-2.02.971.458-1.348 1.26-1.785 1.796 1.262 1.349 2.418-.915 3.148-1.569 1.218-.044 2.412-.031 3.365.221 1.472 2.04.832 4.197.671 6.963-.255 4.37-.021 9.262.227 13.935.099 1.992-.382 3.967-.455 5.838-.206 5.781.238 11.495 0 17.3 0 .756-1.045.461-1.345.898-.426 2.491-1.913 3.932-2.694 6.069 1.542.099.84-.933 1.122-1.803.568-.613 1.321-1.404 1.572-1.8.09-.12.024-.44-.227-.22.475-.45.85-.547 1.572-.667-.12 1.097-1.121 2.501-1.795 4.042-.568 1.301-1.8 3.083-.668 4.047.447-.878 1.056-3.599 1.789-4.047.258-.044.121-.227 0-.227.826-.237.578 2.746.231 4.04-.045.178-.468.144-.461.45.037.912-1.267 2.925-.891 4.497.172.207.412.344.674.447-.561.609-.502 1.318-.895 2.474 1.253-.065.75-1.899 1.112-2.247.65 3.025-.561 5.574-.217 8.764-8.168.068-18.689-.544-27.628-1.136-.368-9.84-.509-23.048-1.118-35.266-.131-2.267-.368-4.441-.234-6.509.217-3.534 1.424-6.276.458-10.119m-24.05 51.454c3.176.471 7.098.801 11.01 1.342-.324.509-1.463.192-1.349 1.135-1.318.382-3.275 1.411-4.046 1.793-.176.089-.203.206-.231.45-.787.176-.863-.333-1.568-.22 1.186-1.218 2.989-1.81 4.493-2.708-2.78-.671-4.015 2.13-6.744 2.254-.258-.138 1.029-.623 1.576-.674-.072-.159-.151-.252-.22-.289-.169.027-.124-.076 0 0 .107-.007.23-.052.454-.159.262-.134.441-.633.668-.677.32-.062.437-.035.447 0 .471-.634 1.159-.286 1.349-.671-1.487-1.187-4.473 1.947-5.839.671-.654-.369.781-1.738 0-2.247m.671 18.2c-.196-.175-.499-.24-.898-.227-.103-.423-.475-.56-.451-1.121 1.039-1.875 4.129-2.928 4.948-4.27 1.462-.712 2.67-1.676 3.815-2.697-3.124 1.675-5.835 3.746-8.763 5.622-.024-2.553.606-2.904 2.243-4.274 1.913-1.582 5.065-3.605 7.195-4.713.956.244 2.143.258 3.361.227-.733.932-1.084 1.094-2.229 1.796 1.035.237 2.546-1.235 3.137-1.579 1.445-.166 2.285.271 3.589.223.599.255-.908.269-.441 1.122-.904.165-2.253 1.18-2.023 1.125-3.196 1.214-5.277 3.557-8.315 4.941-1.046 1.207-2.77 1.734-3.589 3.151-.798-.051-1.342.148-1.579.674m72.352-12.812c1.207.506-.317 1.847-1.129 1.799.158-.808 1.38-.564 1.129-1.799m57.075-140.641c-.024-5.687-.258-11.522-1.359-16.624-.34-1.586-1.097-3.19-1.345-4.721-.289-1.703-.255-3.237-.674-4.493-.107-.317-.551-.623-.692-.898-.55-1.187-.461-2.601-.884-3.819-.117-.355-.523-.561-.674-.898-.544-1.287-.417-3.258-.895-4.05-.843-1.386-1.621-3.083-2.236-4.266-.919-1.738-2.01-2.931-2.715-4.493-.464-1.064-.729-1.463-1.125-2.247-2.02-4.012-4.872-7.246-7.184-11.01h-.905c-.619-1.799-2.405-2.921-3.354-4.941-.303-.234-.843-.223-1.136-.447.066-.805-.674-.829-.674-1.579-1.896-1.132-2.987-3.214-4.724-4.717-1.363-1.204-3.203-2.023-4.703-3.138-.279-.21-.348-.695-.675-.901-.832-.558-1.875-1.05-2.701-1.587-.784-.492-1.71-1.324-2.683-1.114.196-.799-.939-.847-1.373-1.122-1.356-.881-2.577-1.469-4.022-2.25-.647-.337-1.153-.984-1.817-1.345-2.563-1.418-5.69-2.574-8.302-3.819-.929-.444-1.909-1.136-2.694-1.346-4.18-1.138-7.424-2.694-11.464-3.602-2.979-.664-5.243-.705-7.638-1.569-.213-.695-.805-.857-1.121-.894.148-.014.258-.035.223-.227-4.132-.217-5.426-3.259-8.085-4.945-.84 1.556-2.068 2.729-3.379 3.823-2.436 1.259-4.875 1.466-7.855 2.016-8.309 1.538-16.332 3.781-22.7 6.52-4.37 1.283-8.605 3.537-12.576 5.842-1.407.692-3.519 1.621-4.046 2.47-1.132-.079-2.425 1.624-4.043 1.8-1.045 1.944-3.757 2.233-4.49 4.49-3.12 1.077-4.19 4.201-6.743 5.849.241-.327.234-.558-.227-.675-1.149 1.838-3.286 2.698-4.043 4.934-.77-.168-.285.915-1.125.675-1.397 2.635-3.434 4.606-4.944 6.97-.506.802-1.328 1.817-1.565 2.464-.172.461.213.495 0 .904-.995 1.79-2.801 3.303-2.698 5.619-1.3.585-1.61 2.14-2.033 3.592-1.225.595-1.246 2.136-1.789 3.372-.716 1.655-2.044 3.22-2.023 5.388-.812-.145-.272 1.073-.902 1.125.042 2.147-.977 3.217-1.569 4.717.165.051.441.01.451.23-1.153.265-.788 1.917-1.125 2.918-.416 1.252-1.407 3.038-.898 4.717-.172.347-.716.337-.681.901-.571 4.765-1.346 8.591-1.112 13.257.142 3.076.486 6.523 1.112 9.657.223 1.084.791 1.972.905 3.145.189 1.793.461 2.55.674 3.823.138.784-.186 1.696 0 2.473.062.262.585.633.674.892.224.705.066 1.486.224 2.253.275 1.311 1.07 2.577 1.345 3.816.489 2.178.609 4.462 1.345 6.516.83 2.247 2.402 4.094 2.694 6.52 1.009 1.438 1.79 3.117 2.481 4.717.75 1.741 1.548 3.245 2.47 4.944 3.623 6.64 7.277 13.608 10.329 20.447 1.607 3.572 3.234 7.707 4.717 10.78.234.485.186 1.235.451 1.796.822 1.72 2.687 2.845 2.47 4.94 1.789 2.698 2.075 6.008 2.701 9.211.382 1.954 1.469 3.554 2.023 5.391.774 2.605.922 6.162 1.108 9.445.217 3.344.691 6.85.925 10.108.066 1.17-.165 2.229 0 3.368.317 2.323 1.721 5.478 2.694 6.967 1.088 1.704 3.08 4.373 4.263 5.165.833.567 1.886.512 2.687 1.348-.089-.089.076.702.458.675-.991.275-.416 1.724-.458 2.023-.01.093-.474.471-.44.678.141.736 1.218 1.324 1.349 2.246.072.51-.547 2.065-.682 3.596-.185 2.346-.148 3.692-1.345 4.49 1.043.984-.168 2.756-.217 4.046 1.287 2.078 3.032 3.698 4.256 5.838-.784 1.624-3.791 2.116-5.608 3.369-1.225 2.322.392 3.963 1.569 5.171h2.027c.911 1.001.072 2.498.22 4.039-2.037.582-4.029 1.218-4.49 3.372 1.066.86.141 1.645.234 2.247 1.569 1.183 4.328 1.204 4.934 3.368-.929 3.42-6.445 2.25-5.406 7.648 1.205.754 2.498 2.089 4.057 1.79-.189.722.354.701.451 1.125-2.027 3.395.117 6.1 2.473 8.092.651.55 1.631.795 2.244 1.349 1.493 1.359 2.274 3.051 3.382 4.039 1.62-.155-.313.688 1.558.45 1.108 1.583 2.65 2.749 4.487 3.596-.1.698.784.592.234 1.121 1.18.468 2.529.761 2.463 2.471 1.906.495 2.426 2.374 3.836 3.375 10.057-.048 20.689.124 28.98-.231-.041-.564.499-.54.675-.891 1.675-.209 2.508-2.074 4.263-3.148.051-.66.794-1.679 1.569-2.246.55-.403 1.417-.341 2.243-.898 1.259-.847 2.646-2.677 4.266-4.274 2.051-1.988 4.924-3.822 6.751-5.608.822-.812 2.841-2.425 3.144-2.928 1.476-2.58-.87-2.477-1.569-3.826-.585-1.09-.203-1.424-.234-2.683.582-.898 1.693-1.425 2.261-2.261.258-.378.829-1.503.891-2.016.32-2.766-2.412-3.293-3.152-5.615.269-.034.64.041.675-.224-.795-.027.027-.412-.675-.674 1.308-1.583 3.923-1.882 4.036-4.046.127-2.285-2.154-3.578-3.802-4.944.007-.74.375-1.118.231-2.02 2.105-1.218 4.101-3.103 3.571-6.289-.946-.994-2.333-1.548-3.127-2.704.361-.523.801-.984 1.111-1.569-.901-.489-1.552 1.011-1.555 0-.083-.819 1.304-.936 2.002-1.573.771-.691 1.153-1.83 1.807-2.47 0-1.352.072-2.77-.238-3.819.32-.588.953-.85 1.129-1.565-.702-.699-.785.526-1.562.443-.324-.953-.444-2.116-1.342-2.467h-.685c-.936 1.442-2.591 1.79-3.805 3.138-1.08 1.167-1.793 2.797-2.935 3.823-.12.11-.568-.114-.671 0-.626.667-1.448 2.054-2.711 1.125 1.018-1.569 2.047-2.333 3.155-3.372-.84-.22-1.786.733-2.47 1.342-.781.698-1.535 1.655-2.251 2.25-1.771.437-2.04.991-3.805 1.345-.643 0 .534-.609-.457-.444-3.038.517-7.15 1.304-8.764 3.365 2.897-.103 4.955-2.222 7.411-2.019-1.135.065-1.51.877-2.243 1.345 1.999.619 3.867-1.944 5.612-1.569-1.001.337-1.284 1.407-1.786 2.243-.949.097-2.649 2.051-1.118 2.478.743-2.089 1.792-2.189 2.68-3.376.282.344 1.937-.024 2.928-.223-1.325 1.541-3.22 2.473-4.263 4.273-11.756.43-21.913 1.252-32.809 0 .12-.568 1.744-.1.894-.902.809-.237 3.641-1.259 2.471-1.575 1.259-.017 1.799.66 2.921.454-.11-.626 1.214-.688 1.803-.454-1.225.058-1.428 1.118-2.925.908-.165.912.733.757 1.122 1.118 1.558-.77 2.783-1.865 4.947-2.026.031-.265-.037-.633.217-.675 2.649-.223 5.189.441 6.981-.898-.358-.034-.829.083-.915-.223.406-.417 1.125-.534 1.583-.898-1.728-.179-2.887 1.665-4.04.678.86-1.084 3.3-.589 4.04-1.796-.599.013-1.728.65-2.034.216.423-1.603 2.333-1.723 2.928-3.137.427-.045 1.493-.582.902-.905-2.753 1.455-4.463 4.097-6.968 5.171-1.101-.609-3.681.506-4.937.223.083-.347.699-.189.447-.901-.715-.244-1.348-.138-2.067-.392.213.017-.224-.413-.479-.441-.041.055-.106.111-.151.166 0-.138.069-.172.151-.166a43.505 43.505 0 0 0 2.997-3.213c.334-.258.554-.258.895 0 .351-.922 1.5-1.28 2.243-1.793 1.934-1.328 3.582-3.024 5.849-3.822.027-.268-.035-.633.224-.671 5.202.189 8.388-.041 13.253.447-1.666.781-3.197 2.674-5.168 4.273 1.503-.003 2.078-1.486 2.917-2.25.881-.798 1.968-1.286 2.708-2.24 1.191.142 2.98-.299 3.805.217-.657.289-.003 1.001-1.352.902.073 1.018-.409.602-.674 1.575-2.962.768-3.919 3.551-6.059 5.165.685.423 1.129-.571 1.572-.898 1.105-.802 2.509-1.576 3.155-2.698.558.038.695-.351 1.112-.447.894-1.208 1.493-2.715 3.165-3.148.293-.557-.894-.698-.237-.898 1.259.275 2.673-.458 3.375 0-1.345.268-2.082 1.961-2.925 2.02.461.777-1.458 1.097-1.345 2.25-1.407.674-4.411 2.398-2.924 3.819.801-.981 1.489-2.663 2.924-3.596-.062.375.248.551.213 0 .582.527.4-.722.919-1.348 1.046.261.465-1.239 1.101-.221.602-1.5 2.326-3.079 4.046-2.694-1.823 2.285-4.431 3.95-6.066 5.832.868-.189 1.373-.774 1.8-1.118.275-.224-.038-.265.22-.451 2.312-1.63 3.313-3.457 7.208-4.713-1.307 1.459-2.611 2.931-4.28 4.039 2.749-.471 3.22-3.213 5.629-4.039 3.155.409 5.267-2.735 3.365-4.721-.84-.175-1.077.272-1.81.224.217 1.706-1.345 4.383-4.036 3.141.045-1.139 1.566-.839 1.583-2.019-1.28.464-1.91 1.544-2.932 2.243-1.575-.169-2.36.598-3.825 0 2.026-1.118 3.633-2.663 5.394-4.039 1.5.158 2.364-.138 3.372.227-1.235-.007-1.552 1.479-2.243 1.348 1.407.441 1.927-1.231 3.372-1.575 1.476-.358 3.296.478 5.157-.224-1.122 2.322 1.108 1.885 2.023 2.694.42-1.022-.798-.392-.888-.895h-.45v-.447h.45v.447c1.091-.447-.22-.526-.227-1.125 2.161-.85 2.811-3.347 4.277-6.963.434-1.115 1.228-2.068 1.562-3.149 1.466-4.765 1.875-10.497 3.833-14.608-.079-.523-.365-.847-.244-1.573.44-.705.278-1.434.45-2.69.699-4.948 2.385-9.93 4.057-14.382.867-2.291 2.057-3.599 2.904-5.391.443-.895.505-1.848.904-2.694 1.17-2.422 3.475-4.634 4.05-7.414 1.813-2.116 2.794-4.742 4.039-7.188 1.862-3.654 4.555-6.895 6.757-10.115 1.597-2.374 2.509-5.116 3.806-7.415.695-1.235 2.102-3.189 2.477-4.269.234-.733 1.266-2.694 1.559-3.816.061-.227.416-.141.467-.227.386-1.073.444-2.271.878-3.375.96-2.35 2.054-4.497 2.711-6.74.32-1.125.303-2.405.667-3.589.334-1.066 1.029-1.957 1.353-2.924.808-2.515 1.489-5.199 2.026-7.415.296-1.311.189-2.642.444-4.039.506-2.684 1.472-4.886 1.576-7.638.031-1.252.144-1.338.223-2.243.276-3.499.234-5.911.234-9.218" fill="#58595b" fill-rule="nonzero"/><path d="M103.937 280.296h.688c-.079.293-.399.358-.457.685-.258-.038-.189-.409-.231-.685m35.058-8.982c-.148.299-.475.416-.895.447.052-.396.379-.52.895-.447m-28.751 4.042c.564-.427-.592.571-.912.677-1.008-.02.592-.564.912-.677m-3.605 5.836c-.21.461-.853.488-1.562.451.01-.217.275-.169.45-.217.035-.193-.092-.213-.233-.234.034-.43.76.272 1.345 0m-1.794-1.118c.058-.392.385-.512.901-.45-.151.306-.461.416-.901.45m7.633 25.161c-.024.496-.943.093-1.335.224.024-.492.946-.096 1.335-.224m-18.412-13.923c.647.117-.337.344-.224.667-.746-.216.248-.443.224-.667m3.151-1.129c.685.227-.485.364-.45.678-.85-.382.485-.379.45-.678m-10.12 2.698c.647-.327-.76.568-.894.898-.582-.313.512-.802.894-.898M86.203 294c-.072.309-.574.189-.901.234.069-.307.568-.193.901-.234m-2.933 1.577c-.189.334-.712.324-1.111.444-.513-.169.692-.471 1.111-.444m4.721 8.536c.251.059.158.451.458.451-.093.499-1.187.175-1.352 0 .646-.12.45-.241.894-.451m-8.313-23.133c-.615.275-.034-.588.905-.685.241-.024-.567.527-.905.685m47.635-56.18h.461v.447h-.461zm-51.455 54.598c.069-.3.575-.186.902-.224.082.519-.644.251-.668.671-.258-.038-.127-.22 0-.22.035-.19-.082-.221-.234-.227m-.215 3.374c-.426.437-.791.386-1.352.224.3-.323.998-.602 1.352-.224m14.367 34.823c-.815-.355.912.051.462-.671h.901c-.423.244-.795.557-1.363.671m19.784 6.295c.058-.475.991-.062.901-.682.664.327-.265.912-.901.682m3.813-3.604c-.21.017-.175.275-.223.451-.265-.031-.186-.413-.227-.671h.898c0 .217-.265.172-.448.22" fill="#58595b" fill-rule="nonzero"/><path d="M114.504 264.575c-1.156.534.781.575 0 0m-4.035 1.566c-1.452-.258-.488.691 0 0m-4.271 10.117c-.994-.761-1.214.829 0 0m-4.048 3.816c-1.951.799 1.304-.54 0 0m-11.004 11.46c1.362-.265.557-1.088 0 0m20.224 30.338c1.097-1.097-.461-.743 0 0m4.945 1.564c-1.751.3.943-.161 0 0m-4.502-297.697c.654-.333.833.251 1.132-.447-.726-.299-1.641.932-1.132.447m13.257-4.72c-1.184 1.287-3.193 1.755-4.497 2.928.148-.203.275-.406 0-.454-.362-.042-1.084.681-.668.671 0 .529-.619-.08-.45-.444-3.269 1.066-5.464 3.774-8.987 5.164.041-.255-.038-.403-.224-.447 1.944-1.277 4.191-2.24 6.073-3.603-.165-.206-.43-.333-.678-.443-.781.092-1.321 1.221-2.033.677-.633.654-2.237 2.023-4.04 2.247.042-.189.227-.227.227-.454-.65.103-1.021.475-1.125 1.125-.213-.382-.702-.492-1.121-.671 1.163-1.084 2.814-1.679 4.266-2.481-.093-.192-.203-.395-.444-.443 1.087-.785 1.487-2.247 3.582-2.027.076.52-.633.262-.668.681-.123.506.874-.271.221.224.354.485 1.895.261 2.036-.224.647.372-.591.747-.691 1.119 2.67-.159 6.802-2.154 9.221-3.145m-4.041 4.048c-.416-.172.121-.24.444-.234-.041-.258-.399-.189-.667-.22.45-.943 2.604-1.201 3.371-1.121-.443.392-1.176.474-1.802.67.017.596-.258.444-1.346.905m-17.293 0c.788-1.228 3.086-.939 4.483-1.575-1.239.67-3.049 1.857-4.483 1.575m15.946.897c-.52 1.125-1.297.362 0 0M52.047 53.823c-.809 1.349-2.03 1.383-3.582 2.24.234.186 1.971-3.034 3.582-2.24m-7.634 10.334c.096-.623-1.236.182-1.112-.451-.406-.602.97-.43.207-.678 1.417-.323 2.298-2.302 3.595-2.023-.771.871-4.61 2.543-2.026 2.701 1.562-1.517 3.272-3.31 5.625-3.365-1.187 1.366-3.186 1.913-4.721 2.918-.836.819-2.68 2.346-4.489 2.924 1.001-.65 1.851-1.452 2.921-2.026m5.164-.222c-1.411 1.651-3.819 2.319-5.164 4.042-.09-1.39 2.098-1.751 2.69-2.477.11-.124-.148-.275-.224-.213.596-.482 1.628-1.218 2.698-1.352m-7.859 2.475c-.778.368-.527 1.283-1.129 1.345.145-.681.358-1.301 1.129-1.345m2.258 1.344c-.616 1.045-1.879 1.434-2.942 2.026.599-1.06 1.979-1.331 2.942-2.026m2.231.448c.192.595-.416.282-.675.451-2.573 1.748-4.961 3.743-7.631 5.391-.688.372-.43 1.665-1.352 1.8.22-.678.795-.998.678-2.023 2.945-1.556 5.505-4.012 8.98-5.619m-.45 2.697c-.045.326-.678.082-.678.45-.557-.096.217-.643.678-.45m-6.3.45c-.344.168-.327.715-.888.67.193-.323.344-.708.888-.67m4.956 0c.643.873-.551.636-.905.894-2.708 2.013-6.138 4.287-8.543 6.751-.076.447.055.695.478.664-.351.805-1.111-.093-1.583 0 1.366-1.17 2.054-3.032 4.04-3.592 1.895-1.848 4.225-3.255 6.513-4.717m-1.576 5.616c.23 1.328-1.411 1.786-2.247 2.477-1.29 1.025-2.842 2.23-4.039 3.365-1.242 1.184-2.594 2.797-3.83 4.273-.082.534 1.026-.131.685.675-.633.178-.585-.324-1.135-.227.433-1.411 1.889-2.357 2.023-3.372.788-.207 1.765-.795 2.03-1.573.272-.774 1.469-.299 1.352-1.572.836.093 1.896-.784 1.569-1.125 1.435-.736 2.222-2.133 3.592-2.921" fill="#58595b"/><path d="M37.676 83.256c.502.035-.306.572 0 1.122-.096.058-.382-.069-.451 0-1.507 1.59-3.65 3.812-4.72 6.289-.909-.595.795-2.673 1.355-2.463-.134-.182-.244-.368-.244-.678 1.834-.963 2.753-2.811 4.06-4.27m0 3.152c.585.313-.475.846-.898.891.072.84-.864 1.325-1.335.901.606-.103 1.335-.884 2.233-1.792" fill="#58595b"/><path d="M34.067 89.776c.131.011 1.418-.85 1.126-1.128.756-.747.416 1.252-.444.901-.826 1.022-.3 2.058-1.8 2.243.534-.375 1.356-1.637 1.118-2.016m158.186-2.249c.234.179-.11 1.675-.908 1.572.492.324-.275.544.227.678.069.516-.64.241-.681.671-1.314-1.132 1.163-1.875 1.362-2.921M35.442 91.344c.044.399-.217.461-.248.223-.203.069-.747.84-.231.909-.598.227-1.513 1.641-2.016 2.677-.867-.451.812-1.39.227-1.563 1.084.073.774-1.754 2.268-2.246m-2.037.672c-.615 1.572-1.768 2.58-2.711 3.812-.502-.988 1.06-1.483 1.81-2.464.361-.485 0-1.379.901-1.348m2.235 2.696c-.124.2-.262.403 0 .441-.138.309-.475.423-.891.464 0 .213.275.172.444.213-1.243 2.216-2.368 2.749-2.922 5.178-1.476 1.184-.701 3.723-2.46 4.27.716-1.07.692-3.275 2.251-4.497-.585-.488.034-.622.209-.898.51-.712 1.026-2.339 1.346-2.921.165-.254.254-.034.241 0 .722-.894.674-2.071 1.782-2.25m161.102.229c-.495 1.169-2.143 2.463-2.931 3.144-.558.496-.516.589-1.118.671.399-.798 1.001-1.393 2.03-1.562-.059-.678 1.183-1.765 2.019-2.253m-164.022.441c-.74 1.287-1.166 2.863-1.792 4.277-.775-.526.533-1.631.67-3.592 1.026.413.317-.898 1.122-.685m165.148 2.031c.485.282-.75.733-.451 1.573-1.084-.437.275-1.06.451-1.573m.668 3.594c-.248.42-.258 1.077-1.118.891.626 1.249-1.576 1.363-1.576 2.701-.193.038-.21-.083-.213-.224h-.472c-.024-.406.293-.478.241-.901 1.418-.441 1.635-2.095 3.138-2.467m-.9 11.234c.619.478-.602.389 0 1.121-1.204.541-2.102 1.494-2.481 2.244.117.282.299.471.688.457-.162.757-.746.214-.894-.237.457-1.259 1.128-2.295 2.47-2.687-.458-.458.089-.441.217-.898m-.219 6.738h-1.352c-1.111-1.834 1.352-2.597 2.254-4.046 1.342 1.239-1.796 1.971-1.132 3.148-.812.248-.069.138.23.898m-2.019 6.065c.788.134 1.197-1.483 2.47-1.576.626 1.325-1.761 1.944-2.026 2.925-.107.399.826.467.223.898-.774.182-.956-.241-1.341-.444-.203-.891 1.31-1.229.674-1.803m-17.31 49.43c-.871 3.02-4.384 5.518-4.944 8.986-.575-.605.695-1.734 0-2.026.788-1.614 2.198-2.601 2.477-4.717 1.152-.42 1.765-1.373 2.467-2.243m-48.739 1.572c.502.502-.984 1.166-1.576.671.007-.441.602-.282.44-.888.286.041 1.105.65 1.136.217m-19.33 1.579c.409.052.616-.499 1.569-.451-1.421 1.201-2.722 3.699-4.714 3.592.602-1.335 3.107-1.992 3.145-3.141m-.686 3.142c-.151-.895.534-.441.912-.671 1.256-.788 1.941-2.34 3.589-2.694.874.041-.761 1.063-1.122 1.345-.867.881-1.786 2.563-3.379 2.02m.686 8.535c.616 0-.54.62.45.451-.006.22-.282.172-.45.224-.107 1.331-1.714 2.859-2.243 4.49-.08-1.652 1.407-3.678 2.243-5.165m-46.283 4.273c-.317.777.182 2.676-.675 3.141.482-1.27-.175-2.45.675-3.141m35.279 14.377c-1.331-.272.874-2.67-.454-3.596.416-1.3.76-2.694 1.562-3.595 0-.217-.268-.172-.451-.224.083-1.046 1.143-1.114 1.576-1.796.895.75-.74 2.453-1.125 3.365.282.647.661-.977 1.125-.22-1.493 1.603-1.552 3.485-2.233 6.066m-30.347-8.086c.647 1.38-2.371 5.147-.902 8.085-.842.238-.619-.557-1.334-.45-.351-2.983.832-4.996 2.236-7.635m33.707 3.364c-.334.461-.224 1.31-.444 1.792-.017.065-.43-.045-.464 0-.176.413-.258.936-.437 1.359-.152.344-.523.74-.682 1.118-.492 1.167-.485 2.804-1.569 3.603.131.467.644.726.234 1.114-.495-.027-.485-.561-.45-1.114 1.242-2.65 1.562-6.218 3.812-7.872m-32.564 2.022c.209.286.474 3.145-1.143 2.928.375-1.197.585-1.655 1.143-2.928m17.061.68c.076-.354.393.193.451-.227.392.169.041.406 0 .675.499-.179.568-.792.901-1.129.183.127.375.241.675.227-.53.675-1.132 1.27-1.576 2.023-.22-.01-.169-.271-.227-.45-.63.44-2.068 2.532-.891.901.172-.241.058-.808.667-.901-.292-.558.503-1.094 0-1.119m28.976 12.584c.337 1.224-1.183 3.867-1.565 5.16 1.586-.048 2.257-1.476 2.257-2.466.798 1.83-1.036 3.406-1.59 5.16-.426 1.377-.309 3.231-.894 4.724-.014.038-.43-.041-.448 0-.261 1.129.107 2.46 0 3.596-.664-.117-.622-.933-.664-1.352-.254-2.526 1.538-6.183 2.233-8.764-.485.338-.437 1.208-1.121 1.353-1.769-.716-.141-3.052.227-4.046-.186-2.97.072-4.893 1.565-6.964.877.712-.464 1.713-.671 2.47-.278 1.025.121 1.917-.227 2.701.661-.186.575-1.091.898-1.572m-9.209 1.795c.574.052-.3.382 0 .898-.558-.038-.052-.767 0-.898m-36.163 6.961c.375-.75.76.701.677.227.042.278-.887 1.049-.901 1.125-.069.196.175.516.224.447-.465.891-1.291 1.775-.224 2.47-2.336-.007.85-3.888.224-4.269m5.167 13.708c.984-1.562 3.093-1.982 4.941-2.697-.905.829-2.336 1.111-2.914 2.246-.733.104-1.235.427-2.027.451m50.772.447c-.268.702.124.967-.444 1.579-.051.864-.337-1.83.444-1.579m-7.418 17.078c-.816 1.449-3.764 2.044-4.714 4.043-1.806.447-2.436 2.051-3.816 2.921-.375-2.099 3.021-2.367 3.586-4.277.705-.189 1.579-.22 1.586-1.111 1.782.141 1.923-1.366 3.358-1.576m-.219 6.514c-.079.519-.977.217-1.115.671-.602-.809.53-.386 1.115-.671m-10.335 6.069c-.478.606-1.779.138-1.345-.901 2.646-.75 3.829-1.586 6.733-2.03-1.927.925-3.606 2.088-5.839 2.708.021.22.265.168.451.223m-11.226 2.245c1.002-.176 1.511.347.214.224-.045.196.1.206.22.223-.141.303-.465.413-.884.447.079-.347.695-.189.45-.894m-3.151 2.473c-.038.794-1.012.636-1.569.901.241-.575 1.132-.506 1.569-.901m6.283-1.578c1.025.358-.296.84-1.111.674-.042-.639 1.462.269 1.111-.674m30.344 10.564c-1.291-.362 2.353-1.359 3.357-1.569-1.964.898-3.148 2.453-5.608 2.243.547-.423 1.752-.189 2.251-.674m-22.7-.901c.956-.161-1.731.296 0 0m3.377 0c.743.334-.386.637-.461.902-.609-.21.529-.503.461-.902m19.097 10.784c.159.616-1.066-.162-.901.451-.55-.179.702-.922.901-.451m2.477 1.347c-.472.375-1.088.575-1.366 1.129-.42-.375.626-1.16 1.366-1.129m-.693 19.1c-.048-.389.386-.578 0-.671.348-.261.551-.647 1.129-.678 2.56-2.862 5.498-5.405 8.763-6.967-.64 1.084-2.78 1.858-2.924 2.705-1.676.543-3.42 3.347-5.839 4.486 0 .747-.375 1.122-1.129 1.125m-34.6-4.939c-.389-.069-.458.21-.22.223-.238.513-1.005 1.16-1.559.675.798-.437.833-.255 1.115-1.129.313-.02.63-.031.664.231m3.817-.674c.271.1-2.223 1.149-2.454 2.243-.588-.609-.684.276-1.362.227-.289-.529 1.82-.574 1.586-1.795.932.498 1.091-.754 2.23-.675M33.174 106.843c-.534 2.326-2.295 4.569-1.576 7.414.499-.185.371-.984.671-1.345.798 2.188.292 4.727.45 7.198.923.161.788-.73 1.814-.454-.929 3.509 1.434 6.698.908 9.891-.475-3.526-2.051-5.666-2.037-8.77h-1.135c-1.008-2.677.275-4.011-1.576-5.618.612-1.765.027-3.96.678-5.165.031-.048.364.289.45.224.431-1.641-.251-3.01 1.353-3.375m66.281 75.943c.399.416.974-1.153 1.793-.447-.568 1.304-1.442 2.301-2.233 3.371.499.503.722-1.197 1.792-.904.382.67-.502 1.655-.684 2.473.767.176.299-.908 1.125-.667.877 1.744-1.208 2.329-1.342 3.815.444.647.351-1.131 1.342-.674.378.84-.919 1.71-1.125 2.701.182.767 1.156-.145 1.582.671-.657 1.586-.591 2.174-.898 3.368h-1.352c.183-.939.743-1.5 1.125-2.253-.034-.492-.949-.09-1.342-.221-.509-1.441.702-3.657-1.352-3.819-.158-1.128.399-1.548.675-2.246-.035-.417-.757-.141-.909-.451.544-.829.503-2.35 1.129-2.467-.035-.423-.754-.144-.895-.447.351-1.824 1.545-2.794 2.237-4.273.684-.51 1.379.326 1.582-.444.688.22-.254.598-.237.894 1.689-.048 1.834-1.61 3.158-2.019-.698 1.173-1.792 3.141-3.595 2.467-.895.172-1.08 1.021-1.576 1.572m58.423 39.766c.399-.024.475.279.901.231-.354.846-.653 1.538-1.352 2.467.516.788 1.16-.85 1.793 0-.723 1.751-2.068 2.869-3.379 4.046.1.767-.058 1.287-.895 1.128-.406-1.293.823-2.339 1.803-3.375-.227-.371-.956-.241-1.352-.447.227-1.944 1.923-2.432 2.481-4.05m-.904 6.971c.069-.523 1.001-.138 1.118 0-.079 1.187-1.001 1.531-1.789 2.019.196.62.826-.433.895.448-.382.653-1.036 1.073-1.8 1.345.392.599.454.234 1.129.678-1.473.733-3.406 2.109-5.175 1.799.22-.702.967-.705.458-1.569 1.286-.203 1.954-1.039 2.914-1.569-.884-1.692 2.77-1.84 2.25-3.151" fill="#58595b"/><path d="M138.42 112.526c-.21.644-.433 1.277-.578 1.937a8.824 8.824 0 0 0-1.269 2.657c-.265.911-.348.87-.62 1.613.011-.02.207.131.166.279-.024.076-.403.117-.424.168-.044.128.186.176.162.276-.01.038-.265.103-.275.161-.189.922-.196 2.357-1.084 3.358-.017 1.869-1.19 3.53-1.424 4.817-.004-.079-.128-.155-.145.007-.01 1.665-1.094 3.523-1.662 5.55-.086.299.031.746-.075 1.149-.1.396-.441.712-.506 1.035-.127.616.062 1.243-.031 1.862-.089.629-.471 1.121-.609 1.758-.433 1.989-.224 3.664-1.118 5.082.492 1.204-.217 2.222-.386 3.031-.12.561-.137 1.177-.185 1.73-.172 2.116-.193 4.06-.644 5.77-.065.633.276-.134.3.269-.658 1.18-.444 1.723-.1 3.014-.705.966-.475 2.002-.509 3.327-.055 1.837-.2 3.389-.272 4.885-.114 2.157.162 3.75.316 5.14.303 2.877-.137 5.791.764 7.831.503-.994.107-2.319.086-3.299-.007-.269.227-.589.231-.874.003-.564-.227-1.211-.258-1.848-.107-2.284-.018-4.651.027-6.589.014-.87-.206-1.768-.158-2.57.052-.932.334-1.785.402-2.745.138-1.868.059-6.331.386-7.762.616-2.753.771-5.202.936-8.079.877-.856.423-2.501.509-3.327.144-1.386.674-2.859 1.032-4.218.502-1.899 1.366-4.111 1.091-5.508.777-1.101.371-1.751 1.121-2.79-.371-.331-.103-.527.1-.723.065-.065-.076-.347-.027-.43.326-.588.474-1.276.732-2.051.166-.488.434-.956.627-1.469a125.934 125.934 0 0 0 3.024-9.069c.66-.647.936-1.638 1.269-2.577a14.504 14.504 0 0 1-.922-.778m-40.4 54.749c-.075-1.517-.22-3.09-.278-4.955-.035-1.341.196-2.391-.513-3.371.344-1.308.558-1.858-.1-3.056.024-.406.365.369.3-.271-.454-1.734-.479-3.706-.651-5.849-.048-.561-.065-1.187-.185-1.755-.169-.819-.881-1.855-.389-3.076-.895-1.438-.692-3.134-1.122-5.15-.144-.647-.523-1.146-.612-1.783-.093-.629.096-1.262-.031-1.889-.066-.326-.406-.646-.509-1.049-.107-.409.007-.86-.076-1.166-.568-2.051-1.655-3.936-1.665-5.626-.017-.165-.141-.089-.145-.007-.237-1.303-1.41-2.993-1.431-4.885-.888-1.015-.895-2.47-1.084-3.406-.01-.059-.265-.128-.275-.162-.024-.103.206-.151.162-.282-.021-.052-.4-.093-.424-.172-.044-.148.152-.303.162-.279-.272-.753-.354-.712-.619-1.638a8.975 8.975 0 0 0-1.273-2.694c-.066-.299-.183-.581-.258-.873-.313.161-.63.32-.957.461.238.695.503 1.369.988 1.851a127.543 127.543 0 0 0 3.031 9.196c.193.52.461.995.626 1.49.262.785.409 1.48.736 2.078.049.086-.093.368-.027.437.203.196.471.396.1.733.75 1.056.347 1.713 1.125 2.828-.276 1.414.591 3.657 1.094 5.588.358 1.376.891 2.869 1.035 4.276.09.836-.364 2.502.513 3.372.169 2.918.327 5.398.943 8.192.327 1.448.254 5.973.392 7.869.065.973.351 1.837.406 2.783.048.812-.176 1.724-.155 2.605.045 1.964.138 4.366.031 6.681-.031.644-.258 1.297-.255 1.872.004.289.238.612.231.884-.024.994-.416 2.336.086 3.348.898-2.068.458-5.024.76-7.941.152-1.407.427-3.024.313-5.209" fill="#58595b"/><path d="M125.73 110.336c.134-1.817-.217-2.436-.843-4.101.447-.475 1.194-.692 1.235-1.511-.096-.602-.784-.557-.812-1.238 1.435-.916.833-2.804 1.514-4.25 1.345 0 1.039.96 1.318 2.213-.317.629-.898 1.035-.764 2.054.182.512 1.049.275 1.094.936.058.904-.389 1.376-1.235 1.507 0 .543-.069 1.021-.21 1.448.127.468.502.668.661 1.104.405 1.786-1.095 1.944-.971 3.496.437.716.743 1.005.706 1.82-.045 1.053-1.779 2.467-.055 3.871 1.837.007 5.14.103 7.256.127.997.01 2.332-.427 2.26.719-3.317.771-5.666.547-9.895.324-.21 1.218.286 2.212.334 2.986.12 1.913-.754 4.029-.661 6.059.007.275.293.547.344.836.176 1.015.086 2.412.066 3.437-.014.805.02 1.686-.589 2.47-.695-.251-.96-.98-1.421-1.486.265-2.556-.185-4.063.066-6.165.041-.358.361-.668.382-1.029.024-.592-.41-1.098-.269-1.844.134-.472.389-.843.671-1.187.148-.386-.495-.585.114-.582-.485-1.063-1.06-2.305-1.222-2.931-1.169.292-2.546.378-3.261-.231-1.494.726-3.888.737-5.041-.12-1.717.592-3.612 1.221-5.03.021-1.063.437-1.985.715-3.213.629-.565-.038-1.101-.444-1.655-.471-1.545-.076-3.097.492-4.415.413-.031 1.159-.45 2.535.334 2.99.148.622-.444.612-.526 1.032.124 2.701-.778 4.813-.733 7.356.007.347.244.667.206.987-.048.434-.392.853-.505 1.321-.128.496.254 1.167-.358 1.456-1.545-.344-.437-2.195-.503-3.41-.055-.877-.523-1.517-.306-2.56.117-.578.637-.87.644-1.469.02-1.183-1.057-2.006-.933-3.241.427-.33.53-1.011.84-.767.241-.76-.465-.888-.688-1.531-.014-.496.017-1.029-.365-1.125-2.653.54-6.499.681-10.143 1.053-.014-.238-.027-.475-.045-.716.355-.619 1.201-.437 1.889-.544 2.502-.385 6.138-.44 8.646-1.39.382-.055.444-.643.544-.75.392-.419.279-.997.337-1.741.021-.244.248-.578.251-.732.007-.307-.227-.558-.199-.847.069-.643.402-1.149.344-1.596-.062-.534-.558-.933-.389-1.552.327-.107.059-.612.231-1.018.096-.221.474-.372.554-.606.065-.182-.355.11-.303-.124.024-.089.416-.237.426-.313.035-.248.09-1.531.038-1.72-.251-1.029-1.245-1.573-1.201-2.79.011-.372.245-.406.396-.744.103-.223.007-.378.114-.581.192-.351.622-.588.819-1.053.024-.048-.231-.213-.166-.275.393-.351.166-1.098.341-1.741.31-1.135.963-1.865 1.307-2.801.909-.23 1.225.176 1.655.472.307 2.381-1.149 3.254-2.085 4.569.042 1.342-.237 2.408-.065 3.87.929.836 1.676 3.279-.217 3.596-.402 2.36-.217 5.226-.254 7.892.622-.044 2.48.152 3.684-.223a162.47 162.47 0 0 1-.103-1.714c.946-1.441 3.227-.853 3.145.664-.059.585-.578.768-.812 1.198.912.413 1.211.024 2.367-.004.169-.843-.23-2.738 1.001-2.924 1.184-.176 1.996 1.627.909 2.666.705.974 2.618.523 3.385-.206-.602-1.517.189-3.169 2.199-2.715.622.991.134 2.268-.406 3.035.633.179 1.538.684 2.828.254.192-1.173-.128-3.468 1.404-3.667.66-.09 1.028.375 1.531.905-.045 1.042-.162 2.026-.726 2.628 1.424.919 3.399-1.066 2.343-2.866.598-.354.375-1.128.801-1.342-.137-.151-.488.042-.013-.282-.086-.764-1.077-1.809-.492-3.12.216-.485.289-.967.564-.468m-22.394-10.514c-.561.836.275.393 0 0" fill="#ed1c24"/><path d="M107.075 117.355c.09-.259.138-.451-.034-.572-.11.262-.465.475.034.572m14.626-.326c.031-.196-.12-.551-.161-.276-.031.2.123.551.161.276" fill="#ed1c24"/></svg>