<?xml version="1.0" standalone="no"?><!DOCTYPE svg PUBLIC "-//W3C//DTD SVG 1.1//EN" "http://www.w3.org/Graphics/SVG/1.1/DTD/svg11.dtd"><svg width="100%" height="100%" viewBox="0 0 225 338" version="1.1" xmlns="http://www.w3.org/2000/svg" xmlns:xlink="http://www.w3.org/1999/xlink" xml:space="preserve" style="fill-rule:evenodd;clip-rule:evenodd;stroke-linejoin:round;stroke-miterlimit:1.41421;"><g><path d="M110.019,21.916c-0.496,0.598 -1.903,1.238 -2.474,0.447c0.437,-0.53 1.49,-0.454 2.474,-0.447" style="fill:#58595b;"/><path d="M111.144,23.945c-0.151,0.227 -0.523,0.227 -0.451,0.668c-0.791,0.192 -1.868,1.273 -2.7,0.677c-0.623,0.578 -1.439,0.953 -2.698,0.898c1.177,-1.531 3.854,-1.541 5.849,-2.243" style="fill:#58595b;"/><path d="M50.02,58.988c-1.169,0.402 -1.348,1.792 -2.917,1.806c0.64,-0.826 1.861,-2.109 2.917,-1.806" style="fill:#58595b;"/><path d="M41.264,69.996c-0.44,0.544 -0.997,0.953 -1.806,1.129c0.434,-0.544 1.008,-0.953 1.806,-1.129" style="fill:#58595b;"/><path d="M43.738,74.045c-0.861,1.307 -2.165,2.178 -3.606,2.921c-1.559,2.13 -5.45,3.802 -6.957,6.737c0.031,0.261 0.406,0.192 0.685,0.223c-0.221,0.396 -0.706,0.506 -1.356,0.451c0.282,-2.474 4.242,-5.598 6.52,-6.74c1.356,-1.407 2.611,-2.925 4.714,-3.592" style="fill:#58595b;"/><path d="M40.364,81.904c-0.753,0.454 -1.018,1.383 -2.236,1.352c0.829,-0.354 0.987,-1.404 2.236,-1.352" style="fill:#58595b;"/><path d="M194.279,89.099c0.382,-0.048 0.575,0.379 0.668,0c0.55,1.259 -1.786,2.151 -1.349,3.375c-0.54,-0.096 -0.496,0.406 -1.129,0.217c-0.258,-2.05 1.845,-1.737 1.81,-3.592" style="fill:#58595b;"/><path d="M197.417,90.893c0.651,0.193 -0.141,0.726 0,1.122c-1.6,0.275 -2.143,1.607 -3.605,2.023c0.918,-1.338 2.37,-2.14 3.605,-3.145" style="fill:#58595b;"/><path d="M193.597,94.269c0.485,0.216 -0.203,1.128 -0.678,1.114c0.138,-0.461 0.475,-0.719 0.678,-1.114" style="fill:#58595b;"/><path d="M196.96,98.757c-0.278,0.461 -0.347,1.139 -1.118,1.125c-0.461,0.451 -0.888,2.436 -2.47,2.467c0.626,-1.648 2.054,-3.599 3.588,-3.592" style="fill:#58595b;"/><path d="M30.261,99.883c0.344,0 0.485,1.665 -0.231,1.345c0.203,-0.795 0.028,-0.543 0.231,-1.345" style="fill:#58595b;"/><path d="M33.859,99.883c0.3,0.908 -0.533,2.608 -1.796,2.697c0.95,-1.008 0.836,-1.496 1.796,-2.697" style="fill:#58595b;"/><path d="M32.72,102.801c-1.018,1.015 -1.583,3.083 -1.792,4.947c-0.083,0.713 0.708,1.907 -0.448,2.024c-0.351,-3.393 0.448,-4.429 1.342,-6.971l0.898,0Z" style="fill:#58595b;"/><path d="M198.761,104.599c0.868,0.406 -0.223,0.378 -0.443,0.677c-0.1,0.141 0.106,0.547 0,0.675c-0.324,0.354 -0.984,0.32 -1.356,0.674c-0.991,0.943 -0.805,2.501 -2.013,3.145c-0.66,-2.773 1.927,-4.191 3.812,-5.171" style="fill:#58595b;"/><path d="M198.318,112.241c0.028,-0.021 -0.017,-0.227 0,-0.227c1.077,-0.193 -1.067,1.445 0,0.227" style="fill:#58595b;"/><path d="M197.868,118.979c0.01,-0.55 0.753,-0.069 0.894,0c-0.234,2.123 -3.571,1.978 -2.694,4.49c-3.65,-1.249 1.676,-3.575 1.8,-4.49" style="fill:#58595b;"/><path d="M197.417,127.065c0.251,0.086 0.568,0.399 0.217,0.451c-0.723,1.224 -1.751,2.133 -2.477,3.375c-0.024,0.715 0.223,1.717 -0.668,1.565c-1.042,-2.824 1.5,-3.819 2.928,-5.391" style="fill:#58595b;"/><path d="M195.63,132.458c1.173,-0.104 -0.533,0.609 0.213,0.671c-1.39,1.448 -3.189,3.227 -3.375,5.174c-0.705,0.004 -0.698,-0.681 -0.674,-1.121c0.037,-0.523 0.368,-0.224 0.461,-0.451c0.113,-0.334 -0.121,-0.785 0,-1.125c0.557,-1.566 2.642,-1.858 3.375,-3.148" style="fill:#58595b;"/><path d="M192.253,139.649c0.265,-0.041 0.399,0.049 0.441,0.224c-0.293,1.194 -1.088,1.91 -1.576,2.921c0.382,0.217 0.468,0.743 0.905,0.902c-0.761,1.768 -2.385,4.042 -3.382,6.069c-0.816,1.689 -1.208,3.802 -2.908,4.263c-0.178,1.895 -1.438,4.524 -2.473,6.289c-0.644,-0.072 -0.117,-1.738 0,-2.016c0.268,-0.62 0.591,-0.929 0.908,-1.125c-0.017,-1.662 0.402,-2.877 1.565,-3.372c0.145,-1.455 1.872,-3.189 2.698,-4.724c-0.31,-0.819 0.395,-1.786 1.121,-2.236c0.086,-1.26 0.658,-2.044 1.339,-2.698c-0.183,-0.337 -0.716,-0.327 -1.115,-0.45c0.399,-1.769 1.627,-2.715 2.477,-4.047" style="fill:#58595b;"/><path d="M181.007,158.074c-0.347,0.327 -0.196,1.152 -0.223,1.792c-0.396,-0.347 -0.864,-0.629 -0.671,-1.565c0.399,0.031 0.475,-0.275 0.894,-0.227" style="fill:#58595b;"/><path d="M181.905,163.908l0.684,0c0.461,0.988 0.117,2.323 -0.894,2.477c-0.066,0.833 -0.496,1.315 -1.583,1.126c0.317,-1.604 2.13,-1.993 1.793,-3.603" style="fill:#58595b;"/><path d="M180.349,168.857c0.633,0.042 0.533,1.077 -0.234,0.905c-0.034,-0.413 0.275,-0.474 0.234,-0.905" style="fill:#58595b;"/><path d="M116.315,177.625c-1.335,1.156 -2.133,3.981 -4.269,3.589c1.176,-1.432 2.46,-2.78 4.269,-3.589" style="fill:#58595b;"/><path d="M107.321,179.199c-1.174,0.664 -1.886,2.856 -3.585,2.237c0.492,-0.84 1.675,-1.002 2.009,-2.017c0.691,0.031 1.005,-0.791 1.576,-0.22" style="fill:#58595b;"/><path d="M125.522,179.644c0.192,0.097 0.399,0.193 0.45,0.451c-0.275,1.445 -0.805,2.639 -1.796,3.365c-0.543,-0.75 0.424,-1.621 -0.457,-2.023c0.296,-0.908 1.349,-1.053 1.803,-1.793" style="fill:#58595b;"/><path d="M125.972,181.889c1.008,0.65 -1.077,2.57 -0.905,4.043c-1.18,-1.156 0.395,-3.104 0.905,-4.043" style="fill:#58595b;"/><path d="M127.081,183.685c0.674,0.406 -0.627,2.219 -1.108,2.928c0.031,0.43 0.488,2.965 -0.905,2.69c-0.22,-2.109 0.771,-3.884 2.013,-5.618" style="fill:#58595b;"/><path d="M127.081,188.177c1.025,-0.048 0.041,0.169 0,0.454c-0.1,0.895 0.509,3.062 -0.441,3.589c0.059,-1.972 -0.863,-2.643 0.441,-4.043" style="fill:#58595b;"/><path d="M111.144,189.083c-0.1,0.271 -0.299,0.461 -0.674,0.447c0.096,-0.279 0.275,-0.468 0.674,-0.447" style="fill:#58595b;"/><path d="M112.27,189.083c0.76,0.406 1.077,-0.031 2.013,0c-0.451,0.615 -1.569,0.925 -2.237,0.67c0.107,-0.175 0.234,-0.368 0.224,-0.67" style="fill:#58595b;"/><path d="M114.74,189.976c0.684,-0.165 0.261,0.774 1.107,0.451c-0.388,0.616 -0.973,1.311 -1.792,0.905c-0.103,-0.802 0.802,-0.561 0.685,-1.356" style="fill:#58595b;"/><path d="M116.315,190.201c0.179,0.121 0.358,0.238 0.668,0.224c-0.472,0.685 -0.066,2.622 -1.136,2.925c0.338,-1.294 0.104,-1.827 0.468,-3.149" style="fill:#58595b;"/><path d="M117.878,191.774c0.034,-0.269 0.423,-0.193 0.667,-0.227c-0.678,0.66 0.217,1.803 -1.108,2.026c0.589,-0.561 -0.488,-1.476 0.657,-1.572c0.052,-0.2 -0.082,-0.217 -0.216,-0.227" style="fill:#58595b;"/><path d="M65.08,194.018l0.674,0c0,1.424 -0.492,2.357 -0.674,3.599c0.702,-0.117 0.719,-0.926 1.799,-0.674c-0.196,1.386 -0.922,2.219 -0.891,3.815c0.059,0.213 0.599,0.213 0.657,0c0.62,0.558 -0.598,1.191 -0.891,1.576c-0.657,-0.017 -0.843,-0.513 -1.111,-0.902c0.117,-0.694 0.168,-1.458 0.437,-2.016c-1.621,-1.417 -0.117,-3.623 0,-5.398" style="fill:#58595b;"/><path d="M108.218,194.919c-0.829,0.788 -1.129,-0.609 0,0" style="fill:#58595b;"/><path d="M166.644,195.819c-0.623,0.544 -0.289,1.022 -1.359,1.349c0.302,0.967 -0.313,2.78 -1.786,2.697c0.21,-1.417 0.926,-2.36 1.345,-3.599c0.926,0.193 1.053,-0.433 1.8,-0.447" style="fill:#58595b;"/><path d="M101.706,196.266c-0.591,1.039 -0.316,1.572 -0.901,2.474c-0.176,-0.114 -0.375,-0.234 -0.681,-0.22c0.223,-1.06 0.375,-2.171 1.582,-2.254" style="fill:#58595b;"/><path d="M121.258,197.617c1.049,0.832 -0.128,2.745 0,3.595c-1.473,-0.705 0.124,-2.677 0,-3.595" style="fill:#58595b;"/><path d="M106.874,198.966c0.691,0.271 -0.444,1.476 -0.902,2.016c-0.588,0.709 -1.304,1.71 -2.236,1.576c0.867,-1.377 2.209,-2.271 3.138,-3.592" style="fill:#58595b;"/><path d="M123.049,199.191c0.55,0.568 -0.307,1.638 -0.675,2.023c0.207,0.485 -0.024,2.119 -1.118,2.016c0.048,-1.885 1.094,-2.79 1.793,-4.039" style="fill:#58595b;"/><path d="M124.392,199.191l0.675,0c-0.533,2.229 -1.638,3.902 -2.25,6.062c-0.895,-0.137 0.358,-1.641 0,-2.694c0.901,-0.743 1.276,-2.019 1.575,-3.368" style="fill:#58595b;"/><path d="M109.794,199.638c-0.196,0.471 -0.675,0.684 -1.352,0.677c0.399,-0.282 0.591,-0.76 1.352,-0.677" style="fill:#58595b;"/><path d="M112.945,200.316c0.764,-0.072 -1.242,2.013 -1.799,2.24c-0.678,0.279 -1.548,0.127 -2.257,0.231c0.612,-1.555 3.337,-1.019 4.056,-2.471" style="fill:#58595b;"/><path d="M108.89,200.538c-1.07,0.396 -1.39,2.581 -2.691,2.02c0.706,-0.864 1.198,-1.944 2.691,-2.02" style="fill:#58595b;"/><path d="M124.846,202.107c0.265,-0.031 0.389,0.055 0.448,0.227c-0.523,1.638 -0.726,3.382 -1.115,4.717c-0.379,1.225 -0.767,2.601 -1.806,3.372c1.011,-2.36 1.321,-6.303 2.473,-8.316" style="fill:#58595b;"/><path d="M126.641,204.585c-0.069,1.803 -1.865,3.829 -2.247,6.066c0,1.163 0.588,2.236 -0.891,2.24c0.134,-2.412 0.206,-4.834 2.019,-6.063c-0.134,-0.732 0.152,-1.046 0.221,-1.575c0.553,0.044 0.54,-0.506 0.898,-0.668" style="fill:#58595b;"/><path d="M109.565,206.604c-0.698,1.999 -2.043,4.28 -2.243,6.07c-0.537,-1.886 0.702,-3.933 1.345,-5.399c-0.051,-0.591 0.313,-0.739 0.898,-0.671" style="fill:#58595b;"/><path d="M70.026,209.071c-1.184,1.906 -1.342,7.187 -2.488,10.338c-1.08,-1.634 0.231,-4.376 0.454,-5.618c0.282,-1.483 0.43,-2.518 1.349,-4.043c0.193,-0.313 -0.09,-1.046 0.685,-0.677" style="fill:#58595b;"/><path d="M101.931,209.528c-0.777,1.724 -1.231,4.614 -1.352,6.289c0.84,0.379 0.351,-0.134 1.129,-0.223c-0.31,1.369 -1.61,3.278 -0.678,4.493c-1.332,0.544 -0.905,-2.739 -0.224,-3.375c-0.031,-0.41 -0.76,-0.134 -0.901,-0.444c0.664,-1.469 -0.231,-6.135 2.026,-6.74" style="fill:#58595b;"/><path d="M126.641,209.528c0.165,1.947 -1.556,3.974 -1.793,6.289c-0.162,0.853 0.915,1.607 0.22,2.243c-0.857,-0.192 -0.743,-1.341 -1.121,-2.019c0.901,-2.161 1.273,-4.872 2.694,-6.513" style="fill:#58595b;"/><path d="M115.176,210.421c1.232,1.136 -0.66,2.794 0,4.043c-1.304,-0.946 0.485,-2.457 0,-4.043" style="fill:#58595b;"/><path d="M107.993,212.891c0.956,0.385 -0.214,1.221 -0.448,2.026c-0.206,0.702 -0.024,2.233 -0.671,2.244c-0.168,1.225 0.283,1.82 0.224,2.924c-0.826,0 -0.416,-1.211 -0.461,-1.569c-0.048,-0.488 -0.251,-1.465 0.237,-2.701c0.031,-0.072 0.441,-0.175 0.448,-0.22c0.223,-0.867 0.175,-1.624 0.671,-2.704" style="fill:#58595b;"/><path d="M114.951,214.689c-0.385,0.667 0.024,2.116 -0.898,2.25c0.54,-0.933 -0.457,-2.075 0.898,-2.25" style="fill:#58595b;"/><path d="M126.19,217.161c0.864,0.269 -0.629,2.553 -0.447,2.925c0.354,1.056 0.502,1.328 0.23,2.247c-2.06,-1.246 -0.66,-3.802 0.217,-5.172" style="fill:#58595b;"/><path d="M70.251,217.614c-1.604,2.102 1.07,4.696 -1.119,6.062c0.152,-0.898 -0.289,-2.102 -0.227,-2.918c0.018,-0.492 0.365,-0.426 0.434,-0.671c0.261,-0.767 -0.63,-2.336 0.912,-2.473" style="fill:#58595b;"/><path d="M106.198,222.107c0.362,-0.041 0.448,1.469 -0.223,1.122c-0.073,-0.523 0.038,-0.86 0.223,-1.122" style="fill:#58595b;"/><path d="M72.939,236.258c-1.132,-0.362 -2.553,-2.017 -0.895,-2.687c-0.082,1.101 0.884,1.575 2.02,2.019c-0.055,0.523 -0.977,0.217 -1.125,0.668" style="fill:#58595b;"/><path d="M73.614,236.036l2.243,0c-0.021,0.874 -1.173,0.616 -1.793,0.901c0.286,-0.729 -0.726,-0.175 -0.45,-0.901" style="fill:#58595b;"/><path d="M78.11,236.938c1.004,0.066 -1.607,1.827 -2.251,2.02c-0.894,0.272 -2.177,-0.152 -2.246,-0.898c1.527,-0.097 3.241,-0.244 4.497,-1.122" style="fill:#58595b;"/><path d="M87.322,237.608c0.902,0.623 -1.132,2.099 -2.243,1.58c-0.041,-0.496 0.791,-0.11 1.125,-0.231c-0.014,-0.217 -0.275,-0.172 -0.457,-0.227c0.034,-0.867 1.551,-0.248 1.575,-1.122" style="fill:#58595b;"/><path d="M84.184,238.284c-0.76,1.121 -2.209,1.545 -3.602,2.023c-0.059,-0.241 -0.451,-0.155 -0.451,-0.447c0.688,-0.74 1.992,-1.043 2.921,-0.902c0.097,-1.005 0.475,-0.33 1.132,-0.674" style="fill:#58595b;"/><path d="M99.237,248.169c0.261,0.092 0.461,0.285 0.437,0.677c-0.269,-0.103 -0.454,-0.292 -0.437,-0.677" style="fill:#58595b;"/><path d="M83.734,254.909c0.761,0.564 -0.777,0.708 -0.908,1.121c-0.767,-0.564 0.963,-0.512 0.908,-1.121" style="fill:#58595b;"/><path d="M117.438,256.479c-2.625,2.625 -5.46,5.023 -8.77,6.964c-0.492,0.33 -0.451,1.211 -1.122,1.345c-0.575,-0.02 -0.881,-0.32 -0.908,-0.891c1.008,-0.382 2.412,-0.998 3.155,-1.569c0.743,-0.585 0.96,-1.176 1.796,-1.582c0.371,-0.176 0.471,-0.967 0.681,-1.119c0.784,-0.595 1.978,-0.698 2.68,-1.352c0.623,-0.567 1.091,-2.591 2.488,-1.796" style="fill:#58595b;"/><path d="M100.349,262.998c0.502,-2.202 2.453,-2.945 4.053,-4.043c0.661,0.785 -0.795,1.06 -1.352,1.566c-0.585,0.553 -0.884,1.414 -1.8,1.579c-0.319,0.051 0.214,1.115 -0.901,0.898" style="fill:#58595b;"/><path d="M138.776,259.402c0.145,-0.302 0.479,-0.419 0.905,-0.447c-0.213,0.385 -0.509,0.864 -0.905,0.447" style="fill:#58595b;"/><path d="M134.049,261.194c0.341,0.347 -0.626,1.304 -1.345,1.355c-0.403,0.568 -0.33,1.617 -1.562,1.349c0.471,-1.4 1.913,-1.827 2.907,-2.704" style="fill:#58595b;"/><path d="M124.846,264.789c-1.276,-0.396 1.793,-1.084 1.346,0c-3.331,0.333 -5.509,1.847 -8.096,2.924c-1.16,-1.844 2.666,-1.417 4.277,-2.243c-0.991,-0.547 1.902,-0.953 2.473,-0.681" style="fill:#58595b;"/><path d="M94.741,273.558c-0.282,0.616 -1.211,0.585 -2.026,0.671c0.44,-0.465 1.376,-0.434 2.026,-0.671" style="fill:#58595b;"/><path d="M101.249,273.558c0.565,0.093 0.176,1.025 -0.443,0.671c0.144,-0.231 0.512,-0.231 0.443,-0.671" style="fill:#58595b;"/><path d="M93.841,275.581c1.359,-0.196 0.956,-1.277 2.687,-1.353c-0.853,0.403 -1.579,1.931 -2.687,1.353" style="fill:#58595b;"/><path d="M144.845,283.441c0.268,0.296 0.089,0.355 0,0.675c-0.248,-0.049 -0.162,-0.448 -0.458,-0.451c0.014,-0.22 0.275,-0.169 0.458,-0.224" style="fill:#58595b;"/><path d="M133.831,283.891c0.141,0.062 0.874,0.561 0.908,0c0.599,0.485 -0.499,1.143 -1.359,0.902c0.124,-0.334 0.327,-0.568 0.451,-0.902" style="fill:#58595b;"/><path d="M143.269,284.567c-0.038,0.488 -0.568,0.485 -1.125,0.447c0.192,-0.33 0.733,-0.323 1.125,-0.447" style="fill:#58595b;"/><path d="M110.244,294.897c-0.503,0.688 -1.438,-0.251 0,0" style="fill:#58595b;"/><path d="M201.013,132.686c-1.008,4.397 -2.361,8.77 -3.596,13.026c-0.856,2.942 -1.744,5.33 -2.694,8.092c-1.3,3.744 -3.01,7.38 -5.171,11.01c-1.462,2.453 -2.862,4.886 -3.582,7.642c-5.89,6.107 -8.952,14.099 -13.27,21.342c-1.321,2.222 -2.48,4.675 -3.826,7.187c-0.058,0.131 0.114,0.592 0,0.674c-2.319,2.051 -3.227,6.537 -4.269,9.888c-1.174,3.844 -1.9,7.239 -2.688,12.356c-0.351,2.167 -1.145,3.399 -1.586,5.171c-0.433,1.837 -0.203,3.774 -0.664,5.615c-0.23,0.929 -0.798,1.706 -1.114,2.701c-1.232,3.874 -2.233,7.29 -4.274,10.548c-3.719,-0.027 -7.28,0.393 -10.789,0.455c-5.178,0.086 -9.926,-0.871 -15.276,-0.671c0.636,-10.394 0.908,-20.926 1.135,-30.109c0.083,-3.991 -0.31,-8.003 0,-12.802c0.12,-1.92 0.351,-3.682 0.217,-6.293c-0.097,-1.738 0.01,-3.644 0,-5.622c-0.031,-5.67 1.273,-11.646 -1.125,-15.049c-3.111,-1.018 -6.469,-0.131 -9.445,-0.895c-0.967,-0.258 -1.775,-1.083 -2.68,-1.355c-1.19,-0.348 -2.26,0.168 -3.158,-0.674c-1.28,0.213 -2.333,0.667 -3.592,0.904c-1.552,0.114 -3.885,0.011 -6.073,0.441c-1.737,0.351 -2.993,1.902 -4.256,1.579c-0.017,-0.162 -0.017,-0.32 -0.017,-0.475c-0.382,0.262 -0.809,0.451 -1.259,0.595c0,0.286 -0.014,0.547 -0.076,0.781c-0.423,1.587 -2.058,2.092 -2.474,4.04c-0.488,2.288 0.189,5.05 0.671,7.414c0.21,0.994 0.303,1.875 0.447,2.921c0.255,1.717 0.898,3.523 0.902,5.161c0.031,3.255 -1.074,6.664 -0.902,10.573c0.599,13.143 1.273,26.024 1.356,37.519c-6.097,-0.22 -13.473,-0.068 -19.549,-0.905c-2.22,-0.299 -4.604,-1.039 -6.29,-2.023c-3.169,-1.857 -6.351,-6.74 -7.191,-11.226c-0.292,-1.552 -0.062,-2.78 -0.213,-4.721c-0.237,-2.652 -0.63,-5.773 -0.905,-8.986c-0.21,-2.522 -0.282,-5.065 -0.908,-7.411c-0.568,-2.189 -1.5,-4.208 -2.016,-6.293c-0.348,-1.438 -0.348,-2.877 -0.681,-4.273c-0.345,-1.439 -0.912,-2.87 -1.346,-4.274c-0.409,-1.379 -0.592,-2.828 -1.115,-3.812c-0.433,-0.808 -1.104,-1.459 -1.568,-2.25c-1.294,-2.143 -2.471,-5.058 -3.599,-7.641c-0.031,-0.073 0.327,-0.358 0.223,-0.444c-0.382,-0.32 -0.337,-0.165 -0.454,-0.451c-1.104,-2.993 -2.628,-6.069 -4.032,-8.987c-1.652,-3.354 -3.052,-6.857 -4.941,-10.112c-3.409,-5.797 -6.73,-12.365 -9.682,-19.545c-1.348,-3.324 -2.38,-6.775 -3.358,-10.336c-0.509,-1.83 -0.86,-3.688 -1.131,-5.622c-0.279,-2.074 -0.912,-3.977 -1.346,-6.066c-1.428,-6.908 -2.167,-14.615 -1.345,-22.46c0.544,-5.136 1.731,-10.514 3.822,-15.503c0.72,-1.72 1.494,-4.025 2.46,-6.069c1.218,-2.539 2.154,-4.59 3.379,-6.971c2.505,-4.871 5.051,-10.17 8.313,-14.598c1.379,-1.865 2.927,-3.441 4.262,-5.395c0.258,-0.265 0.578,-0.082 0.224,0c1.438,0.499 1.648,-1.046 2.254,-1.799c1.913,-2.367 4.256,-4.593 6.743,-6.737c3.21,-2.763 6.782,-4.854 10.549,-7.191c3.623,-2.233 7.607,-4.479 11.688,-6.065c4.259,-1.659 8.718,-2.794 13.032,-4.717c2.787,-0.179 5.516,-0.947 8.303,-1.576c5.797,-1.28 11.691,-1.899 15.517,-5.612c1.317,0.3 2.009,1.573 3.144,2.247c1.796,1.056 3.527,1.118 4.263,2.243c3.534,0.258 6.909,1.669 10.346,2.474c0.63,0.148 1.221,0.079 1.782,0.224c0.582,0.148 0.182,0.437 0.231,0.454c0.134,0.038 0.385,-0.32 0.671,-0.227c1.568,0.502 3.12,1.194 4.723,1.799c2.97,1.108 5.874,2.439 8.76,3.812c1.456,0.692 2.945,1.287 4.256,2.027c1.566,0.863 2.918,1.871 4.507,2.697c4.435,2.292 8.887,5.017 12.589,8.309c2.519,2.247 4.645,4.745 6.957,7.191c1.177,1.235 2.347,2.233 3.379,3.595c0.984,1.315 2.202,2.478 3.145,3.823c0.739,1.06 1.228,2.281 2.019,3.368c0.908,1.239 1.868,2.904 2.46,3.816c0.423,0.647 0.929,1.448 1.356,2.253c0.571,1.067 1.08,2.429 2.24,3.142c-0.09,0.849 0.602,1.978 1.135,3.144c0.55,1.194 1.042,2.326 1.796,2.925c0.124,3.753 2.88,6.805 2.477,9.657c5.381,14.096 5.508,31.014 1.793,47.408M135.181,253.784c1.837,-1.758 3.32,-3.864 6.513,-4.266c-2.071,1.944 -3.272,3.853 -6.513,4.266M134.286,254.008c-0.533,0.185 -1.342,-0.124 -2.033,0c0.01,-0.386 -0.158,-0.575 -0.447,-0.675c0.591,-0.389 0.997,-0.946 1.341,-1.569c-1.2,0.255 -1.803,1.394 -1.785,2.244c-5.323,0.172 -9.761,-0.176 -14.822,-0.224c0.86,-2.536 5.401,-3.847 8.305,-2.25c1.518,-0.227 3.369,-0.441 3.823,0c0.148,-0.227 0.832,-1.583 1.118,-1.118c0.23,-0.764 0.956,-1.225 2.467,-1.122c-0.743,1.59 -3.169,2.515 -2.904,3.816c0.292,-1.187 1.848,-1.139 2.013,-2.464c1.073,0.327 0.925,-0.571 1.785,-0.454c-1.018,-0.736 1.483,-1.015 2.718,-0.898c-0.64,1.015 -1.854,1.469 -2.484,2.47c2.12,-0.722 2.261,-2.67 5.839,-2.246c-1.118,0.289 -4.029,4.183 -4.934,4.49M113.832,256.258c-3.231,2.766 -7.494,5.161 -10.339,7.638c0.059,0.395 0.396,0.512 0.908,0.45c-0.413,0.843 -0.849,0.62 -1.575,0.444c-1.645,-0.382 -3.971,0.406 -5.175,0.902c-0.416,-0.998 -2.402,-0.368 -3.585,-0.224c0.082,-0.382 -0.179,-0.416 -0.454,-0.451c1.655,-1.772 4.3,-3.757 6.97,-4.717c-0.12,0.183 -0.244,0.368 -0.234,0.671c0.974,0.031 0.833,-0.364 1.803,-0.671c-0.702,-0.323 0.781,-1.345 1.586,-1.572c0.251,-0.038 0.172,-0.413 0.2,-0.674c1.183,0.185 1.266,-0.988 2.26,-0.891c-0.034,-0.272 -0.413,-0.2 -0.671,-0.234c0.878,-0.637 2.691,-3.124 4.494,-2.02c-0.076,0.303 -0.561,0.189 -0.902,0.23c-0.794,1.046 -2.528,1.896 -3.592,2.915c-0.323,0.313 -1.125,0.822 -0.681,1.348c0.939,-1.335 3.589,-2.226 4.721,-4.046c1.066,0.183 1.056,-0.743 2.023,-0.667c0.499,0.722 -0.878,1.118 -1.346,1.569c-2.009,2.415 -5.288,3.54 -7.194,6.069c-1.066,0.055 -1.266,0.98 -2.019,1.345c0.058,0.241 0.437,0.148 0.437,0.447c2.195,-0.564 2.903,-3.629 4.954,-3.598c0.206,-0.799 2.518,-2.337 3.372,-2.467c1.094,-1.377 2.601,-2.343 4.039,-3.365c1.108,0.347 1.435,0.337 2.708,0.22c-0.967,0.396 -1.308,1.404 -2.708,1.349M99.237,269.294c-1.81,-0.1 -2.57,0.864 -3.602,1.569l-2.705,0c1.301,-1.266 2.368,-2.309 4.287,-2.477c0.135,0.468 0.668,-0.331 0.214,0.454c0.98,-0.117 1.383,0.062 1.806,-0.22c0.334,0.093 -0.089,0.282 0,0.674M98.779,272.432c-0.041,0.186 -0.216,0.23 -0.216,0.451c1.421,-0.585 3.495,0.481 4.696,-0.217c-0.058,-0.083 -0.058,-0.131 0.024,-0.004c-0.014,0 -0.024,0 -0.024,0.004c0.1,0.21 0.478,0.709 0.912,-0.234c0.334,0.096 -0.017,0.196 0,0.451l0.454,0c-1.008,1.08 -2.584,1.613 -3.595,2.697c0.512,0.609 1.372,0.874 2.463,0.898c-0.877,0.189 -1.934,0.365 -2.911,0.227c-0.254,-0.034 -0.543,-0.44 -0.457,-0.447c-0.585,0.02 -2.629,1.345 -3.138,0.22c0.506,0.729 -5.133,1.335 -4.49,0.447c-1.51,0.64 -2.071,0.974 -4.05,0.905c0.637,-1.352 2.78,-1.356 3.372,-2.25c0.086,-0.155 -0.365,-0.224 -0.447,-0.224c-2.532,0.988 -3.988,3.482 -7.869,2.474c1.893,-2.161 4.645,-4.025 7.408,-4.947c0.076,-0.021 -0.024,-0.176 -0.11,-0.221l-0.114,0c0.042,-0.038 0.066,-0.02 0.114,0c0.987,0.031 2.972,-0.461 4.834,0.221c0.217,-0.916 2.343,0.254 3.144,-0.451M106.421,273.781c-0.014,-0.214 -0.272,-0.173 -0.447,-0.224c0.413,-0.334 1.07,-0.434 1.799,-0.451c0,-0.217 -0.275,-0.175 -0.451,-0.223c-0.041,-0.486 0.792,-0.104 1.122,-0.221c-1.18,0.843 -2.154,1.617 -3.626,2.233c0.017,0 0.02,0.007 0.027,0.007l-0.069,0c-0.375,0.165 -0.798,0.317 -1.283,0.454c0.21,-0.378 0.678,-0.488 1.283,-0.454c0.024,0 0.035,-0.007 0.042,-0.007c-0.647,-0.216 -0.647,-0.729 0.027,-0.216c0.657,-0.166 0.592,-1.064 1.576,-0.898M111.589,272.662c-1.053,1.263 -2.65,1.989 -4.267,2.694c0.661,-1.455 1.587,-2.36 4.267,-2.694M111.589,274.679c-0.454,-0.475 1.015,-0.923 1.569,-1.122c-0.362,0.533 -1.153,0.636 -1.569,1.122M115.177,272.662c-0.01,0.73 -1.018,0.479 -1.569,0.671c-0.433,0.437 0.726,-0.936 1.569,-0.671M129.122,272.212c1.614,-0.052 3.475,-0.833 4.71,0c0.54,-0.21 1.077,-0.41 1.586,-0.675c1.4,0.169 0.933,-0.017 2.003,0c-0.72,0.974 -1.439,1.273 -1.556,3.142c-1.465,1.197 -2.618,1.2 -4.947,0.901c0.967,-1.046 2.226,-1.81 2.914,-3.148c-1.744,1.139 -2.336,2.068 -3.822,3.375c-2.722,0.495 -4.989,-1.159 -6.293,0.451c-5.247,-0.74 -8.01,0.392 -12.348,0c1.362,-1.487 3.581,-2.102 5.615,-2.925c-0.031,-0.574 -0.751,-0.45 -1.342,-0.45c3.97,-0.757 9.169,-0.554 13.48,-0.671M138.556,266.59c-1.989,1.163 -2.986,5.188 -6.303,3.599c1.971,-1.518 3.389,-4.969 6.303,-3.599M134.286,265.468c-0.547,-0.196 -1.558,0.059 -1.582,-0.678c1.792,0.073 1.279,-0.265 2.714,-0.671c-0.963,0.472 0.224,0.616 0.647,0.227c0.368,0.437 -1.442,0.623 -1.779,1.122M137.875,263.672c1.727,-1.252 2.838,-2.584 4.94,-3.819c0.606,-1.837 2.109,-2.198 3.372,-2.924c0.461,0.447 0.533,1.262 0.891,1.799c-1.534,2.054 -3.585,3.014 -5.608,4.944c-0.946,-1.152 -2.591,0.224 -3.809,0.224c-0.075,-0.399 0.207,-0.461 0.214,-0.224M147.539,261.653c0.052,1.998 -2.628,2.06 -5.157,2.019c1.294,-0.657 2.394,-3.182 4.49,-2.924c0.034,-0.186 -0.103,-0.207 -0.241,-0.227c0.44,-0.417 0.908,0.853 0.908,1.132M145.96,270.639c0.385,1.225 -1.335,1.831 -2.233,2.467c-0.894,1.655 -2.611,2.643 -4.951,2.25c1.129,-0.368 1.215,-1.775 2.694,-1.799c-0.922,-0.984 2.918,-1.923 2.708,-2.918c0.351,-0.633 1.001,0.31 1.782,0M147.078,272.432c0.379,1.871 -1.641,2.866 -3.588,2.697c0.079,-0.746 1.256,-2.343 2.697,-2.467c-0.024,-0.829 0.582,0.059 0.891,-0.23M146.414,282.547c-0.382,0.361 -0.826,0.674 -1.569,0.674c0.51,1.267 0.651,-0.137 1.786,0c-0.059,0.658 0.516,0.692 0.447,1.346c-1.221,0.719 -1.975,1.909 -4.036,1.799c0.857,-0.802 -1.744,-0.323 -0.898,-1.125c-1.156,0.578 -2.697,0.754 -4.483,0.674c2.595,-1.847 3.93,-2.604 6.95,-3.598c-4.558,-0.664 -5.367,4.366 -10.562,3.822c1.858,-1.153 3.87,-2.13 5.856,-3.141c0.192,0 0.168,0.272 0.216,0.444c0.503,-0.551 1.177,-0.919 2.023,-1.125c-1.62,-0.093 -3.106,0.849 -5.16,1.575c-1.865,0.654 -2.718,2.312 -4.955,2.698c-0.85,0.151 -1.944,0.172 -2.907,0.22c-3.943,0.21 -8.629,-0.213 -12.138,0.224c0.192,-0.651 0.894,-0.627 1.562,-1.119c0.873,-0.646 1.537,-1.059 2.927,-1.799c0.978,-0.52 2.113,-0.895 2.918,-1.342c0.348,0.282 4.249,-1.173 3.823,0c0.426,-0.251 1.066,-0.292 1.572,-0.457c-0.702,0.777 -1.713,0.963 -2.704,1.575c-1.487,0.933 -3.482,1.659 -4.707,2.474c0.777,0.317 2.436,-0.416 2.694,-1.352c1.614,0.392 2.677,-1.483 4.28,-2.016c0.695,-0.241 1.493,-0.09 2.226,-0.224c0.798,-0.155 1.596,-0.681 2.711,-0.227c0.423,-0.034 0.747,-0.151 0.895,-0.451c0.561,0.448 -0.74,0.891 -0.895,1.346c0.623,0.11 1.397,-1.015 2.698,-1.346c0.966,-0.254 2.721,-0.075 4.262,-0.23c2.574,-0.251 4.057,-1.442 5.168,0.681M145.52,292.656c-3.1,0.942 -5.75,2.346 -8.099,4.035c1.365,0.1 1.507,-1.032 2.934,-0.891c0.424,-1.28 4.256,-2.123 5.605,-2.474c0.1,0.675 -1.39,0.912 -2.233,1.349c-1.118,0.564 -1.892,1.29 -3.162,1.8c-0.303,0.223 0.107,0.371 -0.444,0.674c-0.715,0.258 -0.547,-0.358 -0.901,-0.458c-0.516,0.069 0.024,0.847 0.227,0.905c-1.51,0.386 -4.548,0.355 -6.066,0c1.411,-0.912 2.605,-2.033 4.28,-2.701c-0.674,-0.43 -1.82,0.427 -2.704,1.129c-0.141,0.106 -0.361,0.626 -0.458,0.667c-0.56,0.327 -2.797,0.465 -1.555,0.905c-4.435,0.712 -6.712,0.31 -11.687,0.898c0.151,-0.812 -0.386,-0.812 -0.227,0c-0.606,-1.576 2.704,-2.236 2.917,-2.47c0.929,-1.019 2.711,-1.001 3.826,-0.898c-0.306,-1.311 -2.56,-0.282 -3.826,0.22c-1.355,0.547 -3.901,1.638 -2.917,1.803c-1.717,0.987 -4.012,1.386 -6.527,1.576c1.366,-1.414 3.798,-1.758 4.951,-3.379c0.217,0.01 0.175,0.279 0.227,0.454c3.344,-2.474 7.741,-2.36 11.681,-2.474c0.581,0.055 -0.31,0.389 0,0.909c1.197,0 1.834,-0.568 2.47,-1.132c0.874,0 2.419,1.121 3.152,-0.22c1.672,0.092 2.484,-0.327 3.581,0.22c-0.709,0.117 -1.459,1.115 -2.904,1.132c0.214,0.368 0.943,0.234 1.335,0.44c0,-0.213 -0.282,-0.172 -0.44,-0.23c0.148,-0.788 1.321,0.148 2.009,-0.444c0.303,-0.155 -0.11,-0.595 0.231,-1.118c1.362,-0.059 1.885,-0.96 2.694,-1.573c0.853,0.269 1.145,1.098 2.03,1.346M142.144,297.827c-0.45,-0.007 -0.295,-0.62 -0.898,-0.451c0.259,-1.848 3.565,-1.83 3.83,-2.931c0.086,-0.327 0.275,0.096 0.66,0c-1.052,1.279 -2.552,2.098 -3.592,3.382M145.286,303.889c-1.174,2.883 -4.49,4.177 -6.51,6.062c-3.588,3.365 -6.554,8.664 -12.806,8.096c-0.048,-0.43 0.482,-0.268 0.671,-0.451c1.056,-1.046 2.058,-2.236 3.369,-3.372c0.533,-0.45 1.066,-0.867 1.565,-1.341c0.506,-0.458 0.454,-0.713 1.129,-1.129c1.035,-0.636 2.212,-1.634 2.477,-2.47c1.386,-1.407 4.073,-2.395 4.5,-4.05c0.65,0.327 0.189,0.506 0.44,1.346c0.386,-0.964 0.592,-2.106 1.8,-2.24c0.069,-0.451 -0.045,-0.706 -0.451,-0.675c0.437,-0.612 0.822,-1.28 1.572,-1.572c0.699,0.633 1.242,1.452 2.244,1.796M125.069,318.047c-0.881,-0.165 -1.541,0.175 -3.145,0.224c0.324,-0.654 0.172,-0.252 -0.451,-0.224c1.401,-3.282 6.665,-6.826 10.556,-9.658c-1.004,-0.361 0.568,-0.743 2.02,-1.809c1.166,-0.847 2.9,-1.951 5.171,-1.346c-0.048,0.248 -0.444,0.155 -0.444,0.451c-0.041,0.193 0.09,0.217 0.22,0.227c-1.434,1.552 -3.629,2.36 -5.164,3.823c-0.045,0.247 0.041,0.395 0.217,0.447c-0.585,0.526 -1.521,0.709 -1.796,1.572c-0.31,-0.103 0.017,-0.199 0,-0.454c-2.058,1.59 -4.387,3.905 -6.73,5.849c-0.134,0.196 -0.922,0.819 -0.454,0.898M116.316,318.271c-0.451,0 -0.289,0.612 -0.915,0.447c3.193,-3.338 6.74,-6.303 10.342,-9.207c1.49,-1.538 3.3,-3.472 5.832,-3.599c0.753,-0.048 1.438,0.65 2.257,0.22c0.231,0.757 -0.702,0.355 -1.128,0.448c-0.692,1.073 -2.818,2.109 -4.49,3.371c0.037,0.272 0.419,0.189 0.67,0.231c-1.276,0.509 -2.786,0.808 -2.914,2.47c-0.918,-0.096 -1.417,0.231 -1.348,1.122c-3.059,0.605 -3.926,5.873 -8.306,4.497M111.369,318.718c0.268,0.144 -0.038,-1.59 -0.224,-0.227c-0.176,-0.984 1.294,-1.576 2.236,-2.477c0.716,-0.671 1.084,-1.48 2.261,-1.79c0.43,-1.52 2.067,-1.82 2.687,-3.144c0.557,0.031 0.691,-0.355 1.125,-0.447c0.451,-0.3 0.76,-0.74 0.901,-1.349c1.377,-0.351 2.739,-2.271 4.036,-2.704c1.683,-0.551 2.942,0.295 4.493,-0.224c-2.119,1.324 -3.867,3.014 -6.069,4.277c-2.374,3.11 -7.108,4.978 -8.532,8.312c-1.129,-0.237 -2.261,0.11 -2.914,-0.227M108.444,322.31c0.22,-0.681 1.349,-2.395 3.145,-2.247c-0.654,1.139 -2.188,1.414 -3.145,2.247M106.875,318.047c-1.971,1.225 -4.056,0.633 -6.527,0.671c-0.11,-0.482 0.809,-0.172 0.902,-0.227c0.292,-0.162 -0.1,-0.324 0.217,-0.675c0.873,-0.894 2.783,-1.833 4.28,-3.144c2.449,-2.144 5.298,-4.552 7.411,-6.967c1.833,-0.778 3.409,-1.556 5.388,-0.675c-1.676,1.882 -3.458,1.717 -5.388,4.05c0,0.217 0.275,0.175 0.45,0.22c-2.907,0.313 -3.289,3.141 -5.835,3.822c0.131,-0.199 0.262,-0.402 0,-0.45c-0.227,1.672 -3.034,1.878 -2.247,3.819c1.796,-1.586 4.174,-3.355 6.286,-5.392c0.709,-0.674 1.026,-0.863 2.02,-1.572c0.815,-0.585 1.569,-1.483 2.484,-2.243c1.483,-1.256 3.798,-3.565 6.499,-2.477c-0.966,-0.613 0.351,-0.451 0.902,-0.227c-2.605,1.348 -4.036,3.554 -6.279,4.72c-0.1,0.753 -2.182,1.008 -2.261,2.474c-0.612,-0.017 -0.444,0.378 -0.894,0c0.117,0.182 0.241,0.368 0.22,0.678c-1.982,0.774 -3.427,2.102 -4.483,3.819c-1.142,-0.296 -2.55,1.039 -3.145,-0.224M96.767,318.047c0.051,-0.282 0.444,-0.231 0.45,0c1.26,-2.488 3.658,-3.826 5.832,-5.395c0.929,-1.624 3.513,-2.656 5.395,-4.043c0.537,-0.399 0.74,-1.125 1.122,-1.355c-0.148,0.089 1.304,-0.396 1.579,-0.447c1.042,-0.169 1.841,0.127 2.911,0c-3.073,2.157 -5,5.092 -8.309,6.516c0.935,0.568 -0.135,0.389 -0.902,0.901c-0.275,0.193 -0.354,0.871 -0.674,1.119c-0.093,0.075 -0.761,-0.018 -1.122,0.227c-0.774,0.516 -2.16,2.233 -3.375,1.579c-0.987,0.206 -1.796,1.541 -2.907,0.898M94.523,318.047c0.737,-0.891 -0.918,0.265 -0.233,-0.678c-0.778,0.275 -1.487,0.606 -2.705,0.447c0.303,-0.701 0.468,-0.113 1.129,-0.447c-0.413,-0.433 -0.396,-0.179 -0.217,-0.901c0.509,-0.017 0.495,-0.303 0.433,-0.224c0.444,-0.702 2.295,-1.579 2.705,-2.02c0.106,-0.117 -0.162,-0.278 -0.224,-0.227c0.647,-0.502 1.841,-0.798 2.474,-1.565c-0.286,-0.998 -0.994,0.402 -0.668,0.22c-0.884,0.523 -1.135,0.585 -2.26,0.898l0,0.902c-0.791,0.464 -1.504,0.457 -2.243,1.118c-0.269,0.251 -0.189,0.684 -0.451,0.898c-0.024,0.027 -0.52,-0.754 -0.678,0.23c-0.598,0 -0.285,-0.946 -0.898,0c-0.684,-0.23 0.265,-0.612 0.458,-0.684c1.194,-1.573 2.587,-2.946 4.49,-3.813c-0.871,-0.595 0.106,-0.206 0.447,-0.674c-0.416,-0.764 -0.784,0.382 -1.342,0.227c0.22,1.335 -3.87,2.054 -4.27,4.039l-0.667,0c1.19,0.95 -1.197,0.258 -1.128,1.576c-1.686,-0.495 -2.588,-1.758 -3.596,-2.917c0.182,-0.045 0.207,0.082 0.224,0.22c0.106,-0.286 0.241,-0.454 0.444,-1.122c0.381,-0.034 1.242,-0.165 1.352,-0.227c-0.052,0.034 0.426,-1.036 0.681,-1.122c0.093,-0.031 0.327,0.334 0.444,0.231c0.223,-0.217 0.278,-0.867 0.674,-1.132c1.197,0.179 0.647,0.072 1.111,-0.447c0.169,-0.165 0.534,-0.066 0.678,-0.22c0.114,-0.114 0.337,-1.04 0.685,-1.349c0.107,-0.097 1.159,-0.819 1.342,-0.895c0.275,-0.124 0.241,-0.038 0.216,0.007l0,-0.007c0.878,-1.028 2.268,-1.059 3.599,-0.905c-3.468,2.522 -6.251,4.205 -8.749,6.968c0.045,0.178 0.21,0.22 0.21,0.443c2.037,-0.991 2.69,-1.517 4.724,-3.595c1.582,-1.603 3.802,-3.403 5.849,-4.046c0.234,-0.072 0.117,-0.193 0,-0.224c2.563,-0.223 2.587,-0.481 5.608,0c-0.619,0.953 -2.178,0.964 -2.704,2.03c0.639,-0.313 3.113,-0.963 2.27,-1.355c1.253,-0.293 2.994,-1.287 5.598,-0.898c-1.896,2.174 -5.632,3.788 -8.305,6.076c-0.606,0.505 -0.833,0.929 -1.576,1.341c-0.726,0.406 -0.936,1.294 -1.569,1.79c-0.334,0.271 -1.135,0.381 -1.579,0.684c-0.671,0.468 -0.94,1.287 -1.783,1.349M83.954,313.774c-1.514,-0.812 -2.415,-2.223 -3.822,-3.141c-0.038,-0.303 1.307,-0.3 0.45,-0.682c1.232,-0.11 1.676,-1.895 3.372,-1.799c0.065,-0.124 -0.378,-0.289 -0.451,-0.213c1.459,-1.287 3.936,-1.249 5.619,-0.909c-2.828,0.912 -4.377,3.128 -7.422,3.823c-0.103,1.104 0.898,1.2 1.126,1.348c0.258,-0.037 0.13,-0.223 0,-0.22c0.963,-0.764 2.184,-1.321 3.378,-2.246c1.359,-1.064 2.395,-2.491 4.033,-2.705c0.932,-0.12 1.868,0.53 2.927,0.454c-3.203,1.968 -5.68,4.645 -9.21,6.29M78.109,308.83c0.777,-0.933 2.047,-2.78 3.836,-1.8c0.089,-0.571 0.203,-0.124 1.108,-0.45c0.323,-0.658 0.168,0.526 -0.451,0.227c0.272,0.536 0.974,-0.348 1.352,-0.451c0.475,0.282 -1.373,1.311 -1.576,0.898c-0.296,0.757 -2.646,2.828 -4.269,1.576M75.858,306.58c0.833,-1.563 3.269,-1.119 4.508,-0.668c-0.902,0.413 -3.248,2.205 -4.508,0.668M74.964,305.685c-0.33,-0.836 -0.798,-2.051 -0.458,-2.918c1.136,-0.302 3.045,0.255 3.603,-0.223c0.361,0.44 -0.826,1.259 -1.566,1.345c-0.21,0.915 -0.578,1.672 -1.579,1.796M71.819,298.277c0.888,-1.971 3.905,-3.131 6.069,-2.477c-2.229,0.554 -3.516,2.966 -6.069,2.477M74.964,294.235c-0.472,0.492 -1.308,0.777 -2.027,0.44c-0.206,0.169 -0.33,0.41 -0.44,0.671c0.124,0.516 0.351,-0.265 0.667,0.231c-0.726,0.619 -1.283,1.414 -2.477,1.572c0.21,-2.343 2.092,-3.155 4.277,-2.914M74.293,287.942c1.648,-1.132 3.045,-2.508 5.171,-3.152c-2.577,-0.34 -4.916,3.864 -7.645,2.02c0.695,-1.173 2.381,-1.362 3.589,-2.02c-1.046,-0.481 -2.856,1.277 -4.033,0.678c-0.265,-1.314 0.812,-1.287 1.122,-2.026c0.774,0.161 1.183,0.192 1.796,0.901c2.831,-0.454 6.11,-0.482 9.441,-0.451c-2.171,1.879 -5.164,2.935 -7.642,4.494c0.035,0.416 0.761,0.134 0.891,0.45c2.216,-1.754 4.625,-2.859 6.971,-4.269c0.213,-0.121 0.155,-0.159 0,-0.224c0.95,-0.788 3.028,-0.557 4.036,-0.678c-0.038,0.165 -0.141,0.286 -0.275,0.368c1.135,-0.292 2.329,-0.784 3.657,-0.368c0.258,-0.044 0.124,-0.223 0,-0.223c0.674,-0.159 0.691,0.333 2.016,0c-2.033,1.933 -5.223,2.714 -6.747,5.171c-1.861,0.815 -3.747,0.571 -5.594,0.447c2.529,-1.724 4.975,-3.544 7.851,-4.944c-1.335,-0.434 -1.634,1.521 -3.151,0.898c-0.045,0.131 0.351,0.282 0.457,0.227c-1.042,0.633 -4.538,1.738 -5.157,2.701c-0.107,0.141 0.344,0.224 0.426,0.22c-1.341,0.891 -3.117,1.366 -5.615,1.125c-0.323,-0.65 -0.736,-1.197 -1.565,-1.345M72.707,275.807c0.492,-0.76 1.503,-1.83 2.938,-2.25l0,-0.895c-1.345,0.678 -2.825,1.229 -4.043,2.017c-0.684,-0.32 0.279,-0.881 0,-1.573c0.909,-0.444 2.171,-0.657 2.464,-1.121c1.961,1.273 5.649,0.354 7.879,0.898c1.445,-0.434 -1.435,1.211 -2.268,1.345c-0.247,0.051 -0.13,0.227 0,0.227c-0.973,0.402 -2.9,1.507 -4.032,2.47c-0.444,0 -0.292,-0.609 -0.901,-0.447c0.557,-0.612 1.692,-1.07 1.799,-1.122c0.165,-0.096 0.361,-0.368 0.44,0c-0.203,-0.822 1.71,-0.822 2.254,-1.575c-0.065,-0.245 -0.454,-0.148 -0.454,-0.448c-2.801,0.97 -2.959,1.999 -6.076,2.474M75.408,265.241c0.643,0.12 1.018,0.489 1.135,1.129c3.207,-0.018 5.987,1.362 8.76,0.667c-2.729,1.318 -4.236,3.871 -8.543,3.602c0.791,-1.606 2.202,-2.584 4.032,-3.151c-1.428,-0.726 -1.638,0.87 -3.358,0.898c-0.344,-1.366 -1.786,-1.662 -2.026,-3.145M76.092,254.008c1.758,-1.545 3.4,-2.433 5.853,-1.569c-2.471,1.658 -5.092,3.158 -7.439,4.94c0.028,-1.672 0.344,-2.281 1.586,-3.371M75.858,254.008l-0.894,0c-0.072,-1.796 0.994,-2.454 2.924,-2.244c0.107,1.531 -2.322,0.527 -2.03,2.244M107.099,248.623c-0.737,0.991 -2.006,1.445 -3.162,2.023c-0.943,-0.234 1.194,-0.23 0.234,-0.454c0.433,-0.33 1.066,-0.434 0.905,-1.345c-0.451,-0.472 -1.187,-0.276 -1.583,0c-0.95,0.684 -2.226,1.964 -2.911,2.687c-1.751,0.12 -1.706,0.561 -2.239,1.132c-1.559,0.038 -3.018,0.007 -4.277,-0.227c1.183,-1.975 3.812,-1.339 5.171,-3.816c-2.278,1.397 -2.776,2.082 -5.395,2.911c1.173,0.777 -2.855,1.025 -4.039,0.454c1.108,-0.939 2.642,-2.553 4.263,-2.243c0.698,-0.131 0.457,-1.208 1.569,-0.898c-0.399,-0.792 -1.696,0.089 -1.569,0.223c-1.989,0.09 -4.115,3.069 -5.619,2.464c0,0.22 0.269,0.175 0.451,0.23c-0.922,0.472 -2.567,-0.282 -4.039,0c1.411,-1.575 3.633,-2.35 5.378,-3.595c-3.162,0.199 -5,4.091 -9.655,2.924c0.637,-0.388 0.516,-0.282 0.675,-0.901c0.244,0.052 0.141,0.451 0.443,0.454c0.042,-0.368 0.582,-0.33 0.458,-0.23c2.632,-2.034 4.215,-3.032 8.079,-2.928c5.522,0.165 11.89,0.536 16.862,1.135M127.312,237.159c-0.299,-0.248 -0.155,-2.24 0.461,-2.247c-0.192,0.716 -0.148,1.659 -0.461,2.247M129.786,249.294c-0.585,0.912 -1.665,1.328 -3.372,1.122c1.008,-1.095 1.803,-1.518 3.372,-1.122M119.905,249.294c1.961,-0.671 3.75,-0.127 6.509,-0.224c-0.151,0.52 -0.74,0.599 -0.891,1.122c-2.68,-0.454 -4.634,0.038 -6.527,0.901c0.131,-0.646 1.518,-1.176 0.909,-1.799M103.937,256.929c-0.444,-0.781 0.113,0.017 0.234,-0.451c0.275,0.371 -0.802,1.294 -1.566,1.355c0.107,-0.639 0.85,-0.646 1.332,-0.904M87.099,271.09c0.161,0.031 0.234,-0.729 0.02,-0.599c-0.096,0.128 -0.172,0.248 -0.247,0.372c0.11,-0.224 0.192,-0.33 0.247,-0.372c1.17,-1.462 4.645,-3.058 7.171,-2.105c-1.009,1.18 -4.604,3.365 -7.191,2.704M89.803,267.935c-1.655,0.76 -3.004,1.803 -4.5,2.704c-1.968,-0.02 -2.667,0.238 -4.256,0.224c0.02,-0.265 0.392,-0.193 0.653,-0.224c1.47,-1.765 4.287,-4.232 8.103,-2.704M88.675,265.919c-0.424,0.681 -1.071,-0.262 -1.803,0c0.567,-0.265 0.87,-0.788 1.803,-0.678c-0.031,0.268 -0.424,0.189 -0.685,0.227c0.11,0.275 0.299,0.454 0.685,0.451M99.237,252.666c0.217,-0.792 1.001,0.192 0.888,-0.678c0.196,-0.041 0.213,0.089 0.223,0.224c0.076,0.309 0.568,0.185 0.902,0.227c0.54,0.419 -1.476,0.151 -2.013,0.227M81.473,264.119c2.89,-1.424 6.479,-3.994 9.214,-6.286c-1.452,0.64 -2.921,1.267 -3.815,2.467c-1.476,-0.168 -2.151,1.211 -3.138,1.8c-0.609,0.347 -1.514,0.361 -2.034,0.674c-0.915,0.551 -1.169,1.431 -2.236,1.572c-0.034,0.262 0.045,0.396 0.213,0.444c-0.664,0.816 -1.992,-0.612 -2.463,-0.444c0.069,-1.121 1.373,-1.696 2.463,-2.477c0.885,-0.633 1.831,-1.624 2.925,-1.789c-0.592,-0.543 0.499,-0.334 0.667,-0.451c0.21,-0.127 0.193,-0.677 0.465,-0.901c0.327,-0.313 1.383,-0.42 2.013,-0.895c0.667,-0.509 0.423,-0.584 1.352,-0.904c1.459,-0.499 3.234,-2.223 4.273,-3.145c1.634,-0.351 2.728,-0.021 4.5,0c-1.156,1.242 -2.601,2.185 -4.5,3.145c0.158,0.619 -0.461,0.454 -0.461,0.904c1.558,-0.533 1.362,-1.747 3.379,-2.026c1.334,-2.171 5.8,-2.195 8.759,-1.799c0.186,0.756 -1.19,0.86 -1.799,1.348c-0.434,0.355 -0.637,0.09 -1.345,0.451c-1.855,0.95 -3.789,2.25 -5.165,3.372c-0.781,0.268 -1.82,0.275 -1.81,1.342c-0.509,-0.279 -2.229,0.743 -3.127,1.348c-1.696,1.129 -3.509,2.302 -4.944,3.372c-1.177,-0.052 -2.243,0 -3.159,0.227c-0.302,-0.471 0.121,-0.664 -0.227,-1.349M80.366,277.603c-0.458,-0.458 1.025,-0.034 1.107,-0.451c0.035,-0.11 -0.333,-0.309 -0.426,-0.227c1.765,-1.41 4.063,-2.226 5.594,-4.042c-2.281,0.853 -5.818,2.415 -7.628,4.496l-2.03,0c1.772,-1.758 4.25,-3.237 6.52,-3.822c0.272,-0.334 0.647,-0.547 0.682,-1.125c1.586,-0.117 3.805,0.186 6.052,0c-4.181,1.311 -5.227,4.376 -9.871,5.171M80.366,282.096c-0.513,0.121 0.264,0.348 -0.234,0.678l-1.119,0c1.211,-1.424 2.763,-2.487 4.941,-2.931c-0.977,0.977 -2.202,1.713 -3.588,2.253M84.401,281.642c-0.543,0.427 -1.803,1.748 -3.144,1.132c2.239,-0.764 2.687,-3.313 5.842,-3.148c-0.31,0.974 -1.838,1.356 -2.698,2.016M88.447,282.547c0.843,-1.104 2.006,-1.892 3.372,-2.474c0.031,-0.488 -0.801,-0.103 -1.132,-0.23c0.1,0.189 0.183,0.258 0.234,0.296c0.176,-0.018 0.117,0.051 0,0c-0.082,0.013 -0.234,0.051 -0.451,0.158c-1.386,0.654 -3.299,2.34 -5.611,2.25c2.515,-2.391 5.168,-3.74 9.431,-2.704c-1.652,1.204 -2.97,2.735 -5.843,2.704M93.388,282.096c-0.877,-0.461 0.643,-0.127 0.678,-0.23c0.048,-0.145 -0.575,-0.348 -0.678,-0.224c0.227,-0.299 0.461,-0.454 0.454,-0.45c0.155,-0.348 0.964,-0.988 1.569,-0.671c0.186,-1.239 0.84,-0.516 2.02,-0.678c-1.063,1.035 -2.147,2.04 -4.043,2.253M99.454,281.425c0.244,0.671 -1.442,0.4 -2.467,0.441c0.131,-0.207 0.63,-0.337 0.23,-0.441c0.035,-0.258 0.214,-0.13 0.214,0c0.296,-0.392 0.753,-0.615 1.348,-0.684c0.059,0.471 0.843,0.22 0.895,0.684c2.109,-0.203 0.75,0.623 -0.22,0M112.944,289.287c-2.745,1.081 -4.311,3.331 -7.418,4.039c1.996,-1.944 3.723,-4.417 7.418,-4.039M105.076,291.981c-0.176,0.141 -0.276,0.561 -0.451,0.675c0.072,-0.052 -0.922,0.055 -0.888,0.901c-0.726,0.165 -1.72,-0.279 -0.454,-0.231c0.688,-1.042 2.381,-2.38 3.592,-3.592c0.791,1.033 -0.884,1.466 -1.799,2.247M101.707,291.981c0.083,-0.437 0.633,0.361 0.444,-0.671c1.366,0.165 0.489,-0.832 1.586,-0.447c-0.344,-0.406 0.307,-0.595 1.108,-0.901c-0.953,1.004 -2.119,1.775 -3.378,2.466c-0.795,0.506 0.849,-0.498 0.24,-0.447M109.566,298.725c1.145,-1.779 4.032,-1.814 5.384,-3.379c1.228,-0.052 1.758,-0.788 2.928,-0.901c-2.219,-0.159 -3.994,0.598 -6.066,1.579c-2.769,1.307 -4.032,3.729 -8.075,2.701c1.253,-0.881 3.234,-2.206 5.598,-3.148c-0.943,-0.874 -2.597,0.839 -2.236,0.674c0.058,0.616 -1.349,-0.399 -0.678,0.224c-0.599,0.01 -1.841,0.684 -2.684,1.121c-0.413,0.912 -2.47,1.817 -4.5,1.8c-0.169,-0.689 0.224,-0.816 0.217,-1.349c2.15,-0.547 3.01,-2.395 5.391,-2.701c-3.138,-0.217 -5.188,2.605 -8.316,3.148c-0.619,0.224 0.324,0.613 -0.223,0.902c-1.081,-0.258 -1.507,-0.083 -2.918,-0.227c-0.327,-0.465 0.994,-0.138 1.135,-0.217c0.334,-0.214 0.176,-0.792 0.434,-1.125c1.163,-1.438 4.449,-1.397 5.168,-3.152c1.204,0.423 1.582,0.344 2.924,0.671c2.154,-1.775 5.378,-0.041 8.54,-1.111c0.488,-0.048 0.708,0.175 0.681,0.66c1.51,-1.173 5.715,-0.364 6.726,-1.338c0.265,0.038 0.131,0.22 0,0.22c0.441,-0.144 2.213,0.475 2.928,0l1.125,0c-0.031,0.265 -0.399,0.193 -0.674,0.224c-0.733,0.014 -0.86,0.647 -1.803,0.444c0,0.471 -3.619,1.163 -3.588,2.246c-0.768,-0.041 -0.114,0.492 -1.342,0.458c-0.723,1.159 -3.706,1.93 -6.076,1.576M111.589,301.869c-0.695,0.362 -1.16,1.26 -2.023,1.349c-0.761,-0.244 0.622,-0.079 0.227,-0.674c1.785,-0.241 2.143,-1.903 4.263,-1.803c-0.572,0.815 -1.624,0.685 -2.467,1.128M110.694,300.964c-2.226,1.363 -3.564,3.228 -6.523,4.27c1.851,-1.751 3.609,-3.585 6.523,-4.27M103.049,303.889c0.878,-0.045 1.476,-1.442 2.925,-1.569c-1.07,0.578 -1.889,1.421 -2.925,2.02c0.145,-0.207 0.275,-0.403 0,-0.451M90.911,304.34c0.853,-1.26 2.408,-1.094 3.155,-2.02c0.254,0.186 0.609,0.293 1.115,0.224c-1.046,1.4 -2.901,3.158 -4.944,2.243c-0.768,0.196 0.977,-0.361 1.348,-0.447c-0.089,-0.341 -0.282,0.089 -0.674,0M88.224,303.442c1.304,0.244 1.211,-0.888 2.463,-0.675c0,-0.223 -0.275,-0.172 -0.45,-0.223c0.282,-0.833 1.348,0.536 1.582,-0.224c0.162,1.063 -2.167,1.579 -2.921,2.467c-0.722,-0.413 -0.124,-0.757 -0.674,-1.345M83.954,303.442c0.372,0.382 1.163,0.203 1.349,-0.224c0.602,-0.416 -0.286,0.681 -0.444,0.895c0.87,-0.537 1.472,-1.356 2.687,-1.569c-0.833,0.764 -3.145,1.861 -3.145,2.019c-0.182,0.654 -0.719,-0.134 -1.132,0c0.482,-0.595 0.599,-0.478 0.685,-1.121M83.269,302.767c-1.252,1.153 -2.714,1.937 -4.706,1.346c1.242,-1.39 2.601,-1.666 4.706,-1.346M91.145,292.428c-0.675,0.826 -1.308,1.686 -2.921,1.573c0.027,-0.262 0.409,-0.189 0.674,-0.224c0.21,-0.237 0.836,-0.069 0.674,-0.674c0,-0.626 -0.605,0.533 -0.45,-0.447c0.347,0.02 0.86,-0.104 0.887,0.227c0.252,-0.31 1.194,-0.802 0,-0.671c1.205,-0.024 1.521,-0.854 2.921,-1.129c-0.54,0.496 -1.176,0.915 -1.785,1.345M97.651,293.557c0.045,-0.268 0.416,-0.193 0.692,-0.231c0.027,-0.189 -0.107,-0.209 -0.224,-0.223c0.034,-0.255 0.224,-0.121 0.224,0c0.55,0.038 0.691,-0.344 0.894,-0.675c0.327,0.826 -0.619,0.713 0.668,0.898c-0.324,0.52 -1.552,0.09 -2.254,0.231M88.675,299.396c-0.131,-0.21 -0.62,-0.344 -0.228,-0.444c-0.079,-0.695 0.258,-0.117 0.451,-0.227c1.438,-0.854 3.43,-2.639 5.392,-3.379c0.092,-0.372 -0.837,0.024 -0.902,0.231c-0.399,-1.132 1.879,-0.252 2.484,-0.902c0.84,0.189 1.48,0.609 2.691,0.451c-2.57,1.693 -4.105,1.823 -5.849,3.151c-1.001,0.757 -2.663,1.876 -5.168,1.562c0.045,-0.492 0.561,-0.474 1.129,-0.443M90.237,295.126c0.406,-0.062 2.26,0.685 1.582,0c0.138,-0.633 0.368,0.196 0.52,0.389c0.065,-0.055 0.106,-0.117 0.158,-0.169c-0.041,0.231 -0.089,0.237 -0.158,0.169c-0.685,0.739 -2.498,1.816 -3.892,2.312c-1.458,1.342 -2.91,2.453 -5.394,2.24c0.031,-0.403 -0.269,-0.468 -0.227,-0.898c2.102,-0.83 2.69,-2.182 4.72,-3.145c0.571,-0.269 1.497,-0.819 1.806,-0.898c0.334,-0.09 -0.055,0.451 0,0.451c0.489,0.034 0.451,-0.375 0.885,-0.451M97.431,291.534c0.254,-0.884 2.081,-1.115 2.917,-1.572c-0.034,0.798 -2.463,1.782 -2.463,2.694c-0.719,0.034 -1.342,0.154 -1.356,0.901c-0.894,-0.162 -1.28,0.213 -2.006,0.22c-0.564,-0.351 0.627,-0.12 0.888,-0.451c0.499,-0.636 0.54,-2.016 2.02,-1.792M94.957,290.629c0.268,0.045 0.127,0.234 0,0.234c0.31,0.234 0.643,-0.52 1.125,-0.451c1.001,0.327 -0.967,1.005 0.224,0.898c-1.081,0.417 -2.392,0.595 -2.694,1.793c-0.933,-0.186 -1.063,0.44 -1.793,0.454c-0.309,-0.778 1.745,-0.334 0.895,-0.901c0.97,0.075 1.809,-0.964 2.243,-2.027M88.447,291.31c0.258,0.038 0.128,0.227 0,0.224c0.152,0.678 0.472,-0.22 0.905,0c-0.674,-0.963 0.558,0.375 0.451,-0.671l0.884,0c-0.977,0.44 -1.62,1.218 -2.697,1.565c-0.038,-0.189 0.1,-0.209 0.234,-0.216c0.468,-0.066 -0.317,-0.606 0.223,-0.902M74.964,294.001c1.713,-1.001 1.854,-1.507 3.145,-1.789c-0.097,-0.623 1.145,-1.057 2.257,-1.129c-1.697,1.084 -3.107,2.44 -5.402,2.918M79.013,293.326c0.21,-0.165 0.241,-0.509 0.451,-0.67c1.201,-0.995 2.962,-0.785 2.914,-1.793c2.57,-0.189 3.252,0.234 5.612,-0.234c-1.445,1.559 -3.771,2.209 -5.164,3.816l-1.569,0c1.255,-1.012 2.167,-2.271 3.822,-3.362c-3.052,0.791 -4.294,3.231 -7.411,3.362c0.186,-0.547 0.877,-0.754 1.345,-1.119M76.983,300.741c-0.65,0.234 -1.238,0.55 -2.019,0.678c0.389,-0.599 -0.54,-1.439 -0.458,-2.467c1.93,-1.235 4.208,-3.276 6.967,-2.928c-0.942,1.675 -3.619,1.617 -4.713,3.145c1.703,1.111 3.853,-1.528 5.185,-2.478c0.113,-0.079 0.567,0.121 0.657,0c0.822,-0.922 2.914,-1.156 4.72,-0.891c-1.073,0.785 -3.946,1.511 -3.819,2.477c-1.613,0.393 -3.578,2.202 -6.52,2.013c-0.275,0.059 -0.223,0.451 0,0.451M100.348,305.011c-1.985,0.602 -3.698,0.385 -6.282,0.223c-0.595,-0.251 0.884,-0.289 1.115,-0.447c0,-0.217 -0.272,-0.169 -0.441,-0.224c1.235,-0.918 2.268,-1.94 4.714,-2.243c-0.578,1.142 -2.594,0.85 -2.237,2.914c0.479,-0.481 1.046,-0.905 1.796,-1.121c-0.344,0.261 -0.554,0.66 -1.128,0.674c1.025,0.499 1.627,-1.362 2.24,-2.02c0.691,0.788 2.659,-1.988 4.276,-1.348c0,1.231 -4.232,1.947 -4.496,3.368c-0.042,0.213 0.316,0.179 0.443,0.224M138.776,302.767c1.129,-0.154 1.665,-0.877 2.918,-0.898c-0.43,0.726 -1.844,2.423 -2.918,1.573l0,-0.007c-0.072,-0.055 -0.165,-0.131 -0.22,-0.217c0.186,-0.045 0.206,0.076 0.22,0.217l0,0.007c0.213,-0.076 0.213,-0.609 0,-0.675M114.74,300.741c4.679,-1.332 10.215,0.017 14.382,-0.902c0.196,0.179 0.502,0.248 0.888,0.228c0.557,-0.031 0.392,0.275 0,0.223c-1.129,0.664 -2.254,1.345 -3.145,2.254c-0.619,-0.551 0.716,-1.067 0.678,-1.803c-1.597,-0.472 -1.525,1.679 -2.474,1.128l0,0.675c-1.053,-0.086 -0.644,1.314 -1.803,1.121c-0.083,0.537 1.029,-0.13 0.681,0.675c2.381,-1.132 4.494,-2.216 7.194,-4.273c0.31,0.082 0.018,0.405 -0.223,0.447c0.244,0.64 0.382,-0.348 0.657,-0.447c0.33,-0.107 -0.028,0.447 0,0.447c0.127,0.01 0.987,-0.592 1.806,-0.675c0.898,-0.079 0.905,0.289 1.356,-0.22c-0.141,1.315 -2.79,1.985 -4.043,2.925c-0.141,0.674 -0.826,0.492 -1.81,0.898c-0.344,0.798 0.761,0.134 0.682,0.671c0.32,-1.019 3.753,-2.512 5.391,-3.372c0.712,-0.375 0.884,-0.984 1.342,-1.122c1.201,-0.358 1.868,0.021 2.921,0c0.495,0.361 -1.452,0.172 -1.345,0.895c0.626,0.76 1.682,-1.136 2.48,-0.224c-0.065,-0.54 1.789,-1.091 2.46,-0.894c0.313,0.908 -0.481,0.712 -0.433,1.345c-2.911,0.234 -5.199,3.606 -8.55,3.372c-0.819,-0.355 0.526,-0.341 0.217,-0.895c0.237,0 0.192,0.275 0.237,0.447c0.379,-0.285 0.255,-0.767 0.671,-1.121c0.877,-0.778 3.155,-0.723 2.918,-1.803c-1.473,0.485 -2.133,1.768 -4.043,1.803c-0.888,1.397 -4.256,2.577 -6.289,1.345c-3.021,1.885 -9.452,0.657 -12.803,1.572c0.282,-0.474 0.616,-0.874 0.902,-1.348c-1.394,-0.031 -2.588,0.791 -3.162,0.898c0.041,-1.088 2.319,-1.872 3.609,-2.467c-2.553,-1.156 -4.304,2.725 -6.971,2.243c1.741,-1.252 3.314,-2.67 5.622,-3.368c-0.048,-0.386 0.382,-0.578 0,-0.678M132.029,292.212c3.276,-1.814 4.194,-3.049 8.092,-4.27c-3.106,0.919 -4.655,4.394 -8.092,4.27M142.382,288.386c-2.742,0.244 -2.914,3.771 -6.964,3.595c1.025,-0.633 0.826,-1.135 2.003,-1.569c1.118,-1.273 2.841,-1.589 3.825,-2.47c0.427,0.093 1.349,-0.313 1.136,0.444M143.042,290.182c-1.2,1.39 -2.535,1.434 -4.717,1.576c1.614,-1.071 2.595,-2.705 4.49,-2.922c-0.172,0.692 0.382,0.661 0.227,1.346M134.286,289.06c1.18,-0.155 1.965,-0.736 3.135,-0.898c-1.16,0.637 -2.44,1.153 -3.135,2.25c-1.582,0.296 -2.69,1.057 -3.592,2.016c-0.334,-0.419 -1.493,-0.024 -1.81,-0.447c0.066,-0.289 0.448,-0.223 0.465,0c0.286,-0.691 1.387,-1.472 2.013,-1.118c-0.737,-0.729 1.734,-1.005 1.342,-1.352c0.24,-0.255 2.002,-0.286 1.582,-0.451M122.375,288.836c0.048,0.489 -0.182,0.716 -0.674,0.675c1.52,0.949 3.946,-1.081 6.072,-0.675c-0.106,0.881 -2.515,1.377 -3.382,2.247c1.115,0.196 1.861,-0.915 2.921,-1.349c0.674,-0.282 1.572,-0.237 2.254,-0.447c1.252,-0.389 2.377,-0.853 4.266,-0.674c-2.488,0.495 -4.507,3.406 -7.418,3.815c-3.833,0.554 -6.802,0.362 -11.237,0.455c-0.089,-0.623 0.85,-0.214 0.912,-0.671c-1.256,-0.062 -1.868,1.097 -4.043,0.891c1.153,-1.229 2.894,-1.893 3.802,-3.369c-2.443,0.245 -4.018,3.321 -7.18,3.592c3.186,-2.773 5.491,-4.507 10.559,-4.713c0.265,0.072 0.11,0.186 0,0.223c0.733,-0.251 1.562,-0.22 3.148,0M110.02,279.172c-1.18,0.771 -2.095,1.799 -4.046,1.81c1.225,-0.737 2.707,-2.536 4.046,-1.81M108.217,281.642c1.201,-1.459 3.361,-3.017 5.615,-2.69c-1.896,0.874 -3.038,2.501 -5.615,2.69M115.848,279.843c-0.788,0.674 -2.109,1.156 -3.385,1.517c0,0.021 0.017,0.031 0.017,0.065c-0.076,0.028 -0.186,0.021 -0.317,0.018c-0.268,0.072 -0.543,0.141 -0.794,0.199c-0.038,-0.354 0.416,-0.234 0.794,-0.199c0.107,-0.028 0.2,-0.059 0.3,-0.083c-0.059,-0.138 -0.272,-0.117 -0.417,-0.168c1.074,-1.019 2.828,-1.349 4.27,-2.02c0.602,0.261 -0.743,0.919 -0.468,0.671M124.178,282.547c-0.21,0.33 -0.73,0.324 -1.129,0.451c-0.237,-0.761 0.685,-0.358 1.129,-0.451M132.253,281.192c-1.517,-0.018 -1.827,0.158 -3.131,0c0,-0.207 0.279,-0.169 0.444,-0.21c0.034,-0.998 2.043,-1.617 2.463,-2.932c1.142,0.251 2.443,0.079 3.836,-0.447c-1.341,1.067 -2.852,1.958 -3.612,3.589M143.49,277.152c-0.176,1.132 -0.362,2.285 0,3.369c-2.192,0.062 -4.27,0.234 -6.29,0.461c0.713,-0.874 2.12,-1.033 2.247,-2.481c-1.786,1.651 -3.186,3.434 -6.066,2.481c0.585,-0.155 0.107,-1.053 0.668,-0.461c0.967,-1.26 2.621,-3.623 6.072,-3.142c1.088,0.079 -0.481,0.671 -0.44,1.122c1.435,-0.175 2.092,-2.185 3.809,-1.349M139.905,271.09c0.96,-0.158 1.813,0.241 1.789,-0.451c0.182,0.117 0.364,0.234 0.688,0.224c-2.068,1.686 -2.759,4.741 -6.517,4.717c0.788,-1.999 2.464,-2.611 4.04,-4.49M143.49,267.261c-0.097,0.33 -0.19,-0.014 -0.448,0c0.104,0.285 0.293,0.468 0.685,0.45c0.127,0.812 -0.275,1.094 -0.457,1.583c-1.146,0.041 -2.815,0.533 -3.589,0.217c0.984,-0.585 2.587,-1.738 2.701,-2.474c0.038,-0.32 0.657,-0.076 0.66,-0.447c0.465,0.065 -0.316,0.612 0.448,0.671M137.661,268.62c1.377,-1.38 3.19,-2.343 4.721,-3.603c0.574,1.077 -1.015,1.979 -1.373,3.369c-1.473,-0.097 -2.439,2.181 -4.71,2.026c-0.234,-0.241 1.287,-1.572 1.576,-1.349c0.038,-0.258 -0.055,-0.402 -0.214,-0.443M127.773,279.843c0.561,0.488 0.286,-0.372 0.668,-0.671c0.051,-0.041 0.426,0.21 0.681,0c0.31,-0.282 0.777,-0.547 1.572,-0.891c0.399,1.304 -2.154,1.593 -2.48,2.911c-0.52,0.072 -0.857,-0.038 -1.132,-0.21c0.106,-0.348 0.292,0.075 0.691,0c0.303,-0.296 0.045,-0.479 0,-1.139M121.257,279.843c1.376,-1.528 3.939,-1.476 6.055,-1.118c-0.533,0.966 -1.782,1.204 -2.921,1.572c-0.258,0.891 1.514,0.093 0.678,0.895c0.86,0.089 1.744,-0.527 0.901,0.233c-4.321,-0.319 -8.051,0.52 -11.687,0.217c2.085,-1.18 4.311,-3.292 7.19,-2.917c-0.209,0.399 -0.416,0.784 -1.118,0.674c0.2,0.76 0.503,0.024 0.902,0.444M108.668,283.221c3.963,-0.557 9.361,-0.416 14.147,-0.447c-1.214,0.943 -3.802,1.727 -4.486,2.467c-0.85,0.561 -2.23,0.616 -2.481,1.793c-1.366,0.037 -2.398,0.65 -4.703,0.454c1.208,-1.404 3.32,-1.91 4.497,-3.372c0.812,0.151 0.853,-0.489 1.572,-0.451c-4.077,-0.247 -4.559,4.287 -10.339,3.823c0.864,-0.482 1.431,-1.266 2.46,-1.573c-1.077,-0.058 -1.431,0.066 -2.236,1.119c-1.153,-0.365 -2.261,0.77 -4.05,0.454c-0.007,-0.571 0.169,-0.279 0.444,-0.227c0.444,-1.218 2.759,-1.865 4.28,-2.694c-0.66,-0.568 -1.624,0.468 -2.026,0.901c-2.068,0.324 -3.472,1.311 -4.941,2.237c-1.225,-0.021 -2.395,0 -3.155,0.457c-0.564,-0.093 0.227,-0.643 0.692,-0.457c-0.049,-0.255 -0.431,-0.179 -0.692,-0.217c3.299,-1.886 7.249,-5.522 11.017,-4.267M102.151,283.665c0.107,-0.416 2.013,-0.929 1.786,-0.223c-0.767,-0.117 -1.428,0.247 -2.006,0.674c-1.658,1.18 -3.152,1.861 -4.944,2.918c0.096,0.203 0.199,0.402 0.444,0.454c-0.423,0.547 -0.816,-0.437 -0.444,0.674c-1.283,-0.131 -3.107,-0.093 -4.057,0c0.203,-0.334 0.568,-0.485 1.136,-0.457c-0.145,-0.217 -0.527,-0.224 -0.454,-0.671c2.012,-1.057 3.581,-2.546 5.842,-3.369c-0.059,-0.309 -0.561,-0.182 -0.891,-0.223c-0.066,0.76 -1.287,0.371 -1.346,1.125c-3.929,0.653 -4.648,4.507 -9.671,4.046c-0.499,0.526 0.158,-0.619 0.901,-0.227c-1.042,-0.368 0.664,-1.143 1.79,-2.02c1.709,-1.321 3.509,-2.749 3.605,-2.924c1.617,-0.303 1.834,-0.152 3.589,-0.444c-0.045,0.179 -0.22,0.223 -0.214,0.444c1.796,-0.097 3.183,-0.768 4.934,-0.221c0.038,0.007 -0.034,0.4 0,0.444M100.582,258.955c-1.228,0.489 -1.854,1.6 -3.151,2.016c-1.48,2.027 -4.37,2.674 -5.846,4.721c-0.715,-0.128 -1.042,0.155 -1.576,0.227c0.186,-1.332 1.6,0.306 1.81,-1.345c-0.309,0.935 -0.516,-0.018 -0.908,0c-0.843,0.027 -1.903,0.519 -3.131,0.216c0.925,-0.426 0.987,-0.997 1.792,-1.118c-0.147,-1.053 2.216,-1.269 2.247,-2.247c1.335,-0.161 2.034,-0.956 2.704,-1.796c0.943,0.011 1.917,-0.753 2.694,-1.352c0.685,-0.536 2.189,-1.242 2.908,-2.019c1.414,0.254 1.541,0.058 2.48,-0.451c-0.722,0.633 -1.455,1.239 -2.257,1.799c-0.151,0.689 0.389,0.658 0.234,1.349M105.076,254.455c0.261,-0.602 1.176,0 1.562,0c-0.348,0.857 -1.376,1.015 -1.793,1.803c-0.485,-0.523 0.96,-1.463 0.231,-1.803M109.566,253.333c0.044,-0.299 0.925,-0.42 0,-0.44c1.651,-1.067 3.206,-2.199 4.49,-3.599c-3.035,-0.396 -3.902,3.272 -6.734,3.816c0.809,-1.421 2.519,-1.968 3.149,-3.592c0.037,-0.489 -0.795,-0.104 -1.136,-0.224c-1.689,1.438 -2.653,3.637 -5.842,3.599c1.387,-2.082 4.542,-1.82 4.28,-4.046c4.081,-0.633 6.898,0.488 11.681,0.223c-1.459,1.16 -2.209,3.035 -4.053,3.823c-0.169,0.196 -0.234,0.502 -0.224,0.891c-0.619,-0.265 -1.541,-0.248 -2.463,-0.227c1.118,-1.345 2.642,-2.285 4.046,-3.365c-2.77,-1.621 -3.31,3.774 -7.194,3.141M98.343,194.692c-0.124,-0.482 -0.606,-0.839 -0.692,-1.342c-0.1,-0.667 0.296,-1.348 0.234,-2.019c-0.268,-2.829 -2.443,-7.281 -0.898,-9.895c0.199,-0.338 1.531,-1.655 2.467,-2.237c0.409,-0.261 1.053,-0.193 1.576,-0.451c0.595,-0.306 0.818,-0.801 1.121,-0.901c1.593,-0.516 3.926,-0.01 6.066,-0.22c1.779,-0.189 3.372,-1.297 4.497,-1.359c2.068,-0.103 3.585,1.156 5.381,1.799c-0.588,1.428 -2.209,1.844 -2.694,3.369c1.937,-0.007 2.594,-3.665 5.402,-2.915c-0.547,0.733 -1.108,1.445 -1.807,2.02c1.463,1.104 1.758,-2.316 3.819,-2.02c0.971,0.458 -1.348,1.26 -1.785,1.796c1.262,1.349 2.418,-0.915 3.148,-1.569c1.218,-0.044 2.412,-0.031 3.365,0.221c1.472,2.04 0.832,4.197 0.671,6.963c-0.255,4.37 -0.021,9.262 0.227,13.935c0.099,1.992 -0.382,3.967 -0.455,5.838c-0.206,5.781 0.238,11.495 0,17.3c0,0.756 -1.045,0.461 -1.345,0.898c-0.426,2.491 -1.913,3.932 -2.694,6.069c1.542,0.099 0.84,-0.933 1.122,-1.803c0.568,-0.613 1.321,-1.404 1.572,-1.8c0.09,-0.12 0.024,-0.44 -0.227,-0.22c0.475,-0.45 0.85,-0.547 1.572,-0.667c-0.12,1.097 -1.121,2.501 -1.795,4.042c-0.568,1.301 -1.8,3.083 -0.668,4.047c0.447,-0.878 1.056,-3.599 1.789,-4.047c0.258,-0.044 0.121,-0.227 0,-0.227c0.826,-0.237 0.578,2.746 0.231,4.04c-0.045,0.178 -0.468,0.144 -0.461,0.45c0.037,0.912 -1.267,2.925 -0.891,4.497c0.172,0.207 0.412,0.344 0.674,0.447c-0.561,0.609 -0.502,1.318 -0.895,2.474c1.253,-0.065 0.75,-1.899 1.112,-2.247c0.65,3.025 -0.561,5.574 -0.217,8.764c-8.168,0.068 -18.689,-0.544 -27.628,-1.136c-0.368,-9.84 -0.509,-23.048 -1.118,-35.266c-0.131,-2.267 -0.368,-4.441 -0.234,-6.509c0.217,-3.534 1.424,-6.276 0.458,-10.119M74.293,246.146c3.176,0.471 7.098,0.801 11.01,1.342c-0.324,0.509 -1.463,0.192 -1.349,1.135c-1.318,0.382 -3.275,1.411 -4.046,1.793c-0.176,0.089 -0.203,0.206 -0.231,0.45c-0.787,0.176 -0.863,-0.333 -1.568,-0.22c1.186,-1.218 2.989,-1.81 4.493,-2.708c-2.78,-0.671 -4.015,2.13 -6.744,2.254c-0.258,-0.138 1.029,-0.623 1.576,-0.674c-0.072,-0.159 -0.151,-0.252 -0.22,-0.289c-0.169,0.027 -0.124,-0.076 0,0c0.107,-0.007 0.23,-0.052 0.454,-0.159c0.262,-0.134 0.441,-0.633 0.668,-0.677c0.32,-0.062 0.437,-0.035 0.447,0c0.471,-0.634 1.159,-0.286 1.349,-0.671c-1.487,-1.187 -4.473,1.947 -5.839,0.671c-0.654,-0.369 0.781,-1.738 0,-2.247M74.964,264.346c-0.196,-0.175 -0.499,-0.24 -0.898,-0.227c-0.103,-0.423 -0.475,-0.56 -0.451,-1.121c1.039,-1.875 4.129,-2.928 4.948,-4.27c1.462,-0.712 2.67,-1.676 3.815,-2.697c-3.124,1.675 -5.835,3.746 -8.763,5.622c-0.024,-2.553 0.606,-2.904 2.243,-4.274c1.913,-1.582 5.065,-3.605 7.195,-4.713c0.956,0.244 2.143,0.258 3.361,0.227c-0.733,0.932 -1.084,1.094 -2.229,1.796c1.035,0.237 2.546,-1.235 3.137,-1.579c1.445,-0.166 2.285,0.271 3.589,0.223c0.599,0.255 -0.908,0.269 -0.441,1.122c-0.904,0.165 -2.253,1.18 -2.023,1.125c-3.196,1.214 -5.277,3.557 -8.315,4.941c-1.046,1.207 -2.77,1.734 -3.589,3.151c-0.798,-0.051 -1.342,0.148 -1.579,0.674M147.316,251.534c1.207,0.506 -0.317,1.847 -1.129,1.799c0.158,-0.808 1.38,-0.564 1.129,-1.799M204.391,110.893c-0.024,-5.687 -0.258,-11.522 -1.359,-16.624c-0.34,-1.586 -1.097,-3.19 -1.345,-4.721c-0.289,-1.703 -0.255,-3.237 -0.674,-4.493c-0.107,-0.317 -0.551,-0.623 -0.692,-0.898c-0.55,-1.187 -0.461,-2.601 -0.884,-3.819c-0.117,-0.355 -0.523,-0.561 -0.674,-0.898c-0.544,-1.287 -0.417,-3.258 -0.895,-4.05c-0.843,-1.386 -1.621,-3.083 -2.236,-4.266c-0.919,-1.738 -2.01,-2.931 -2.715,-4.493c-0.464,-1.064 -0.729,-1.463 -1.125,-2.247c-2.02,-4.012 -4.872,-7.246 -7.184,-11.01l-0.905,0c-0.619,-1.799 -2.405,-2.921 -3.354,-4.941c-0.303,-0.234 -0.843,-0.223 -1.136,-0.447c0.066,-0.805 -0.674,-0.829 -0.674,-1.579c-1.896,-1.132 -2.987,-3.214 -4.724,-4.717c-1.363,-1.204 -3.203,-2.023 -4.703,-3.138c-0.279,-0.21 -0.348,-0.695 -0.675,-0.901c-0.832,-0.558 -1.875,-1.05 -2.701,-1.587c-0.784,-0.492 -1.71,-1.324 -2.683,-1.114c0.196,-0.799 -0.939,-0.847 -1.373,-1.122c-1.356,-0.881 -2.577,-1.469 -4.022,-2.25c-0.647,-0.337 -1.153,-0.984 -1.817,-1.345c-2.563,-1.418 -5.69,-2.574 -8.302,-3.819c-0.929,-0.444 -1.909,-1.136 -2.694,-1.346c-4.18,-1.138 -7.424,-2.694 -11.464,-3.602c-2.979,-0.664 -5.243,-0.705 -7.638,-1.569c-0.213,-0.695 -0.805,-0.857 -1.121,-0.894c0.148,-0.014 0.258,-0.035 0.223,-0.227c-4.132,-0.217 -5.426,-3.259 -8.085,-4.945c-0.84,1.556 -2.068,2.729 -3.379,3.823c-2.436,1.259 -4.875,1.466 -7.855,2.016c-8.309,1.538 -16.332,3.781 -22.7,6.52c-4.37,1.283 -8.605,3.537 -12.576,5.842c-1.407,0.692 -3.519,1.621 -4.046,2.47c-1.132,-0.079 -2.425,1.624 -4.043,1.8c-1.045,1.944 -3.757,2.233 -4.49,4.49c-3.12,1.077 -4.19,4.201 -6.743,5.849c0.241,-0.327 0.234,-0.558 -0.227,-0.675c-1.149,1.838 -3.286,2.698 -4.043,4.934c-0.77,-0.168 -0.285,0.915 -1.125,0.675c-1.397,2.635 -3.434,4.606 -4.944,6.97c-0.506,0.802 -1.328,1.817 -1.565,2.464c-0.172,0.461 0.213,0.495 0,0.904c-0.995,1.79 -2.801,3.303 -2.698,5.619c-1.3,0.585 -1.61,2.14 -2.033,3.592c-1.225,0.595 -1.246,2.136 -1.789,3.372c-0.716,1.655 -2.044,3.22 -2.023,5.388c-0.812,-0.145 -0.272,1.073 -0.902,1.125c0.042,2.147 -0.977,3.217 -1.569,4.717c0.165,0.051 0.441,0.01 0.451,0.23c-1.153,0.265 -0.788,1.917 -1.125,2.918c-0.416,1.252 -1.407,3.038 -0.898,4.717c-0.172,0.347 -0.716,0.337 -0.681,0.901c-0.571,4.765 -1.346,8.591 -1.112,13.257c0.142,3.076 0.486,6.523 1.112,9.657c0.223,1.084 0.791,1.972 0.905,3.145c0.189,1.793 0.461,2.55 0.674,3.823c0.138,0.784 -0.186,1.696 0,2.473c0.062,0.262 0.585,0.633 0.674,0.892c0.224,0.705 0.066,1.486 0.224,2.253c0.275,1.311 1.07,2.577 1.345,3.816c0.489,2.178 0.609,4.462 1.345,6.516c0.83,2.247 2.402,4.094 2.694,6.52c1.009,1.438 1.79,3.117 2.481,4.717c0.75,1.741 1.548,3.245 2.47,4.944c3.623,6.64 7.277,13.608 10.329,20.447c1.607,3.572 3.234,7.707 4.717,10.78c0.234,0.485 0.186,1.235 0.451,1.796c0.822,1.72 2.687,2.845 2.47,4.94c1.789,2.698 2.075,6.008 2.701,9.211c0.382,1.954 1.469,3.554 2.023,5.391c0.774,2.605 0.922,6.162 1.108,9.445c0.217,3.344 0.691,6.85 0.925,10.108c0.066,1.17 -0.165,2.229 0,3.368c0.317,2.323 1.721,5.478 2.694,6.967c1.088,1.704 3.08,4.373 4.263,5.165c0.833,0.567 1.886,0.512 2.687,1.348c-0.089,-0.089 0.076,0.702 0.458,0.675c-0.991,0.275 -0.416,1.724 -0.458,2.023c-0.01,0.093 -0.474,0.471 -0.44,0.678c0.141,0.736 1.218,1.324 1.349,2.246c0.072,0.51 -0.547,2.065 -0.682,3.596c-0.185,2.346 -0.148,3.692 -1.345,4.49c1.043,0.984 -0.168,2.756 -0.217,4.046c1.287,2.078 3.032,3.698 4.256,5.838c-0.784,1.624 -3.791,2.116 -5.608,3.369c-1.225,2.322 0.392,3.963 1.569,5.171l2.027,0c0.911,1.001 0.072,2.498 0.22,4.039c-2.037,0.582 -4.029,1.218 -4.49,3.372c1.066,0.86 0.141,1.645 0.234,2.247c1.569,1.183 4.328,1.204 4.934,3.368c-0.929,3.42 -6.445,2.25 -5.406,7.648c1.205,0.754 2.498,2.089 4.057,1.79c-0.189,0.722 0.354,0.701 0.451,1.125c-2.027,3.395 0.117,6.1 2.473,8.092c0.651,0.55 1.631,0.795 2.244,1.349c1.493,1.359 2.274,3.051 3.382,4.039c1.62,-0.155 -0.313,0.688 1.558,0.45c1.108,1.583 2.65,2.749 4.487,3.596c-0.1,0.698 0.784,0.592 0.234,1.121c1.18,0.468 2.529,0.761 2.463,2.471c1.906,0.495 2.426,2.374 3.836,3.375c10.057,-0.048 20.689,0.124 28.98,-0.231c-0.041,-0.564 0.499,-0.54 0.675,-0.891c1.675,-0.209 2.508,-2.074 4.263,-3.148c0.051,-0.66 0.794,-1.679 1.569,-2.246c0.55,-0.403 1.417,-0.341 2.243,-0.898c1.259,-0.847 2.646,-2.677 4.266,-4.274c2.051,-1.988 4.924,-3.822 6.751,-5.608c0.822,-0.812 2.841,-2.425 3.144,-2.928c1.476,-2.58 -0.87,-2.477 -1.569,-3.826c-0.585,-1.09 -0.203,-1.424 -0.234,-2.683c0.582,-0.898 1.693,-1.425 2.261,-2.261c0.258,-0.378 0.829,-1.503 0.891,-2.016c0.32,-2.766 -2.412,-3.293 -3.152,-5.615c0.269,-0.034 0.64,0.041 0.675,-0.224c-0.795,-0.027 0.027,-0.412 -0.675,-0.674c1.308,-1.583 3.923,-1.882 4.036,-4.046c0.127,-2.285 -2.154,-3.578 -3.802,-4.944c0.007,-0.74 0.375,-1.118 0.231,-2.02c2.105,-1.218 4.101,-3.103 3.571,-6.289c-0.946,-0.994 -2.333,-1.548 -3.127,-2.704c0.361,-0.523 0.801,-0.984 1.111,-1.569c-0.901,-0.489 -1.552,1.011 -1.555,0c-0.083,-0.819 1.304,-0.936 2.002,-1.573c0.771,-0.691 1.153,-1.83 1.807,-2.47c0,-1.352 0.072,-2.77 -0.238,-3.819c0.32,-0.588 0.953,-0.85 1.129,-1.565c-0.702,-0.699 -0.785,0.526 -1.562,0.443c-0.324,-0.953 -0.444,-2.116 -1.342,-2.467l-0.685,0c-0.936,1.442 -2.591,1.79 -3.805,3.138c-1.08,1.167 -1.793,2.797 -2.935,3.823c-0.12,0.11 -0.568,-0.114 -0.671,0c-0.626,0.667 -1.448,2.054 -2.711,1.125c1.018,-1.569 2.047,-2.333 3.155,-3.372c-0.84,-0.22 -1.786,0.733 -2.47,1.342c-0.781,0.698 -1.535,1.655 -2.251,2.25c-1.771,0.437 -2.04,0.991 -3.805,1.345c-0.643,0 0.534,-0.609 -0.457,-0.444c-3.038,0.517 -7.15,1.304 -8.764,3.365c2.897,-0.103 4.955,-2.222 7.411,-2.019c-1.135,0.065 -1.51,0.877 -2.243,1.345c1.999,0.619 3.867,-1.944 5.612,-1.569c-1.001,0.337 -1.284,1.407 -1.786,2.243c-0.949,0.097 -2.649,2.051 -1.118,2.478c0.743,-2.089 1.792,-2.189 2.68,-3.376c0.282,0.344 1.937,-0.024 2.928,-0.223c-1.325,1.541 -3.22,2.473 -4.263,4.273c-11.756,0.43 -21.913,1.252 -32.809,0c0.12,-0.568 1.744,-0.1 0.894,-0.902c0.809,-0.237 3.641,-1.259 2.471,-1.575c1.259,-0.017 1.799,0.66 2.921,0.454c-0.11,-0.626 1.214,-0.688 1.803,-0.454c-1.225,0.058 -1.428,1.118 -2.925,0.908c-0.165,0.912 0.733,0.757 1.122,1.118c1.558,-0.77 2.783,-1.865 4.947,-2.026c0.031,-0.265 -0.037,-0.633 0.217,-0.675c2.649,-0.223 5.189,0.441 6.981,-0.898c-0.358,-0.034 -0.829,0.083 -0.915,-0.223c0.406,-0.417 1.125,-0.534 1.583,-0.898c-1.728,-0.179 -2.887,1.665 -4.04,0.678c0.86,-1.084 3.3,-0.589 4.04,-1.796c-0.599,0.013 -1.728,0.65 -2.034,0.216c0.423,-1.603 2.333,-1.723 2.928,-3.137c0.427,-0.045 1.493,-0.582 0.902,-0.905c-2.753,1.455 -4.463,4.097 -6.968,5.171c-1.101,-0.609 -3.681,0.506 -4.937,0.223c0.083,-0.347 0.699,-0.189 0.447,-0.901c-0.715,-0.244 -1.348,-0.138 -2.067,-0.392c0.213,0.017 -0.224,-0.413 -0.479,-0.441c-0.041,0.055 -0.106,0.111 -0.151,0.166c0,-0.138 0.069,-0.172 0.151,-0.166c1.046,-1.015 2.048,-2.085 2.997,-3.213c0.334,-0.258 0.554,-0.258 0.895,0c0.351,-0.922 1.5,-1.28 2.243,-1.793c1.934,-1.328 3.582,-3.024 5.849,-3.822c0.027,-0.268 -0.035,-0.633 0.224,-0.671c5.202,0.189 8.388,-0.041 13.253,0.447c-1.666,0.781 -3.197,2.674 -5.168,4.273c1.503,-0.003 2.078,-1.486 2.917,-2.25c0.881,-0.798 1.968,-1.286 2.708,-2.24c1.191,0.142 2.98,-0.299 3.805,0.217c-0.657,0.289 -0.003,1.001 -1.352,0.902c0.073,1.018 -0.409,0.602 -0.674,1.575c-2.962,0.768 -3.919,3.551 -6.059,5.165c0.685,0.423 1.129,-0.571 1.572,-0.898c1.105,-0.802 2.509,-1.576 3.155,-2.698c0.558,0.038 0.695,-0.351 1.112,-0.447c0.894,-1.208 1.493,-2.715 3.165,-3.148c0.293,-0.557 -0.894,-0.698 -0.237,-0.898c1.259,0.275 2.673,-0.458 3.375,0c-1.345,0.268 -2.082,1.961 -2.925,2.02c0.461,0.777 -1.458,1.097 -1.345,2.25c-1.407,0.674 -4.411,2.398 -2.924,3.819c0.801,-0.981 1.489,-2.663 2.924,-3.596c-0.062,0.375 0.248,0.551 0.213,0c0.582,0.527 0.4,-0.722 0.919,-1.348c1.046,0.261 0.465,-1.239 1.101,-0.221c0.602,-1.5 2.326,-3.079 4.046,-2.694c-1.823,2.285 -4.431,3.95 -6.066,5.832c0.868,-0.189 1.373,-0.774 1.8,-1.118c0.275,-0.224 -0.038,-0.265 0.22,-0.451c2.312,-1.63 3.313,-3.457 7.208,-4.713c-1.307,1.459 -2.611,2.931 -4.28,4.039c2.749,-0.471 3.22,-3.213 5.629,-4.039c3.155,0.409 5.267,-2.735 3.365,-4.721c-0.84,-0.175 -1.077,0.272 -1.81,0.224c0.217,1.706 -1.345,4.383 -4.036,3.141c0.045,-1.139 1.566,-0.839 1.583,-2.019c-1.28,0.464 -1.91,1.544 -2.932,2.243c-1.575,-0.169 -2.36,0.598 -3.825,0c2.026,-1.118 3.633,-2.663 5.394,-4.039c1.5,0.158 2.364,-0.138 3.372,0.227c-1.235,-0.007 -1.552,1.479 -2.243,1.348c1.407,0.441 1.927,-1.231 3.372,-1.575c1.476,-0.358 3.296,0.478 5.157,-0.224c-1.122,2.322 1.108,1.885 2.023,2.694c0.42,-1.022 -0.798,-0.392 -0.888,-0.895l-0.45,0l0,-0.447l0.45,0l0,0.447c1.091,-0.447 -0.22,-0.526 -0.227,-1.125c2.161,-0.85 2.811,-3.347 4.277,-6.963c0.434,-1.115 1.228,-2.068 1.562,-3.149c1.466,-4.765 1.875,-10.497 3.833,-14.608c-0.079,-0.523 -0.365,-0.847 -0.244,-1.573c0.44,-0.705 0.278,-1.434 0.45,-2.69c0.699,-4.948 2.385,-9.93 4.057,-14.382c0.867,-2.291 2.057,-3.599 2.904,-5.391c0.443,-0.895 0.505,-1.848 0.904,-2.694c1.17,-2.422 3.475,-4.634 4.05,-7.414c1.813,-2.116 2.794,-4.742 4.039,-7.188c1.862,-3.654 4.555,-6.895 6.757,-10.115c1.597,-2.374 2.509,-5.116 3.806,-7.415c0.695,-1.235 2.102,-3.189 2.477,-4.269c0.234,-0.733 1.266,-2.694 1.559,-3.816c0.061,-0.227 0.416,-0.141 0.467,-0.227c0.386,-1.073 0.444,-2.271 0.878,-3.375c0.96,-2.35 2.054,-4.497 2.711,-6.74c0.32,-1.125 0.303,-2.405 0.667,-3.589c0.334,-1.066 1.029,-1.957 1.353,-2.924c0.808,-2.515 1.489,-5.199 2.026,-7.415c0.296,-1.311 0.189,-2.642 0.444,-4.039c0.506,-2.684 1.472,-4.886 1.576,-7.638c0.031,-1.252 0.144,-1.338 0.223,-2.243c0.276,-3.499 0.234,-5.911 0.234,-9.218" style="fill:#58595b;fill-rule:nonzero;"/><path d="M103.937,280.296l0.688,0c-0.079,0.293 -0.399,0.358 -0.457,0.685c-0.258,-0.038 -0.189,-0.409 -0.231,-0.685" style="fill:#58595b;fill-rule:nonzero;"/><path d="M138.995,271.314c-0.148,0.299 -0.475,0.416 -0.895,0.447c0.052,-0.396 0.379,-0.52 0.895,-0.447" style="fill:#58595b;fill-rule:nonzero;"/><path d="M110.244,275.356c0.564,-0.427 -0.592,0.571 -0.912,0.677c-1.008,-0.02 0.592,-0.564 0.912,-0.677" style="fill:#58595b;fill-rule:nonzero;"/><path d="M106.639,281.192c-0.21,0.461 -0.853,0.488 -1.562,0.451c0.01,-0.217 0.275,-0.169 0.45,-0.217c0.035,-0.193 -0.092,-0.213 -0.233,-0.234c0.034,-0.43 0.76,0.272 1.345,0" style="fill:#58595b;fill-rule:nonzero;"/><path d="M104.845,280.074c0.058,-0.392 0.385,-0.512 0.901,-0.45c-0.151,0.306 -0.461,0.416 -0.901,0.45" style="fill:#58595b;fill-rule:nonzero;"/><path d="M112.478,305.235c-0.024,0.496 -0.943,0.093 -1.335,0.224c0.024,-0.492 0.946,-0.096 1.335,-0.224" style="fill:#58595b;fill-rule:nonzero;"/><path d="M94.066,291.312c0.647,0.117 -0.337,0.344 -0.224,0.667c-0.746,-0.216 0.248,-0.443 0.224,-0.667" style="fill:#58595b;fill-rule:nonzero;"/><path d="M97.217,290.183c0.685,0.227 -0.485,0.364 -0.45,0.678c-0.85,-0.382 0.485,-0.379 0.45,-0.678" style="fill:#58595b;fill-rule:nonzero;"/><path d="M87.097,292.881c0.647,-0.327 -0.76,0.568 -0.894,0.898c-0.582,-0.313 0.512,-0.802 0.894,-0.898" style="fill:#58595b;fill-rule:nonzero;"/><path d="M86.203,294c-0.072,0.309 -0.574,0.189 -0.901,0.234c0.069,-0.307 0.568,-0.193 0.901,-0.234" style="fill:#58595b;fill-rule:nonzero;"/><path d="M83.27,295.577c-0.189,0.334 -0.712,0.324 -1.111,0.444c-0.513,-0.169 0.692,-0.471 1.111,-0.444" style="fill:#58595b;fill-rule:nonzero;"/><path d="M87.991,304.113c0.251,0.059 0.158,0.451 0.458,0.451c-0.093,0.499 -1.187,0.175 -1.352,0c0.646,-0.12 0.45,-0.241 0.894,-0.451" style="fill:#58595b;fill-rule:nonzero;"/><path d="M79.678,280.98c-0.615,0.275 -0.034,-0.588 0.905,-0.685c0.241,-0.024 -0.567,0.527 -0.905,0.685" style="fill:#58595b;fill-rule:nonzero;"/><rect x="127.313" y="224.8" width="0.461" height="0.447" style="fill:#58595b;fill-rule:nonzero;"/><path d="M75.858,279.398c0.069,-0.3 0.575,-0.186 0.902,-0.224c0.082,0.519 -0.644,0.251 -0.668,0.671c-0.258,-0.038 -0.127,-0.22 0,-0.22c0.035,-0.19 -0.082,-0.221 -0.234,-0.227" style="fill:#58595b;fill-rule:nonzero;"/><path d="M75.643,282.772c-0.426,0.437 -0.791,0.386 -1.352,0.224c0.3,-0.323 0.998,-0.602 1.352,-0.224" style="fill:#58595b;fill-rule:nonzero;"/><path d="M90.01,317.595c-0.815,-0.355 0.912,0.051 0.462,-0.671l0.901,0c-0.423,0.244 -0.795,0.557 -1.363,0.671" style="fill:#58595b;fill-rule:nonzero;"/><path d="M109.794,323.89c0.058,-0.475 0.991,-0.062 0.901,-0.682c0.664,0.327 -0.265,0.912 -0.901,0.682" style="fill:#58595b;fill-rule:nonzero;"/><path d="M113.607,320.286c-0.21,0.017 -0.175,0.275 -0.223,0.451c-0.265,-0.031 -0.186,-0.413 -0.227,-0.671l0.898,0c0,0.217 -0.265,0.172 -0.448,0.22" style="fill:#58595b;fill-rule:nonzero;"/><path d="M114.504,264.575c-1.156,0.534 0.781,0.575 0,0" style="fill:#58595b;"/><path d="M110.469,266.141c-1.452,-0.258 -0.488,0.691 0,0" style="fill:#58595b;"/><path d="M106.198,276.258c-0.994,-0.761 -1.214,0.829 0,0" style="fill:#58595b;"/><path d="M102.15,280.074c-1.951,0.799 1.304,-0.54 0,0" style="fill:#58595b;"/><path d="M91.146,291.534c1.362,-0.265 0.557,-1.088 0,0" style="fill:#58595b;"/><path d="M111.37,321.872c1.097,-1.097 -0.461,-0.743 0,0" style="fill:#58595b;"/><path d="M116.315,323.436c-1.751,0.3 0.943,-0.161 0,0" style="fill:#58595b;"/><path d="M111.813,25.739c0.654,-0.333 0.833,0.251 1.132,-0.447c-0.726,-0.299 -1.641,0.932 -1.132,0.447M125.07,21.019c-1.184,1.287 -3.193,1.755 -4.497,2.928c0.148,-0.203 0.275,-0.406 0,-0.454c-0.362,-0.042 -1.084,0.681 -0.668,0.671c0,0.529 -0.619,-0.08 -0.45,-0.444c-3.269,1.066 -5.464,3.774 -8.987,5.164c0.041,-0.255 -0.038,-0.403 -0.224,-0.447c1.944,-1.277 4.191,-2.24 6.073,-3.603c-0.165,-0.206 -0.43,-0.333 -0.678,-0.443c-0.781,0.092 -1.321,1.221 -2.033,0.677c-0.633,0.654 -2.237,2.023 -4.04,2.247c0.042,-0.189 0.227,-0.227 0.227,-0.454c-0.65,0.103 -1.021,0.475 -1.125,1.125c-0.213,-0.382 -0.702,-0.492 -1.121,-0.671c1.163,-1.084 2.814,-1.679 4.266,-2.481c-0.093,-0.192 -0.203,-0.395 -0.444,-0.443c1.087,-0.785 1.487,-2.247 3.582,-2.027c0.076,0.52 -0.633,0.262 -0.668,0.681c-0.123,0.506 0.874,-0.271 0.221,0.224c0.354,0.485 1.895,0.261 2.036,-0.224c0.647,0.372 -0.591,0.747 -0.691,1.119c2.67,-0.159 6.802,-2.154 9.221,-3.145" style="fill:#58595b;"/><path d="M121.029,25.067c-0.416,-0.172 0.121,-0.24 0.444,-0.234c-0.041,-0.258 -0.399,-0.189 -0.667,-0.22c0.45,-0.943 2.604,-1.201 3.371,-1.121c-0.443,0.392 -1.176,0.474 -1.802,0.67c0.017,0.596 -0.258,0.444 -1.346,0.905" style="fill:#58595b;"/><path d="M103.736,25.067c0.788,-1.228 3.086,-0.939 4.483,-1.575c-1.239,0.67 -3.049,1.857 -4.483,1.575" style="fill:#58595b;"/><path d="M119.682,25.964c-0.52,1.125 -1.297,0.362 0,0" style="fill:#58595b;"/><path d="M52.047,53.823c-0.809,1.349 -2.03,1.383 -3.582,2.24c0.234,0.186 1.971,-3.034 3.582,-2.24" style="fill:#58595b;"/><path d="M44.413,64.157c0.096,-0.623 -1.236,0.182 -1.112,-0.451c-0.406,-0.602 0.97,-0.43 0.207,-0.678c1.417,-0.323 2.298,-2.302 3.595,-2.023c-0.771,0.871 -4.61,2.543 -2.026,2.701c1.562,-1.517 3.272,-3.31 5.625,-3.365c-1.187,1.366 -3.186,1.913 -4.721,2.918c-0.836,0.819 -2.68,2.346 -4.489,2.924c1.001,-0.65 1.851,-1.452 2.921,-2.026" style="fill:#58595b;"/><path d="M49.577,63.935c-1.411,1.651 -3.819,2.319 -5.164,4.042c-0.09,-1.39 2.098,-1.751 2.69,-2.477c0.11,-0.124 -0.148,-0.275 -0.224,-0.213c0.596,-0.482 1.628,-1.218 2.698,-1.352" style="fill:#58595b;"/><path d="M41.718,66.41c-0.778,0.368 -0.527,1.283 -1.129,1.345c0.145,-0.681 0.358,-1.301 1.129,-1.345" style="fill:#58595b;"/><path d="M43.976,67.754c-0.616,1.045 -1.879,1.434 -2.942,2.026c0.599,-1.06 1.979,-1.331 2.942,-2.026" style="fill:#58595b;"/><path d="M46.207,68.202c0.192,0.595 -0.416,0.282 -0.675,0.451c-2.573,1.748 -4.961,3.743 -7.631,5.391c-0.688,0.372 -0.43,1.665 -1.352,1.8c0.22,-0.678 0.795,-0.998 0.678,-2.023c2.945,-1.556 5.505,-4.012 8.98,-5.619" style="fill:#58595b;"/><path d="M45.757,70.899c-0.045,0.326 -0.678,0.082 -0.678,0.45c-0.557,-0.096 0.217,-0.643 0.678,-0.45" style="fill:#58595b;"/><path d="M39.457,71.349c-0.344,0.168 -0.327,0.715 -0.888,0.67c0.193,-0.323 0.344,-0.708 0.888,-0.67" style="fill:#58595b;"/><path d="M44.413,71.349c0.643,0.873 -0.551,0.636 -0.905,0.894c-2.708,2.013 -6.138,4.287 -8.543,6.751c-0.076,0.447 0.055,0.695 0.478,0.664c-0.351,0.805 -1.111,-0.093 -1.583,0c1.366,-1.17 2.054,-3.032 4.04,-3.592c1.895,-1.848 4.225,-3.255 6.513,-4.717" style="fill:#58595b;"/><path d="M42.837,76.965c0.23,1.328 -1.411,1.786 -2.247,2.477c-1.29,1.025 -2.842,2.23 -4.039,3.365c-1.242,1.184 -2.594,2.797 -3.83,4.273c-0.082,0.534 1.026,-0.131 0.685,0.675c-0.633,0.178 -0.585,-0.324 -1.135,-0.227c0.433,-1.411 1.889,-2.357 2.023,-3.372c0.788,-0.207 1.765,-0.795 2.03,-1.573c0.272,-0.774 1.469,-0.299 1.352,-1.572c0.836,0.093 1.896,-0.784 1.569,-1.125c1.435,-0.736 2.222,-2.133 3.592,-2.921" style="fill:#58595b;"/><path d="M37.676,83.256c0.502,0.035 -0.306,0.572 0,1.122c-0.096,0.058 -0.382,-0.069 -0.451,0c-1.507,1.59 -3.65,3.812 -4.72,6.289c-0.909,-0.595 0.795,-2.673 1.355,-2.463c-0.134,-0.182 -0.244,-0.368 -0.244,-0.678c1.834,-0.963 2.753,-2.811 4.06,-4.27" style="fill:#58595b;"/><path d="M37.676,86.408c0.585,0.313 -0.475,0.846 -0.898,0.891c0.072,0.84 -0.864,1.325 -1.335,0.901c0.606,-0.103 1.335,-0.884 2.233,-1.792" style="fill:#58595b;"/><path d="M34.067,89.776c0.131,0.011 1.418,-0.85 1.126,-1.128c0.756,-0.747 0.416,1.252 -0.444,0.901c-0.826,1.022 -0.3,2.058 -1.8,2.243c0.534,-0.375 1.356,-1.637 1.118,-2.016" style="fill:#58595b;"/><path d="M192.253,87.527c0.234,0.179 -0.11,1.675 -0.908,1.572c0.492,0.324 -0.275,0.544 0.227,0.678c0.069,0.516 -0.64,0.241 -0.681,0.671c-1.314,-1.132 1.163,-1.875 1.362,-2.921" style="fill:#58595b;"/><path d="M35.442,91.344c0.044,0.399 -0.217,0.461 -0.248,0.223c-0.203,0.069 -0.747,0.84 -0.231,0.909c-0.598,0.227 -1.513,1.641 -2.016,2.677c-0.867,-0.451 0.812,-1.39 0.227,-1.563c1.084,0.073 0.774,-1.754 2.268,-2.246" style="fill:#58595b;"/><path d="M33.405,92.016c-0.615,1.572 -1.768,2.58 -2.711,3.812c-0.502,-0.988 1.06,-1.483 1.81,-2.464c0.361,-0.485 0,-1.379 0.901,-1.348" style="fill:#58595b;"/><path d="M35.64,94.712c-0.124,0.2 -0.262,0.403 0,0.441c-0.138,0.309 -0.475,0.423 -0.891,0.464c0,0.213 0.275,0.172 0.444,0.213c-1.243,2.216 -2.368,2.749 -2.922,5.178c-1.476,1.184 -0.701,3.723 -2.46,4.27c0.716,-1.07 0.692,-3.275 2.251,-4.497c-0.585,-0.488 0.034,-0.622 0.209,-0.898c0.51,-0.712 1.026,-2.339 1.346,-2.921c0.165,-0.254 0.254,-0.034 0.241,0c0.722,-0.894 0.674,-2.071 1.782,-2.25" style="fill:#58595b;"/><path d="M196.742,94.941c-0.495,1.169 -2.143,2.463 -2.931,3.144c-0.558,0.496 -0.516,0.589 -1.118,0.671c0.399,-0.798 1.001,-1.393 2.03,-1.562c-0.059,-0.678 1.183,-1.765 2.019,-2.253" style="fill:#58595b;"/><path d="M32.72,95.382c-0.74,1.287 -1.166,2.863 -1.792,4.277c-0.775,-0.526 0.533,-1.631 0.67,-3.592c1.026,0.413 0.317,-0.898 1.122,-0.685" style="fill:#58595b;"/><path d="M197.868,97.413c0.485,0.282 -0.75,0.733 -0.451,1.573c-1.084,-0.437 0.275,-1.06 0.451,-1.573" style="fill:#58595b;"/><path d="M198.536,101.007c-0.248,0.42 -0.258,1.077 -1.118,0.891c0.626,1.249 -1.576,1.363 -1.576,2.701c-0.193,0.038 -0.21,-0.083 -0.213,-0.224l-0.472,0c-0.024,-0.406 0.293,-0.478 0.241,-0.901c1.418,-0.441 1.635,-2.095 3.138,-2.467" style="fill:#58595b;"/><path d="M197.636,112.241c0.619,0.478 -0.602,0.389 0,1.121c-1.204,0.541 -2.102,1.494 -2.481,2.244c0.117,0.282 0.299,0.471 0.688,0.457c-0.162,0.757 -0.746,0.214 -0.894,-0.237c0.457,-1.259 1.128,-2.295 2.47,-2.687c-0.458,-0.458 0.089,-0.441 0.217,-0.898" style="fill:#58595b;"/><path d="M197.417,118.979l-1.352,0c-1.111,-1.834 1.352,-2.597 2.254,-4.046c1.342,1.239 -1.796,1.971 -1.132,3.148c-0.812,0.248 -0.069,0.138 0.23,0.898" style="fill:#58595b;"/><path d="M195.398,125.044c0.788,0.134 1.197,-1.483 2.47,-1.576c0.626,1.325 -1.761,1.944 -2.026,2.925c-0.107,0.399 0.826,0.467 0.223,0.898c-0.774,0.182 -0.956,-0.241 -1.341,-0.444c-0.203,-0.891 1.31,-1.229 0.674,-1.803" style="fill:#58595b;"/><path d="M178.088,174.474c-0.871,3.02 -4.384,5.518 -4.944,8.986c-0.575,-0.605 0.695,-1.734 0,-2.026c0.788,-1.614 2.198,-2.601 2.477,-4.717c1.152,-0.42 1.765,-1.373 2.467,-2.243" style="fill:#58595b;"/><path d="M129.349,176.046c0.502,0.502 -0.984,1.166 -1.576,0.671c0.007,-0.441 0.602,-0.282 0.44,-0.888c0.286,0.041 1.105,0.65 1.136,0.217" style="fill:#58595b;"/><path d="M110.019,177.625c0.409,0.052 0.616,-0.499 1.569,-0.451c-1.421,1.201 -2.722,3.699 -4.714,3.592c0.602,-1.335 3.107,-1.992 3.145,-3.141" style="fill:#58595b;"/><path d="M109.333,180.767c-0.151,-0.895 0.534,-0.441 0.912,-0.671c1.256,-0.788 1.941,-2.34 3.589,-2.694c0.874,0.041 -0.761,1.063 -1.122,1.345c-0.867,0.881 -1.786,2.563 -3.379,2.02" style="fill:#58595b;"/><path d="M110.019,189.302c0.616,0 -0.54,0.62 0.45,0.451c-0.006,0.22 -0.282,0.172 -0.45,0.224c-0.107,1.331 -1.714,2.859 -2.243,4.49c-0.08,-1.652 1.407,-3.678 2.243,-5.165" style="fill:#58595b;"/><path d="M63.736,193.575c-0.317,0.777 0.182,2.676 -0.675,3.141c0.482,-1.27 -0.175,-2.45 0.675,-3.141" style="fill:#58595b;"/><path d="M99.015,207.952c-1.331,-0.272 0.874,-2.67 -0.454,-3.596c0.416,-1.3 0.76,-2.694 1.562,-3.595c0,-0.217 -0.268,-0.172 -0.451,-0.224c0.083,-1.046 1.143,-1.114 1.576,-1.796c0.895,0.75 -0.74,2.453 -1.125,3.365c0.282,0.647 0.661,-0.977 1.125,-0.22c-1.493,1.603 -1.552,3.485 -2.233,6.066" style="fill:#58595b;"/><path d="M68.668,199.866c0.647,1.38 -2.371,5.147 -0.902,8.085c-0.842,0.238 -0.619,-0.557 -1.334,-0.45c-0.351,-2.983 0.832,-4.996 2.236,-7.635" style="fill:#58595b;"/><path d="M102.375,203.23c-0.334,0.461 -0.224,1.31 -0.444,1.792c-0.017,0.065 -0.43,-0.045 -0.464,0c-0.176,0.413 -0.258,0.936 -0.437,1.359c-0.152,0.344 -0.523,0.74 -0.682,1.118c-0.492,1.167 -0.485,2.804 -1.569,3.603c0.131,0.467 0.644,0.726 0.234,1.114c-0.495,-0.027 -0.485,-0.561 -0.45,-1.114c1.242,-2.65 1.562,-6.218 3.812,-7.872" style="fill:#58595b;"/><path d="M69.811,205.252c0.209,0.286 0.474,3.145 -1.143,2.928c0.375,-1.197 0.585,-1.655 1.143,-2.928" style="fill:#58595b;"/><path d="M86.872,205.932c0.076,-0.354 0.393,0.193 0.451,-0.227c0.392,0.169 0.041,0.406 0,0.675c0.499,-0.179 0.568,-0.792 0.901,-1.129c0.183,0.127 0.375,0.241 0.675,0.227c-0.53,0.675 -1.132,1.27 -1.576,2.023c-0.22,-0.01 -0.169,-0.271 -0.227,-0.45c-0.63,0.44 -2.068,2.532 -0.891,0.901c0.172,-0.241 0.058,-0.808 0.667,-0.901c-0.292,-0.558 0.503,-1.094 0,-1.119" style="fill:#58595b;"/><path d="M115.848,218.516c0.337,1.224 -1.183,3.867 -1.565,5.16c1.586,-0.048 2.257,-1.476 2.257,-2.466c0.798,1.83 -1.036,3.406 -1.59,5.16c-0.426,1.377 -0.309,3.231 -0.894,4.724c-0.014,0.038 -0.43,-0.041 -0.448,0c-0.261,1.129 0.107,2.46 0,3.596c-0.664,-0.117 -0.622,-0.933 -0.664,-1.352c-0.254,-2.526 1.538,-6.183 2.233,-8.764c-0.485,0.338 -0.437,1.208 -1.121,1.353c-1.769,-0.716 -0.141,-3.052 0.227,-4.046c-0.186,-2.97 0.072,-4.893 1.565,-6.964c0.877,0.712 -0.464,1.713 -0.671,2.47c-0.278,1.025 0.121,1.917 -0.227,2.701c0.661,-0.186 0.575,-1.091 0.898,-1.572" style="fill:#58595b;"/><path d="M106.639,220.311c0.574,0.052 -0.3,0.382 0,0.898c-0.558,-0.038 -0.052,-0.767 0,-0.898" style="fill:#58595b;"/><path d="M70.476,227.272c0.375,-0.75 0.76,0.701 0.677,0.227c0.042,0.278 -0.887,1.049 -0.901,1.125c-0.069,0.196 0.175,0.516 0.224,0.447c-0.465,0.891 -1.291,1.775 -0.224,2.47c-2.336,-0.007 0.85,-3.888 0.224,-4.269" style="fill:#58595b;"/><path d="M75.643,240.98c0.984,-1.562 3.093,-1.982 4.941,-2.697c-0.905,0.829 -2.336,1.111 -2.914,2.246c-0.733,0.104 -1.235,0.427 -2.027,0.451" style="fill:#58595b;"/><path d="M126.415,241.427c-0.268,0.702 0.124,0.967 -0.444,1.579c-0.051,0.864 -0.337,-1.83 0.444,-1.579" style="fill:#58595b;"/><path d="M118.997,258.505c-0.816,1.449 -3.764,2.044 -4.714,4.043c-1.806,0.447 -2.436,2.051 -3.816,2.921c-0.375,-2.099 3.021,-2.367 3.586,-4.277c0.705,-0.189 1.579,-0.22 1.586,-1.111c1.782,0.141 1.923,-1.366 3.358,-1.576" style="fill:#58595b;"/><path d="M118.778,265.019c-0.079,0.519 -0.977,0.217 -1.115,0.671c-0.602,-0.809 0.53,-0.386 1.115,-0.671" style="fill:#58595b;"/><path d="M108.443,271.088c-0.478,0.606 -1.779,0.138 -1.345,-0.901c2.646,-0.75 3.829,-1.586 6.733,-2.03c-1.927,0.925 -3.606,2.088 -5.839,2.708c0.021,0.22 0.265,0.168 0.451,0.223" style="fill:#58595b;"/><path d="M97.217,273.333c1.002,-0.176 1.511,0.347 0.214,0.224c-0.045,0.196 0.1,0.206 0.22,0.223c-0.141,0.303 -0.465,0.413 -0.884,0.447c0.079,-0.347 0.695,-0.189 0.45,-0.894" style="fill:#58595b;"/><path d="M94.066,275.806c-0.038,0.794 -1.012,0.636 -1.569,0.901c0.241,-0.575 1.132,-0.506 1.569,-0.901" style="fill:#58595b;"/><path d="M100.349,274.228c1.025,0.358 -0.296,0.84 -1.111,0.674c-0.042,-0.639 1.462,0.269 1.111,-0.674" style="fill:#58595b;"/><path d="M130.693,284.792c-1.291,-0.362 2.353,-1.359 3.357,-1.569c-1.964,0.898 -3.148,2.453 -5.608,2.243c0.547,-0.423 1.752,-0.189 2.251,-0.674" style="fill:#58595b;"/><path d="M107.993,283.891c0.956,-0.161 -1.731,0.296 0,0" style="fill:#58595b;"/><path d="M111.37,283.891c0.743,0.334 -0.386,0.637 -0.461,0.902c-0.609,-0.21 0.529,-0.503 0.461,-0.902" style="fill:#58595b;"/><path d="M130.467,294.675c0.159,0.616 -1.066,-0.162 -0.901,0.451c-0.55,-0.179 0.702,-0.922 0.901,-0.451" style="fill:#58595b;"/><path d="M132.944,296.022c-0.472,0.375 -1.088,0.575 -1.366,1.129c-0.42,-0.375 0.626,-1.16 1.366,-1.129" style="fill:#58595b;"/><path d="M132.251,315.122c-0.048,-0.389 0.386,-0.578 0,-0.671c0.348,-0.261 0.551,-0.647 1.129,-0.678c2.56,-2.862 5.498,-5.405 8.763,-6.967c-0.64,1.084 -2.78,1.858 -2.924,2.705c-1.676,0.543 -3.42,3.347 -5.839,4.486c0,0.747 -0.375,1.122 -1.129,1.125" style="fill:#58595b;"/><path d="M97.651,310.183c-0.389,-0.069 -0.458,0.21 -0.22,0.223c-0.238,0.513 -1.005,1.16 -1.559,0.675c0.798,-0.437 0.833,-0.255 1.115,-1.129c0.313,-0.02 0.63,-0.031 0.664,0.231" style="fill:#58595b;"/><path d="M101.468,309.509c0.271,0.1 -2.223,1.149 -2.454,2.243c-0.588,-0.609 -0.684,0.276 -1.362,0.227c-0.289,-0.529 1.82,-0.574 1.586,-1.795c0.932,0.498 1.091,-0.754 2.23,-0.675" style="fill:#58595b;"/><path d="M33.174,106.843c-0.534,2.326 -2.295,4.569 -1.576,7.414c0.499,-0.185 0.371,-0.984 0.671,-1.345c0.798,2.188 0.292,4.727 0.45,7.198c0.923,0.161 0.788,-0.73 1.814,-0.454c-0.929,3.509 1.434,6.698 0.908,9.891c-0.475,-3.526 -2.051,-5.666 -2.037,-8.77l-1.135,0c-1.008,-2.677 0.275,-4.011 -1.576,-5.618c0.612,-1.765 0.027,-3.96 0.678,-5.165c0.031,-0.048 0.364,0.289 0.45,0.224c0.431,-1.641 -0.251,-3.01 1.353,-3.375" style="fill:#58595b;"/><path d="M99.455,182.786c0.399,0.416 0.974,-1.153 1.793,-0.447c-0.568,1.304 -1.442,2.301 -2.233,3.371c0.499,0.503 0.722,-1.197 1.792,-0.904c0.382,0.67 -0.502,1.655 -0.684,2.473c0.767,0.176 0.299,-0.908 1.125,-0.667c0.877,1.744 -1.208,2.329 -1.342,3.815c0.444,0.647 0.351,-1.131 1.342,-0.674c0.378,0.84 -0.919,1.71 -1.125,2.701c0.182,0.767 1.156,-0.145 1.582,0.671c-0.657,1.586 -0.591,2.174 -0.898,3.368l-1.352,0c0.183,-0.939 0.743,-1.5 1.125,-2.253c-0.034,-0.492 -0.949,-0.09 -1.342,-0.221c-0.509,-1.441 0.702,-3.657 -1.352,-3.819c-0.158,-1.128 0.399,-1.548 0.675,-2.246c-0.035,-0.417 -0.757,-0.141 -0.909,-0.451c0.544,-0.829 0.503,-2.35 1.129,-2.467c-0.035,-0.423 -0.754,-0.144 -0.895,-0.447c0.351,-1.824 1.545,-2.794 2.237,-4.273c0.684,-0.51 1.379,0.326 1.582,-0.444c0.688,0.22 -0.254,0.598 -0.237,0.894c1.689,-0.048 1.834,-1.61 3.158,-2.019c-0.698,1.173 -1.792,3.141 -3.595,2.467c-0.895,0.172 -1.08,1.021 -1.576,1.572" style="fill:#58595b;"/><path d="M157.878,222.552c0.399,-0.024 0.475,0.279 0.901,0.231c-0.354,0.846 -0.653,1.538 -1.352,2.467c0.516,0.788 1.16,-0.85 1.793,0c-0.723,1.751 -2.068,2.869 -3.379,4.046c0.1,0.767 -0.058,1.287 -0.895,1.128c-0.406,-1.293 0.823,-2.339 1.803,-3.375c-0.227,-0.371 -0.956,-0.241 -1.352,-0.447c0.227,-1.944 1.923,-2.432 2.481,-4.05" style="fill:#58595b;"/><path d="M156.974,229.523c0.069,-0.523 1.001,-0.138 1.118,0c-0.079,1.187 -1.001,1.531 -1.789,2.019c0.196,0.62 0.826,-0.433 0.895,0.448c-0.382,0.653 -1.036,1.073 -1.8,1.345c0.392,0.599 0.454,0.234 1.129,0.678c-1.473,0.733 -3.406,2.109 -5.175,1.799c0.22,-0.702 0.967,-0.705 0.458,-1.569c1.286,-0.203 1.954,-1.039 2.914,-1.569c-0.884,-1.692 2.77,-1.84 2.25,-3.151" style="fill:#58595b;"/><path d="M138.42,112.526c-0.21,0.644 -0.433,1.277 -0.578,1.937c-0.64,0.909 -1.015,1.793 -1.269,2.657c-0.265,0.911 -0.348,0.87 -0.62,1.613c0.011,-0.02 0.207,0.131 0.166,0.279c-0.024,0.076 -0.403,0.117 -0.424,0.168c-0.044,0.128 0.186,0.176 0.162,0.276c-0.01,0.038 -0.265,0.103 -0.275,0.161c-0.189,0.922 -0.196,2.357 -1.084,3.358c-0.017,1.869 -1.19,3.53 -1.424,4.817c-0.004,-0.079 -0.128,-0.155 -0.145,0.007c-0.01,1.665 -1.094,3.523 -1.662,5.55c-0.086,0.299 0.031,0.746 -0.075,1.149c-0.1,0.396 -0.441,0.712 -0.506,1.035c-0.127,0.616 0.062,1.243 -0.031,1.862c-0.089,0.629 -0.471,1.121 -0.609,1.758c-0.433,1.989 -0.224,3.664 -1.118,5.082c0.492,1.204 -0.217,2.222 -0.386,3.031c-0.12,0.561 -0.137,1.177 -0.185,1.73c-0.172,2.116 -0.193,4.06 -0.644,5.77c-0.065,0.633 0.276,-0.134 0.3,0.269c-0.658,1.18 -0.444,1.723 -0.1,3.014c-0.705,0.966 -0.475,2.002 -0.509,3.327c-0.055,1.837 -0.2,3.389 -0.272,4.885c-0.114,2.157 0.162,3.75 0.316,5.14c0.303,2.877 -0.137,5.791 0.764,7.831c0.503,-0.994 0.107,-2.319 0.086,-3.299c-0.007,-0.269 0.227,-0.589 0.231,-0.874c0.003,-0.564 -0.227,-1.211 -0.258,-1.848c-0.107,-2.284 -0.018,-4.651 0.027,-6.589c0.014,-0.87 -0.206,-1.768 -0.158,-2.57c0.052,-0.932 0.334,-1.785 0.402,-2.745c0.138,-1.868 0.059,-6.331 0.386,-7.762c0.616,-2.753 0.771,-5.202 0.936,-8.079c0.877,-0.856 0.423,-2.501 0.509,-3.327c0.144,-1.386 0.674,-2.859 1.032,-4.218c0.502,-1.899 1.366,-4.111 1.091,-5.508c0.777,-1.101 0.371,-1.751 1.121,-2.79c-0.371,-0.331 -0.103,-0.527 0.1,-0.723c0.065,-0.065 -0.076,-0.347 -0.027,-0.43c0.326,-0.588 0.474,-1.276 0.732,-2.051c0.166,-0.488 0.434,-0.956 0.627,-1.469c1.049,-2.787 2.143,-6.021 3.024,-9.069c0.66,-0.647 0.936,-1.638 1.269,-2.577c-0.323,-0.248 -0.626,-0.509 -0.922,-0.778" style="fill:#58595b;"/><path d="M98.02,167.275c-0.075,-1.517 -0.22,-3.09 -0.278,-4.955c-0.035,-1.341 0.196,-2.391 -0.513,-3.371c0.344,-1.308 0.558,-1.858 -0.1,-3.056c0.024,-0.406 0.365,0.369 0.3,-0.271c-0.454,-1.734 -0.479,-3.706 -0.651,-5.849c-0.048,-0.561 -0.065,-1.187 -0.185,-1.755c-0.169,-0.819 -0.881,-1.855 -0.389,-3.076c-0.895,-1.438 -0.692,-3.134 -1.122,-5.15c-0.144,-0.647 -0.523,-1.146 -0.612,-1.783c-0.093,-0.629 0.096,-1.262 -0.031,-1.889c-0.066,-0.326 -0.406,-0.646 -0.509,-1.049c-0.107,-0.409 0.007,-0.86 -0.076,-1.166c-0.568,-2.051 -1.655,-3.936 -1.665,-5.626c-0.017,-0.165 -0.141,-0.089 -0.145,-0.007c-0.237,-1.303 -1.41,-2.993 -1.431,-4.885c-0.888,-1.015 -0.895,-2.47 -1.084,-3.406c-0.01,-0.059 -0.265,-0.128 -0.275,-0.162c-0.024,-0.103 0.206,-0.151 0.162,-0.282c-0.021,-0.052 -0.4,-0.093 -0.424,-0.172c-0.044,-0.148 0.152,-0.303 0.162,-0.279c-0.272,-0.753 -0.354,-0.712 -0.619,-1.638c-0.255,-0.873 -0.63,-1.775 -1.273,-2.694c-0.066,-0.299 -0.183,-0.581 -0.258,-0.873c-0.313,0.161 -0.63,0.32 -0.957,0.461c0.238,0.695 0.503,1.369 0.988,1.851c0.881,3.089 1.978,6.368 3.031,9.196c0.193,0.52 0.461,0.995 0.626,1.49c0.262,0.785 0.409,1.48 0.736,2.078c0.049,0.086 -0.093,0.368 -0.027,0.437c0.203,0.196 0.471,0.396 0.1,0.733c0.75,1.056 0.347,1.713 1.125,2.828c-0.276,1.414 0.591,3.657 1.094,5.588c0.358,1.376 0.891,2.869 1.035,4.276c0.09,0.836 -0.364,2.502 0.513,3.372c0.169,2.918 0.327,5.398 0.943,8.192c0.327,1.448 0.254,5.973 0.392,7.869c0.065,0.973 0.351,1.837 0.406,2.783c0.048,0.812 -0.176,1.724 -0.155,2.605c0.045,1.964 0.138,4.366 0.031,6.681c-0.031,0.644 -0.258,1.297 -0.255,1.872c0.004,0.289 0.238,0.612 0.231,0.884c-0.024,0.994 -0.416,2.336 0.086,3.348c0.898,-2.068 0.458,-5.024 0.76,-7.941c0.152,-1.407 0.427,-3.024 0.313,-5.209" style="fill:#58595b;"/><path d="M125.73,110.336c0.134,-1.817 -0.217,-2.436 -0.843,-4.101c0.447,-0.475 1.194,-0.692 1.235,-1.511c-0.096,-0.602 -0.784,-0.557 -0.812,-1.238c1.435,-0.916 0.833,-2.804 1.514,-4.25c1.345,0 1.039,0.96 1.318,2.213c-0.317,0.629 -0.898,1.035 -0.764,2.054c0.182,0.512 1.049,0.275 1.094,0.936c0.058,0.904 -0.389,1.376 -1.235,1.507c0,0.543 -0.069,1.021 -0.21,1.448c0.127,0.468 0.502,0.668 0.661,1.104c0.405,1.786 -1.095,1.944 -0.971,3.496c0.437,0.716 0.743,1.005 0.706,1.82c-0.045,1.053 -1.779,2.467 -0.055,3.871c1.837,0.007 5.14,0.103 7.256,0.127c0.997,0.01 2.332,-0.427 2.26,0.719c-3.317,0.771 -5.666,0.547 -9.895,0.324c-0.21,1.218 0.286,2.212 0.334,2.986c0.12,1.913 -0.754,4.029 -0.661,6.059c0.007,0.275 0.293,0.547 0.344,0.836c0.176,1.015 0.086,2.412 0.066,3.437c-0.014,0.805 0.02,1.686 -0.589,2.47c-0.695,-0.251 -0.96,-0.98 -1.421,-1.486c0.265,-2.556 -0.185,-4.063 0.066,-6.165c0.041,-0.358 0.361,-0.668 0.382,-1.029c0.024,-0.592 -0.41,-1.098 -0.269,-1.844c0.134,-0.472 0.389,-0.843 0.671,-1.187c0.148,-0.386 -0.495,-0.585 0.114,-0.582c-0.485,-1.063 -1.06,-2.305 -1.222,-2.931c-1.169,0.292 -2.546,0.378 -3.261,-0.231c-1.494,0.726 -3.888,0.737 -5.041,-0.12c-1.717,0.592 -3.612,1.221 -5.03,0.021c-1.063,0.437 -1.985,0.715 -3.213,0.629c-0.565,-0.038 -1.101,-0.444 -1.655,-0.471c-1.545,-0.076 -3.097,0.492 -4.415,0.413c-0.031,1.159 -0.45,2.535 0.334,2.99c0.148,0.622 -0.444,0.612 -0.526,1.032c0.124,2.701 -0.778,4.813 -0.733,7.356c0.007,0.347 0.244,0.667 0.206,0.987c-0.048,0.434 -0.392,0.853 -0.505,1.321c-0.128,0.496 0.254,1.167 -0.358,1.456c-1.545,-0.344 -0.437,-2.195 -0.503,-3.41c-0.055,-0.877 -0.523,-1.517 -0.306,-2.56c0.117,-0.578 0.637,-0.87 0.644,-1.469c0.02,-1.183 -1.057,-2.006 -0.933,-3.241c0.427,-0.33 0.53,-1.011 0.84,-0.767c0.241,-0.76 -0.465,-0.888 -0.688,-1.531c-0.014,-0.496 0.017,-1.029 -0.365,-1.125c-2.653,0.54 -6.499,0.681 -10.143,1.053c-0.014,-0.238 -0.027,-0.475 -0.045,-0.716c0.355,-0.619 1.201,-0.437 1.889,-0.544c2.502,-0.385 6.138,-0.44 8.646,-1.39c0.382,-0.055 0.444,-0.643 0.544,-0.75c0.392,-0.419 0.279,-0.997 0.337,-1.741c0.021,-0.244 0.248,-0.578 0.251,-0.732c0.007,-0.307 -0.227,-0.558 -0.199,-0.847c0.069,-0.643 0.402,-1.149 0.344,-1.596c-0.062,-0.534 -0.558,-0.933 -0.389,-1.552c0.327,-0.107 0.059,-0.612 0.231,-1.018c0.096,-0.221 0.474,-0.372 0.554,-0.606c0.065,-0.182 -0.355,0.11 -0.303,-0.124c0.024,-0.089 0.416,-0.237 0.426,-0.313c0.035,-0.248 0.09,-1.531 0.038,-1.72c-0.251,-1.029 -1.245,-1.573 -1.201,-2.79c0.011,-0.372 0.245,-0.406 0.396,-0.744c0.103,-0.223 0.007,-0.378 0.114,-0.581c0.192,-0.351 0.622,-0.588 0.819,-1.053c0.024,-0.048 -0.231,-0.213 -0.166,-0.275c0.393,-0.351 0.166,-1.098 0.341,-1.741c0.31,-1.135 0.963,-1.865 1.307,-2.801c0.909,-0.23 1.225,0.176 1.655,0.472c0.307,2.381 -1.149,3.254 -2.085,4.569c0.042,1.342 -0.237,2.408 -0.065,3.87c0.929,0.836 1.676,3.279 -0.217,3.596c-0.402,2.36 -0.217,5.226 -0.254,7.892c0.622,-0.044 2.48,0.152 3.684,-0.223c-0.037,-0.571 -0.072,-1.142 -0.103,-1.714c0.946,-1.441 3.227,-0.853 3.145,0.664c-0.059,0.585 -0.578,0.768 -0.812,1.198c0.912,0.413 1.211,0.024 2.367,-0.004c0.169,-0.843 -0.23,-2.738 1.001,-2.924c1.184,-0.176 1.996,1.627 0.909,2.666c0.705,0.974 2.618,0.523 3.385,-0.206c-0.602,-1.517 0.189,-3.169 2.199,-2.715c0.622,0.991 0.134,2.268 -0.406,3.035c0.633,0.179 1.538,0.684 2.828,0.254c0.192,-1.173 -0.128,-3.468 1.404,-3.667c0.66,-0.09 1.028,0.375 1.531,0.905c-0.045,1.042 -0.162,2.026 -0.726,2.628c1.424,0.919 3.399,-1.066 2.343,-2.866c0.598,-0.354 0.375,-1.128 0.801,-1.342c-0.137,-0.151 -0.488,0.042 -0.013,-0.282c-0.086,-0.764 -1.077,-1.809 -0.492,-3.12c0.216,-0.485 0.289,-0.967 0.564,-0.468" style="fill:#ed1c24;"/><path d="M103.336,99.822c-0.561,0.836 0.275,0.393 0,0" style="fill:#ed1c24;"/><path d="M107.075,117.355c0.09,-0.259 0.138,-0.451 -0.034,-0.572c-0.11,0.262 -0.465,0.475 0.034,0.572" style="fill:#ed1c24;"/><path d="M121.701,117.029c0.031,-0.196 -0.12,-0.551 -0.161,-0.276c-0.031,0.2 0.123,0.551 0.161,0.276" style="fill:#ed1c24;"/></g></svg>